ISO-10303-21;
HEADER;
/* Generated by software containing ST-Developer
 * from STEP Tools, Inc. (www.steptools.com) 
 */
/* OPTION: using custom renumber hook */

FILE_DESCRIPTION(
/* description */ ('STEP AP242 Edition 2',
'CAx-IF Rec.Pracs.---Representation and Presentation of Product Manufa
cturing Information (PMI)---4.0---2014-10-13',
'CAx-IF Rec.Pracs.---3D Tessellated Geometry---0.4---2014-09-14','2;1',
'CAx-IF Rec.Pracs.---User Defined Attributes---1.5---2016-08-15'),
/* implementation_level */ '2;1');

FILE_NAME(
/* name */ 'MunchMoir - SwitchBase',
/* time_stamp */ '2026-09-19T09:01:34Z',
/* author */ (''),
/* organization */ (''),
/* preprocessor_version */ 'ST-DEVELOPER v20',
/* originating_system */ 'ONSHAPE BY PTC INC, 1.221',
/* authorisation */ '  ');

FILE_SCHEMA (('AP242_MANAGED_MODEL_BASED_3D_ENGINEERING_MIM_LF { 1 0 10303 442 3 1 4 }'));
ENDSEC;

DATA;
#10=SHAPE_REPRESENTATION_RELATIONSHIP('','',#797,#11);
#11=ADVANCED_BREP_SHAPE_REPRESENTATION('',(#795),#1357);
#12=CONICAL_SURFACE('',#866,0.00145,0.785398163397449);
#13=CONICAL_SURFACE('',#867,0.002175,0.785398163397448);
#14=B_SPLINE_SURFACE_WITH_KNOTS('',3,1,((#1270,#1271),(#1272,#1273),(#1274,
#1275),(#1276,#1277),(#1278,#1279),(#1280,#1281),(#1282,#1283)),
 .SURF_OF_LINEAR_EXTRUSION.,.F.,.F.,.F.,(4,1,1,1,4),(2,2),(0.263731595684247,
0.917263961239572,1.5707963267949,2.22432869235022,2.87786105790555),(0.,
1.),.UNSPECIFIED.);
#15=ELLIPSE('',#804,0.0061,0.00175);
#16=ELLIPSE('',#841,0.0061,0.00175);
#17=PLANE('',#802);
#18=PLANE('',#803);
#19=PLANE('',#819);
#20=PLANE('',#820);
#21=PLANE('',#821);
#22=PLANE('',#822);
#23=PLANE('',#829);
#24=PLANE('',#830);
#25=PLANE('',#831);
#26=PLANE('',#832);
#27=PLANE('',#833);
#28=PLANE('',#834);
#29=PLANE('',#837);
#30=PLANE('',#840);
#31=PLANE('',#842);
#32=PLANE('',#845);
#33=PLANE('',#848);
#34=PLANE('',#849);
#35=PLANE('',#853);
#36=PLANE('',#854);
#37=PLANE('',#864);
#38=PLANE('',#870);
#39=PLANE('',#871);
#40=CIRCLE('',#800,0.000106066017177982);
#41=CIRCLE('',#801,0.000106066017177982);
#42=CIRCLE('',#805,0.00145);
#43=CIRCLE('',#806,0.0003);
#44=CIRCLE('',#807,0.0003);
#45=CIRCLE('',#808,0.00145);
#46=CIRCLE('',#809,0.0029);
#47=CIRCLE('',#810,0.00145);
#48=CIRCLE('',#811,0.00145);
#49=CIRCLE('',#812,0.00145);
#50=CIRCLE('',#813,0.00145);
#51=CIRCLE('',#814,0.0029);
#52=CIRCLE('',#815,0.00145);
#53=CIRCLE('',#816,0.0003);
#54=CIRCLE('',#817,0.0003);
#55=CIRCLE('',#818,0.00145);
#56=CIRCLE('',#823,0.00145);
#57=CIRCLE('',#824,0.00145);
#58=CIRCLE('',#825,0.00145);
#59=CIRCLE('',#826,0.00145);
#60=CIRCLE('',#827,0.0029);
#61=CIRCLE('',#828,0.0029);
#62=CIRCLE('',#836,0.0003);
#63=CIRCLE('',#839,0.0003);
#64=CIRCLE('',#844,0.0003);
#65=CIRCLE('',#847,0.0003);
#66=CIRCLE('',#851,0.00145);
#67=CIRCLE('',#852,0.00145);
#68=CIRCLE('',#855,0.00145);
#69=CIRCLE('',#856,0.0029);
#70=CIRCLE('',#857,0.0029);
#71=CIRCLE('',#858,0.00145);
#72=CIRCLE('',#859,0.00145);
#73=CIRCLE('',#860,0.00145);
#74=CIRCLE('',#861,0.002175);
#75=CIRCLE('',#865,0.000966666666666666);
#76=ORIENTED_EDGE('',*,*,#300,.F.);
#77=ORIENTED_EDGE('',*,*,#301,.T.);
#78=ORIENTED_EDGE('',*,*,#302,.F.);
#79=ORIENTED_EDGE('',*,*,#303,.F.);
#80=ORIENTED_EDGE('',*,*,#304,.T.);
#81=ORIENTED_EDGE('',*,*,#305,.T.);
#82=ORIENTED_EDGE('',*,*,#306,.T.);
#83=ORIENTED_EDGE('',*,*,#307,.F.);
#84=ORIENTED_EDGE('',*,*,#308,.T.);
#85=ORIENTED_EDGE('',*,*,#309,.T.);
#86=ORIENTED_EDGE('',*,*,#310,.T.);
#87=ORIENTED_EDGE('',*,*,#311,.T.);
#88=ORIENTED_EDGE('',*,*,#312,.T.);
#89=ORIENTED_EDGE('',*,*,#313,.T.);
#90=ORIENTED_EDGE('',*,*,#314,.T.);
#91=ORIENTED_EDGE('',*,*,#315,.F.);
#92=ORIENTED_EDGE('',*,*,#316,.F.);
#93=ORIENTED_EDGE('',*,*,#317,.F.);
#94=ORIENTED_EDGE('',*,*,#318,.F.);
#95=ORIENTED_EDGE('',*,*,#319,.T.);
#96=ORIENTED_EDGE('',*,*,#320,.T.);
#97=ORIENTED_EDGE('',*,*,#321,.F.);
#98=ORIENTED_EDGE('',*,*,#322,.T.);
#99=ORIENTED_EDGE('',*,*,#323,.T.);
#100=ORIENTED_EDGE('',*,*,#324,.T.);
#101=ORIENTED_EDGE('',*,*,#325,.T.);
#102=ORIENTED_EDGE('',*,*,#326,.T.);
#103=ORIENTED_EDGE('',*,*,#327,.T.);
#104=ORIENTED_EDGE('',*,*,#328,.T.);
#105=ORIENTED_EDGE('',*,*,#329,.T.);
#106=ORIENTED_EDGE('',*,*,#330,.T.);
#107=ORIENTED_EDGE('',*,*,#331,.T.);
#108=ORIENTED_EDGE('',*,*,#332,.T.);
#109=ORIENTED_EDGE('',*,*,#303,.T.);
#110=ORIENTED_EDGE('',*,*,#333,.T.);
#111=ORIENTED_EDGE('',*,*,#334,.T.);
#112=ORIENTED_EDGE('',*,*,#335,.F.);
#113=ORIENTED_EDGE('',*,*,#336,.T.);
#114=ORIENTED_EDGE('',*,*,#337,.F.);
#115=ORIENTED_EDGE('',*,*,#338,.T.);
#116=ORIENTED_EDGE('',*,*,#339,.F.);
#117=ORIENTED_EDGE('',*,*,#340,.T.);
#118=ORIENTED_EDGE('',*,*,#341,.F.);
#119=ORIENTED_EDGE('',*,*,#342,.T.);
#120=ORIENTED_EDGE('',*,*,#321,.T.);
#121=ORIENTED_EDGE('',*,*,#343,.T.);
#122=ORIENTED_EDGE('',*,*,#344,.T.);
#123=ORIENTED_EDGE('',*,*,#345,.T.);
#124=ORIENTED_EDGE('',*,*,#325,.F.);
#125=ORIENTED_EDGE('',*,*,#346,.T.);
#126=ORIENTED_EDGE('',*,*,#329,.F.);
#127=ORIENTED_EDGE('',*,*,#347,.T.);
#128=ORIENTED_EDGE('',*,*,#348,.T.);
#129=ORIENTED_EDGE('',*,*,#349,.T.);
#130=ORIENTED_EDGE('',*,*,#348,.F.);
#131=ORIENTED_EDGE('',*,*,#350,.T.);
#132=ORIENTED_EDGE('',*,*,#351,.T.);
#133=ORIENTED_EDGE('',*,*,#352,.T.);
#134=ORIENTED_EDGE('',*,*,#344,.F.);
#135=ORIENTED_EDGE('',*,*,#353,.T.);
#136=ORIENTED_EDGE('',*,*,#354,.T.);
#137=ORIENTED_EDGE('',*,*,#355,.T.);
#138=ORIENTED_EDGE('',*,*,#341,.T.);
#139=ORIENTED_EDGE('',*,*,#356,.T.);
#140=ORIENTED_EDGE('',*,*,#307,.T.);
#141=ORIENTED_EDGE('',*,*,#357,.T.);
#142=ORIENTED_EDGE('',*,*,#358,.F.);
#143=ORIENTED_EDGE('',*,*,#300,.T.);
#144=ORIENTED_EDGE('',*,*,#332,.F.);
#145=ORIENTED_EDGE('',*,*,#359,.T.);
#146=ORIENTED_EDGE('',*,*,#360,.T.);
#147=ORIENTED_EDGE('',*,*,#361,.T.);
#148=ORIENTED_EDGE('',*,*,#318,.T.);
#149=ORIENTED_EDGE('',*,*,#362,.T.);
#150=ORIENTED_EDGE('',*,*,#317,.T.);
#151=ORIENTED_EDGE('',*,*,#363,.T.);
#152=ORIENTED_EDGE('',*,*,#364,.T.);
#153=ORIENTED_EDGE('',*,*,#362,.F.);
#154=ORIENTED_EDGE('',*,*,#316,.T.);
#155=ORIENTED_EDGE('',*,*,#365,.T.);
#156=ORIENTED_EDGE('',*,*,#366,.T.);
#157=ORIENTED_EDGE('',*,*,#363,.F.);
#158=ORIENTED_EDGE('',*,*,#315,.T.);
#159=ORIENTED_EDGE('',*,*,#367,.T.);
#160=ORIENTED_EDGE('',*,*,#368,.T.);
#161=ORIENTED_EDGE('',*,*,#365,.F.);
#162=ORIENTED_EDGE('',*,*,#369,.T.);
#163=ORIENTED_EDGE('',*,*,#370,.F.);
#164=ORIENTED_EDGE('',*,*,#367,.F.);
#165=ORIENTED_EDGE('',*,*,#314,.F.);
#166=ORIENTED_EDGE('',*,*,#371,.T.);
#167=ORIENTED_EDGE('',*,*,#372,.F.);
#168=ORIENTED_EDGE('',*,*,#369,.F.);
#169=ORIENTED_EDGE('',*,*,#313,.F.);
#170=ORIENTED_EDGE('',*,*,#373,.T.);
#171=ORIENTED_EDGE('',*,*,#374,.F.);
#172=ORIENTED_EDGE('',*,*,#371,.F.);
#173=ORIENTED_EDGE('',*,*,#312,.F.);
#174=ORIENTED_EDGE('',*,*,#375,.T.);
#175=ORIENTED_EDGE('',*,*,#376,.F.);
#176=ORIENTED_EDGE('',*,*,#373,.F.);
#177=ORIENTED_EDGE('',*,*,#311,.F.);
#178=ORIENTED_EDGE('',*,*,#310,.F.);
#179=ORIENTED_EDGE('',*,*,#377,.T.);
#180=ORIENTED_EDGE('',*,*,#378,.F.);
#181=ORIENTED_EDGE('',*,*,#375,.F.);
#182=ORIENTED_EDGE('',*,*,#379,.F.);
#183=ORIENTED_EDGE('',*,*,#380,.T.);
#184=ORIENTED_EDGE('',*,*,#308,.F.);
#185=ORIENTED_EDGE('',*,*,#381,.T.);
#186=ORIENTED_EDGE('',*,*,#382,.T.);
#187=ORIENTED_EDGE('',*,*,#383,.T.);
#188=ORIENTED_EDGE('',*,*,#339,.T.);
#189=ORIENTED_EDGE('',*,*,#384,.T.);
#190=ORIENTED_EDGE('',*,*,#385,.T.);
#191=ORIENTED_EDGE('',*,*,#386,.F.);
#192=ORIENTED_EDGE('',*,*,#384,.F.);
#193=ORIENTED_EDGE('',*,*,#338,.F.);
#194=ORIENTED_EDGE('',*,*,#337,.T.);
#195=ORIENTED_EDGE('',*,*,#387,.T.);
#196=ORIENTED_EDGE('',*,*,#388,.T.);
#197=ORIENTED_EDGE('',*,*,#385,.F.);
#198=ORIENTED_EDGE('',*,*,#389,.T.);
#199=ORIENTED_EDGE('',*,*,#390,.F.);
#200=ORIENTED_EDGE('',*,*,#387,.F.);
#201=ORIENTED_EDGE('',*,*,#336,.F.);
#202=ORIENTED_EDGE('',*,*,#335,.T.);
#203=ORIENTED_EDGE('',*,*,#391,.T.);
#204=ORIENTED_EDGE('',*,*,#392,.T.);
#205=ORIENTED_EDGE('',*,*,#389,.F.);
#206=ORIENTED_EDGE('',*,*,#393,.T.);
#207=ORIENTED_EDGE('',*,*,#394,.F.);
#208=ORIENTED_EDGE('',*,*,#391,.F.);
#209=ORIENTED_EDGE('',*,*,#334,.F.);
#210=ORIENTED_EDGE('',*,*,#395,.T.);
#211=ORIENTED_EDGE('',*,*,#396,.T.);
#212=ORIENTED_EDGE('',*,*,#333,.F.);
#213=ORIENTED_EDGE('',*,*,#302,.T.);
#214=ORIENTED_EDGE('',*,*,#397,.F.);
#215=ORIENTED_EDGE('',*,*,#393,.F.);
#216=ORIENTED_EDGE('',*,*,#301,.F.);
#217=ORIENTED_EDGE('',*,*,#358,.T.);
#218=ORIENTED_EDGE('',*,*,#398,.T.);
#219=ORIENTED_EDGE('',*,*,#399,.F.);
#220=ORIENTED_EDGE('',*,*,#305,.F.);
#221=ORIENTED_EDGE('',*,*,#400,.F.);
#222=ORIENTED_EDGE('',*,*,#401,.T.);
#223=ORIENTED_EDGE('',*,*,#360,.F.);
#224=ORIENTED_EDGE('',*,*,#364,.F.);
#225=ORIENTED_EDGE('',*,*,#366,.F.);
#226=ORIENTED_EDGE('',*,*,#368,.F.);
#227=ORIENTED_EDGE('',*,*,#370,.T.);
#228=ORIENTED_EDGE('',*,*,#372,.T.);
#229=ORIENTED_EDGE('',*,*,#374,.T.);
#230=ORIENTED_EDGE('',*,*,#376,.T.);
#231=ORIENTED_EDGE('',*,*,#378,.T.);
#232=ORIENTED_EDGE('',*,*,#402,.T.);
#233=ORIENTED_EDGE('',*,*,#379,.T.);
#234=ORIENTED_EDGE('',*,*,#403,.T.);
#235=ORIENTED_EDGE('',*,*,#382,.F.);
#236=ORIENTED_EDGE('',*,*,#386,.T.);
#237=ORIENTED_EDGE('',*,*,#388,.F.);
#238=ORIENTED_EDGE('',*,*,#390,.T.);
#239=ORIENTED_EDGE('',*,*,#392,.F.);
#240=ORIENTED_EDGE('',*,*,#394,.T.);
#241=ORIENTED_EDGE('',*,*,#397,.T.);
#242=ORIENTED_EDGE('',*,*,#404,.T.);
#243=ORIENTED_EDGE('',*,*,#320,.F.);
#244=ORIENTED_EDGE('',*,*,#405,.T.);
#245=ORIENTED_EDGE('',*,*,#400,.T.);
#246=ORIENTED_EDGE('',*,*,#304,.F.);
#247=ORIENTED_EDGE('',*,*,#356,.F.);
#248=ORIENTED_EDGE('',*,*,#343,.F.);
#249=ORIENTED_EDGE('',*,*,#306,.F.);
#250=ORIENTED_EDGE('',*,*,#399,.T.);
#251=ORIENTED_EDGE('',*,*,#406,.T.);
#252=ORIENTED_EDGE('',*,*,#330,.F.);
#253=ORIENTED_EDGE('',*,*,#349,.F.);
#254=ORIENTED_EDGE('',*,*,#357,.F.);
#255=ORIENTED_EDGE('',*,*,#407,.T.);
#256=ORIENTED_EDGE('',*,*,#407,.F.);
#257=ORIENTED_EDGE('',*,*,#396,.F.);
#258=ORIENTED_EDGE('',*,*,#395,.F.);
#259=ORIENTED_EDGE('',*,*,#404,.F.);
#260=ORIENTED_EDGE('',*,*,#319,.F.);
#261=ORIENTED_EDGE('',*,*,#361,.F.);
#262=ORIENTED_EDGE('',*,*,#401,.F.);
#263=ORIENTED_EDGE('',*,*,#405,.F.);
#264=ORIENTED_EDGE('',*,*,#331,.F.);
#265=ORIENTED_EDGE('',*,*,#406,.F.);
#266=ORIENTED_EDGE('',*,*,#398,.F.);
#267=ORIENTED_EDGE('',*,*,#359,.F.);
#268=ORIENTED_EDGE('',*,*,#351,.F.);
#269=ORIENTED_EDGE('',*,*,#408,.T.);
#270=ORIENTED_EDGE('',*,*,#327,.F.);
#271=ORIENTED_EDGE('',*,*,#409,.T.);
#272=ORIENTED_EDGE('',*,*,#323,.F.);
#273=ORIENTED_EDGE('',*,*,#410,.T.);
#274=ORIENTED_EDGE('',*,*,#354,.F.);
#275=ORIENTED_EDGE('',*,*,#411,.T.);
#276=ORIENTED_EDGE('',*,*,#328,.F.);
#277=ORIENTED_EDGE('',*,*,#408,.F.);
#278=ORIENTED_EDGE('',*,*,#350,.F.);
#279=ORIENTED_EDGE('',*,*,#347,.F.);
#280=ORIENTED_EDGE('',*,*,#352,.F.);
#281=ORIENTED_EDGE('',*,*,#409,.F.);
#282=ORIENTED_EDGE('',*,*,#326,.F.);
#283=ORIENTED_EDGE('',*,*,#345,.F.);
#284=ORIENTED_EDGE('',*,*,#355,.F.);
#285=ORIENTED_EDGE('',*,*,#410,.F.);
#286=ORIENTED_EDGE('',*,*,#322,.F.);
#287=ORIENTED_EDGE('',*,*,#342,.F.);
#288=ORIENTED_EDGE('',*,*,#324,.F.);
#289=ORIENTED_EDGE('',*,*,#411,.F.);
#290=ORIENTED_EDGE('',*,*,#353,.F.);
#291=ORIENTED_EDGE('',*,*,#346,.F.);
#292=ORIENTED_EDGE('',*,*,#309,.F.);
#293=ORIENTED_EDGE('',*,*,#380,.F.);
#294=ORIENTED_EDGE('',*,*,#402,.F.);
#295=ORIENTED_EDGE('',*,*,#377,.F.);
#296=ORIENTED_EDGE('',*,*,#340,.F.);
#297=ORIENTED_EDGE('',*,*,#383,.F.);
#298=ORIENTED_EDGE('',*,*,#403,.F.);
#299=ORIENTED_EDGE('',*,*,#381,.F.);
#300=EDGE_CURVE('',#412,#413,#488,.T.);
#301=EDGE_CURVE('',#412,#414,#40,.T.);
#302=EDGE_CURVE('',#415,#414,#489,.F.);
#303=EDGE_CURVE('',#413,#415,#41,.T.);
#304=EDGE_CURVE('',#416,#417,#490,.F.);
#305=EDGE_CURVE('',#417,#418,#491,.T.);
#306=EDGE_CURVE('',#418,#419,#492,.T.);
#307=EDGE_CURVE('',#416,#419,#493,.T.);
#308=EDGE_CURVE('',#420,#421,#15,.F.);
#309=EDGE_CURVE('',#421,#422,#42,.T.);
#310=EDGE_CURVE('',#422,#423,#494,.T.);
#311=EDGE_CURVE('',#423,#424,#43,.F.);
#312=EDGE_CURVE('',#424,#425,#495,.T.);
#313=EDGE_CURVE('',#425,#426,#44,.F.);
#314=EDGE_CURVE('',#426,#427,#496,.T.);
#315=EDGE_CURVE('',#428,#427,#497,.T.);
#316=EDGE_CURVE('',#429,#428,#498,.T.);
#317=EDGE_CURVE('',#430,#429,#499,.T.);
#318=EDGE_CURVE('',#431,#430,#500,.T.);
#319=EDGE_CURVE('',#431,#432,#45,.T.);
#320=EDGE_CURVE('',#432,#433,#46,.T.);
#321=EDGE_CURVE('',#434,#433,#501,.T.);
#322=EDGE_CURVE('',#434,#435,#47,.T.);
#323=EDGE_CURVE('',#435,#436,#502,.T.);
#324=EDGE_CURVE('',#436,#437,#48,.T.);
#325=EDGE_CURVE('',#437,#438,#503,.T.);
#326=EDGE_CURVE('',#438,#439,#49,.T.);
#327=EDGE_CURVE('',#439,#440,#504,.F.);
#328=EDGE_CURVE('',#440,#441,#50,.T.);
#329=EDGE_CURVE('',#441,#442,#505,.T.);
#330=EDGE_CURVE('',#442,#443,#51,.T.);
#331=EDGE_CURVE('',#443,#444,#52,.T.);
#332=EDGE_CURVE('',#444,#413,#506,.T.);
#333=EDGE_CURVE('',#415,#445,#507,.T.);
#334=EDGE_CURVE('',#445,#446,#508,.T.);
#335=EDGE_CURVE('',#447,#446,#509,.T.);
#336=EDGE_CURVE('',#447,#448,#53,.F.);
#337=EDGE_CURVE('',#449,#448,#510,.T.);
#338=EDGE_CURVE('',#449,#450,#54,.F.);
#339=EDGE_CURVE('',#451,#450,#511,.T.);
#340=EDGE_CURVE('',#451,#420,#55,.T.);
#341=EDGE_CURVE('',#452,#453,#512,.T.);
#342=EDGE_CURVE('',#452,#434,#513,.T.);
#343=EDGE_CURVE('',#433,#453,#514,.T.);
#344=EDGE_CURVE('',#454,#455,#515,.T.);
#345=EDGE_CURVE('',#455,#438,#516,.F.);
#346=EDGE_CURVE('',#437,#454,#517,.T.);
#347=EDGE_CURVE('',#441,#456,#518,.F.);
#348=EDGE_CURVE('',#456,#457,#519,.T.);
#349=EDGE_CURVE('',#457,#442,#520,.F.);
#350=EDGE_CURVE('',#456,#458,#56,.F.);
#351=EDGE_CURVE('',#458,#459,#521,.F.);
#352=EDGE_CURVE('',#459,#455,#57,.F.);
#353=EDGE_CURVE('',#454,#460,#58,.F.);
#354=EDGE_CURVE('',#460,#461,#522,.T.);
#355=EDGE_CURVE('',#461,#452,#59,.F.);
#356=EDGE_CURVE('',#453,#416,#60,.F.);
#357=EDGE_CURVE('',#419,#457,#61,.F.);
#358=EDGE_CURVE('',#412,#462,#523,.T.);
#359=EDGE_CURVE('',#444,#462,#524,.F.);
#360=EDGE_CURVE('',#463,#464,#525,.T.);
#361=EDGE_CURVE('',#464,#431,#526,.T.);
#362=EDGE_CURVE('',#430,#463,#527,.T.);
#363=EDGE_CURVE('',#429,#465,#528,.T.);
#364=EDGE_CURVE('',#465,#463,#529,.T.);
#365=EDGE_CURVE('',#428,#466,#530,.T.);
#366=EDGE_CURVE('',#466,#465,#531,.T.);
#367=EDGE_CURVE('',#427,#467,#532,.T.);
#368=EDGE_CURVE('',#467,#466,#533,.T.);
#369=EDGE_CURVE('',#426,#468,#534,.T.);
#370=EDGE_CURVE('',#467,#468,#535,.T.);
#371=EDGE_CURVE('',#425,#469,#536,.T.);
#372=EDGE_CURVE('',#468,#469,#62,.T.);
#373=EDGE_CURVE('',#424,#470,#537,.T.);
#374=EDGE_CURVE('',#469,#470,#538,.T.);
#375=EDGE_CURVE('',#423,#471,#539,.T.);
#376=EDGE_CURVE('',#470,#471,#63,.T.);
#377=EDGE_CURVE('',#422,#472,#540,.T.);
#378=EDGE_CURVE('',#471,#472,#541,.T.);
#379=EDGE_CURVE('',#473,#474,#16,.T.);
#380=EDGE_CURVE('',#473,#421,#542,.F.);
#381=EDGE_CURVE('',#420,#474,#543,.T.);
#382=EDGE_CURVE('',#475,#476,#544,.T.);
#383=EDGE_CURVE('',#476,#451,#545,.T.);
#384=EDGE_CURVE('',#450,#475,#546,.T.);
#385=EDGE_CURVE('',#449,#477,#547,.T.);
#386=EDGE_CURVE('',#475,#477,#64,.T.);
#387=EDGE_CURVE('',#448,#478,#548,.T.);
#388=EDGE_CURVE('',#478,#477,#549,.T.);
#389=EDGE_CURVE('',#447,#479,#550,.T.);
#390=EDGE_CURVE('',#478,#479,#65,.T.);
#391=EDGE_CURVE('',#446,#480,#551,.T.);
#392=EDGE_CURVE('',#480,#479,#552,.T.);
#393=EDGE_CURVE('',#445,#481,#553,.T.);
#394=EDGE_CURVE('',#480,#481,#554,.T.);
#395=EDGE_CURVE('',#482,#482,#66,.T.);
#396=EDGE_CURVE('',#483,#483,#67,.F.);
#397=EDGE_CURVE('',#481,#414,#555,.T.);
#398=EDGE_CURVE('',#462,#484,#68,.F.);
#399=EDGE_CURVE('',#418,#484,#69,.F.);
#400=EDGE_CURVE('',#485,#417,#70,.F.);
#401=EDGE_CURVE('',#485,#464,#71,.F.);
#402=EDGE_CURVE('',#472,#473,#72,.F.);
#403=EDGE_CURVE('',#474,#476,#73,.F.);
#404=EDGE_CURVE('',#486,#486,#74,.F.);
#405=EDGE_CURVE('',#432,#485,#556,.T.);
#406=EDGE_CURVE('',#484,#443,#557,.T.);
#407=EDGE_CURVE('',#487,#487,#75,.T.);
#408=EDGE_CURVE('',#458,#440,#558,.F.);
#409=EDGE_CURVE('',#439,#459,#559,.F.);
#410=EDGE_CURVE('',#435,#461,#560,.F.);
#411=EDGE_CURVE('',#460,#436,#561,.F.);
#412=VERTEX_POINT('',#1115);
#413=VERTEX_POINT('',#1116);
#414=VERTEX_POINT('',#1118);
#415=VERTEX_POINT('',#1120);
#416=VERTEX_POINT('',#1124);
#417=VERTEX_POINT('',#1125);
#418=VERTEX_POINT('',#1127);
#419=VERTEX_POINT('',#1129);
#420=VERTEX_POINT('',#1133);
#421=VERTEX_POINT('',#1134);
#422=VERTEX_POINT('',#1136);
#423=VERTEX_POINT('',#1138);
#424=VERTEX_POINT('',#1140);
#425=VERTEX_POINT('',#1142);
#426=VERTEX_POINT('',#1144);
#427=VERTEX_POINT('',#1146);
#428=VERTEX_POINT('',#1148);
#429=VERTEX_POINT('',#1150);
#430=VERTEX_POINT('',#1152);
#431=VERTEX_POINT('',#1154);
#432=VERTEX_POINT('',#1156);
#433=VERTEX_POINT('',#1158);
#434=VERTEX_POINT('',#1160);
#435=VERTEX_POINT('',#1162);
#436=VERTEX_POINT('',#1164);
#437=VERTEX_POINT('',#1166);
#438=VERTEX_POINT('',#1168);
#439=VERTEX_POINT('',#1170);
#440=VERTEX_POINT('',#1172);
#441=VERTEX_POINT('',#1174);
#442=VERTEX_POINT('',#1176);
#443=VERTEX_POINT('',#1178);
#444=VERTEX_POINT('',#1180);
#445=VERTEX_POINT('',#1183);
#446=VERTEX_POINT('',#1185);
#447=VERTEX_POINT('',#1187);
#448=VERTEX_POINT('',#1189);
#449=VERTEX_POINT('',#1191);
#450=VERTEX_POINT('',#1193);
#451=VERTEX_POINT('',#1195);
#452=VERTEX_POINT('',#1199);
#453=VERTEX_POINT('',#1200);
#454=VERTEX_POINT('',#1205);
#455=VERTEX_POINT('',#1206);
#456=VERTEX_POINT('',#1211);
#457=VERTEX_POINT('',#1213);
#458=VERTEX_POINT('',#1217);
#459=VERTEX_POINT('',#1219);
#460=VERTEX_POINT('',#1222);
#461=VERTEX_POINT('',#1224);
#462=VERTEX_POINT('',#1230);
#463=VERTEX_POINT('',#1234);
#464=VERTEX_POINT('',#1235);
#465=VERTEX_POINT('',#1240);
#466=VERTEX_POINT('',#1244);
#467=VERTEX_POINT('',#1248);
#468=VERTEX_POINT('',#1252);
#469=VERTEX_POINT('',#1256);
#470=VERTEX_POINT('',#1260);
#471=VERTEX_POINT('',#1264);
#472=VERTEX_POINT('',#1268);
#473=VERTEX_POINT('',#1285);
#474=VERTEX_POINT('',#1286);
#475=VERTEX_POINT('',#1291);
#476=VERTEX_POINT('',#1292);
#477=VERTEX_POINT('',#1297);
#478=VERTEX_POINT('',#1301);
#479=VERTEX_POINT('',#1305);
#480=VERTEX_POINT('',#1309);
#481=VERTEX_POINT('',#1313);
#482=VERTEX_POINT('',#1317);
#483=VERTEX_POINT('',#1319);
#484=VERTEX_POINT('',#1324);
#485=VERTEX_POINT('',#1327);
#486=VERTEX_POINT('',#1332);
#487=VERTEX_POINT('',#1339);
#488=LINE('',#1114,#562);
#489=LINE('',#1119,#563);
#490=LINE('',#1123,#564);
#491=LINE('',#1126,#565);
#492=LINE('',#1128,#566);
#493=LINE('',#1130,#567);
#494=LINE('',#1137,#568);
#495=LINE('',#1141,#569);
#496=LINE('',#1145,#570);
#497=LINE('',#1147,#571);
#498=LINE('',#1149,#572);
#499=LINE('',#1151,#573);
#500=LINE('',#1153,#574);
#501=LINE('',#1159,#575);
#502=LINE('',#1163,#576);
#503=LINE('',#1167,#577);
#504=LINE('',#1171,#578);
#505=LINE('',#1175,#579);
#506=LINE('',#1181,#580);
#507=LINE('',#1182,#581);
#508=LINE('',#1184,#582);
#509=LINE('',#1186,#583);
#510=LINE('',#1190,#584);
#511=LINE('',#1194,#585);
#512=LINE('',#1198,#586);
#513=LINE('',#1201,#587);
#514=LINE('',#1202,#588);
#515=LINE('',#1204,#589);
#516=LINE('',#1207,#590);
#517=LINE('',#1208,#591);
#518=LINE('',#1210,#592);
#519=LINE('',#1212,#593);
#520=LINE('',#1214,#594);
#521=LINE('',#1218,#595);
#522=LINE('',#1223,#596);
#523=LINE('',#1229,#597);
#524=LINE('',#1231,#598);
#525=LINE('',#1233,#599);
#526=LINE('',#1236,#600);
#527=LINE('',#1237,#601);
#528=LINE('',#1239,#602);
#529=LINE('',#1241,#603);
#530=LINE('',#1243,#604);
#531=LINE('',#1245,#605);
#532=LINE('',#1247,#606);
#533=LINE('',#1249,#607);
#534=LINE('',#1251,#608);
#535=LINE('',#1253,#609);
#536=LINE('',#1255,#610);
#537=LINE('',#1259,#611);
#538=LINE('',#1261,#612);
#539=LINE('',#1263,#613);
#540=LINE('',#1267,#614);
#541=LINE('',#1269,#615);
#542=LINE('',#1287,#616);
#543=LINE('',#1288,#617);
#544=LINE('',#1290,#618);
#545=LINE('',#1293,#619);
#546=LINE('',#1294,#620);
#547=LINE('',#1296,#621);
#548=LINE('',#1300,#622);
#549=LINE('',#1302,#623);
#550=LINE('',#1304,#624);
#551=LINE('',#1308,#625);
#552=LINE('',#1310,#626);
#553=LINE('',#1312,#627);
#554=LINE('',#1314,#628);
#555=LINE('',#1321,#629);
#556=LINE('',#1334,#630);
#557=LINE('',#1336,#631);
#558=LINE('',#1345,#632);
#559=LINE('',#1346,#633);
#560=LINE('',#1348,#634);
#561=LINE('',#1349,#635);
#562=VECTOR('',#882,1.);
#563=VECTOR('',#885,1.);
#564=VECTOR('',#890,1.);
#565=VECTOR('',#891,1.);
#566=VECTOR('',#892,1.);
#567=VECTOR('',#893,1.);
#568=VECTOR('',#900,1.);
#569=VECTOR('',#903,1.);
#570=VECTOR('',#906,1.);
#571=VECTOR('',#907,1.);
#572=VECTOR('',#908,1.);
#573=VECTOR('',#909,1.);
#574=VECTOR('',#910,1.);
#575=VECTOR('',#915,1.);
#576=VECTOR('',#918,1.);
#577=VECTOR('',#921,1.);
#578=VECTOR('',#924,1.);
#579=VECTOR('',#927,1.);
#580=VECTOR('',#932,1.);
#581=VECTOR('',#933,1.);
#582=VECTOR('',#934,1.);
#583=VECTOR('',#935,1.);
#584=VECTOR('',#938,1.);
#585=VECTOR('',#941,1.);
#586=VECTOR('',#946,1.);
#587=VECTOR('',#947,1.);
#588=VECTOR('',#948,1.);
#589=VECTOR('',#951,1.);
#590=VECTOR('',#952,1.);
#591=VECTOR('',#953,1.);
#592=VECTOR('',#956,1.);
#593=VECTOR('',#957,1.);
#594=VECTOR('',#958,1.);
#595=VECTOR('',#963,1.);
#596=VECTOR('',#968,1.);
#597=VECTOR('',#977,1.);
#598=VECTOR('',#978,1.);
#599=VECTOR('',#981,1.);
#600=VECTOR('',#982,1.);
#601=VECTOR('',#983,1.);
#602=VECTOR('',#986,1.);
#603=VECTOR('',#987,1.);
#604=VECTOR('',#990,1.);
#605=VECTOR('',#991,1.);
#606=VECTOR('',#994,1.);
#607=VECTOR('',#995,1.);
#608=VECTOR('',#998,1.);
#609=VECTOR('',#999,1.);
#610=VECTOR('',#1002,1.);
#611=VECTOR('',#1007,1.);
#612=VECTOR('',#1008,1.);
#613=VECTOR('',#1011,1.);
#614=VECTOR('',#1016,1.);
#615=VECTOR('',#1017,1.);
#616=VECTOR('',#1020,1.);
#617=VECTOR('',#1021,1.);
#618=VECTOR('',#1024,1.);
#619=VECTOR('',#1025,1.);
#620=VECTOR('',#1026,1.);
#621=VECTOR('',#1029,1.);
#622=VECTOR('',#1034,1.);
#623=VECTOR('',#1035,1.);
#624=VECTOR('',#1038,1.);
#625=VECTOR('',#1043,1.);
#626=VECTOR('',#1044,1.);
#627=VECTOR('',#1047,1.);
#628=VECTOR('',#1048,1.);
#629=VECTOR('',#1057,1.);
#630=VECTOR('',#1076,1.);
#631=VECTOR('',#1079,1.);
#632=VECTOR('',#1094,1.);
#633=VECTOR('',#1095,1.);
#634=VECTOR('',#1098,1.);
#635=VECTOR('',#1099,1.);
#636=EDGE_LOOP('',(#76,#77,#78,#79));
#637=EDGE_LOOP('',(#80,#81,#82,#83));
#638=EDGE_LOOP('',(#84,#85,#86,#87,#88,#89,#90,#91,#92,#93,#94,#95,#96,
#97,#98,#99,#100,#101,#102,#103,#104,#105,#106,#107,#108,#109,#110,#111,
#112,#113,#114,#115,#116,#117));
#639=EDGE_LOOP('',(#118,#119,#120,#121));
#640=EDGE_LOOP('',(#122,#123,#124,#125));
#641=EDGE_LOOP('',(#126,#127,#128,#129));
#642=EDGE_LOOP('',(#130,#131,#132,#133,#134,#135,#136,#137,#138,#139,#140,
#141));
#643=EDGE_LOOP('',(#142,#143,#144,#145));
#644=EDGE_LOOP('',(#146,#147,#148,#149));
#645=EDGE_LOOP('',(#150,#151,#152,#153));
#646=EDGE_LOOP('',(#154,#155,#156,#157));
#647=EDGE_LOOP('',(#158,#159,#160,#161));
#648=EDGE_LOOP('',(#162,#163,#164,#165));
#649=EDGE_LOOP('',(#166,#167,#168,#169));
#650=EDGE_LOOP('',(#170,#171,#172,#173));
#651=EDGE_LOOP('',(#174,#175,#176,#177));
#652=EDGE_LOOP('',(#178,#179,#180,#181));
#653=EDGE_LOOP('',(#182,#183,#184,#185));
#654=EDGE_LOOP('',(#186,#187,#188,#189));
#655=EDGE_LOOP('',(#190,#191,#192,#193));
#656=EDGE_LOOP('',(#194,#195,#196,#197));
#657=EDGE_LOOP('',(#198,#199,#200,#201));
#658=EDGE_LOOP('',(#202,#203,#204,#205));
#659=EDGE_LOOP('',(#206,#207,#208,#209));
#660=EDGE_LOOP('',(#210));
#661=EDGE_LOOP('',(#211));
#662=EDGE_LOOP('',(#212,#213,#214,#215));
#663=EDGE_LOOP('',(#216,#217,#218,#219,#220,#221,#222,#223,#224,#225,#226,
#227,#228,#229,#230,#231,#232,#233,#234,#235,#236,#237,#238,#239,#240,#241));
#664=EDGE_LOOP('',(#242));
#665=EDGE_LOOP('',(#243,#244,#245,#246,#247,#248));
#666=EDGE_LOOP('',(#249,#250,#251,#252,#253,#254));
#667=EDGE_LOOP('',(#255));
#668=EDGE_LOOP('',(#256));
#669=EDGE_LOOP('',(#257));
#670=EDGE_LOOP('',(#258));
#671=EDGE_LOOP('',(#259));
#672=EDGE_LOOP('',(#260,#261,#262,#263));
#673=EDGE_LOOP('',(#264,#265,#266,#267));
#674=EDGE_LOOP('',(#268,#269,#270,#271));
#675=EDGE_LOOP('',(#272,#273,#274,#275));
#676=EDGE_LOOP('',(#276,#277,#278,#279));
#677=EDGE_LOOP('',(#280,#281,#282,#283));
#678=EDGE_LOOP('',(#284,#285,#286,#287));
#679=EDGE_LOOP('',(#288,#289,#290,#291));
#680=EDGE_LOOP('',(#292,#293,#294,#295));
#681=EDGE_LOOP('',(#296,#297,#298,#299));
#682=FACE_BOUND('',#636,.T.);
#683=FACE_BOUND('',#637,.T.);
#684=FACE_BOUND('',#638,.T.);
#685=FACE_BOUND('',#639,.T.);
#686=FACE_BOUND('',#640,.T.);
#687=FACE_BOUND('',#641,.T.);
#688=FACE_BOUND('',#642,.T.);
#689=FACE_BOUND('',#643,.T.);
#690=FACE_BOUND('',#644,.T.);
#691=FACE_BOUND('',#645,.T.);
#692=FACE_BOUND('',#646,.T.);
#693=FACE_BOUND('',#647,.T.);
#694=FACE_BOUND('',#648,.T.);
#695=FACE_BOUND('',#649,.T.);
#696=FACE_BOUND('',#650,.T.);
#697=FACE_BOUND('',#651,.T.);
#698=FACE_BOUND('',#652,.T.);
#699=FACE_BOUND('',#653,.T.);
#700=FACE_BOUND('',#654,.T.);
#701=FACE_BOUND('',#655,.T.);
#702=FACE_BOUND('',#656,.T.);
#703=FACE_BOUND('',#657,.T.);
#704=FACE_BOUND('',#658,.T.);
#705=FACE_BOUND('',#659,.T.);
#706=FACE_BOUND('',#660,.T.);
#707=FACE_BOUND('',#661,.T.);
#708=FACE_BOUND('',#662,.T.);
#709=FACE_BOUND('',#663,.T.);
#710=FACE_BOUND('',#664,.T.);
#711=FACE_BOUND('',#665,.T.);
#712=FACE_BOUND('',#666,.T.);
#713=FACE_BOUND('',#667,.T.);
#714=FACE_BOUND('',#668,.T.);
#715=FACE_BOUND('',#669,.T.);
#716=FACE_BOUND('',#670,.T.);
#717=FACE_BOUND('',#671,.T.);
#718=FACE_BOUND('',#672,.T.);
#719=FACE_BOUND('',#673,.T.);
#720=FACE_BOUND('',#674,.T.);
#721=FACE_BOUND('',#675,.T.);
#722=FACE_BOUND('',#676,.T.);
#723=FACE_BOUND('',#677,.T.);
#724=FACE_BOUND('',#678,.T.);
#725=FACE_BOUND('',#679,.T.);
#726=FACE_BOUND('',#680,.T.);
#727=FACE_BOUND('',#681,.T.);
#728=CYLINDRICAL_SURFACE('',#799,0.000106066017177982);
#729=CYLINDRICAL_SURFACE('',#835,0.0003);
#730=CYLINDRICAL_SURFACE('',#838,0.0003);
#731=CYLINDRICAL_SURFACE('',#843,0.0003);
#732=CYLINDRICAL_SURFACE('',#846,0.0003);
#733=CYLINDRICAL_SURFACE('',#850,0.00145);
#734=CYLINDRICAL_SURFACE('',#862,0.0029);
#735=CYLINDRICAL_SURFACE('',#863,0.0029);
#736=CYLINDRICAL_SURFACE('',#868,0.00145);
#737=CYLINDRICAL_SURFACE('',#869,0.00145);
#738=CYLINDRICAL_SURFACE('',#872,0.00145);
#739=CYLINDRICAL_SURFACE('',#873,0.00145);
#740=CYLINDRICAL_SURFACE('',#874,0.00145);
#741=CYLINDRICAL_SURFACE('',#875,0.00145);
#742=CYLINDRICAL_SURFACE('',#876,0.00145);
#743=CYLINDRICAL_SURFACE('',#877,0.00145);
#744=ADVANCED_FACE('',(#682),#728,.T.);
#745=ADVANCED_FACE('',(#683),#17,.T.);
#746=ADVANCED_FACE('',(#684),#18,.T.);
#747=ADVANCED_FACE('',(#685),#19,.T.);
#748=ADVANCED_FACE('',(#686),#20,.F.);
#749=ADVANCED_FACE('',(#687),#21,.F.);
#750=ADVANCED_FACE('',(#688),#22,.F.);
#751=ADVANCED_FACE('',(#689),#23,.T.);
#752=ADVANCED_FACE('',(#690),#24,.F.);
#753=ADVANCED_FACE('',(#691),#25,.F.);
#754=ADVANCED_FACE('',(#692),#26,.F.);
#755=ADVANCED_FACE('',(#693),#27,.F.);
#756=ADVANCED_FACE('',(#694),#28,.T.);
#757=ADVANCED_FACE('',(#695),#729,.F.);
#758=ADVANCED_FACE('',(#696),#29,.T.);
#759=ADVANCED_FACE('',(#697),#730,.F.);
#760=ADVANCED_FACE('',(#698),#30,.T.);
#761=ADVANCED_FACE('',(#699),#14,.T.);
#762=ADVANCED_FACE('',(#700),#31,.F.);
#763=ADVANCED_FACE('',(#701),#731,.F.);
#764=ADVANCED_FACE('',(#702),#32,.F.);
#765=ADVANCED_FACE('',(#703),#732,.F.);
#766=ADVANCED_FACE('',(#704),#33,.F.);
#767=ADVANCED_FACE('',(#705),#34,.T.);
#768=ADVANCED_FACE('',(#706,#707),#733,.T.);
#769=ADVANCED_FACE('',(#708),#35,.T.);
#770=ADVANCED_FACE('',(#709,#710),#36,.T.);
#771=ADVANCED_FACE('',(#711),#734,.T.);
#772=ADVANCED_FACE('',(#712),#735,.T.);
#773=ADVANCED_FACE('',(#713),#37,.T.);
#774=ADVANCED_FACE('',(#714,#715),#12,.T.);
#775=ADVANCED_FACE('',(#716,#717),#13,.T.);
#776=ADVANCED_FACE('',(#718),#736,.T.);
#777=ADVANCED_FACE('',(#719),#737,.T.);
#778=ADVANCED_FACE('',(#720),#38,.F.);
#779=ADVANCED_FACE('',(#721),#39,.T.);
#780=ADVANCED_FACE('',(#722),#738,.T.);
#781=ADVANCED_FACE('',(#723),#739,.T.);
#782=ADVANCED_FACE('',(#724),#740,.T.);
#783=ADVANCED_FACE('',(#725),#741,.T.);
#784=ADVANCED_FACE('',(#726),#742,.T.);
#785=ADVANCED_FACE('',(#727),#743,.T.);
#786=CLOSED_SHELL('',(#744,#745,#746,#747,#748,#749,#750,#751,#752,#753,
#754,#755,#756,#757,#758,#759,#760,#761,#762,#763,#764,#765,#766,#767,#768,
#769,#770,#771,#772,#773,#774,#775,#776,#777,#778,#779,#780,#781,#782,#783,
#784,#785));
#787=STYLED_ITEM('',(#788),#795);
#788=PRESENTATION_STYLE_ASSIGNMENT((#789));
#789=SURFACE_STYLE_USAGE(.BOTH.,#790);
#790=SURFACE_SIDE_STYLE('',(#791));
#791=SURFACE_STYLE_FILL_AREA(#792);
#792=FILL_AREA_STYLE('',(#793));
#793=FILL_AREA_STYLE_COLOUR('',#794);
#794=COLOUR_RGB('',0.615686274509804,0.811764705882353,0.929411764705882);
#795=MANIFOLD_SOLID_BREP('SwitchBase',#786);
#796=SHAPE_DEFINITION_REPRESENTATION(#1362,#797);
#797=SHAPE_REPRESENTATION('SwitchBase',(#798),#1357);
#798=AXIS2_PLACEMENT_3D('',#1112,#878,#879);
#799=AXIS2_PLACEMENT_3D('',#1113,#880,#881);
#800=AXIS2_PLACEMENT_3D('',#1117,#883,#884);
#801=AXIS2_PLACEMENT_3D('',#1121,#886,#887);
#802=AXIS2_PLACEMENT_3D('',#1122,#888,#889);
#803=AXIS2_PLACEMENT_3D('',#1131,#894,#895);
#804=AXIS2_PLACEMENT_3D('',#1132,#896,#897);
#805=AXIS2_PLACEMENT_3D('',#1135,#898,#899);
#806=AXIS2_PLACEMENT_3D('',#1139,#901,#902);
#807=AXIS2_PLACEMENT_3D('',#1143,#904,#905);
#808=AXIS2_PLACEMENT_3D('',#1155,#911,#912);
#809=AXIS2_PLACEMENT_3D('',#1157,#913,#914);
#810=AXIS2_PLACEMENT_3D('',#1161,#916,#917);
#811=AXIS2_PLACEMENT_3D('',#1165,#919,#920);
#812=AXIS2_PLACEMENT_3D('',#1169,#922,#923);
#813=AXIS2_PLACEMENT_3D('',#1173,#925,#926);
#814=AXIS2_PLACEMENT_3D('',#1177,#928,#929);
#815=AXIS2_PLACEMENT_3D('',#1179,#930,#931);
#816=AXIS2_PLACEMENT_3D('',#1188,#936,#937);
#817=AXIS2_PLACEMENT_3D('',#1192,#939,#940);
#818=AXIS2_PLACEMENT_3D('',#1196,#942,#943);
#819=AXIS2_PLACEMENT_3D('',#1197,#944,#945);
#820=AXIS2_PLACEMENT_3D('',#1203,#949,#950);
#821=AXIS2_PLACEMENT_3D('',#1209,#954,#955);
#822=AXIS2_PLACEMENT_3D('',#1215,#959,#960);
#823=AXIS2_PLACEMENT_3D('',#1216,#961,#962);
#824=AXIS2_PLACEMENT_3D('',#1220,#964,#965);
#825=AXIS2_PLACEMENT_3D('',#1221,#966,#967);
#826=AXIS2_PLACEMENT_3D('',#1225,#969,#970);
#827=AXIS2_PLACEMENT_3D('',#1226,#971,#972);
#828=AXIS2_PLACEMENT_3D('',#1227,#973,#974);
#829=AXIS2_PLACEMENT_3D('',#1228,#975,#976);
#830=AXIS2_PLACEMENT_3D('',#1232,#979,#980);
#831=AXIS2_PLACEMENT_3D('',#1238,#984,#985);
#832=AXIS2_PLACEMENT_3D('',#1242,#988,#989);
#833=AXIS2_PLACEMENT_3D('',#1246,#992,#993);
#834=AXIS2_PLACEMENT_3D('',#1250,#996,#997);
#835=AXIS2_PLACEMENT_3D('',#1254,#1000,#1001);
#836=AXIS2_PLACEMENT_3D('',#1257,#1003,#1004);
#837=AXIS2_PLACEMENT_3D('',#1258,#1005,#1006);
#838=AXIS2_PLACEMENT_3D('',#1262,#1009,#1010);
#839=AXIS2_PLACEMENT_3D('',#1265,#1012,#1013);
#840=AXIS2_PLACEMENT_3D('',#1266,#1014,#1015);
#841=AXIS2_PLACEMENT_3D('',#1284,#1018,#1019);
#842=AXIS2_PLACEMENT_3D('',#1289,#1022,#1023);
#843=AXIS2_PLACEMENT_3D('',#1295,#1027,#1028);
#844=AXIS2_PLACEMENT_3D('',#1298,#1030,#1031);
#845=AXIS2_PLACEMENT_3D('',#1299,#1032,#1033);
#846=AXIS2_PLACEMENT_3D('',#1303,#1036,#1037);
#847=AXIS2_PLACEMENT_3D('',#1306,#1039,#1040);
#848=AXIS2_PLACEMENT_3D('',#1307,#1041,#1042);
#849=AXIS2_PLACEMENT_3D('',#1311,#1045,#1046);
#850=AXIS2_PLACEMENT_3D('',#1315,#1049,#1050);
#851=AXIS2_PLACEMENT_3D('',#1316,#1051,#1052);
#852=AXIS2_PLACEMENT_3D('',#1318,#1053,#1054);
#853=AXIS2_PLACEMENT_3D('',#1320,#1055,#1056);
#854=AXIS2_PLACEMENT_3D('',#1322,#1058,#1059);
#855=AXIS2_PLACEMENT_3D('',#1323,#1060,#1061);
#856=AXIS2_PLACEMENT_3D('',#1325,#1062,#1063);
#857=AXIS2_PLACEMENT_3D('',#1326,#1064,#1065);
#858=AXIS2_PLACEMENT_3D('',#1328,#1066,#1067);
#859=AXIS2_PLACEMENT_3D('',#1329,#1068,#1069);
#860=AXIS2_PLACEMENT_3D('',#1330,#1070,#1071);
#861=AXIS2_PLACEMENT_3D('',#1331,#1072,#1073);
#862=AXIS2_PLACEMENT_3D('',#1333,#1074,#1075);
#863=AXIS2_PLACEMENT_3D('',#1335,#1077,#1078);
#864=AXIS2_PLACEMENT_3D('',#1337,#1080,#1081);
#865=AXIS2_PLACEMENT_3D('',#1338,#1082,#1083);
#866=AXIS2_PLACEMENT_3D('',#1340,#1084,#1085);
#867=AXIS2_PLACEMENT_3D('',#1341,#1086,#1087);
#868=AXIS2_PLACEMENT_3D('',#1342,#1088,#1089);
#869=AXIS2_PLACEMENT_3D('',#1343,#1090,#1091);
#870=AXIS2_PLACEMENT_3D('',#1344,#1092,#1093);
#871=AXIS2_PLACEMENT_3D('',#1347,#1096,#1097);
#872=AXIS2_PLACEMENT_3D('',#1350,#1100,#1101);
#873=AXIS2_PLACEMENT_3D('',#1351,#1102,#1103);
#874=AXIS2_PLACEMENT_3D('',#1352,#1104,#1105);
#875=AXIS2_PLACEMENT_3D('',#1353,#1106,#1107);
#876=AXIS2_PLACEMENT_3D('',#1354,#1108,#1109);
#877=AXIS2_PLACEMENT_3D('',#1355,#1110,#1111);
#878=DIRECTION('',(0.,0.,1.));
#879=DIRECTION('',(1.,0.,0.));
#880=DIRECTION('',(0.,-6.10818125343946E-17,1.));
#881=DIRECTION('',(0.,-1.,-6.10818125343946E-17));
#882=DIRECTION('',(-3.05409062671973E-17,-3.05409062671973E-17,1.));
#883=DIRECTION('',(0.,0.,1.));
#884=DIRECTION('',(1.,0.,0.));
#885=DIRECTION('',(0.,0.,1.));
#886=DIRECTION('',(0.,0.,1.));
#887=DIRECTION('',(1.,0.,0.));
#888=DIRECTION('',(1.22464679914735E-16,-1.,0.));
#889=DIRECTION('',(1.,1.22464679914735E-16,0.));
#890=DIRECTION('',(0.,0.,-1.));
#891=DIRECTION('',(-1.,-1.22464679914735E-16,0.));
#892=DIRECTION('',(0.,0.,-1.));
#893=DIRECTION('',(-1.,-1.22464679914735E-16,0.));
#894=DIRECTION('',(0.,0.,1.));
#895=DIRECTION('',(1.,0.,0.));
#896=DIRECTION('',(0.,0.,1.));
#897=DIRECTION('',(1.,0.,0.));
#898=DIRECTION('',(0.,0.,1.));
#899=DIRECTION('',(1.,0.,0.));
#900=DIRECTION('',(1.,0.,0.));
#901=DIRECTION('',(0.,0.,1.));
#902=DIRECTION('',(1.,0.,0.));
#903=DIRECTION('',(0.,-1.,0.));
#904=DIRECTION('',(0.,0.,1.));
#905=DIRECTION('',(1.,0.,0.));
#906=DIRECTION('',(-1.,0.,0.));
#907=DIRECTION('',(0.,1.,0.));
#908=DIRECTION('',(1.,9.32647030095058E-17,0.));
#909=DIRECTION('',(0.,1.,0.));
#910=DIRECTION('',(-0.707106781186547,0.707106781186548,0.));
#911=DIRECTION('',(0.,0.,1.));
#912=DIRECTION('',(1.,0.,0.));
#913=DIRECTION('',(0.,0.,1.));
#914=DIRECTION('',(1.,0.,0.));
#915=DIRECTION('',(3.19029604777344E-16,-1.,0.));
#916=DIRECTION('',(0.,0.,1.));
#917=DIRECTION('',(1.,0.,0.));
#918=DIRECTION('',(-0.819152044288992,0.573576436351046,0.));
#919=DIRECTION('',(0.,0.,1.));
#920=DIRECTION('',(1.,0.,0.));
#921=DIRECTION('',(-1.,-2.1350442781253E-16,0.));
#922=DIRECTION('',(0.,0.,1.));
#923=DIRECTION('',(1.,0.,0.));
#924=DIRECTION('',(0.819152044288992,0.573576436351045,0.));
#925=DIRECTION('',(0.,0.,1.));
#926=DIRECTION('',(1.,0.,0.));
#927=DIRECTION('',(4.78544407166016E-16,-1.,0.));
#928=DIRECTION('',(0.,0.,1.));
#929=DIRECTION('',(1.,0.,0.));
#930=DIRECTION('',(0.,0.,1.));
#931=DIRECTION('',(1.,0.,0.));
#932=DIRECTION('',(0.707106781186548,0.707106781186548,0.));
#933=DIRECTION('',(-1.,0.,0.));
#934=DIRECTION('',(0.,1.,0.));
#935=DIRECTION('',(1.,0.,0.));
#936=DIRECTION('',(0.,0.,1.));
#937=DIRECTION('',(1.,0.,0.));
#938=DIRECTION('',(0.,-1.,0.));
#939=DIRECTION('',(0.,0.,1.));
#940=DIRECTION('',(1.,0.,0.));
#941=DIRECTION('',(-1.,0.,0.));
#942=DIRECTION('',(0.,0.,1.));
#943=DIRECTION('',(1.,0.,0.));
#944=DIRECTION('',(1.,3.19029604777344E-16,0.));
#945=DIRECTION('',(-3.19029604777344E-16,1.,0.));
#946=DIRECTION('',(3.19029604777344E-16,-1.,0.));
#947=DIRECTION('',(0.,0.,1.));
#948=DIRECTION('',(0.,0.,-1.));
#949=DIRECTION('',(2.1350442781253E-16,-1.,0.));
#950=DIRECTION('',(1.,2.1350442781253E-16,0.));
#951=DIRECTION('',(-1.,-2.1350442781253E-16,0.));
#952=DIRECTION('',(0.,0.,-1.));
#953=DIRECTION('',(0.,0.,-1.));
#954=DIRECTION('',(1.,4.78544407166016E-16,0.));
#955=DIRECTION('',(-4.78544407166016E-16,1.,0.));
#956=DIRECTION('',(0.,0.,1.));
#957=DIRECTION('',(4.78544407166016E-16,-1.,0.));
#958=DIRECTION('',(0.,0.,-1.));
#959=DIRECTION('',(0.,0.,1.));
#960=DIRECTION('',(1.,0.,0.));
#961=DIRECTION('',(0.,0.,1.));
#962=DIRECTION('',(1.,0.,0.));
#963=DIRECTION('',(-0.819152044288992,-0.573576436351045,0.));
#964=DIRECTION('',(0.,0.,1.));
#965=DIRECTION('',(1.,0.,0.));
#966=DIRECTION('',(0.,0.,1.));
#967=DIRECTION('',(1.,0.,0.));
#968=DIRECTION('',(0.819152044288992,-0.573576436351046,0.));
#969=DIRECTION('',(0.,0.,1.));
#970=DIRECTION('',(1.,0.,0.));
#971=DIRECTION('',(0.,0.,1.));
#972=DIRECTION('',(1.,0.,0.));
#973=DIRECTION('',(0.,0.,1.));
#974=DIRECTION('',(1.,0.,0.));
#975=DIRECTION('',(0.707106781186548,-0.707106781186548,0.));
#976=DIRECTION('',(0.707106781186548,0.707106781186548,0.));
#977=DIRECTION('',(-0.707106781186548,-0.707106781186548,0.));
#978=DIRECTION('',(0.,0.,1.));
#979=DIRECTION('',(0.707106781186548,0.707106781186547,0.));
#980=DIRECTION('',(-0.707106781186547,0.707106781186548,0.));
#981=DIRECTION('',(0.707106781186547,-0.707106781186548,0.));
#982=DIRECTION('',(0.,0.,1.));
#983=DIRECTION('',(0.,0.,-1.));
#984=DIRECTION('',(1.,0.,0.));
#985=DIRECTION('',(0.,0.,-1.));
#986=DIRECTION('',(0.,0.,-1.));
#987=DIRECTION('',(0.,-1.,0.));
#988=DIRECTION('',(9.32647030095058E-17,-1.,0.));
#989=DIRECTION('',(1.,9.32647030095058E-17,0.));
#990=DIRECTION('',(0.,0.,-1.));
#991=DIRECTION('',(-1.,-9.32647030095058E-17,0.));
#992=DIRECTION('',(1.,0.,0.));
#993=DIRECTION('',(0.,0.,-1.));
#994=DIRECTION('',(0.,0.,-1.));
#995=DIRECTION('',(0.,-1.,0.));
#996=DIRECTION('',(0.,1.,0.));
#997=DIRECTION('',(0.,0.,1.));
#998=DIRECTION('',(0.,0.,-1.));
#999=DIRECTION('',(1.,0.,0.));
#1000=DIRECTION('',(0.,0.,-1.));
#1001=DIRECTION('',(-1.,0.,0.));
#1002=DIRECTION('',(0.,0.,-1.));
#1003=DIRECTION('',(0.,0.,1.));
#1004=DIRECTION('',(1.,0.,0.));
#1005=DIRECTION('',(-1.,0.,0.));
#1006=DIRECTION('',(0.,0.,1.));
#1007=DIRECTION('',(0.,0.,-1.));
#1008=DIRECTION('',(0.,1.,0.));
#1009=DIRECTION('',(0.,0.,-1.));
#1010=DIRECTION('',(-1.,0.,0.));
#1011=DIRECTION('',(0.,0.,-1.));
#1012=DIRECTION('',(0.,0.,1.));
#1013=DIRECTION('',(1.,0.,0.));
#1014=DIRECTION('',(0.,-1.,0.));
#1015=DIRECTION('',(0.,0.,-1.));
#1016=DIRECTION('',(0.,0.,-1.));
#1017=DIRECTION('',(-1.,0.,0.));
#1018=DIRECTION('',(0.,0.,1.));
#1019=DIRECTION('',(1.,0.,0.));
#1020=DIRECTION('',(0.,0.,-1.));
#1021=DIRECTION('',(0.,0.,-1.));
#1022=DIRECTION('',(0.,1.,0.));
#1023=DIRECTION('',(0.,0.,1.));
#1024=DIRECTION('',(1.,0.,0.));
#1025=DIRECTION('',(0.,0.,1.));
#1026=DIRECTION('',(0.,0.,-1.));
#1027=DIRECTION('',(0.,0.,-1.));
#1028=DIRECTION('',(-1.,0.,0.));
#1029=DIRECTION('',(0.,0.,-1.));
#1030=DIRECTION('',(0.,0.,1.));
#1031=DIRECTION('',(1.,0.,0.));
#1032=DIRECTION('',(-1.,0.,0.));
#1033=DIRECTION('',(0.,0.,1.));
#1034=DIRECTION('',(0.,0.,-1.));
#1035=DIRECTION('',(0.,1.,0.));
#1036=DIRECTION('',(0.,0.,-1.));
#1037=DIRECTION('',(-1.,0.,0.));
#1038=DIRECTION('',(0.,0.,-1.));
#1039=DIRECTION('',(0.,0.,1.));
#1040=DIRECTION('',(1.,0.,0.));
#1041=DIRECTION('',(0.,-1.,0.));
#1042=DIRECTION('',(0.,0.,-1.));
#1043=DIRECTION('',(0.,0.,-1.));
#1044=DIRECTION('',(-1.,0.,0.));
#1045=DIRECTION('',(1.,0.,0.));
#1046=DIRECTION('',(0.,0.,-1.));
#1047=DIRECTION('',(0.,0.,-1.));
#1048=DIRECTION('',(0.,-1.,0.));
#1049=DIRECTION('',(0.,0.,-1.));
#1050=DIRECTION('',(-1.,0.,0.));
#1051=DIRECTION('',(0.,0.,1.));
#1052=DIRECTION('',(1.,0.,0.));
#1053=DIRECTION('',(0.,0.,1.));
#1054=DIRECTION('',(1.,0.,0.));
#1055=DIRECTION('',(0.,1.,0.));
#1056=DIRECTION('',(0.,0.,1.));
#1057=DIRECTION('',(1.,0.,0.));
#1058=DIRECTION('',(0.,0.,1.));
#1059=DIRECTION('',(1.,0.,0.));
#1060=DIRECTION('',(0.,0.,1.));
#1061=DIRECTION('',(1.,0.,0.));
#1062=DIRECTION('',(0.,0.,1.));
#1063=DIRECTION('',(1.,0.,0.));
#1064=DIRECTION('',(0.,0.,1.));
#1065=DIRECTION('',(1.,0.,0.));
#1066=DIRECTION('',(0.,0.,1.));
#1067=DIRECTION('',(1.,0.,0.));
#1068=DIRECTION('',(0.,0.,1.));
#1069=DIRECTION('',(1.,0.,0.));
#1070=DIRECTION('',(0.,0.,1.));
#1071=DIRECTION('',(1.,0.,0.));
#1072=DIRECTION('',(0.,0.,1.));
#1073=DIRECTION('',(1.,0.,0.));
#1074=DIRECTION('',(0.,0.,-1.));
#1075=DIRECTION('',(-1.,0.,0.));
#1076=DIRECTION('',(0.,0.,-1.));
#1077=DIRECTION('',(0.,0.,1.));
#1078=DIRECTION('',(1.,0.,0.));
#1079=DIRECTION('',(0.,0.,1.));
#1080=DIRECTION('',(0.,0.,1.));
#1081=DIRECTION('',(1.,0.,0.));
#1082=DIRECTION('',(0.,0.,1.));
#1083=DIRECTION('',(1.,0.,0.));
#1084=DIRECTION('',(0.,0.,-1.));
#1085=DIRECTION('',(-1.,0.,0.));
#1086=DIRECTION('',(0.,0.,-1.));
#1087=DIRECTION('',(-1.,0.,0.));
#1088=DIRECTION('',(0.,0.,-1.));
#1089=DIRECTION('',(-1.,0.,0.));
#1090=DIRECTION('',(0.,0.,1.));
#1091=DIRECTION('',(1.,0.,0.));
#1092=DIRECTION('',(0.573576436351045,-0.819152044288992,0.));
#1093=DIRECTION('',(0.,0.,-1.));
#1094=DIRECTION('',(0.,0.,-1.));
#1095=DIRECTION('',(0.,0.,1.));
#1096=DIRECTION('',(0.573576436351046,0.819152044288992,0.));
#1097=DIRECTION('',(0.,0.,1.));
#1098=DIRECTION('',(0.,0.,1.));
#1099=DIRECTION('',(0.,0.,-1.));
#1100=DIRECTION('',(0.,0.,-1.));
#1101=DIRECTION('',(-1.,0.,0.));
#1102=DIRECTION('',(0.,0.,1.));
#1103=DIRECTION('',(1.,0.,0.));
#1104=DIRECTION('',(0.,0.,1.));
#1105=DIRECTION('',(1.,0.,0.));
#1106=DIRECTION('',(0.,0.,1.));
#1107=DIRECTION('',(1.,0.,0.));
#1108=DIRECTION('',(0.,0.,-1.));
#1109=DIRECTION('',(-1.,0.,0.));
#1110=DIRECTION('',(0.,0.,-1.));
#1111=DIRECTION('',(-1.,0.,0.));
#1112=CARTESIAN_POINT('',(0.,0.,0.));
#1113=CARTESIAN_POINT('',(-0.00388106601717798,0.00134393398282202,0.00015));
#1114=CARTESIAN_POINT('',(-0.00380606601717799,0.00126893398282202,0.0200602041446815));
#1115=CARTESIAN_POINT('',(-0.00380606601717798,0.00126893398282202,0.00015));
#1116=CARTESIAN_POINT('',(-0.00380606601717798,0.00126893398282202,0.0037));
#1117=CARTESIAN_POINT('',(-0.00388106601717798,0.00134393398282202,0.00015));
#1118=CARTESIAN_POINT('',(-0.00388106601717798,0.00145,0.00015));
#1119=CARTESIAN_POINT('',(-0.00388106601717798,0.00145,0.0200602041446815));
#1120=CARTESIAN_POINT('',(-0.00388106601717798,0.00145,0.0037));
#1121=CARTESIAN_POINT('',(-0.00388106601717798,0.00134393398282202,0.0037));
#1122=CARTESIAN_POINT('',(0.,0.,0.0037));
#1123=CARTESIAN_POINT('',(0.005225,6.39877952554492E-19,0.0037));
#1124=CARTESIAN_POINT('',(0.005225,6.39877952554492E-19,0.));
#1125=CARTESIAN_POINT('',(0.005225,6.39877952554492E-19,0.00015));
#1126=CARTESIAN_POINT('',(0.,0.,0.00015));
#1127=CARTESIAN_POINT('',(-0.005225,-6.39877952554493E-19,0.00015));
#1128=CARTESIAN_POINT('',(-0.005225,-6.39877952554493E-19,0.));
#1129=CARTESIAN_POINT('',(-0.005225,-6.39877952554492E-19,0.));
#1130=CARTESIAN_POINT('',(0.,0.,0.));
#1131=CARTESIAN_POINT('',(-1.7347234759768E-18,0.0054375,0.0037));
#1132=CARTESIAN_POINT('',(0.,0.00856,0.0037));
#1133=CARTESIAN_POINT('',(-0.0058890859808941,0.00901619862802198,0.0037));
#1134=CARTESIAN_POINT('',(0.0058890859808941,0.00901619862802198,0.0037));
#1135=CARTESIAN_POINT('',(0.00694495473838937,0.01001,0.0037));
#1136=CARTESIAN_POINT('',(0.00694495473838937,0.00856,0.0037));
#1137=CARTESIAN_POINT('',(-1.7347234759768E-18,0.00856,0.0037));
#1138=CARTESIAN_POINT('',(0.0074,0.00856,0.0037));
#1139=CARTESIAN_POINT('',(0.0074,0.00826,0.0037));
#1140=CARTESIAN_POINT('',(0.0077,0.00826,0.0037));
#1141=CARTESIAN_POINT('',(0.0077,0.0054375,0.0037));
#1142=CARTESIAN_POINT('',(0.0077,0.00755,0.0037));
#1143=CARTESIAN_POINT('',(0.0074,0.00755,0.0037));
#1144=CARTESIAN_POINT('',(0.0074,0.00725,0.0037));
#1145=CARTESIAN_POINT('',(-1.7347234759768E-18,0.00725,0.0037));
#1146=CARTESIAN_POINT('',(0.0061,0.00725,0.0037));
#1147=CARTESIAN_POINT('',(0.0061,0.0054375,0.0037));
#1148=CARTESIAN_POINT('',(0.0061,0.00145,0.0037));
#1149=CARTESIAN_POINT('',(-1.3628304727264E-18,0.00145,0.0037));
#1150=CARTESIAN_POINT('',(0.003775,0.00145,0.0037));
#1151=CARTESIAN_POINT('',(0.003775,0.0054375,0.0037));
#1152=CARTESIAN_POINT('',(0.003775,0.0013,0.0037));
#1153=CARTESIAN_POINT('',(-0.00018125,0.00525625,0.0037));
#1154=CARTESIAN_POINT('',(0.00459529589510815,0.000479704104891849,0.0037));
#1155=CARTESIAN_POINT('',(0.00562060072782865,0.00150500893761234,0.0037));
#1156=CARTESIAN_POINT('',(0.00601620145565729,0.000110017875224685,0.0037));
#1157=CARTESIAN_POINT('',(0.005225,0.0029,0.0037));
#1158=CARTESIAN_POINT('',(0.008125,0.0029,0.0037));
#1159=CARTESIAN_POINT('',(0.008125,0.0054375,0.0037));
#1160=CARTESIAN_POINT('',(0.008125,0.00808957591589181,0.0037));
#1161=CARTESIAN_POINT('',(0.006675,0.00808957591589181,0.0037));
#1162=CARTESIAN_POINT('',(0.00750668583270902,0.00927734638011085,0.0037));
#1163=CARTESIAN_POINT('',(0.00427376168832338,0.0115410642364698,0.0037));
#1164=CARTESIAN_POINT('',(0.0055995025888345,0.010612770464219,0.0037));
#1165=CARTESIAN_POINT('',(0.00476781675612548,0.009425,0.0037));
#1166=CARTESIAN_POINT('',(0.00476781675612548,0.010875,0.0037));
#1167=CARTESIAN_POINT('',(-1.7347234759768E-18,0.010875,0.0037));
#1168=CARTESIAN_POINT('',(-0.00476781675612548,0.010875,0.0037));
#1169=CARTESIAN_POINT('',(-0.00476781675612548,0.009425,0.0037));
#1170=CARTESIAN_POINT('',(-0.0055995025888345,0.010612770464219,0.0037));
#1171=CARTESIAN_POINT('',(-0.00427376168832337,0.0115410642364698,0.0037));
#1172=CARTESIAN_POINT('',(-0.00750668583270902,0.00927734638011085,0.0037));
#1173=CARTESIAN_POINT('',(-0.006675,0.00808957591589181,0.0037));
#1174=CARTESIAN_POINT('',(-0.008125,0.00808957591589181,0.0037));
#1175=CARTESIAN_POINT('',(-0.008125,0.0054375,0.0037));
#1176=CARTESIAN_POINT('',(-0.008125,0.0029,0.0037));
#1177=CARTESIAN_POINT('',(-0.005225,0.0029,0.0037));
#1178=CARTESIAN_POINT('',(-0.00601620145565729,0.000110017875224683,0.0037));
#1179=CARTESIAN_POINT('',(-0.00562060072782865,0.00150500893761234,0.0037));
#1180=CARTESIAN_POINT('',(-0.00459529589510815,0.000479704104891848,0.0037));
#1181=CARTESIAN_POINT('',(0.00018125,0.00525625,0.0037));
#1182=CARTESIAN_POINT('',(-1.7347234759768E-18,0.00145,0.0037));
#1183=CARTESIAN_POINT('',(-0.0061,0.00145,0.0037));
#1184=CARTESIAN_POINT('',(-0.0061,0.0054375,0.0037));
#1185=CARTESIAN_POINT('',(-0.0061,0.00725,0.0037));
#1186=CARTESIAN_POINT('',(-1.7347234759768E-18,0.00725,0.0037));
#1187=CARTESIAN_POINT('',(-0.0074,0.00725,0.0037));
#1188=CARTESIAN_POINT('',(-0.0074,0.00755,0.0037));
#1189=CARTESIAN_POINT('',(-0.0077,0.00755,0.0037));
#1190=CARTESIAN_POINT('',(-0.0077,0.0054375,0.0037));
#1191=CARTESIAN_POINT('',(-0.0077,0.00826,0.0037));
#1192=CARTESIAN_POINT('',(-0.0074,0.00826,0.0037));
#1193=CARTESIAN_POINT('',(-0.0074,0.00856,0.0037));
#1194=CARTESIAN_POINT('',(-1.7347234759768E-18,0.00856,0.0037));
#1195=CARTESIAN_POINT('',(-0.00694495473838937,0.00856,0.0037));
#1196=CARTESIAN_POINT('',(-0.00694495473838937,0.01001,0.0037));
#1197=CARTESIAN_POINT('',(0.008125,0.0054375,0.0037));
#1198=CARTESIAN_POINT('',(0.008125,0.0054375,0.));
#1199=CARTESIAN_POINT('',(0.008125,0.00808957591589181,0.));
#1200=CARTESIAN_POINT('',(0.008125,0.0029,0.));
#1201=CARTESIAN_POINT('',(0.008125,0.00808957591589181,0.0037));
#1202=CARTESIAN_POINT('',(0.008125,0.0029,0.0037));
#1203=CARTESIAN_POINT('',(-1.7347234759768E-18,0.010875,0.0037));
#1204=CARTESIAN_POINT('',(-1.7347234759768E-18,0.010875,0.));
#1205=CARTESIAN_POINT('',(0.00476781675612548,0.010875,0.));
#1206=CARTESIAN_POINT('',(-0.00476781675612548,0.010875,0.));
#1207=CARTESIAN_POINT('',(-0.00476781675612548,0.010875,0.0037));
#1208=CARTESIAN_POINT('',(0.00476781675612548,0.010875,0.));
#1209=CARTESIAN_POINT('',(-0.008125,0.0054375,0.0037));
#1210=CARTESIAN_POINT('',(-0.008125,0.00808957591589181,0.));
#1211=CARTESIAN_POINT('',(-0.008125,0.00808957591589181,0.));
#1212=CARTESIAN_POINT('',(-0.008125,0.0054375,0.));
#1213=CARTESIAN_POINT('',(-0.008125,0.0029,0.));
#1214=CARTESIAN_POINT('',(-0.008125,0.0029,0.0037));
#1215=CARTESIAN_POINT('',(-1.7347234759768E-18,0.0054375,0.));
#1216=CARTESIAN_POINT('',(-0.006675,0.00808957591589181,0.));
#1217=CARTESIAN_POINT('',(-0.00750668583270902,0.00927734638011085,0.));
#1218=CARTESIAN_POINT('',(-0.008125,0.00884439813919184,0.));
#1219=CARTESIAN_POINT('',(-0.0055995025888345,0.010612770464219,0.));
#1220=CARTESIAN_POINT('',(-0.00476781675612548,0.009425,0.));
#1221=CARTESIAN_POINT('',(0.00476781675612548,0.009425,0.));
#1222=CARTESIAN_POINT('',(0.0055995025888345,0.010612770464219,0.));
#1223=CARTESIAN_POINT('',(0.005225,0.010875,0.));
#1224=CARTESIAN_POINT('',(0.00750668583270902,0.00927734638011085,0.));
#1225=CARTESIAN_POINT('',(0.006675,0.00808957591589181,0.));
#1226=CARTESIAN_POINT('',(0.005225,0.0029,0.));
#1227=CARTESIAN_POINT('',(-0.005225,0.0029,0.));
#1228=CARTESIAN_POINT('',(-0.004425,0.00065,0.0200602041446815));
#1229=CARTESIAN_POINT('',(-0.004425,0.00065,0.00015));
#1230=CARTESIAN_POINT('',(-0.00459529589510815,0.000479704104891847,0.00015));
#1231=CARTESIAN_POINT('',(-0.00459529589510815,0.000479704104891847,0.0200602041446815));
#1232=CARTESIAN_POINT('',(0.004425,0.00065,0.0200602041446815));
#1233=CARTESIAN_POINT('',(0.004425,0.00065,0.00015));
#1234=CARTESIAN_POINT('',(0.003775,0.0013,0.00015));
#1235=CARTESIAN_POINT('',(0.00459529589510815,0.000479704104891849,0.00015));
#1236=CARTESIAN_POINT('',(0.00459529589510815,0.000479704104891849,0.0037));
#1237=CARTESIAN_POINT('',(0.003775,0.0013,0.0200602041446815));
#1238=CARTESIAN_POINT('',(0.003775,0.001375,0.0200602041446815));
#1239=CARTESIAN_POINT('',(0.003775,0.00145,0.0200602041446815));
#1240=CARTESIAN_POINT('',(0.003775,0.00145,0.00015));
#1241=CARTESIAN_POINT('',(0.003775,0.001375,0.00015));
#1242=CARTESIAN_POINT('',(0.0049375,0.00145,0.0200602041446815));
#1243=CARTESIAN_POINT('',(0.0061,0.00145,0.0200602041446815));
#1244=CARTESIAN_POINT('',(0.0061,0.00145,0.00015));
#1245=CARTESIAN_POINT('',(0.0049375,0.00145,0.00015));
#1246=CARTESIAN_POINT('',(0.0061,0.00435,0.0200602041446815));
#1247=CARTESIAN_POINT('',(0.0061,0.00725,0.0200602041446815));
#1248=CARTESIAN_POINT('',(0.0061,0.00725,0.00015));
#1249=CARTESIAN_POINT('',(0.0061,0.00435,0.00015));
#1250=CARTESIAN_POINT('',(0.00675,0.00725,0.0200602041446815));
#1251=CARTESIAN_POINT('',(0.0074,0.00725,0.0200602041446815));
#1252=CARTESIAN_POINT('',(0.0074,0.00725,0.00015));
#1253=CARTESIAN_POINT('',(0.00675,0.00725,0.00015));
#1254=CARTESIAN_POINT('',(0.0074,0.00755,0.0200602041446815));
#1255=CARTESIAN_POINT('',(0.0077,0.00755,0.0200602041446815));
#1256=CARTESIAN_POINT('',(0.0077,0.00755,0.00015));
#1257=CARTESIAN_POINT('',(0.0074,0.00755,0.00015));
#1258=CARTESIAN_POINT('',(0.0077,0.007905,0.0200602041446815));
#1259=CARTESIAN_POINT('',(0.0077,0.00826,0.0200602041446815));
#1260=CARTESIAN_POINT('',(0.0077,0.00826,0.00015));
#1261=CARTESIAN_POINT('',(0.0077,0.007905,0.00015));
#1262=CARTESIAN_POINT('',(0.0074,0.00826,0.0200602041446815));
#1263=CARTESIAN_POINT('',(0.0074,0.00856,0.0200602041446815));
#1264=CARTESIAN_POINT('',(0.0074,0.00856,0.00015));
#1265=CARTESIAN_POINT('',(0.0074,0.00826,0.00015));
#1266=CARTESIAN_POINT('',(0.00675,0.00856,0.0200602041446815));
#1267=CARTESIAN_POINT('',(0.00694495473838937,0.00856,0.0200602041446815));
#1268=CARTESIAN_POINT('',(0.00694495473838937,0.00856,0.00015));
#1269=CARTESIAN_POINT('',(0.00675,0.00856,0.00015));
#1270=CARTESIAN_POINT('',(0.0058890859808941,0.00901619862802198,0.0037));
#1271=CARTESIAN_POINT('',(0.0058890859808941,0.00901619862802198,0.000150000000000001));
#1272=CARTESIAN_POINT('',(0.00554267503459711,0.00938424450294503,0.0037));
#1273=CARTESIAN_POINT('',(0.00554267503459711,0.00938424450294503,0.000150000000000001));
#1274=CARTESIAN_POINT('',(0.00398245510136321,0.0100516715872419,0.0037));
#1275=CARTESIAN_POINT('',(0.00398245510136321,0.0100516715872419,0.000150000000000001));
#1276=CARTESIAN_POINT('',(-4.02822807161922E-18,0.0104391642063791,0.0037));
#1277=CARTESIAN_POINT('',(-4.02822807161922E-18,0.0104391642063791,0.00015));
#1278=CARTESIAN_POINT('',(-0.00398245510136321,0.0100516715872419,0.0037));
#1279=CARTESIAN_POINT('',(-0.00398245510136321,0.0100516715872419,0.00015));
#1280=CARTESIAN_POINT('',(-0.00554267503459711,0.00938424450294503,0.0037));
#1281=CARTESIAN_POINT('',(-0.00554267503459711,0.00938424450294503,0.000150000000000001));
#1282=CARTESIAN_POINT('',(-0.0058890859808941,0.00901619862802198,0.0037));
#1283=CARTESIAN_POINT('',(-0.0058890859808941,0.00901619862802198,0.000150000000000001));
#1284=CARTESIAN_POINT('',(0.,0.00856,0.00015));
#1285=CARTESIAN_POINT('',(0.0058890859808941,0.00901619862802198,0.00015));
#1286=CARTESIAN_POINT('',(-0.0058890859808941,0.00901619862802198,0.00015));
#1287=CARTESIAN_POINT('',(0.0058890859808941,0.00901619862802198,0.00015));
#1288=CARTESIAN_POINT('',(-0.0058890859808941,0.00901619862802198,0.0037));
#1289=CARTESIAN_POINT('',(-0.00675,0.00856,0.0200602041446815));
#1290=CARTESIAN_POINT('',(-0.00675,0.00856,0.00015));
#1291=CARTESIAN_POINT('',(-0.0074,0.00856,0.00015));
#1292=CARTESIAN_POINT('',(-0.00694495473838937,0.00856,0.00015));
#1293=CARTESIAN_POINT('',(-0.00694495473838937,0.00856,0.0037));
#1294=CARTESIAN_POINT('',(-0.0074,0.00856,0.0200602041446815));
#1295=CARTESIAN_POINT('',(-0.0074,0.00826,0.0200602041446815));
#1296=CARTESIAN_POINT('',(-0.0077,0.00826,0.0200602041446815));
#1297=CARTESIAN_POINT('',(-0.0077,0.00826,0.00015));
#1298=CARTESIAN_POINT('',(-0.0074,0.00826,0.00015));
#1299=CARTESIAN_POINT('',(-0.0077,0.007905,0.0200602041446815));
#1300=CARTESIAN_POINT('',(-0.0077,0.00755,0.0200602041446815));
#1301=CARTESIAN_POINT('',(-0.0077,0.00755,0.00015));
#1302=CARTESIAN_POINT('',(-0.0077,0.007905,0.00015));
#1303=CARTESIAN_POINT('',(-0.0074,0.00755,0.0200602041446815));
#1304=CARTESIAN_POINT('',(-0.0074,0.00725,0.0200602041446815));
#1305=CARTESIAN_POINT('',(-0.0074,0.00725,0.00015));
#1306=CARTESIAN_POINT('',(-0.0074,0.00755,0.00015));
#1307=CARTESIAN_POINT('',(-0.00675,0.00725,0.0200602041446815));
#1308=CARTESIAN_POINT('',(-0.0061,0.00725,0.0200602041446815));
#1309=CARTESIAN_POINT('',(-0.0061,0.00725,0.00015));
#1310=CARTESIAN_POINT('',(-0.00675,0.00725,0.00015));
#1311=CARTESIAN_POINT('',(-0.0061,0.00435,0.0200602041446815));
#1312=CARTESIAN_POINT('',(-0.0061,0.00145,0.0200602041446815));
#1313=CARTESIAN_POINT('',(-0.0061,0.00145,0.00015));
#1314=CARTESIAN_POINT('',(-0.0061,0.00435,0.00015));
#1315=CARTESIAN_POINT('',(0.,0.0032,0.0200602041446815));
#1316=CARTESIAN_POINT('',(0.,0.0032,0.000875));
#1317=CARTESIAN_POINT('',(0.00145,0.0032,0.000875));
#1318=CARTESIAN_POINT('',(0.,0.0032,0.00371666666666666));
#1319=CARTESIAN_POINT('',(0.00145,0.0032,0.00371666666666666));
#1320=CARTESIAN_POINT('',(-0.0049375,0.00145,0.0200602041446815));
#1321=CARTESIAN_POINT('',(-0.0049375,0.00145,0.00015));
#1322=CARTESIAN_POINT('',(-1.7347234759768E-18,0.00856,0.00015));
#1323=CARTESIAN_POINT('',(-0.00562060072782865,0.00150500893761234,0.00015));
#1324=CARTESIAN_POINT('',(-0.00601620145565729,0.000110017875224683,0.00015));
#1325=CARTESIAN_POINT('',(-0.005225,0.0029,0.00015));
#1326=CARTESIAN_POINT('',(0.005225,0.0029,0.00015));
#1327=CARTESIAN_POINT('',(0.00601620145565729,0.000110017875224685,0.00015));
#1328=CARTESIAN_POINT('',(0.00562060072782865,0.00150500893761234,0.00015));
#1329=CARTESIAN_POINT('',(0.00694495473838937,0.01001,0.00015));
#1330=CARTESIAN_POINT('',(-0.00694495473838937,0.01001,0.00015));
#1331=CARTESIAN_POINT('',(0.,0.0032,0.00015));
#1332=CARTESIAN_POINT('',(0.002175,0.0032,0.00015));
#1333=CARTESIAN_POINT('',(0.005225,0.0029,0.0037));
#1334=CARTESIAN_POINT('',(0.00601620145565729,0.000110017875224685,0.0037));
#1335=CARTESIAN_POINT('',(-0.005225,0.0029,0.0037));
#1336=CARTESIAN_POINT('',(-0.00601620145565729,0.000110017875224683,0.0037));
#1337=CARTESIAN_POINT('',(-1.7347234759768E-18,0.00856,0.0042));
#1338=CARTESIAN_POINT('',(0.,0.0032,0.0042));
#1339=CARTESIAN_POINT('',(0.000966666666666666,0.0032,0.0042));
#1340=CARTESIAN_POINT('',(0.,0.0032,0.00371666666666666));
#1341=CARTESIAN_POINT('',(0.,0.0032,0.00015));
#1342=CARTESIAN_POINT('',(0.00562060072782865,0.00150500893761234,0.0037));
#1343=CARTESIAN_POINT('',(-0.00562060072782865,0.00150500893761234,0.0037));
#1344=CARTESIAN_POINT('',(-0.008125,0.00884439813919184,0.0037));
#1345=CARTESIAN_POINT('',(-0.00750668583270902,0.00927734638011085,0.0037));
#1346=CARTESIAN_POINT('',(-0.0055995025888345,0.010612770464219,0.));
#1347=CARTESIAN_POINT('',(0.005225,0.010875,0.0037));
#1348=CARTESIAN_POINT('',(0.00750668583270902,0.00927734638011085,0.0037));
#1349=CARTESIAN_POINT('',(0.0055995025888345,0.010612770464219,0.0037));
#1350=CARTESIAN_POINT('',(-0.006675,0.00808957591589181,0.0037));
#1351=CARTESIAN_POINT('',(-0.00476781675612548,0.009425,0.0037));
#1352=CARTESIAN_POINT('',(0.006675,0.00808957591589181,0.0037));
#1353=CARTESIAN_POINT('',(0.00476781675612548,0.009425,0.0037));
#1354=CARTESIAN_POINT('',(0.00694495473838937,0.01001,0.001925));
#1355=CARTESIAN_POINT('',(-0.00694495473838937,0.01001,0.001925));
#1356=MECHANICAL_DESIGN_GEOMETRIC_PRESENTATION_REPRESENTATION('',(#787),
#1357);
#1357=(
GEOMETRIC_REPRESENTATION_CONTEXT(3)
GLOBAL_UNCERTAINTY_ASSIGNED_CONTEXT((#1358))
GLOBAL_UNIT_ASSIGNED_CONTEXT((#1361,#1360,#1359))
REPRESENTATION_CONTEXT('SwitchBase','TOP_LEVEL_ASSEMBLY_PART')
);
#1358=UNCERTAINTY_MEASURE_WITH_UNIT(LENGTH_MEASURE(2.E-5),#1361,
'DISTANCE_ACCURACY_VALUE','Maximum Tolerance applied to model');
#1359=(
NAMED_UNIT(*)
SI_UNIT($,.STERADIAN.)
SOLID_ANGLE_UNIT()
);
#1360=(
NAMED_UNIT(*)
PLANE_ANGLE_UNIT()
SI_UNIT($,.RADIAN.)
);
#1361=(
LENGTH_UNIT()
NAMED_UNIT(*)
SI_UNIT($,.METRE.)
);
#1362=PRODUCT_DEFINITION_SHAPE('','',#1363);
#1363=PRODUCT_DEFINITION('','',#1365,#1364);
#1364=PRODUCT_DEFINITION_CONTEXT('',#1371,'design');
#1365=PRODUCT_DEFINITION_FORMATION_WITH_SPECIFIED_SOURCE('','',#1367,
 .NOT_KNOWN.);
#1366=PRODUCT_RELATED_PRODUCT_CATEGORY('','',(#1367));
#1367=PRODUCT('SwitchBase','SwitchBase','SwitchBase',(#1369));
#1368=PRODUCT_CATEGORY('','');
#1369=PRODUCT_CONTEXT('',#1371,'mechanical');
#1370=APPLICATION_PROTOCOL_DEFINITION('international standard',
'ap242_managed_model_based_3d_engineering',2020,#1371);
#1371=APPLICATION_CONTEXT('managed model based 3d engineering');
ENDSEC;
END-ISO-10303-21;
