ISO-10303-21;
HEADER;
/* Generated by software containing ST-Developer
 * from STEP Tools, Inc. (www.steptools.com) 
 */
/* OPTION: using custom renumber hook */

FILE_DESCRIPTION(
/* description */ ('STEP AP242 Edition 2',
'CAx-IF Rec.Pracs.---Representation and Presentation of Product Manufa
cturing Information (PMI)---4.0---2014-10-13',
'CAx-IF Rec.Pracs.---3D Tessellated Geometry---0.4---2014-09-14','2;1',
'CAx-IF Rec.Pracs.---User Defined Attributes---1.5---2016-08-15'),
/* implementation_level */ '2;1');

FILE_NAME(
/* name */ 'MunchMoir - CoseLockLower',
/* time_stamp */ '2026-09-19T09:01:34Z',
/* author */ (''),
/* organization */ (''),
/* preprocessor_version */ 'ST-DEVELOPER v20',
/* originating_system */ 'ONSHAPE BY PTC INC, 1.221',
/* authorisation */ '  ');

FILE_SCHEMA (('AP242_MANAGED_MODEL_BASED_3D_ENGINEERING_MIM_LF { 1 0 10303 442 3 1 4 }'));
ENDSEC;

DATA;
#10=SHAPE_REPRESENTATION_RELATIONSHIP('','',#382,#11);
#11=ADVANCED_BREP_SHAPE_REPRESENTATION('',(#380),#628);
#12=CYLINDRICAL_SURFACE('',#404,0.0072);
#13=CYLINDRICAL_SURFACE('',#405,0.002);
#14=CYLINDRICAL_SURFACE('',#406,0.002);
#15=B_SPLINE_SURFACE_WITH_KNOTS('',3,1,((#555,#556),(#557,#558),(#559,#560),
(#561,#562)),.SURF_OF_LINEAR_EXTRUSION.,.F.,.F.,.F.,(4,4),(2,2),(0.460368972529945,
1.),(0.,1.),.PIECEWISE_BEZIER_KNOTS.);
#16=B_SPLINE_SURFACE_WITH_KNOTS('',3,1,((#582,#583),(#584,#585),(#586,#587),
(#588,#589)),.SURF_OF_LINEAR_EXTRUSION.,.F.,.F.,.F.,(4,4),(2,2),(0.460368972529945,
1.),(0.,1.),.PIECEWISE_BEZIER_KNOTS.);
#17=B_SPLINE_CURVE_WITH_KNOTS('',3,(#513,#514,#515,#516),.UNSPECIFIED.,
 .F.,.F.,(4,4),(0.449303520624453,1.),.PIECEWISE_BEZIER_KNOTS.);
#18=B_SPLINE_CURVE_WITH_KNOTS('',3,(#518,#519,#520,#521),.UNSPECIFIED.,
 .F.,.F.,(4,4),(0.449303520624453,1.),.PIECEWISE_BEZIER_KNOTS.);
#19=B_SPLINE_CURVE_WITH_KNOTS('',3,(#538,#539,#540,#541),.UNSPECIFIED.,
 .F.,.F.,(4,4),(0.449303520624453,1.),.PIECEWISE_BEZIER_KNOTS.);
#20=B_SPLINE_CURVE_WITH_KNOTS('',3,(#543,#544,#545,#546),.UNSPECIFIED.,
 .F.,.F.,(4,4),(0.449303520624453,1.),.PIECEWISE_BEZIER_KNOTS.);
#21=CIRCLE('',#385,0.0072);
#22=CIRCLE('',#386,0.002);
#23=CIRCLE('',#387,0.002);
#24=CIRCLE('',#389,0.002);
#25=CIRCLE('',#390,0.0072);
#26=CIRCLE('',#391,0.002);
#27=ORIENTED_EDGE('',*,*,#129,.F.);
#28=ORIENTED_EDGE('',*,*,#130,.T.);
#29=ORIENTED_EDGE('',*,*,#131,.T.);
#30=ORIENTED_EDGE('',*,*,#132,.F.);
#31=ORIENTED_EDGE('',*,*,#133,.F.);
#32=ORIENTED_EDGE('',*,*,#134,.T.);
#33=ORIENTED_EDGE('',*,*,#135,.F.);
#34=ORIENTED_EDGE('',*,*,#136,.T.);
#35=ORIENTED_EDGE('',*,*,#137,.F.);
#36=ORIENTED_EDGE('',*,*,#138,.T.);
#37=ORIENTED_EDGE('',*,*,#139,.T.);
#38=ORIENTED_EDGE('',*,*,#140,.T.);
#39=ORIENTED_EDGE('',*,*,#141,.T.);
#40=ORIENTED_EDGE('',*,*,#142,.F.);
#41=ORIENTED_EDGE('',*,*,#143,.T.);
#42=ORIENTED_EDGE('',*,*,#144,.F.);
#43=ORIENTED_EDGE('',*,*,#145,.T.);
#44=ORIENTED_EDGE('',*,*,#146,.F.);
#45=ORIENTED_EDGE('',*,*,#147,.F.);
#46=ORIENTED_EDGE('',*,*,#148,.F.);
#47=ORIENTED_EDGE('',*,*,#149,.T.);
#48=ORIENTED_EDGE('',*,*,#150,.T.);
#49=ORIENTED_EDGE('',*,*,#136,.F.);
#50=ORIENTED_EDGE('',*,*,#151,.T.);
#51=ORIENTED_EDGE('',*,*,#146,.T.);
#52=ORIENTED_EDGE('',*,*,#152,.F.);
#53=ORIENTED_EDGE('',*,*,#135,.T.);
#54=ORIENTED_EDGE('',*,*,#153,.T.);
#55=ORIENTED_EDGE('',*,*,#140,.F.);
#56=ORIENTED_EDGE('',*,*,#151,.F.);
#57=ORIENTED_EDGE('',*,*,#154,.F.);
#58=ORIENTED_EDGE('',*,*,#155,.T.);
#59=ORIENTED_EDGE('',*,*,#129,.T.);
#60=ORIENTED_EDGE('',*,*,#156,.T.);
#61=ORIENTED_EDGE('',*,*,#157,.F.);
#62=ORIENTED_EDGE('',*,*,#158,.T.);
#63=ORIENTED_EDGE('',*,*,#159,.T.);
#64=ORIENTED_EDGE('',*,*,#147,.T.);
#65=ORIENTED_EDGE('',*,*,#160,.T.);
#66=ORIENTED_EDGE('',*,*,#161,.T.);
#67=ORIENTED_EDGE('',*,*,#137,.T.);
#68=ORIENTED_EDGE('',*,*,#152,.T.);
#69=ORIENTED_EDGE('',*,*,#145,.F.);
#70=ORIENTED_EDGE('',*,*,#162,.F.);
#71=ORIENTED_EDGE('',*,*,#144,.T.);
#72=ORIENTED_EDGE('',*,*,#163,.T.);
#73=ORIENTED_EDGE('',*,*,#138,.F.);
#74=ORIENTED_EDGE('',*,*,#162,.T.);
#75=ORIENTED_EDGE('',*,*,#155,.F.);
#76=ORIENTED_EDGE('',*,*,#164,.F.);
#77=ORIENTED_EDGE('',*,*,#165,.F.);
#78=ORIENTED_EDGE('',*,*,#130,.F.);
#79=ORIENTED_EDGE('',*,*,#161,.F.);
#80=ORIENTED_EDGE('',*,*,#166,.T.);
#81=ORIENTED_EDGE('',*,*,#167,.T.);
#82=ORIENTED_EDGE('',*,*,#168,.F.);
#83=ORIENTED_EDGE('',*,*,#164,.T.);
#84=ORIENTED_EDGE('',*,*,#154,.T.);
#85=ORIENTED_EDGE('',*,*,#168,.T.);
#86=ORIENTED_EDGE('',*,*,#169,.T.);
#87=ORIENTED_EDGE('',*,*,#160,.F.);
#88=ORIENTED_EDGE('',*,*,#150,.F.);
#89=ORIENTED_EDGE('',*,*,#170,.F.);
#90=ORIENTED_EDGE('',*,*,#166,.F.);
#91=ORIENTED_EDGE('',*,*,#156,.F.);
#92=ORIENTED_EDGE('',*,*,#132,.T.);
#93=ORIENTED_EDGE('',*,*,#171,.T.);
#94=ORIENTED_EDGE('',*,*,#172,.T.);
#95=ORIENTED_EDGE('',*,*,#158,.F.);
#96=ORIENTED_EDGE('',*,*,#173,.T.);
#97=ORIENTED_EDGE('',*,*,#174,.F.);
#98=ORIENTED_EDGE('',*,*,#175,.F.);
#99=ORIENTED_EDGE('',*,*,#173,.F.);
#100=ORIENTED_EDGE('',*,*,#157,.T.);
#101=ORIENTED_EDGE('',*,*,#172,.F.);
#102=ORIENTED_EDGE('',*,*,#176,.F.);
#103=ORIENTED_EDGE('',*,*,#159,.F.);
#104=ORIENTED_EDGE('',*,*,#175,.T.);
#105=ORIENTED_EDGE('',*,*,#177,.T.);
#106=ORIENTED_EDGE('',*,*,#148,.T.);
#107=ORIENTED_EDGE('',*,*,#167,.F.);
#108=ORIENTED_EDGE('',*,*,#170,.T.);
#109=ORIENTED_EDGE('',*,*,#149,.F.);
#110=ORIENTED_EDGE('',*,*,#177,.F.);
#111=ORIENTED_EDGE('',*,*,#174,.T.);
#112=ORIENTED_EDGE('',*,*,#176,.T.);
#113=ORIENTED_EDGE('',*,*,#171,.F.);
#114=ORIENTED_EDGE('',*,*,#131,.F.);
#115=ORIENTED_EDGE('',*,*,#165,.T.);
#116=ORIENTED_EDGE('',*,*,#169,.F.);
#117=ORIENTED_EDGE('',*,*,#142,.T.);
#118=ORIENTED_EDGE('',*,*,#178,.T.);
#119=ORIENTED_EDGE('',*,*,#133,.T.);
#120=ORIENTED_EDGE('',*,*,#179,.T.);
#121=ORIENTED_EDGE('',*,*,#141,.F.);
#122=ORIENTED_EDGE('',*,*,#153,.F.);
#123=ORIENTED_EDGE('',*,*,#134,.F.);
#124=ORIENTED_EDGE('',*,*,#178,.F.);
#125=ORIENTED_EDGE('',*,*,#139,.F.);
#126=ORIENTED_EDGE('',*,*,#163,.F.);
#127=ORIENTED_EDGE('',*,*,#143,.F.);
#128=ORIENTED_EDGE('',*,*,#179,.F.);
#129=EDGE_CURVE('',#180,#181,#214,.T.);
#130=EDGE_CURVE('',#180,#182,#215,.T.);
#131=EDGE_CURVE('',#182,#183,#216,.T.);
#132=EDGE_CURVE('',#181,#183,#217,.T.);
#133=EDGE_CURVE('',#184,#185,#21,.F.);
#134=EDGE_CURVE('',#184,#186,#22,.T.);
#135=EDGE_CURVE('',#187,#186,#218,.T.);
#136=EDGE_CURVE('',#187,#188,#17,.T.);
#137=EDGE_CURVE('',#189,#188,#18,.T.);
#138=EDGE_CURVE('',#189,#190,#219,.T.);
#139=EDGE_CURVE('',#190,#185,#23,.T.);
#140=EDGE_CURVE('',#191,#192,#220,.T.);
#141=EDGE_CURVE('',#192,#193,#24,.F.);
#142=EDGE_CURVE('',#194,#193,#25,.T.);
#143=EDGE_CURVE('',#194,#195,#26,.F.);
#144=EDGE_CURVE('',#196,#195,#221,.T.);
#145=EDGE_CURVE('',#196,#197,#19,.T.);
#146=EDGE_CURVE('',#191,#197,#20,.T.);
#147=EDGE_CURVE('',#198,#199,#222,.F.);
#148=EDGE_CURVE('',#200,#198,#223,.T.);
#149=EDGE_CURVE('',#200,#201,#224,.T.);
#150=EDGE_CURVE('',#201,#199,#225,.T.);
#151=EDGE_CURVE('',#187,#191,#226,.T.);
#152=EDGE_CURVE('',#188,#197,#227,.T.);
#153=EDGE_CURVE('',#186,#192,#228,.F.);
#154=EDGE_CURVE('',#202,#203,#229,.T.);
#155=EDGE_CURVE('',#202,#180,#230,.T.);
#156=EDGE_CURVE('',#181,#204,#231,.T.);
#157=EDGE_CURVE('',#205,#204,#232,.T.);
#158=EDGE_CURVE('',#205,#206,#233,.T.);
#159=EDGE_CURVE('',#206,#198,#234,.F.);
#160=EDGE_CURVE('',#199,#207,#235,.F.);
#161=EDGE_CURVE('',#207,#203,#236,.T.);
#162=EDGE_CURVE('',#189,#196,#237,.T.);
#163=EDGE_CURVE('',#195,#190,#238,.T.);
#164=EDGE_CURVE('',#208,#202,#239,.T.);
#165=EDGE_CURVE('',#182,#208,#240,.T.);
#166=EDGE_CURVE('',#207,#209,#241,.T.);
#167=EDGE_CURVE('',#209,#210,#242,.T.);
#168=EDGE_CURVE('',#203,#210,#243,.T.);
#169=EDGE_CURVE('',#210,#208,#244,.T.);
#170=EDGE_CURVE('',#209,#201,#245,.F.);
#171=EDGE_CURVE('',#183,#211,#246,.T.);
#172=EDGE_CURVE('',#211,#204,#247,.T.);
#173=EDGE_CURVE('',#205,#212,#248,.T.);
#174=EDGE_CURVE('',#213,#212,#249,.T.);
#175=EDGE_CURVE('',#206,#213,#250,.T.);
#176=EDGE_CURVE('',#212,#211,#251,.T.);
#177=EDGE_CURVE('',#213,#200,#252,.F.);
#178=EDGE_CURVE('',#193,#184,#253,.F.);
#179=EDGE_CURVE('',#185,#194,#254,.T.);
#180=VERTEX_POINT('',#499);
#181=VERTEX_POINT('',#500);
#182=VERTEX_POINT('',#502);
#183=VERTEX_POINT('',#504);
#184=VERTEX_POINT('',#507);
#185=VERTEX_POINT('',#508);
#186=VERTEX_POINT('',#510);
#187=VERTEX_POINT('',#512);
#188=VERTEX_POINT('',#517);
#189=VERTEX_POINT('',#522);
#190=VERTEX_POINT('',#524);
#191=VERTEX_POINT('',#528);
#192=VERTEX_POINT('',#529);
#193=VERTEX_POINT('',#531);
#194=VERTEX_POINT('',#533);
#195=VERTEX_POINT('',#535);
#196=VERTEX_POINT('',#537);
#197=VERTEX_POINT('',#542);
#198=VERTEX_POINT('',#548);
#199=VERTEX_POINT('',#549);
#200=VERTEX_POINT('',#551);
#201=VERTEX_POINT('',#553);
#202=VERTEX_POINT('',#569);
#203=VERTEX_POINT('',#570);
#204=VERTEX_POINT('',#573);
#205=VERTEX_POINT('',#575);
#206=VERTEX_POINT('',#577);
#207=VERTEX_POINT('',#580);
#208=VERTEX_POINT('',#595);
#209=VERTEX_POINT('',#599);
#210=VERTEX_POINT('',#601);
#211=VERTEX_POINT('',#609);
#212=VERTEX_POINT('',#613);
#213=VERTEX_POINT('',#615);
#214=LINE('',#498,#255);
#215=LINE('',#501,#256);
#216=LINE('',#503,#257);
#217=LINE('',#505,#258);
#218=LINE('',#511,#259);
#219=LINE('',#523,#260);
#220=LINE('',#527,#261);
#221=LINE('',#536,#262);
#222=LINE('',#547,#263);
#223=LINE('',#550,#264);
#224=LINE('',#552,#265);
#225=LINE('',#554,#266);
#226=LINE('',#563,#267);
#227=LINE('',#564,#268);
#228=LINE('',#566,#269);
#229=LINE('',#568,#270);
#230=LINE('',#571,#271);
#231=LINE('',#572,#272);
#232=LINE('',#574,#273);
#233=LINE('',#576,#274);
#234=LINE('',#578,#275);
#235=LINE('',#579,#276);
#236=LINE('',#581,#277);
#237=LINE('',#590,#278);
#238=LINE('',#592,#279);
#239=LINE('',#594,#280);
#240=LINE('',#596,#281);
#241=LINE('',#598,#282);
#242=LINE('',#600,#283);
#243=LINE('',#602,#284);
#244=LINE('',#604,#285);
#245=LINE('',#606,#286);
#246=LINE('',#608,#287);
#247=LINE('',#610,#288);
#248=LINE('',#612,#289);
#249=LINE('',#614,#290);
#250=LINE('',#616,#291);
#251=LINE('',#618,#292);
#252=LINE('',#620,#293);
#253=LINE('',#623,#294);
#254=LINE('',#624,#295);
#255=VECTOR('',#411,1.);
#256=VECTOR('',#412,1.);
#257=VECTOR('',#413,1.);
#258=VECTOR('',#414,1.);
#259=VECTOR('',#419,1.);
#260=VECTOR('',#420,1.);
#261=VECTOR('',#425,1.);
#262=VECTOR('',#432,1.);
#263=VECTOR('',#433,1.);
#264=VECTOR('',#434,1.);
#265=VECTOR('',#435,1.);
#266=VECTOR('',#436,1.);
#267=VECTOR('',#437,1.);
#268=VECTOR('',#438,1.);
#269=VECTOR('',#441,1.);
#270=VECTOR('',#444,1.);
#271=VECTOR('',#445,1.);
#272=VECTOR('',#446,1.);
#273=VECTOR('',#447,1.);
#274=VECTOR('',#448,1.);
#275=VECTOR('',#449,1.);
#276=VECTOR('',#450,1.);
#277=VECTOR('',#451,1.);
#278=VECTOR('',#452,1.);
#279=VECTOR('',#455,1.);
#280=VECTOR('',#458,1.);
#281=VECTOR('',#459,1.);
#282=VECTOR('',#462,1.);
#283=VECTOR('',#463,1.);
#284=VECTOR('',#464,1.);
#285=VECTOR('',#467,1.);
#286=VECTOR('',#470,1.);
#287=VECTOR('',#473,1.);
#288=VECTOR('',#474,1.);
#289=VECTOR('',#477,1.);
#290=VECTOR('',#478,1.);
#291=VECTOR('',#479,1.);
#292=VECTOR('',#482,1.);
#293=VECTOR('',#485,1.);
#294=VECTOR('',#490,1.);
#295=VECTOR('',#491,1.);
#296=EDGE_LOOP('',(#27,#28,#29,#30));
#297=EDGE_LOOP('',(#31,#32,#33,#34,#35,#36,#37));
#298=EDGE_LOOP('',(#38,#39,#40,#41,#42,#43,#44));
#299=EDGE_LOOP('',(#45,#46,#47,#48));
#300=EDGE_LOOP('',(#49,#50,#51,#52));
#301=EDGE_LOOP('',(#53,#54,#55,#56));
#302=EDGE_LOOP('',(#57,#58,#59,#60,#61,#62,#63,#64,#65,#66));
#303=EDGE_LOOP('',(#67,#68,#69,#70));
#304=EDGE_LOOP('',(#71,#72,#73,#74));
#305=EDGE_LOOP('',(#75,#76,#77,#78));
#306=EDGE_LOOP('',(#79,#80,#81,#82));
#307=EDGE_LOOP('',(#83,#84,#85,#86));
#308=EDGE_LOOP('',(#87,#88,#89,#90));
#309=EDGE_LOOP('',(#91,#92,#93,#94));
#310=EDGE_LOOP('',(#95,#96,#97,#98));
#311=EDGE_LOOP('',(#99,#100,#101,#102));
#312=EDGE_LOOP('',(#103,#104,#105,#106));
#313=EDGE_LOOP('',(#107,#108,#109,#110,#111,#112,#113,#114,#115,#116));
#314=EDGE_LOOP('',(#117,#118,#119,#120));
#315=EDGE_LOOP('',(#121,#122,#123,#124));
#316=EDGE_LOOP('',(#125,#126,#127,#128));
#317=FACE_BOUND('',#296,.T.);
#318=FACE_BOUND('',#297,.T.);
#319=FACE_BOUND('',#298,.T.);
#320=FACE_BOUND('',#299,.T.);
#321=FACE_BOUND('',#300,.T.);
#322=FACE_BOUND('',#301,.T.);
#323=FACE_BOUND('',#302,.T.);
#324=FACE_BOUND('',#303,.T.);
#325=FACE_BOUND('',#304,.T.);
#326=FACE_BOUND('',#305,.T.);
#327=FACE_BOUND('',#306,.T.);
#328=FACE_BOUND('',#307,.T.);
#329=FACE_BOUND('',#308,.T.);
#330=FACE_BOUND('',#309,.T.);
#331=FACE_BOUND('',#310,.T.);
#332=FACE_BOUND('',#311,.T.);
#333=FACE_BOUND('',#312,.T.);
#334=FACE_BOUND('',#313,.T.);
#335=FACE_BOUND('',#314,.T.);
#336=FACE_BOUND('',#315,.T.);
#337=FACE_BOUND('',#316,.T.);
#338=PLANE('',#384);
#339=PLANE('',#388);
#340=PLANE('',#392);
#341=PLANE('',#393);
#342=PLANE('',#394);
#343=PLANE('',#395);
#344=PLANE('',#396);
#345=PLANE('',#397);
#346=PLANE('',#398);
#347=PLANE('',#399);
#348=PLANE('',#400);
#349=PLANE('',#401);
#350=PLANE('',#402);
#351=PLANE('',#403);
#352=ADVANCED_FACE('',(#317,#318),#338,.T.);
#353=ADVANCED_FACE('',(#319,#320),#339,.F.);
#354=ADVANCED_FACE('',(#321),#15,.F.);
#355=ADVANCED_FACE('',(#322),#340,.T.);
#356=ADVANCED_FACE('',(#323),#341,.F.);
#357=ADVANCED_FACE('',(#324),#16,.T.);
#358=ADVANCED_FACE('',(#325),#342,.T.);
#359=ADVANCED_FACE('',(#326),#343,.T.);
#360=ADVANCED_FACE('',(#327),#344,.T.);
#361=ADVANCED_FACE('',(#328),#345,.F.);
#362=ADVANCED_FACE('',(#329),#346,.F.);
#363=ADVANCED_FACE('',(#330),#347,.T.);
#364=ADVANCED_FACE('',(#331),#348,.T.);
#365=ADVANCED_FACE('',(#332),#349,.F.);
#366=ADVANCED_FACE('',(#333),#350,.F.);
#367=ADVANCED_FACE('',(#334),#351,.T.);
#368=ADVANCED_FACE('',(#335),#12,.T.);
#369=ADVANCED_FACE('',(#336),#13,.T.);
#370=ADVANCED_FACE('',(#337),#14,.T.);
#371=CLOSED_SHELL('',(#352,#353,#354,#355,#356,#357,#358,#359,#360,#361,
#362,#363,#364,#365,#366,#367,#368,#369,#370));
#372=STYLED_ITEM('',(#373),#380);
#373=PRESENTATION_STYLE_ASSIGNMENT((#374));
#374=SURFACE_STYLE_USAGE(.BOTH.,#375);
#375=SURFACE_SIDE_STYLE('',(#376));
#376=SURFACE_STYLE_FILL_AREA(#377);
#377=FILL_AREA_STYLE('',(#378));
#378=FILL_AREA_STYLE_COLOUR('',#379);
#379=COLOUR_RGB('',0.231372549019608,0.380392156862745,0.705882352941177);
#380=MANIFOLD_SOLID_BREP('CoseLockLower',#371);
#381=SHAPE_DEFINITION_REPRESENTATION(#633,#382);
#382=SHAPE_REPRESENTATION('CoseLockLower',(#383),#628);
#383=AXIS2_PLACEMENT_3D('',#496,#407,#408);
#384=AXIS2_PLACEMENT_3D('',#497,#409,#410);
#385=AXIS2_PLACEMENT_3D('',#506,#415,#416);
#386=AXIS2_PLACEMENT_3D('',#509,#417,#418);
#387=AXIS2_PLACEMENT_3D('',#525,#421,#422);
#388=AXIS2_PLACEMENT_3D('',#526,#423,#424);
#389=AXIS2_PLACEMENT_3D('',#530,#426,#427);
#390=AXIS2_PLACEMENT_3D('',#532,#428,#429);
#391=AXIS2_PLACEMENT_3D('',#534,#430,#431);
#392=AXIS2_PLACEMENT_3D('',#565,#439,#440);
#393=AXIS2_PLACEMENT_3D('',#567,#442,#443);
#394=AXIS2_PLACEMENT_3D('',#591,#453,#454);
#395=AXIS2_PLACEMENT_3D('',#593,#456,#457);
#396=AXIS2_PLACEMENT_3D('',#597,#460,#461);
#397=AXIS2_PLACEMENT_3D('',#603,#465,#466);
#398=AXIS2_PLACEMENT_3D('',#605,#468,#469);
#399=AXIS2_PLACEMENT_3D('',#607,#471,#472);
#400=AXIS2_PLACEMENT_3D('',#611,#475,#476);
#401=AXIS2_PLACEMENT_3D('',#617,#480,#481);
#402=AXIS2_PLACEMENT_3D('',#619,#483,#484);
#403=AXIS2_PLACEMENT_3D('',#621,#486,#487);
#404=AXIS2_PLACEMENT_3D('',#622,#488,#489);
#405=AXIS2_PLACEMENT_3D('',#625,#492,#493);
#406=AXIS2_PLACEMENT_3D('',#626,#494,#495);
#407=DIRECTION('',(0.,0.,1.));
#408=DIRECTION('',(1.,0.,0.));
#409=DIRECTION('',(0.,0.,1.));
#410=DIRECTION('',(1.,0.,0.));
#411=DIRECTION('',(1.,0.,0.));
#412=DIRECTION('',(0.,1.,0.));
#413=DIRECTION('',(1.,0.,0.));
#414=DIRECTION('',(0.,1.,0.));
#415=DIRECTION('',(0.,0.,1.));
#416=DIRECTION('',(1.,0.,0.));
#417=DIRECTION('',(0.,0.,1.));
#418=DIRECTION('',(1.,0.,0.));
#419=DIRECTION('',(0.,1.,0.));
#420=DIRECTION('',(0.,1.,0.));
#421=DIRECTION('',(0.,0.,1.));
#422=DIRECTION('',(1.,0.,0.));
#423=DIRECTION('',(0.,0.,1.));
#424=DIRECTION('',(1.,0.,0.));
#425=DIRECTION('',(0.,1.,0.));
#426=DIRECTION('',(0.,0.,1.));
#427=DIRECTION('',(1.,0.,0.));
#428=DIRECTION('',(0.,0.,1.));
#429=DIRECTION('',(1.,0.,0.));
#430=DIRECTION('',(0.,0.,1.));
#431=DIRECTION('',(1.,0.,0.));
#432=DIRECTION('',(0.,1.,0.));
#433=DIRECTION('',(1.,0.,0.));
#434=DIRECTION('',(2.01712032090326E-16,-1.,0.));
#435=DIRECTION('',(-1.,0.,0.));
#436=DIRECTION('',(-2.01712032090326E-16,-1.,0.));
#437=DIRECTION('',(0.,0.,-1.));
#438=DIRECTION('',(0.,0.,-1.));
#439=DIRECTION('',(-1.,0.,0.));
#440=DIRECTION('',(0.,0.,-1.));
#441=DIRECTION('',(0.,0.,1.));
#442=DIRECTION('',(0.,-1.,0.));
#443=DIRECTION('',(0.,0.,-1.));
#444=DIRECTION('',(1.,0.,0.));
#445=DIRECTION('',(0.,0.,1.));
#446=DIRECTION('',(0.,0.,-1.));
#447=DIRECTION('',(1.,0.,0.));
#448=DIRECTION('',(0.,0.,-1.));
#449=DIRECTION('',(-0.422618261740699,0.,0.90630778703665));
#450=DIRECTION('',(-0.422618261740699,0.,-0.90630778703665));
#451=DIRECTION('',(0.,0.,1.));
#452=DIRECTION('',(0.,0.,-1.));
#453=DIRECTION('',(1.,0.,0.));
#454=DIRECTION('',(0.,0.,-1.));
#455=DIRECTION('',(0.,0.,1.));
#456=DIRECTION('',(1.,0.,0.));
#457=DIRECTION('',(0.,0.,1.));
#458=DIRECTION('',(0.,-1.,0.));
#459=DIRECTION('',(0.,0.,-1.));
#460=DIRECTION('',(1.,-2.01712032090326E-16,0.));
#461=DIRECTION('',(-2.01712032090326E-16,-1.,0.));
#462=DIRECTION('',(2.01712032090326E-16,1.,0.));
#463=DIRECTION('',(0.,0.,1.));
#464=DIRECTION('',(2.01712032090326E-16,1.,0.));
#465=DIRECTION('',(0.,0.,-1.));
#466=DIRECTION('',(1.,0.,0.));
#467=DIRECTION('',(-1.,0.,0.));
#468=DIRECTION('',(-0.90630778703665,1.82813185422449E-16,0.422618261740699));
#469=DIRECTION('',(2.01712032090326E-16,1.,0.));
#470=DIRECTION('',(0.422618261740699,0.,0.90630778703665));
#471=DIRECTION('',(-1.,0.,0.));
#472=DIRECTION('',(0.,0.,1.));
#473=DIRECTION('',(0.,0.,-1.));
#474=DIRECTION('',(0.,-1.,0.));
#475=DIRECTION('',(-1.,-2.01712032090326E-16,0.));
#476=DIRECTION('',(2.01712032090326E-16,-1.,0.));
#477=DIRECTION('',(-2.01712032090326E-16,1.,0.));
#478=DIRECTION('',(0.,0.,1.));
#479=DIRECTION('',(-2.01712032090326E-16,1.,0.));
#480=DIRECTION('',(0.,0.,-1.));
#481=DIRECTION('',(-1.,0.,0.));
#482=DIRECTION('',(1.,0.,0.));
#483=DIRECTION('',(0.90630778703665,1.82813185422449E-16,0.422618261740699));
#484=DIRECTION('',(-2.01712032090326E-16,1.,0.));
#485=DIRECTION('',(-0.422618261740699,0.,0.90630778703665));
#486=DIRECTION('',(0.,-1.,0.));
#487=DIRECTION('',(0.,0.,-1.));
#488=DIRECTION('',(0.,0.,-1.));
#489=DIRECTION('',(-1.,0.,0.));
#490=DIRECTION('',(0.,0.,-1.));
#491=DIRECTION('',(0.,0.,-1.));
#492=DIRECTION('',(0.,0.,-1.));
#493=DIRECTION('',(-1.,0.,0.));
#494=DIRECTION('',(0.,0.,-1.));
#495=DIRECTION('',(-1.,0.,0.));
#496=CARTESIAN_POINT('',(0.,0.,0.));
#497=CARTESIAN_POINT('',(0.,-3.46944695195361E-18,0.0037));
#498=CARTESIAN_POINT('',(-0.0036,-0.0207,0.0037));
#499=CARTESIAN_POINT('',(-0.0031,-0.0207,0.0037));
#500=CARTESIAN_POINT('',(0.0031,-0.0207,0.0037));
#501=CARTESIAN_POINT('',(-0.0031,-0.0197,0.0037));
#502=CARTESIAN_POINT('',(-0.0031,-0.018625,0.0037));
#503=CARTESIAN_POINT('',(-0.001075,-0.018625,0.0037));
#504=CARTESIAN_POINT('',(0.0031,-0.018625,0.0037));
#505=CARTESIAN_POINT('',(0.0031,-0.0197,0.0037));
#506=CARTESIAN_POINT('',(1.04083408558608E-17,-0.02435,0.0037));
#507=CARTESIAN_POINT('',(-0.00657328494892869,-0.0214119862185164,0.0037));
#508=CARTESIAN_POINT('',(0.00657328494892868,-0.0214119862185163,0.0037));
#509=CARTESIAN_POINT('',(-0.00474737246311516,-0.0222281011578174,0.0037));
#510=CARTESIAN_POINT('',(-0.00674737246313686,-0.0222281011578174,0.0037));
#511=CARTESIAN_POINT('',(-0.00674737246313686,-0.0226999999999957,0.0037));
#512=CARTESIAN_POINT('',(-0.00674737246313686,-0.0226999999999957,0.0037));
#513=CARTESIAN_POINT('',(-0.00699677662606376,-0.0226514368292678,0.0037));
#514=CARTESIAN_POINT('',(-0.00280368874758245,-0.0234553634934299,0.0037));
#515=CARTESIAN_POINT('',(-0.00140184437379122,-0.02435,0.0037));
#516=CARTESIAN_POINT('',(5.20417042793042E-18,-0.02435,0.0037));
#517=CARTESIAN_POINT('',(5.20417042793042E-18,-0.02435,0.0037));
#518=CARTESIAN_POINT('',(0.00699677662606376,-0.0226514368292678,0.0037));
#519=CARTESIAN_POINT('',(0.00280368874758245,-0.0234553634934299,0.0037));
#520=CARTESIAN_POINT('',(0.00140184437379122,-0.02435,0.0037));
#521=CARTESIAN_POINT('',(-5.20417042793042E-18,-0.02435,0.0037));
#522=CARTESIAN_POINT('',(0.00674737246313686,-0.0226999999999957,0.0037));
#523=CARTESIAN_POINT('',(0.00674737246313686,-0.0226999999999957,0.0037));
#524=CARTESIAN_POINT('',(0.00674737246313686,-0.0222281011578174,0.0037));
#525=CARTESIAN_POINT('',(0.00474737246311516,-0.0222281011578174,0.0037));
#526=CARTESIAN_POINT('',(0.,-3.46944695195361E-18,0.));
#527=CARTESIAN_POINT('',(-0.00674737246313686,-0.0227,0.));
#528=CARTESIAN_POINT('',(-0.00674737246313686,-0.0227,0.));
#529=CARTESIAN_POINT('',(-0.00674737246313686,-0.0222281011578174,0.));
#530=CARTESIAN_POINT('',(-0.00474737246311516,-0.0222281011578174,0.));
#531=CARTESIAN_POINT('',(-0.00657328494892869,-0.0214119862185164,0.));
#532=CARTESIAN_POINT('',(1.04083408558608E-17,-0.02435,0.));
#533=CARTESIAN_POINT('',(0.00657328494892868,-0.0214119862185163,0.));
#534=CARTESIAN_POINT('',(0.00474737246311516,-0.0222281011578174,0.));
#535=CARTESIAN_POINT('',(0.00674737246313686,-0.0222281011578174,0.));
#536=CARTESIAN_POINT('',(0.00674737246313686,-0.0227,0.));
#537=CARTESIAN_POINT('',(0.00674737246313686,-0.0227,0.));
#538=CARTESIAN_POINT('',(0.00699677662606376,-0.0226514368292678,0.));
#539=CARTESIAN_POINT('',(0.00280368874758245,-0.0234553634934299,0.));
#540=CARTESIAN_POINT('',(0.00140184437379122,-0.02435,0.));
#541=CARTESIAN_POINT('',(-5.20417042793042E-18,-0.02435,0.));
#542=CARTESIAN_POINT('',(-5.20417042793042E-18,-0.02435,0.));
#543=CARTESIAN_POINT('',(-0.00699677662606376,-0.0226514368292678,0.));
#544=CARTESIAN_POINT('',(-0.00280368874758245,-0.0234553634934299,0.));
#545=CARTESIAN_POINT('',(-0.00140184437379122,-0.02435,0.));
#546=CARTESIAN_POINT('',(5.20417042793042E-18,-0.02435,0.));
#547=CARTESIAN_POINT('',(-0.0036,-0.0207,0.));
#548=CARTESIAN_POINT('',(0.00309427300776389,-0.0207,-6.93889390390723E-18));
#549=CARTESIAN_POINT('',(-0.00309427300776386,-0.0207,2.16840434497101E-18));
#550=CARTESIAN_POINT('',(0.00309427300776388,-0.000825,2.16840434497101E-18));
#551=CARTESIAN_POINT('',(0.00309427300776388,-0.018625,2.16840434497101E-18));
#552=CARTESIAN_POINT('',(-0.001075,-0.018625,2.16840434497101E-18));
#553=CARTESIAN_POINT('',(-0.00309427300776386,-0.018625,2.16840434497101E-18));
#554=CARTESIAN_POINT('',(-0.00309427300776386,-0.000825,2.16840434497101E-18));
#555=CARTESIAN_POINT('',(-0.00674737271479076,-0.0226999999502342,0.0037));
#556=CARTESIAN_POINT('',(-0.00674737271479076,-0.0226999999502342,0.));
#557=CARTESIAN_POINT('',(-0.00274735266381172,-0.0234909551448652,0.0037));
#558=CARTESIAN_POINT('',(-0.00274735266381172,-0.0234909551448652,-8.67361737988404E-19));
#559=CARTESIAN_POINT('',(-0.00137367633190586,-0.02435,0.0037));
#560=CARTESIAN_POINT('',(-0.00137367633190586,-0.02435,-1.30104260698261E-18));
#561=CARTESIAN_POINT('',(5.20417042793042E-18,-0.02435,0.0037));
#562=CARTESIAN_POINT('',(5.20417042793042E-18,-0.02435,-1.30104260698261E-18));
#563=CARTESIAN_POINT('',(-0.00674737246311516,-0.0227,0.0037));
#564=CARTESIAN_POINT('',(5.20417042793042E-18,-0.02435,0.0037));
#565=CARTESIAN_POINT('',(-0.00674737246311516,-0.0227,0.0037));
#566=CARTESIAN_POINT('',(-0.00674737246311516,-0.0222281011578174,2.77555756156289E-17));
#567=CARTESIAN_POINT('',(-0.0036,-0.0207,0.0492379646136218));
#568=CARTESIAN_POINT('',(-0.0036,-0.0207,0.00294166666666667));
#569=CARTESIAN_POINT('',(-0.0031,-0.0207,0.00294166666666667));
#570=CARTESIAN_POINT('',(-0.00215,-0.0207,0.00294166666666667));
#571=CARTESIAN_POINT('',(-0.0031,-0.0207,0.0492379646136218));
#572=CARTESIAN_POINT('',(0.0031,-0.0207,0.0492379646136218));
#573=CARTESIAN_POINT('',(0.0031,-0.0207,0.00294166666666667));
#574=CARTESIAN_POINT('',(-0.0036,-0.0207,0.00294166666666667));
#575=CARTESIAN_POINT('',(0.00215,-0.0207,0.00294166666666667));
#576=CARTESIAN_POINT('',(0.00215,-0.0207,0.0492379646136218));
#577=CARTESIAN_POINT('',(0.00215,-0.0207,0.002025));
#578=CARTESIAN_POINT('',(-0.0169606002148701,-0.0207,0.0430078144158805));
#579=CARTESIAN_POINT('',(0.0156746356097417,-0.0207,0.0402500544206522));
#580=CARTESIAN_POINT('',(-0.00215,-0.0207,0.002025));
#581=CARTESIAN_POINT('',(-0.00215,-0.0207,0.0492379646136218));
#582=CARTESIAN_POINT('',(0.00674737271479076,-0.0226999999502342,0.0037));
#583=CARTESIAN_POINT('',(0.00674737271479076,-0.0226999999502342,0.));
#584=CARTESIAN_POINT('',(0.00274735266381172,-0.0234909551448652,0.0037));
#585=CARTESIAN_POINT('',(0.00274735266381172,-0.0234909551448652,-8.67361737988404E-19));
#586=CARTESIAN_POINT('',(0.00137367633190586,-0.02435,0.0037));
#587=CARTESIAN_POINT('',(0.00137367633190586,-0.02435,-1.30104260698261E-18));
#588=CARTESIAN_POINT('',(-5.20417042793042E-18,-0.02435,0.0037));
#589=CARTESIAN_POINT('',(-5.20417042793042E-18,-0.02435,-1.30104260698261E-18));
#590=CARTESIAN_POINT('',(0.00674737246311516,-0.0227,0.0037));
#591=CARTESIAN_POINT('',(0.00674737246311516,-0.0227,0.0037));
#592=CARTESIAN_POINT('',(0.00674737246311516,-0.0222281011578174,0.0037));
#593=CARTESIAN_POINT('',(-0.0031,-0.0197,0.003702));
#594=CARTESIAN_POINT('',(-0.0031,-0.0197,0.00294166666666667));
#595=CARTESIAN_POINT('',(-0.0031,-0.018625,0.00294166666666667));
#596=CARTESIAN_POINT('',(-0.0031,-0.018625,0.003702));
#597=CARTESIAN_POINT('',(-0.00215,-0.0197,-1.99999999999767E-6));
#598=CARTESIAN_POINT('',(-0.00215,-0.0197,0.002025));
#599=CARTESIAN_POINT('',(-0.00215,-0.018625,0.002025));
#600=CARTESIAN_POINT('',(-0.00215,-0.018625,-1.99999999999767E-6));
#601=CARTESIAN_POINT('',(-0.00215,-0.018625,0.00294166666666667));
#602=CARTESIAN_POINT('',(-0.00215,-0.0197,0.00294166666666667));
#603=CARTESIAN_POINT('',(-0.022675,-0.000825,0.00294166666666667));
#604=CARTESIAN_POINT('',(-0.002625,-0.018625,0.00294166666666667));
#605=CARTESIAN_POINT('',(-0.00215,-0.0197,0.002025));
#606=CARTESIAN_POINT('',(-0.00215,-0.018625,0.002025));
#607=CARTESIAN_POINT('',(0.0031,-0.0197,0.003702));
#608=CARTESIAN_POINT('',(0.0031,-0.018625,0.003702));
#609=CARTESIAN_POINT('',(0.0031,-0.018625,0.00294166666666667));
#610=CARTESIAN_POINT('',(0.0031,-0.0197,0.00294166666666667));
#611=CARTESIAN_POINT('',(0.00215,-0.0197,-1.99999999999767E-6));
#612=CARTESIAN_POINT('',(0.00215,-0.0197,0.00294166666666667));
#613=CARTESIAN_POINT('',(0.00215,-0.018625,0.00294166666666667));
#614=CARTESIAN_POINT('',(0.00215,-0.018625,-1.99999999999767E-6));
#615=CARTESIAN_POINT('',(0.00215,-0.018625,0.002025));
#616=CARTESIAN_POINT('',(0.00215,-0.0197,0.002025));
#617=CARTESIAN_POINT('',(0.022675,-0.000825,0.00294166666666667));
#618=CARTESIAN_POINT('',(0.002625,-0.018625,0.00294166666666667));
#619=CARTESIAN_POINT('',(0.00215,-0.0197,0.002025));
#620=CARTESIAN_POINT('',(0.00215,-0.018625,0.002025));
#621=CARTESIAN_POINT('',(-0.001075,-0.018625,0.003702));
#622=CARTESIAN_POINT('',(1.04083408558608E-17,-0.02435,0.102254229666031));
#623=CARTESIAN_POINT('',(-0.00657328494892869,-0.0214119862185164,0.102254229666031));
#624=CARTESIAN_POINT('',(0.00657328494892868,-0.0214119862185163,0.102254229666031));
#625=CARTESIAN_POINT('',(-0.00474737246311516,-0.0222281011578174,0.102254229666031));
#626=CARTESIAN_POINT('',(0.00474737246311516,-0.0222281011578174,0.102254229666031));
#627=MECHANICAL_DESIGN_GEOMETRIC_PRESENTATION_REPRESENTATION('',(#372),
#628);
#628=(
GEOMETRIC_REPRESENTATION_CONTEXT(3)
GLOBAL_UNCERTAINTY_ASSIGNED_CONTEXT((#629))
GLOBAL_UNIT_ASSIGNED_CONTEXT((#632,#631,#630))
REPRESENTATION_CONTEXT('CoseLockLower','TOP_LEVEL_ASSEMBLY_PART')
);
#629=UNCERTAINTY_MEASURE_WITH_UNIT(LENGTH_MEASURE(2.E-5),#632,
'DISTANCE_ACCURACY_VALUE','Maximum Tolerance applied to model');
#630=(
NAMED_UNIT(*)
SI_UNIT($,.STERADIAN.)
SOLID_ANGLE_UNIT()
);
#631=(
NAMED_UNIT(*)
PLANE_ANGLE_UNIT()
SI_UNIT($,.RADIAN.)
);
#632=(
LENGTH_UNIT()
NAMED_UNIT(*)
SI_UNIT($,.METRE.)
);
#633=PRODUCT_DEFINITION_SHAPE('','',#634);
#634=PRODUCT_DEFINITION('','',#636,#635);
#635=PRODUCT_DEFINITION_CONTEXT('',#642,'design');
#636=PRODUCT_DEFINITION_FORMATION_WITH_SPECIFIED_SOURCE('','',#638,
 .NOT_KNOWN.);
#637=PRODUCT_RELATED_PRODUCT_CATEGORY('','',(#638));
#638=PRODUCT('CoseLockLower','CoseLockLower','CoseLockLower',(#640));
#639=PRODUCT_CATEGORY('','');
#640=PRODUCT_CONTEXT('',#642,'mechanical');
#641=APPLICATION_PROTOCOL_DEFINITION('international standard',
'ap242_managed_model_based_3d_engineering',2020,#642);
#642=APPLICATION_CONTEXT('managed model based 3d engineering');
ENDSEC;
END-ISO-10303-21;
