ISO-10303-21;
HEADER;
/* Generated by software containing ST-Developer
 * from STEP Tools, Inc. (www.steptools.com) 
 */
/* OPTION: using custom renumber hook */

FILE_DESCRIPTION(
/* description */ ('STEP AP242 Edition 2',
'CAx-IF Rec.Pracs.---Representation and Presentation of Product Manufa
cturing Information (PMI)---4.0---2014-10-13',
'CAx-IF Rec.Pracs.---3D Tessellated Geometry---0.4---2014-09-14','2;1',
'CAx-IF Rec.Pracs.---User Defined Attributes---1.5---2016-08-15'),
/* implementation_level */ '2;1');

FILE_NAME(
/* name */ 'MunchMoir - Switch',
/* time_stamp */ '2026-09-19T09:01:34Z',
/* author */ (''),
/* organization */ (''),
/* preprocessor_version */ 'ST-DEVELOPER v20',
/* originating_system */ 'ONSHAPE BY PTC INC, 1.221',
/* authorisation */ '  ');

FILE_SCHEMA (('AP242_MANAGED_MODEL_BASED_3D_ENGINEERING_MIM_LF { 1 0 10303 442 3 1 4 }'));
ENDSEC;

DATA;
#10=SHAPE_REPRESENTATION_RELATIONSHIP('','',#242,#11);
#11=ADVANCED_BREP_SHAPE_REPRESENTATION('',(#240),#429);
#12=CONICAL_SURFACE('',#263,0.00255,0.785398163397448);
#13=(
BOUNDED_CURVE()
B_SPLINE_CURVE(2,(#362,#363,#364),.UNSPECIFIED.,.F.,.F.)
B_SPLINE_CURVE_WITH_KNOTS((3,3),(0.,1.),.PIECEWISE_BEZIER_KNOTS.)
CURVE()
GEOMETRIC_REPRESENTATION_ITEM()
RATIONAL_B_SPLINE_CURVE((1.,1.73972602739726,1.))
REPRESENTATION_ITEM('')
);
#14=(
BOUNDED_CURVE()
B_SPLINE_CURVE(2,(#368,#369,#370),.UNSPECIFIED.,.F.,.F.)
B_SPLINE_CURVE_WITH_KNOTS((3,3),(0.,1.),.PIECEWISE_BEZIER_KNOTS.)
CURVE()
GEOMETRIC_REPRESENTATION_ITEM()
RATIONAL_B_SPLINE_CURVE((1.,1.73972602739726,1.))
REPRESENTATION_ITEM('')
);
#15=(
BOUNDED_CURVE()
B_SPLINE_CURVE(2,(#389,#390,#391),.UNSPECIFIED.,.F.,.F.)
B_SPLINE_CURVE_WITH_KNOTS((3,3),(0.,1.),.PIECEWISE_BEZIER_KNOTS.)
CURVE()
GEOMETRIC_REPRESENTATION_ITEM()
RATIONAL_B_SPLINE_CURVE((1.,1.73972602739726,1.))
REPRESENTATION_ITEM('')
);
#16=(
BOUNDED_CURVE()
B_SPLINE_CURVE(2,(#395,#396,#397),.UNSPECIFIED.,.F.,.F.)
B_SPLINE_CURVE_WITH_KNOTS((3,3),(0.,1.),.PIECEWISE_BEZIER_KNOTS.)
CURVE()
GEOMETRIC_REPRESENTATION_ITEM()
RATIONAL_B_SPLINE_CURVE((1.,1.73972602739726,1.))
REPRESENTATION_ITEM('')
);
#17=B_SPLINE_SURFACE_WITH_KNOTS('',3,1,((#344,#345),(#346,#347),(#348,#349),
(#350,#351),(#352,#353),(#354,#355),(#356,#357),(#358,#359),(#360,#361)),
 .SURF_OF_LINEAR_EXTRUSION.,.F.,.F.,.F.,(4,1,1,1,1,1,4),(2,2),(0.,0.125,
0.25,0.5,0.75,0.875,1.),(0.,1.),.UNSPECIFIED.);
#18=B_SPLINE_SURFACE_WITH_KNOTS('',3,1,((#371,#372),(#373,#374),(#375,#376),
(#377,#378),(#379,#380),(#381,#382),(#383,#384),(#385,#386),(#387,#388)),
 .SURF_OF_LINEAR_EXTRUSION.,.F.,.F.,.F.,(4,1,1,1,1,1,4),(2,2),(0.,0.125,
0.25,0.5,0.75,0.875,1.),(0.,1.),.UNSPECIFIED.);
#19=CIRCLE('',#247,0.0038);
#20=CIRCLE('',#248,0.0038);
#21=CIRCLE('',#250,0.0038);
#22=CIRCLE('',#251,0.0038);
#23=CIRCLE('',#254,0.0018);
#24=CIRCLE('',#255,0.0018);
#25=CIRCLE('',#258,0.00179624669794332);
#26=CIRCLE('',#259,0.00179624669794332);
#27=CIRCLE('',#262,0.00255);
#28=CYLINDRICAL_SURFACE('',#246,0.0038);
#29=CYLINDRICAL_SURFACE('',#249,0.0038);
#30=CYLINDRICAL_SURFACE('',#253,0.0018);
#31=CYLINDRICAL_SURFACE('',#257,0.00179624669794332);
#32=ORIENTED_EDGE('',*,*,#90,.F.);
#33=ORIENTED_EDGE('',*,*,#91,.F.);
#34=ORIENTED_EDGE('',*,*,#92,.T.);
#35=ORIENTED_EDGE('',*,*,#93,.T.);
#36=ORIENTED_EDGE('',*,*,#94,.F.);
#37=ORIENTED_EDGE('',*,*,#95,.F.);
#38=ORIENTED_EDGE('',*,*,#96,.T.);
#39=ORIENTED_EDGE('',*,*,#91,.T.);
#40=ORIENTED_EDGE('',*,*,#97,.T.);
#41=ORIENTED_EDGE('',*,*,#98,.F.);
#42=ORIENTED_EDGE('',*,*,#99,.F.);
#43=ORIENTED_EDGE('',*,*,#95,.T.);
#44=ORIENTED_EDGE('',*,*,#100,.T.);
#45=ORIENTED_EDGE('',*,*,#101,.F.);
#46=ORIENTED_EDGE('',*,*,#102,.F.);
#47=ORIENTED_EDGE('',*,*,#98,.T.);
#48=ORIENTED_EDGE('',*,*,#103,.F.);
#49=ORIENTED_EDGE('',*,*,#104,.F.);
#50=ORIENTED_EDGE('',*,*,#105,.T.);
#51=ORIENTED_EDGE('',*,*,#101,.T.);
#52=ORIENTED_EDGE('',*,*,#106,.T.);
#53=ORIENTED_EDGE('',*,*,#107,.F.);
#54=ORIENTED_EDGE('',*,*,#108,.F.);
#55=ORIENTED_EDGE('',*,*,#104,.T.);
#56=ORIENTED_EDGE('',*,*,#109,.T.);
#57=ORIENTED_EDGE('',*,*,#110,.F.);
#58=ORIENTED_EDGE('',*,*,#111,.F.);
#59=ORIENTED_EDGE('',*,*,#107,.T.);
#60=ORIENTED_EDGE('',*,*,#112,.T.);
#61=ORIENTED_EDGE('',*,*,#113,.T.);
#62=ORIENTED_EDGE('',*,*,#114,.T.);
#63=ORIENTED_EDGE('',*,*,#93,.F.);
#64=ORIENTED_EDGE('',*,*,#115,.F.);
#65=ORIENTED_EDGE('',*,*,#110,.T.);
#66=ORIENTED_EDGE('',*,*,#116,.T.);
#67=ORIENTED_EDGE('',*,*,#117,.F.);
#68=ORIENTED_EDGE('',*,*,#92,.F.);
#69=ORIENTED_EDGE('',*,*,#96,.F.);
#70=ORIENTED_EDGE('',*,*,#99,.T.);
#71=ORIENTED_EDGE('',*,*,#102,.T.);
#72=ORIENTED_EDGE('',*,*,#105,.F.);
#73=ORIENTED_EDGE('',*,*,#108,.T.);
#74=ORIENTED_EDGE('',*,*,#111,.T.);
#75=ORIENTED_EDGE('',*,*,#115,.T.);
#76=ORIENTED_EDGE('',*,*,#113,.F.);
#77=ORIENTED_EDGE('',*,*,#116,.F.);
#78=ORIENTED_EDGE('',*,*,#118,.T.);
#79=ORIENTED_EDGE('',*,*,#90,.T.);
#80=ORIENTED_EDGE('',*,*,#114,.F.);
#81=ORIENTED_EDGE('',*,*,#109,.F.);
#82=ORIENTED_EDGE('',*,*,#106,.F.);
#83=ORIENTED_EDGE('',*,*,#103,.T.);
#84=ORIENTED_EDGE('',*,*,#100,.F.);
#85=ORIENTED_EDGE('',*,*,#97,.F.);
#86=ORIENTED_EDGE('',*,*,#94,.T.);
#87=ORIENTED_EDGE('',*,*,#117,.T.);
#88=ORIENTED_EDGE('',*,*,#112,.F.);
#89=ORIENTED_EDGE('',*,*,#118,.F.);
#90=EDGE_CURVE('',#119,#120,#140,.T.);
#91=EDGE_CURVE('',#121,#119,#141,.T.);
#92=EDGE_CURVE('',#121,#122,#142,.T.);
#93=EDGE_CURVE('',#122,#120,#143,.T.);
#94=EDGE_CURVE('',#123,#119,#144,.T.);
#95=EDGE_CURVE('',#124,#123,#145,.T.);
#96=EDGE_CURVE('',#124,#121,#146,.T.);
#97=EDGE_CURVE('',#123,#125,#19,.T.);
#98=EDGE_CURVE('',#126,#125,#147,.T.);
#99=EDGE_CURVE('',#124,#126,#20,.T.);
#100=EDGE_CURVE('',#125,#127,#13,.T.);
#101=EDGE_CURVE('',#128,#127,#148,.T.);
#102=EDGE_CURVE('',#126,#128,#14,.T.);
#103=EDGE_CURVE('',#129,#127,#15,.T.);
#104=EDGE_CURVE('',#130,#129,#149,.T.);
#105=EDGE_CURVE('',#130,#128,#16,.T.);
#106=EDGE_CURVE('',#129,#131,#21,.T.);
#107=EDGE_CURVE('',#132,#131,#150,.T.);
#108=EDGE_CURVE('',#130,#132,#22,.T.);
#109=EDGE_CURVE('',#131,#133,#151,.T.);
#110=EDGE_CURVE('',#134,#133,#152,.T.);
#111=EDGE_CURVE('',#132,#134,#153,.T.);
#112=EDGE_CURVE('',#135,#135,#23,.F.);
#113=EDGE_CURVE('',#136,#136,#24,.T.);
#114=EDGE_CURVE('',#133,#120,#154,.T.);
#115=EDGE_CURVE('',#134,#122,#155,.T.);
#116=EDGE_CURVE('',#137,#137,#25,.T.);
#117=EDGE_CURVE('',#138,#138,#26,.T.);
#118=EDGE_CURVE('',#139,#139,#27,.T.);
#119=VERTEX_POINT('',#325);
#120=VERTEX_POINT('',#326);
#121=VERTEX_POINT('',#328);
#122=VERTEX_POINT('',#330);
#123=VERTEX_POINT('',#334);
#124=VERTEX_POINT('',#336);
#125=VERTEX_POINT('',#340);
#126=VERTEX_POINT('',#342);
#127=VERTEX_POINT('',#365);
#128=VERTEX_POINT('',#367);
#129=VERTEX_POINT('',#392);
#130=VERTEX_POINT('',#394);
#131=VERTEX_POINT('',#400);
#132=VERTEX_POINT('',#402);
#133=VERTEX_POINT('',#406);
#134=VERTEX_POINT('',#408);
#135=VERTEX_POINT('',#412);
#136=VERTEX_POINT('',#414);
#137=VERTEX_POINT('',#420);
#138=VERTEX_POINT('',#422);
#139=VERTEX_POINT('',#426);
#140=LINE('',#324,#156);
#141=LINE('',#327,#157);
#142=LINE('',#329,#158);
#143=LINE('',#331,#159);
#144=LINE('',#333,#160);
#145=LINE('',#335,#161);
#146=LINE('',#337,#162);
#147=LINE('',#341,#163);
#148=LINE('',#366,#164);
#149=LINE('',#393,#165);
#150=LINE('',#401,#166);
#151=LINE('',#405,#167);
#152=LINE('',#407,#168);
#153=LINE('',#409,#169);
#154=LINE('',#416,#170);
#155=LINE('',#417,#171);
#156=VECTOR('',#268,1.);
#157=VECTOR('',#269,1.);
#158=VECTOR('',#270,1.);
#159=VECTOR('',#271,1.);
#160=VECTOR('',#274,1.);
#161=VECTOR('',#275,1.);
#162=VECTOR('',#276,1.);
#163=VECTOR('',#281,1.);
#164=VECTOR('',#284,1.);
#165=VECTOR('',#285,1.);
#166=VECTOR('',#290,1.);
#167=VECTOR('',#295,1.);
#168=VECTOR('',#296,1.);
#169=VECTOR('',#297,1.);
#170=VECTOR('',#306,1.);
#171=VECTOR('',#307,1.);
#172=EDGE_LOOP('',(#32,#33,#34,#35));
#173=EDGE_LOOP('',(#36,#37,#38,#39));
#174=EDGE_LOOP('',(#40,#41,#42,#43));
#175=EDGE_LOOP('',(#44,#45,#46,#47));
#176=EDGE_LOOP('',(#48,#49,#50,#51));
#177=EDGE_LOOP('',(#52,#53,#54,#55));
#178=EDGE_LOOP('',(#56,#57,#58,#59));
#179=EDGE_LOOP('',(#60));
#180=EDGE_LOOP('',(#61));
#181=EDGE_LOOP('',(#62,#63,#64,#65));
#182=EDGE_LOOP('',(#66));
#183=EDGE_LOOP('',(#67));
#184=EDGE_LOOP('',(#68,#69,#70,#71,#72,#73,#74,#75));
#185=EDGE_LOOP('',(#76));
#186=EDGE_LOOP('',(#77));
#187=EDGE_LOOP('',(#78));
#188=EDGE_LOOP('',(#79,#80,#81,#82,#83,#84,#85,#86));
#189=EDGE_LOOP('',(#87));
#190=EDGE_LOOP('',(#88));
#191=EDGE_LOOP('',(#89));
#192=FACE_BOUND('',#172,.T.);
#193=FACE_BOUND('',#173,.T.);
#194=FACE_BOUND('',#174,.T.);
#195=FACE_BOUND('',#175,.T.);
#196=FACE_BOUND('',#176,.T.);
#197=FACE_BOUND('',#177,.T.);
#198=FACE_BOUND('',#178,.T.);
#199=FACE_BOUND('',#179,.T.);
#200=FACE_BOUND('',#180,.T.);
#201=FACE_BOUND('',#181,.T.);
#202=FACE_BOUND('',#182,.T.);
#203=FACE_BOUND('',#183,.T.);
#204=FACE_BOUND('',#184,.T.);
#205=FACE_BOUND('',#185,.T.);
#206=FACE_BOUND('',#186,.T.);
#207=FACE_BOUND('',#187,.T.);
#208=FACE_BOUND('',#188,.T.);
#209=FACE_BOUND('',#189,.T.);
#210=FACE_BOUND('',#190,.T.);
#211=FACE_BOUND('',#191,.T.);
#212=PLANE('',#244);
#213=PLANE('',#245);
#214=PLANE('',#252);
#215=PLANE('',#256);
#216=PLANE('',#260);
#217=PLANE('',#261);
#218=ADVANCED_FACE('',(#192),#212,.T.);
#219=ADVANCED_FACE('',(#193),#213,.T.);
#220=ADVANCED_FACE('',(#194),#28,.T.);
#221=ADVANCED_FACE('',(#195),#17,.F.);
#222=ADVANCED_FACE('',(#196),#18,.T.);
#223=ADVANCED_FACE('',(#197),#29,.T.);
#224=ADVANCED_FACE('',(#198),#214,.F.);
#225=ADVANCED_FACE('',(#199,#200),#30,.F.);
#226=ADVANCED_FACE('',(#201),#215,.F.);
#227=ADVANCED_FACE('',(#202,#203),#31,.F.);
#228=ADVANCED_FACE('',(#204,#205,#206),#216,.T.);
#229=ADVANCED_FACE('',(#207,#208,#209),#217,.F.);
#230=ADVANCED_FACE('',(#210,#211),#12,.F.);
#231=CLOSED_SHELL('',(#218,#219,#220,#221,#222,#223,#224,#225,#226,#227,
#228,#229,#230));
#232=STYLED_ITEM('',(#233),#240);
#233=PRESENTATION_STYLE_ASSIGNMENT((#234));
#234=SURFACE_STYLE_USAGE(.BOTH.,#235);
#235=SURFACE_SIDE_STYLE('',(#236));
#236=SURFACE_STYLE_FILL_AREA(#237);
#237=FILL_AREA_STYLE('',(#238));
#238=FILL_AREA_STYLE_COLOUR('',#239);
#239=COLOUR_RGB('',0.647058823529412,0.647058823529412,0.647058823529412);
#240=MANIFOLD_SOLID_BREP('Switch',#231);
#241=SHAPE_DEFINITION_REPRESENTATION(#434,#242);
#242=SHAPE_REPRESENTATION('Switch',(#243),#429);
#243=AXIS2_PLACEMENT_3D('',#322,#264,#265);
#244=AXIS2_PLACEMENT_3D('',#323,#266,#267);
#245=AXIS2_PLACEMENT_3D('',#332,#272,#273);
#246=AXIS2_PLACEMENT_3D('',#338,#277,#278);
#247=AXIS2_PLACEMENT_3D('',#339,#279,#280);
#248=AXIS2_PLACEMENT_3D('',#343,#282,#283);
#249=AXIS2_PLACEMENT_3D('',#398,#286,#287);
#250=AXIS2_PLACEMENT_3D('',#399,#288,#289);
#251=AXIS2_PLACEMENT_3D('',#403,#291,#292);
#252=AXIS2_PLACEMENT_3D('',#404,#293,#294);
#253=AXIS2_PLACEMENT_3D('',#410,#298,#299);
#254=AXIS2_PLACEMENT_3D('',#411,#300,#301);
#255=AXIS2_PLACEMENT_3D('',#413,#302,#303);
#256=AXIS2_PLACEMENT_3D('',#415,#304,#305);
#257=AXIS2_PLACEMENT_3D('',#418,#308,#309);
#258=AXIS2_PLACEMENT_3D('',#419,#310,#311);
#259=AXIS2_PLACEMENT_3D('',#421,#312,#313);
#260=AXIS2_PLACEMENT_3D('',#423,#314,#315);
#261=AXIS2_PLACEMENT_3D('',#424,#316,#317);
#262=AXIS2_PLACEMENT_3D('',#425,#318,#319);
#263=AXIS2_PLACEMENT_3D('',#427,#320,#321);
#264=DIRECTION('',(0.,0.,1.));
#265=DIRECTION('',(1.,0.,0.));
#266=DIRECTION('',(-0.707106781186548,0.707106781186548,0.));
#267=DIRECTION('',(-0.707106781186548,-0.707106781186548,0.));
#268=DIRECTION('',(0.707106781186548,0.707106781186548,0.));
#269=DIRECTION('',(0.,0.,-1.));
#270=DIRECTION('',(0.707106781186548,0.707106781186548,0.));
#271=DIRECTION('',(0.,0.,-1.));
#272=DIRECTION('',(-1.,0.,0.));
#273=DIRECTION('',(0.,0.,1.));
#274=DIRECTION('',(0.,1.,0.));
#275=DIRECTION('',(0.,0.,-1.));
#276=DIRECTION('',(0.,1.,0.));
#277=DIRECTION('',(0.,0.,-1.));
#278=DIRECTION('',(-1.,0.,0.));
#279=DIRECTION('',(0.,0.,1.));
#280=DIRECTION('',(1.,0.,0.));
#281=DIRECTION('',(0.,0.,-1.));
#282=DIRECTION('',(0.,0.,1.));
#283=DIRECTION('',(1.,0.,0.));
#284=DIRECTION('',(0.,0.,-1.));
#285=DIRECTION('',(0.,0.,-1.));
#286=DIRECTION('',(0.,0.,-1.));
#287=DIRECTION('',(-1.,0.,0.));
#288=DIRECTION('',(0.,0.,1.));
#289=DIRECTION('',(1.,0.,0.));
#290=DIRECTION('',(0.,0.,-1.));
#291=DIRECTION('',(0.,0.,1.));
#292=DIRECTION('',(1.,0.,0.));
#293=DIRECTION('',(-1.,0.,0.));
#294=DIRECTION('',(0.,0.,1.));
#295=DIRECTION('',(0.,1.,0.));
#296=DIRECTION('',(0.,0.,-1.));
#297=DIRECTION('',(0.,1.,0.));
#298=DIRECTION('',(0.,0.,-1.));
#299=DIRECTION('',(-1.,0.,0.));
#300=DIRECTION('',(0.,0.,1.));
#301=DIRECTION('',(1.,0.,0.));
#302=DIRECTION('',(0.,0.,1.));
#303=DIRECTION('',(1.,0.,0.));
#304=DIRECTION('',(-0.707106781186548,-0.707106781186548,0.));
#305=DIRECTION('',(0.707106781186548,-0.707106781186548,0.));
#306=DIRECTION('',(-0.707106781186548,0.707106781186548,0.));
#307=DIRECTION('',(-0.707106781186548,0.707106781186548,0.));
#308=DIRECTION('',(0.,0.,-1.));
#309=DIRECTION('',(-1.,0.,0.));
#310=DIRECTION('',(0.,0.,1.));
#311=DIRECTION('',(1.,0.,0.));
#312=DIRECTION('',(0.,0.,1.));
#313=DIRECTION('',(1.,0.,0.));
#314=DIRECTION('',(0.,0.,1.));
#315=DIRECTION('',(1.,0.,0.));
#316=DIRECTION('',(0.,0.,1.));
#317=DIRECTION('',(1.,0.,0.));
#318=DIRECTION('',(0.,0.,1.));
#319=DIRECTION('',(1.,0.,0.));
#320=DIRECTION('',(0.,0.,-1.));
#321=DIRECTION('',(-1.,0.,0.));
#322=CARTESIAN_POINT('',(0.,0.,0.));
#323=CARTESIAN_POINT('',(-0.00134350288425444,0.00763359175616201,0.00325));
#324=CARTESIAN_POINT('',(-0.00134350288425444,0.00763359175616201,0.0003));
#325=CARTESIAN_POINT('',(-0.00268700576850888,0.00629008887190757,0.0003));
#326=CARTESIAN_POINT('',(-2.16840434497101E-18,0.00897709464041645,0.0003));
#327=CARTESIAN_POINT('',(-0.00268700576850888,0.00629008887190757,0.00325));
#328=CARTESIAN_POINT('',(-0.00268700576850888,0.00629008887190757,0.00325));
#329=CARTESIAN_POINT('',(-0.00134350288425444,0.00763359175616201,0.00325));
#330=CARTESIAN_POINT('',(-2.16840434497101E-18,0.00897709464041645,0.00325));
#331=CARTESIAN_POINT('',(-2.16840434497101E-18,0.00897709464041645,0.00325));
#332=CARTESIAN_POINT('',(-0.00268700576850888,0.00613854732020822,0.00325));
#333=CARTESIAN_POINT('',(-0.00268700576850888,0.00613854732020822,0.0003));
#334=CARTESIAN_POINT('',(-0.00268700576850888,0.00598700576850888,0.0003));
#335=CARTESIAN_POINT('',(-0.00268700576850888,0.00598700576850888,0.00325));
#336=CARTESIAN_POINT('',(-0.00268700576850888,0.00598700576850888,0.00325));
#337=CARTESIAN_POINT('',(-0.00268700576850888,0.00613854732020822,0.00325));
#338=CARTESIAN_POINT('',(6.50521303491303E-19,0.0033,0.00325));
#339=CARTESIAN_POINT('',(6.50521303491303E-19,0.0033,0.0003));
#340=CARTESIAN_POINT('',(-0.0019,9.10346561913385E-6,0.0003));
#341=CARTESIAN_POINT('',(-0.0019,9.10346561913385E-6,0.00325));
#342=CARTESIAN_POINT('',(-0.0019,9.10346561913385E-6,0.00325));
#343=CARTESIAN_POINT('',(6.50521303491303E-19,0.0033,0.00325));
#344=CARTESIAN_POINT('',(-0.0019,9.10346561913385E-6,0.00325));
#345=CARTESIAN_POINT('',(-0.0019,9.10346561913385E-6,0.0003));
#346=CARTESIAN_POINT('',(-0.00235446190207555,-0.00110953821175504,0.00325));
#347=CARTESIAN_POINT('',(-0.00235446190207555,-0.00110953821175504,0.000300000000000001));
#348=CARTESIAN_POINT('',(-0.00297691597185244,-0.0028432492412103,0.00325));
#349=CARTESIAN_POINT('',(-0.00297691597185244,-0.0028432492412103,0.0003));
#350=CARTESIAN_POINT('',(-0.00361654905147913,-0.00538011211314498,0.00325));
#351=CARTESIAN_POINT('',(-0.00361654905147913,-0.00538011211314498,0.000300000000000003));
#352=CARTESIAN_POINT('',(-0.0036866370954123,-0.00771960977462262,0.00325));
#353=CARTESIAN_POINT('',(-0.0036866370954123,-0.00771960977462262,0.000300000000000002));
#354=CARTESIAN_POINT('',(-0.00304250531773842,-0.0100658508817633,0.00325));
#355=CARTESIAN_POINT('',(-0.00304250531773842,-0.0100658508817633,0.000300000000000003));
#356=CARTESIAN_POINT('',(-0.00177909549687524,-0.0126206817041884,0.00325));
#357=CARTESIAN_POINT('',(-0.00177909549687524,-0.0126206817041884,0.0003));
#358=CARTESIAN_POINT('',(-0.000729918523080112,-0.0143701757639796,0.00325));
#359=CARTESIAN_POINT('',(-0.000729918523080112,-0.0143701757639796,0.000300000000000001));
#360=CARTESIAN_POINT('',(0.,-0.0155,0.00325));
#361=CARTESIAN_POINT('',(0.,-0.0155,0.0003));
#362=CARTESIAN_POINT('',(-0.0019,9.10346561913385E-6,0.0003));
#363=CARTESIAN_POINT('',(-0.00503471359226912,-0.00770688164760744,0.0003));
#364=CARTESIAN_POINT('',(0.,-0.0155,0.0003));
#365=CARTESIAN_POINT('',(0.,-0.0155,0.0003));
#366=CARTESIAN_POINT('',(0.,-0.0155,0.00325));
#367=CARTESIAN_POINT('',(0.,-0.0155,0.00325));
#368=CARTESIAN_POINT('',(-0.0019,9.10346561913385E-6,0.00325));
#369=CARTESIAN_POINT('',(-0.00503471359226912,-0.00770688164760744,0.00325));
#370=CARTESIAN_POINT('',(0.,-0.0155,0.00325));
#371=CARTESIAN_POINT('',(0.0019,9.10346561913385E-6,0.00325));
#372=CARTESIAN_POINT('',(0.0019,9.10346561913385E-6,0.0003));
#373=CARTESIAN_POINT('',(0.00235446190207555,-0.00110953821175504,0.00325));
#374=CARTESIAN_POINT('',(0.00235446190207555,-0.00110953821175504,0.000300000000000001));
#375=CARTESIAN_POINT('',(0.00297691597185244,-0.0028432492412103,0.00325));
#376=CARTESIAN_POINT('',(0.00297691597185244,-0.0028432492412103,0.0003));
#377=CARTESIAN_POINT('',(0.00361654905147913,-0.00538011211314498,0.00325));
#378=CARTESIAN_POINT('',(0.00361654905147913,-0.00538011211314498,0.000300000000000003));
#379=CARTESIAN_POINT('',(0.0036866370954123,-0.00771960977462262,0.00325));
#380=CARTESIAN_POINT('',(0.0036866370954123,-0.00771960977462262,0.000300000000000002));
#381=CARTESIAN_POINT('',(0.00304250531773842,-0.0100658508817633,0.00325));
#382=CARTESIAN_POINT('',(0.00304250531773842,-0.0100658508817633,0.000300000000000003));
#383=CARTESIAN_POINT('',(0.00177909549687524,-0.0126206817041884,0.00325));
#384=CARTESIAN_POINT('',(0.00177909549687524,-0.0126206817041884,0.0003));
#385=CARTESIAN_POINT('',(0.000729918523080112,-0.0143701757639796,0.00325));
#386=CARTESIAN_POINT('',(0.000729918523080112,-0.0143701757639796,0.000300000000000001));
#387=CARTESIAN_POINT('',(0.,-0.0155,0.00325));
#388=CARTESIAN_POINT('',(0.,-0.0155,0.0003));
#389=CARTESIAN_POINT('',(0.0019,9.10346561913385E-6,0.0003));
#390=CARTESIAN_POINT('',(0.00503471359226912,-0.00770688164760744,0.0003));
#391=CARTESIAN_POINT('',(0.,-0.0155,0.0003));
#392=CARTESIAN_POINT('',(0.0019,9.10346561913385E-6,0.0003));
#393=CARTESIAN_POINT('',(0.0019,9.10346561913385E-6,0.00325));
#394=CARTESIAN_POINT('',(0.0019,9.10346561913385E-6,0.00325));
#395=CARTESIAN_POINT('',(0.0019,9.10346561913385E-6,0.00325));
#396=CARTESIAN_POINT('',(0.00503471359226912,-0.00770688164760744,0.00325));
#397=CARTESIAN_POINT('',(0.,-0.0155,0.00325));
#398=CARTESIAN_POINT('',(3.25260651745652E-19,0.0033,0.00325));
#399=CARTESIAN_POINT('',(3.25260651745652E-19,0.0033,0.0003));
#400=CARTESIAN_POINT('',(0.00268700576850888,0.00598700576850888,0.0003));
#401=CARTESIAN_POINT('',(0.00268700576850888,0.00598700576850888,0.00325));
#402=CARTESIAN_POINT('',(0.00268700576850888,0.00598700576850888,0.00325));
#403=CARTESIAN_POINT('',(3.25260651745652E-19,0.0033,0.00325));
#404=CARTESIAN_POINT('',(0.00268700576850888,0.00613854732020822,0.00325));
#405=CARTESIAN_POINT('',(0.00268700576850888,0.00613854732020822,0.0003));
#406=CARTESIAN_POINT('',(0.00268700576850888,0.00629008887190757,0.0003));
#407=CARTESIAN_POINT('',(0.00268700576850888,0.00629008887190757,0.00325));
#408=CARTESIAN_POINT('',(0.00268700576850888,0.00629008887190757,0.00325));
#409=CARTESIAN_POINT('',(0.00268700576850888,0.00613854732020822,0.00325));
#410=CARTESIAN_POINT('',(0.,0.0033,0.00325));
#411=CARTESIAN_POINT('',(0.,0.0033,0.00105));
#412=CARTESIAN_POINT('',(0.0018,0.0033,0.00105));
#413=CARTESIAN_POINT('',(0.,0.0033,0.00325));
#414=CARTESIAN_POINT('',(0.0018,0.0033,0.00325));
#415=CARTESIAN_POINT('',(0.00134350288425444,0.00763359175616201,0.00325));
#416=CARTESIAN_POINT('',(0.00134350288425444,0.00763359175616201,0.0003));
#417=CARTESIAN_POINT('',(0.00134350288425444,0.00763359175616201,0.00325));
#418=CARTESIAN_POINT('',(0.,-0.00613647097325325,0.00325));
#419=CARTESIAN_POINT('',(0.,-0.00613647097325325,0.00325));
#420=CARTESIAN_POINT('',(0.00179624669794332,-0.00613647097325325,0.00325));
#421=CARTESIAN_POINT('',(0.,-0.00613647097325325,0.0003));
#422=CARTESIAN_POINT('',(0.00179624669794332,-0.00613647097325325,0.0003));
#423=CARTESIAN_POINT('',(0.,-0.00326145267979178,0.00325));
#424=CARTESIAN_POINT('',(0.,-0.00326145267979178,0.0003));
#425=CARTESIAN_POINT('',(0.,0.0033,0.0003));
#426=CARTESIAN_POINT('',(0.00255,0.0033,0.0003));
#427=CARTESIAN_POINT('',(0.,0.0033,0.0003));
#428=MECHANICAL_DESIGN_GEOMETRIC_PRESENTATION_REPRESENTATION('',(#232),
#429);
#429=(
GEOMETRIC_REPRESENTATION_CONTEXT(3)
GLOBAL_UNCERTAINTY_ASSIGNED_CONTEXT((#430))
GLOBAL_UNIT_ASSIGNED_CONTEXT((#433,#432,#431))
REPRESENTATION_CONTEXT('Switch','TOP_LEVEL_ASSEMBLY_PART')
);
#430=UNCERTAINTY_MEASURE_WITH_UNIT(LENGTH_MEASURE(2.E-5),#433,
'DISTANCE_ACCURACY_VALUE','Maximum Tolerance applied to model');
#431=(
NAMED_UNIT(*)
SI_UNIT($,.STERADIAN.)
SOLID_ANGLE_UNIT()
);
#432=(
NAMED_UNIT(*)
PLANE_ANGLE_UNIT()
SI_UNIT($,.RADIAN.)
);
#433=(
LENGTH_UNIT()
NAMED_UNIT(*)
SI_UNIT($,.METRE.)
);
#434=PRODUCT_DEFINITION_SHAPE('','',#435);
#435=PRODUCT_DEFINITION('','',#437,#436);
#436=PRODUCT_DEFINITION_CONTEXT('',#443,'design');
#437=PRODUCT_DEFINITION_FORMATION_WITH_SPECIFIED_SOURCE('','',#439,
 .NOT_KNOWN.);
#438=PRODUCT_RELATED_PRODUCT_CATEGORY('','',(#439));
#439=PRODUCT('Switch','Switch','Switch',(#441));
#440=PRODUCT_CATEGORY('','');
#441=PRODUCT_CONTEXT('',#443,'mechanical');
#442=APPLICATION_PROTOCOL_DEFINITION('international standard',
'ap242_managed_model_based_3d_engineering',2020,#443);
#443=APPLICATION_CONTEXT('managed model based 3d engineering');
ENDSEC;
END-ISO-10303-21;
