ISO-10303-21;
HEADER;
/* Generated by software containing ST-Developer
 * from STEP Tools, Inc. (www.steptools.com) 
 */
/* OPTION: using custom renumber hook */

FILE_DESCRIPTION(
/* description */ ('STEP AP242 Edition 2',
'CAx-IF Rec.Pracs.---Representation and Presentation of Product Manufa
cturing Information (PMI)---4.0---2014-10-13',
'CAx-IF Rec.Pracs.---3D Tessellated Geometry---0.4---2014-09-14','2;1',
'CAx-IF Rec.Pracs.---User Defined Attributes---1.5---2016-08-15'),
/* implementation_level */ '2;1');

FILE_NAME(
/* name */ 'MunchMoir - SnapFit (1)',
/* time_stamp */ '2026-09-19T09:01:34Z',
/* author */ (''),
/* organization */ (''),
/* preprocessor_version */ 'ST-DEVELOPER v20',
/* originating_system */ 'ONSHAPE BY PTC INC, 1.221',
/* authorisation */ '  ');

FILE_SCHEMA (('AP242_MANAGED_MODEL_BASED_3D_ENGINEERING_MIM_LF { 1 0 10303 442 3 1 4 }'));
ENDSEC;

DATA;
#10=SHAPE_REPRESENTATION_RELATIONSHIP('','',#361,#11);
#11=ADVANCED_BREP_SHAPE_REPRESENTATION('',(#359),#579);
#12=PLANE('',#366);
#13=PLANE('',#367);
#14=PLANE('',#368);
#15=PLANE('',#369);
#16=PLANE('',#370);
#17=PLANE('',#371);
#18=PLANE('',#372);
#19=PLANE('',#375);
#20=PLANE('',#378);
#21=PLANE('',#380);
#22=PLANE('',#381);
#23=PLANE('',#382);
#24=PLANE('',#383);
#25=PLANE('',#384);
#26=PLANE('',#385);
#27=CIRCLE('',#364,0.001);
#28=CIRCLE('',#365,0.001);
#29=CIRCLE('',#373,0.0001);
#30=CIRCLE('',#374,0.0001);
#31=CIRCLE('',#376,0.0001);
#32=CIRCLE('',#377,0.0001);
#33=ORIENTED_EDGE('',*,*,#129,.F.);
#34=ORIENTED_EDGE('',*,*,#130,.T.);
#35=ORIENTED_EDGE('',*,*,#131,.F.);
#36=ORIENTED_EDGE('',*,*,#132,.T.);
#37=ORIENTED_EDGE('',*,*,#133,.T.);
#38=ORIENTED_EDGE('',*,*,#134,.F.);
#39=ORIENTED_EDGE('',*,*,#135,.F.);
#40=ORIENTED_EDGE('',*,*,#136,.T.);
#41=ORIENTED_EDGE('',*,*,#137,.T.);
#42=ORIENTED_EDGE('',*,*,#138,.F.);
#43=ORIENTED_EDGE('',*,*,#139,.F.);
#44=ORIENTED_EDGE('',*,*,#134,.T.);
#45=ORIENTED_EDGE('',*,*,#140,.T.);
#46=ORIENTED_EDGE('',*,*,#141,.T.);
#47=ORIENTED_EDGE('',*,*,#142,.F.);
#48=ORIENTED_EDGE('',*,*,#138,.T.);
#49=ORIENTED_EDGE('',*,*,#143,.F.);
#50=ORIENTED_EDGE('',*,*,#144,.T.);
#51=ORIENTED_EDGE('',*,*,#145,.T.);
#52=ORIENTED_EDGE('',*,*,#146,.F.);
#53=ORIENTED_EDGE('',*,*,#147,.T.);
#54=ORIENTED_EDGE('',*,*,#148,.T.);
#55=ORIENTED_EDGE('',*,*,#149,.F.);
#56=ORIENTED_EDGE('',*,*,#146,.T.);
#57=ORIENTED_EDGE('',*,*,#150,.T.);
#58=ORIENTED_EDGE('',*,*,#129,.T.);
#59=ORIENTED_EDGE('',*,*,#151,.F.);
#60=ORIENTED_EDGE('',*,*,#152,.T.);
#61=ORIENTED_EDGE('',*,*,#142,.T.);
#62=ORIENTED_EDGE('',*,*,#153,.T.);
#63=ORIENTED_EDGE('',*,*,#143,.T.);
#64=ORIENTED_EDGE('',*,*,#149,.T.);
#65=ORIENTED_EDGE('',*,*,#154,.T.);
#66=ORIENTED_EDGE('',*,*,#151,.T.);
#67=ORIENTED_EDGE('',*,*,#132,.F.);
#68=ORIENTED_EDGE('',*,*,#155,.F.);
#69=ORIENTED_EDGE('',*,*,#156,.F.);
#70=ORIENTED_EDGE('',*,*,#157,.F.);
#71=ORIENTED_EDGE('',*,*,#158,.F.);
#72=ORIENTED_EDGE('',*,*,#159,.F.);
#73=ORIENTED_EDGE('',*,*,#160,.F.);
#74=ORIENTED_EDGE('',*,*,#161,.F.);
#75=ORIENTED_EDGE('',*,*,#135,.T.);
#76=ORIENTED_EDGE('',*,*,#139,.T.);
#77=ORIENTED_EDGE('',*,*,#130,.F.);
#78=ORIENTED_EDGE('',*,*,#150,.F.);
#79=ORIENTED_EDGE('',*,*,#162,.T.);
#80=ORIENTED_EDGE('',*,*,#147,.F.);
#81=ORIENTED_EDGE('',*,*,#145,.F.);
#82=ORIENTED_EDGE('',*,*,#163,.T.);
#83=ORIENTED_EDGE('',*,*,#140,.F.);
#84=ORIENTED_EDGE('',*,*,#137,.F.);
#85=ORIENTED_EDGE('',*,*,#133,.F.);
#86=ORIENTED_EDGE('',*,*,#164,.T.);
#87=ORIENTED_EDGE('',*,*,#165,.T.);
#88=ORIENTED_EDGE('',*,*,#166,.F.);
#89=ORIENTED_EDGE('',*,*,#167,.T.);
#90=ORIENTED_EDGE('',*,*,#168,.T.);
#91=ORIENTED_EDGE('',*,*,#169,.F.);
#92=ORIENTED_EDGE('',*,*,#170,.T.);
#93=ORIENTED_EDGE('',*,*,#154,.F.);
#94=ORIENTED_EDGE('',*,*,#148,.F.);
#95=ORIENTED_EDGE('',*,*,#162,.F.);
#96=ORIENTED_EDGE('',*,*,#152,.F.);
#97=ORIENTED_EDGE('',*,*,#153,.F.);
#98=ORIENTED_EDGE('',*,*,#141,.F.);
#99=ORIENTED_EDGE('',*,*,#163,.F.);
#100=ORIENTED_EDGE('',*,*,#144,.F.);
#101=ORIENTED_EDGE('',*,*,#164,.F.);
#102=ORIENTED_EDGE('',*,*,#136,.F.);
#103=ORIENTED_EDGE('',*,*,#161,.T.);
#104=ORIENTED_EDGE('',*,*,#171,.T.);
#105=ORIENTED_EDGE('',*,*,#165,.F.);
#106=ORIENTED_EDGE('',*,*,#171,.F.);
#107=ORIENTED_EDGE('',*,*,#160,.T.);
#108=ORIENTED_EDGE('',*,*,#172,.F.);
#109=ORIENTED_EDGE('',*,*,#158,.T.);
#110=ORIENTED_EDGE('',*,*,#173,.T.);
#111=ORIENTED_EDGE('',*,*,#167,.F.);
#112=ORIENTED_EDGE('',*,*,#174,.F.);
#113=ORIENTED_EDGE('',*,*,#168,.F.);
#114=ORIENTED_EDGE('',*,*,#173,.F.);
#115=ORIENTED_EDGE('',*,*,#157,.T.);
#116=ORIENTED_EDGE('',*,*,#175,.F.);
#117=ORIENTED_EDGE('',*,*,#155,.T.);
#118=ORIENTED_EDGE('',*,*,#131,.T.);
#119=ORIENTED_EDGE('',*,*,#170,.F.);
#120=ORIENTED_EDGE('',*,*,#176,.F.);
#121=ORIENTED_EDGE('',*,*,#156,.T.);
#122=ORIENTED_EDGE('',*,*,#176,.T.);
#123=ORIENTED_EDGE('',*,*,#169,.T.);
#124=ORIENTED_EDGE('',*,*,#175,.T.);
#125=ORIENTED_EDGE('',*,*,#159,.T.);
#126=ORIENTED_EDGE('',*,*,#174,.T.);
#127=ORIENTED_EDGE('',*,*,#166,.T.);
#128=ORIENTED_EDGE('',*,*,#172,.T.);
#129=EDGE_CURVE('',#177,#178,#209,.T.);
#130=EDGE_CURVE('',#177,#179,#27,.F.);
#131=EDGE_CURVE('',#180,#179,#210,.F.);
#132=EDGE_CURVE('',#180,#178,#28,.T.);
#133=EDGE_CURVE('',#181,#182,#211,.T.);
#134=EDGE_CURVE('',#183,#182,#212,.T.);
#135=EDGE_CURVE('',#184,#183,#213,.T.);
#136=EDGE_CURVE('',#184,#181,#214,.T.);
#137=EDGE_CURVE('',#182,#185,#215,.T.);
#138=EDGE_CURVE('',#186,#185,#216,.T.);
#139=EDGE_CURVE('',#183,#186,#217,.T.);
#140=EDGE_CURVE('',#185,#187,#218,.T.);
#141=EDGE_CURVE('',#187,#188,#219,.F.);
#142=EDGE_CURVE('',#186,#188,#220,.T.);
#143=EDGE_CURVE('',#189,#190,#221,.T.);
#144=EDGE_CURVE('',#189,#191,#222,.T.);
#145=EDGE_CURVE('',#191,#192,#223,.T.);
#146=EDGE_CURVE('',#190,#192,#224,.T.);
#147=EDGE_CURVE('',#192,#193,#225,.T.);
#148=EDGE_CURVE('',#193,#194,#226,.T.);
#149=EDGE_CURVE('',#190,#194,#227,.T.);
#150=EDGE_CURVE('',#195,#177,#228,.T.);
#151=EDGE_CURVE('',#196,#178,#229,.T.);
#152=EDGE_CURVE('',#196,#195,#230,.T.);
#153=EDGE_CURVE('',#188,#189,#29,.T.);
#154=EDGE_CURVE('',#194,#196,#231,.F.);
#155=EDGE_CURVE('',#197,#180,#232,.T.);
#156=EDGE_CURVE('',#198,#197,#233,.F.);
#157=EDGE_CURVE('',#199,#198,#234,.T.);
#158=EDGE_CURVE('',#200,#199,#235,.T.);
#159=EDGE_CURVE('',#201,#200,#30,.T.);
#160=EDGE_CURVE('',#202,#201,#236,.T.);
#161=EDGE_CURVE('',#184,#202,#237,.T.);
#162=EDGE_CURVE('',#195,#193,#238,.F.);
#163=EDGE_CURVE('',#191,#187,#31,.F.);
#164=EDGE_CURVE('',#181,#203,#239,.T.);
#165=EDGE_CURVE('',#203,#204,#240,.T.);
#166=EDGE_CURVE('',#205,#204,#32,.F.);
#167=EDGE_CURVE('',#205,#206,#241,.T.);
#168=EDGE_CURVE('',#206,#207,#242,.T.);
#169=EDGE_CURVE('',#208,#207,#243,.F.);
#170=EDGE_CURVE('',#208,#179,#244,.T.);
#171=EDGE_CURVE('',#202,#203,#245,.T.);
#172=EDGE_CURVE('',#204,#201,#246,.F.);
#173=EDGE_CURVE('',#199,#206,#247,.T.);
#174=EDGE_CURVE('',#200,#205,#248,.T.);
#175=EDGE_CURVE('',#207,#198,#249,.T.);
#176=EDGE_CURVE('',#197,#208,#250,.T.);
#177=VERTEX_POINT('',#482);
#178=VERTEX_POINT('',#483);
#179=VERTEX_POINT('',#485);
#180=VERTEX_POINT('',#487);
#181=VERTEX_POINT('',#491);
#182=VERTEX_POINT('',#492);
#183=VERTEX_POINT('',#494);
#184=VERTEX_POINT('',#496);
#185=VERTEX_POINT('',#500);
#186=VERTEX_POINT('',#502);
#187=VERTEX_POINT('',#506);
#188=VERTEX_POINT('',#508);
#189=VERTEX_POINT('',#512);
#190=VERTEX_POINT('',#513);
#191=VERTEX_POINT('',#515);
#192=VERTEX_POINT('',#517);
#193=VERTEX_POINT('',#521);
#194=VERTEX_POINT('',#523);
#195=VERTEX_POINT('',#527);
#196=VERTEX_POINT('',#529);
#197=VERTEX_POINT('',#535);
#198=VERTEX_POINT('',#537);
#199=VERTEX_POINT('',#539);
#200=VERTEX_POINT('',#541);
#201=VERTEX_POINT('',#543);
#202=VERTEX_POINT('',#545);
#203=VERTEX_POINT('',#551);
#204=VERTEX_POINT('',#553);
#205=VERTEX_POINT('',#555);
#206=VERTEX_POINT('',#557);
#207=VERTEX_POINT('',#559);
#208=VERTEX_POINT('',#561);
#209=LINE('',#481,#251);
#210=LINE('',#486,#252);
#211=LINE('',#490,#253);
#212=LINE('',#493,#254);
#213=LINE('',#495,#255);
#214=LINE('',#497,#256);
#215=LINE('',#499,#257);
#216=LINE('',#501,#258);
#217=LINE('',#503,#259);
#218=LINE('',#505,#260);
#219=LINE('',#507,#261);
#220=LINE('',#509,#262);
#221=LINE('',#511,#263);
#222=LINE('',#514,#264);
#223=LINE('',#516,#265);
#224=LINE('',#518,#266);
#225=LINE('',#520,#267);
#226=LINE('',#522,#268);
#227=LINE('',#524,#269);
#228=LINE('',#526,#270);
#229=LINE('',#528,#271);
#230=LINE('',#530,#272);
#231=LINE('',#533,#273);
#232=LINE('',#534,#274);
#233=LINE('',#536,#275);
#234=LINE('',#538,#276);
#235=LINE('',#540,#277);
#236=LINE('',#544,#278);
#237=LINE('',#546,#279);
#238=LINE('',#548,#280);
#239=LINE('',#550,#281);
#240=LINE('',#552,#282);
#241=LINE('',#556,#283);
#242=LINE('',#558,#284);
#243=LINE('',#560,#285);
#244=LINE('',#562,#286);
#245=LINE('',#566,#287);
#246=LINE('',#568,#288);
#247=LINE('',#570,#289);
#248=LINE('',#571,#290);
#249=LINE('',#573,#291);
#250=LINE('',#575,#292);
#251=VECTOR('',#391,1.);
#252=VECTOR('',#394,1.);
#253=VECTOR('',#399,1.);
#254=VECTOR('',#400,1.);
#255=VECTOR('',#401,1.);
#256=VECTOR('',#402,1.);
#257=VECTOR('',#405,1.);
#258=VECTOR('',#406,1.);
#259=VECTOR('',#407,1.);
#260=VECTOR('',#410,1.);
#261=VECTOR('',#411,1.);
#262=VECTOR('',#412,1.);
#263=VECTOR('',#415,1.);
#264=VECTOR('',#416,1.);
#265=VECTOR('',#417,1.);
#266=VECTOR('',#418,1.);
#267=VECTOR('',#421,1.);
#268=VECTOR('',#422,1.);
#269=VECTOR('',#423,1.);
#270=VECTOR('',#426,1.);
#271=VECTOR('',#427,1.);
#272=VECTOR('',#428,1.);
#273=VECTOR('',#433,1.);
#274=VECTOR('',#434,1.);
#275=VECTOR('',#435,1.);
#276=VECTOR('',#436,1.);
#277=VECTOR('',#437,1.);
#278=VECTOR('',#440,1.);
#279=VECTOR('',#441,1.);
#280=VECTOR('',#444,1.);
#281=VECTOR('',#447,1.);
#282=VECTOR('',#448,1.);
#283=VECTOR('',#451,1.);
#284=VECTOR('',#452,1.);
#285=VECTOR('',#453,1.);
#286=VECTOR('',#454,1.);
#287=VECTOR('',#461,1.);
#288=VECTOR('',#464,1.);
#289=VECTOR('',#467,1.);
#290=VECTOR('',#468,1.);
#291=VECTOR('',#471,1.);
#292=VECTOR('',#474,1.);
#293=EDGE_LOOP('',(#33,#34,#35,#36));
#294=EDGE_LOOP('',(#37,#38,#39,#40));
#295=EDGE_LOOP('',(#41,#42,#43,#44));
#296=EDGE_LOOP('',(#45,#46,#47,#48));
#297=EDGE_LOOP('',(#49,#50,#51,#52));
#298=EDGE_LOOP('',(#53,#54,#55,#56));
#299=EDGE_LOOP('',(#57,#58,#59,#60));
#300=EDGE_LOOP('',(#61,#62,#63,#64,#65,#66,#67,#68,#69,#70,#71,#72,#73,
#74,#75,#76));
#301=EDGE_LOOP('',(#77,#78,#79,#80,#81,#82,#83,#84,#85,#86,#87,#88,#89,
#90,#91,#92));
#302=EDGE_LOOP('',(#93,#94,#95,#96));
#303=EDGE_LOOP('',(#97,#98,#99,#100));
#304=EDGE_LOOP('',(#101,#102,#103,#104));
#305=EDGE_LOOP('',(#105,#106,#107,#108));
#306=EDGE_LOOP('',(#109,#110,#111,#112));
#307=EDGE_LOOP('',(#113,#114,#115,#116));
#308=EDGE_LOOP('',(#117,#118,#119,#120));
#309=EDGE_LOOP('',(#121,#122,#123,#124));
#310=EDGE_LOOP('',(#125,#126,#127,#128));
#311=FACE_BOUND('',#293,.T.);
#312=FACE_BOUND('',#294,.T.);
#313=FACE_BOUND('',#295,.T.);
#314=FACE_BOUND('',#296,.T.);
#315=FACE_BOUND('',#297,.T.);
#316=FACE_BOUND('',#298,.T.);
#317=FACE_BOUND('',#299,.T.);
#318=FACE_BOUND('',#300,.T.);
#319=FACE_BOUND('',#301,.T.);
#320=FACE_BOUND('',#302,.T.);
#321=FACE_BOUND('',#303,.T.);
#322=FACE_BOUND('',#304,.T.);
#323=FACE_BOUND('',#305,.T.);
#324=FACE_BOUND('',#306,.T.);
#325=FACE_BOUND('',#307,.T.);
#326=FACE_BOUND('',#308,.T.);
#327=FACE_BOUND('',#309,.T.);
#328=FACE_BOUND('',#310,.T.);
#329=CYLINDRICAL_SURFACE('',#363,0.001);
#330=CYLINDRICAL_SURFACE('',#379,0.0001);
#331=CYLINDRICAL_SURFACE('',#386,0.0001);
#332=ADVANCED_FACE('',(#311),#329,.F.);
#333=ADVANCED_FACE('',(#312),#12,.F.);
#334=ADVANCED_FACE('',(#313),#13,.F.);
#335=ADVANCED_FACE('',(#314),#14,.F.);
#336=ADVANCED_FACE('',(#315),#15,.F.);
#337=ADVANCED_FACE('',(#316),#16,.F.);
#338=ADVANCED_FACE('',(#317),#17,.F.);
#339=ADVANCED_FACE('',(#318),#18,.T.);
#340=ADVANCED_FACE('',(#319),#19,.F.);
#341=ADVANCED_FACE('',(#320),#20,.F.);
#342=ADVANCED_FACE('',(#321),#330,.T.);
#343=ADVANCED_FACE('',(#322),#21,.F.);
#344=ADVANCED_FACE('',(#323),#22,.F.);
#345=ADVANCED_FACE('',(#324),#23,.F.);
#346=ADVANCED_FACE('',(#325),#24,.F.);
#347=ADVANCED_FACE('',(#326),#25,.F.);
#348=ADVANCED_FACE('',(#327),#26,.F.);
#349=ADVANCED_FACE('',(#328),#331,.T.);
#350=CLOSED_SHELL('',(#332,#333,#334,#335,#336,#337,#338,#339,#340,#341,
#342,#343,#344,#345,#346,#347,#348,#349));
#351=STYLED_ITEM('',(#352),#359);
#352=PRESENTATION_STYLE_ASSIGNMENT((#353));
#353=SURFACE_STYLE_USAGE(.BOTH.,#354);
#354=SURFACE_SIDE_STYLE('',(#355));
#355=SURFACE_STYLE_FILL_AREA(#356);
#356=FILL_AREA_STYLE('',(#357));
#357=FILL_AREA_STYLE_COLOUR('',#358);
#358=COLOUR_RGB('',0.615686274509804,0.811764705882353,0.929411764705882);
#359=MANIFOLD_SOLID_BREP('SnapFit',#350);
#360=SHAPE_DEFINITION_REPRESENTATION(#584,#361);
#361=SHAPE_REPRESENTATION('SnapFit',(#362),#579);
#362=AXIS2_PLACEMENT_3D('',#479,#387,#388);
#363=AXIS2_PLACEMENT_3D('',#480,#389,#390);
#364=AXIS2_PLACEMENT_3D('',#484,#392,#393);
#365=AXIS2_PLACEMENT_3D('',#488,#395,#396);
#366=AXIS2_PLACEMENT_3D('',#489,#397,#398);
#367=AXIS2_PLACEMENT_3D('',#498,#403,#404);
#368=AXIS2_PLACEMENT_3D('',#504,#408,#409);
#369=AXIS2_PLACEMENT_3D('',#510,#413,#414);
#370=AXIS2_PLACEMENT_3D('',#519,#419,#420);
#371=AXIS2_PLACEMENT_3D('',#525,#424,#425);
#372=AXIS2_PLACEMENT_3D('',#531,#429,#430);
#373=AXIS2_PLACEMENT_3D('',#532,#431,#432);
#374=AXIS2_PLACEMENT_3D('',#542,#438,#439);
#375=AXIS2_PLACEMENT_3D('',#547,#442,#443);
#376=AXIS2_PLACEMENT_3D('',#549,#445,#446);
#377=AXIS2_PLACEMENT_3D('',#554,#449,#450);
#378=AXIS2_PLACEMENT_3D('',#563,#455,#456);
#379=AXIS2_PLACEMENT_3D('',#564,#457,#458);
#380=AXIS2_PLACEMENT_3D('',#565,#459,#460);
#381=AXIS2_PLACEMENT_3D('',#567,#462,#463);
#382=AXIS2_PLACEMENT_3D('',#569,#465,#466);
#383=AXIS2_PLACEMENT_3D('',#572,#469,#470);
#384=AXIS2_PLACEMENT_3D('',#574,#472,#473);
#385=AXIS2_PLACEMENT_3D('',#576,#475,#476);
#386=AXIS2_PLACEMENT_3D('',#577,#477,#478);
#387=DIRECTION('',(0.,0.,1.));
#388=DIRECTION('',(1.,0.,0.));
#389=DIRECTION('',(0.,-1.,0.));
#390=DIRECTION('',(0.,0.,-1.));
#391=DIRECTION('',(0.,-1.,0.));
#392=DIRECTION('',(0.,-1.,0.));
#393=DIRECTION('',(0.,0.,-1.));
#394=DIRECTION('',(0.,-1.,0.));
#395=DIRECTION('',(0.,-1.,0.));
#396=DIRECTION('',(0.,0.,-1.));
#397=DIRECTION('',(0.,0.,-1.));
#398=DIRECTION('',(-1.,0.,0.));
#399=DIRECTION('',(-1.,0.,0.));
#400=DIRECTION('',(0.,1.,0.));
#401=DIRECTION('',(-1.,0.,0.));
#402=DIRECTION('',(0.,1.,0.));
#403=DIRECTION('',(1.,0.,0.));
#404=DIRECTION('',(0.,0.,-1.));
#405=DIRECTION('',(0.,0.,-1.));
#406=DIRECTION('',(0.,1.,0.));
#407=DIRECTION('',(0.,0.,-1.));
#408=DIRECTION('',(0.,0.,-1.));
#409=DIRECTION('',(-1.,0.,0.));
#410=DIRECTION('',(-1.,0.,0.));
#411=DIRECTION('',(0.,1.,0.));
#412=DIRECTION('',(-1.,0.,0.));
#413=DIRECTION('',(0.707106781186548,0.,0.707106781186548));
#414=DIRECTION('',(0.707106781186548,0.,-0.707106781186548));
#415=DIRECTION('',(0.707106781186548,0.,-0.707106781186548));
#416=DIRECTION('',(0.,1.,0.));
#417=DIRECTION('',(0.707106781186548,0.,-0.707106781186548));
#418=DIRECTION('',(0.,1.,0.));
#419=DIRECTION('',(0.,0.,1.));
#420=DIRECTION('',(1.,0.,0.));
#421=DIRECTION('',(1.,0.,0.));
#422=DIRECTION('',(0.,-1.,0.));
#423=DIRECTION('',(1.,0.,0.));
#424=DIRECTION('',(-1.,0.,0.));
#425=DIRECTION('',(0.,0.,1.));
#426=DIRECTION('',(0.,0.,1.));
#427=DIRECTION('',(0.,0.,1.));
#428=DIRECTION('',(0.,1.,0.));
#429=DIRECTION('',(0.,-1.,0.));
#430=DIRECTION('',(1.,0.,0.));
#431=DIRECTION('',(0.,-1.,0.));
#432=DIRECTION('',(0.,0.,-1.));
#433=DIRECTION('',(-0.707106781186548,0.,-0.707106781186548));
#434=DIRECTION('',(0.,0.,1.));
#435=DIRECTION('',(0.707106781186548,0.,-0.707106781186548));
#436=DIRECTION('',(-1.,0.,0.));
#437=DIRECTION('',(-0.707106781186548,0.,-0.707106781186548));
#438=DIRECTION('',(0.,1.,0.));
#439=DIRECTION('',(0.,0.,-1.));
#440=DIRECTION('',(1.,0.,0.));
#441=DIRECTION('',(0.,0.,-1.));
#442=DIRECTION('',(0.,-1.,0.));
#443=DIRECTION('',(1.,0.,0.));
#444=DIRECTION('',(0.707106781186548,0.,0.707106781186548));
#445=DIRECTION('',(0.,-1.,0.));
#446=DIRECTION('',(0.,0.,-1.));
#447=DIRECTION('',(0.,0.,-1.));
#448=DIRECTION('',(1.,0.,0.));
#449=DIRECTION('',(0.,1.,0.));
#450=DIRECTION('',(0.,0.,-1.));
#451=DIRECTION('',(-0.707106781186548,0.,-0.707106781186548));
#452=DIRECTION('',(-1.,0.,0.));
#453=DIRECTION('',(-0.707106781186548,0.,0.707106781186548));
#454=DIRECTION('',(0.,0.,1.));
#455=DIRECTION('',(-0.707106781186548,0.,0.707106781186548));
#456=DIRECTION('',(0.,1.,0.));
#457=DIRECTION('',(0.,1.,0.));
#458=DIRECTION('',(0.,0.,1.));
#459=DIRECTION('',(-1.,0.,0.));
#460=DIRECTION('',(0.,0.,-1.));
#461=DIRECTION('',(0.,1.,0.));
#462=DIRECTION('',(0.,0.,-1.));
#463=DIRECTION('',(1.,0.,0.));
#464=DIRECTION('',(0.,1.,0.));
#465=DIRECTION('',(-0.707106781186548,0.,0.707106781186548));
#466=DIRECTION('',(-0.707106781186548,0.,-0.707106781186548));
#467=DIRECTION('',(0.,1.,0.));
#468=DIRECTION('',(0.,1.,0.));
#469=DIRECTION('',(0.,0.,1.));
#470=DIRECTION('',(-1.,0.,0.));
#471=DIRECTION('',(0.,-1.,0.));
#472=DIRECTION('',(1.,0.,0.));
#473=DIRECTION('',(0.,0.,1.));
#474=DIRECTION('',(0.,1.,0.));
#475=DIRECTION('',(0.707106781186548,0.,0.707106781186548));
#476=DIRECTION('',(0.,1.,0.));
#477=DIRECTION('',(0.,1.,0.));
#478=DIRECTION('',(0.,0.,1.));
#479=CARTESIAN_POINT('',(0.,0.,0.));
#480=CARTESIAN_POINT('',(-1.0842021724855E-19,0.001,-0.001075));
#481=CARTESIAN_POINT('',(-0.001,-0.001,-0.001075));
#482=CARTESIAN_POINT('',(-0.001,0.001,-0.001075));
#483=CARTESIAN_POINT('',(-0.001,-0.001,-0.001075));
#484=CARTESIAN_POINT('',(-1.0842021724855E-19,0.001,-0.001075));
#485=CARTESIAN_POINT('',(0.001,0.001,-0.001075));
#486=CARTESIAN_POINT('',(0.001,-0.001,-0.001075));
#487=CARTESIAN_POINT('',(0.001,-0.001,-0.001075));
#488=CARTESIAN_POINT('',(-1.0842021724855E-19,-0.001,-0.001075));
#489=CARTESIAN_POINT('',(-0.001,-0.001,0.));
#490=CARTESIAN_POINT('',(-0.001,0.001,0.));
#491=CARTESIAN_POINT('',(0.002,0.001,0.));
#492=CARTESIAN_POINT('',(-0.002,0.001,0.));
#493=CARTESIAN_POINT('',(-0.002,-0.001,0.));
#494=CARTESIAN_POINT('',(-0.002,-0.001,0.));
#495=CARTESIAN_POINT('',(-0.001,-0.001,0.));
#496=CARTESIAN_POINT('',(0.002,-0.001,0.));
#497=CARTESIAN_POINT('',(0.002,-0.001,0.));
#498=CARTESIAN_POINT('',(-0.002,-0.001,-3.75E-5));
#499=CARTESIAN_POINT('',(-0.002,0.001,-3.75E-5));
#500=CARTESIAN_POINT('',(-0.002,0.001,-0.00325));
#501=CARTESIAN_POINT('',(-0.002,-0.001,-0.00325));
#502=CARTESIAN_POINT('',(-0.002,-0.001,-0.00325));
#503=CARTESIAN_POINT('',(-0.002,-0.001,-3.75E-5));
#504=CARTESIAN_POINT('',(-0.002425,-0.001,-0.00325));
#505=CARTESIAN_POINT('',(-0.002425,0.001,-0.00325));
#506=CARTESIAN_POINT('',(-0.00260857864376269,0.001,-0.00325));
#507=CARTESIAN_POINT('',(-0.00260857864376269,-0.001,-0.00325));
#508=CARTESIAN_POINT('',(-0.00260857864376269,-0.001,-0.00325));
#509=CARTESIAN_POINT('',(-0.002425,-0.001,-0.00325));
#510=CARTESIAN_POINT('',(-0.00258333333333334,-0.001,-0.00351666666666666));
#511=CARTESIAN_POINT('',(-0.00258333333333334,-0.001,-0.00351666666666666));
#512=CARTESIAN_POINT('',(-0.00267928932188134,-0.001,-0.00342071067811865));
#513=CARTESIAN_POINT('',(-0.00231666666666667,-0.001,-0.00378333333333333));
#514=CARTESIAN_POINT('',(-0.00267928932188134,-0.001,-0.00342071067811865));
#515=CARTESIAN_POINT('',(-0.00267928932188134,0.001,-0.00342071067811865));
#516=CARTESIAN_POINT('',(-0.00258333333333334,0.001,-0.00351666666666666));
#517=CARTESIAN_POINT('',(-0.00231666666666667,0.001,-0.00378333333333333));
#518=CARTESIAN_POINT('',(-0.00231666666666667,-0.001,-0.00378333333333333));
#519=CARTESIAN_POINT('',(-0.00165833333333334,-0.001,-0.00378333333333333));
#520=CARTESIAN_POINT('',(-0.00165833333333334,0.001,-0.00378333333333333));
#521=CARTESIAN_POINT('',(-0.0014,0.001,-0.00378333333333333));
#522=CARTESIAN_POINT('',(-0.0014,-0.001,-0.00378333333333333));
#523=CARTESIAN_POINT('',(-0.0014,-0.001,-0.00378333333333333));
#524=CARTESIAN_POINT('',(-0.00165833333333334,-0.001,-0.00378333333333333));
#525=CARTESIAN_POINT('',(-0.001,-0.001,-0.00351666666666666));
#526=CARTESIAN_POINT('',(-0.001,0.001,-0.00351666666666666));
#527=CARTESIAN_POINT('',(-0.001,0.001,-0.00338333333333333));
#528=CARTESIAN_POINT('',(-0.001,-0.001,-0.00351666666666666));
#529=CARTESIAN_POINT('',(-0.001,-0.001,-0.00338333333333333));
#530=CARTESIAN_POINT('',(-0.001,-0.001,-0.00338333333333333));
#531=CARTESIAN_POINT('',(-0.001425,-0.001,-0.00189166666666666));
#532=CARTESIAN_POINT('',(-0.00260857864376269,-0.001,-0.00335));
#533=CARTESIAN_POINT('',(-0.000466666666666667,-0.001,-0.00285));
#534=CARTESIAN_POINT('',(0.001,-0.001,-0.00351666666666666));
#535=CARTESIAN_POINT('',(0.001,-0.001,-0.00338333333333333));
#536=CARTESIAN_POINT('',(0.000466666666666667,-0.001,-0.00285));
#537=CARTESIAN_POINT('',(0.0014,-0.001,-0.00378333333333333));
#538=CARTESIAN_POINT('',(0.00165833333333334,-0.001,-0.00378333333333333));
#539=CARTESIAN_POINT('',(0.00231666666666667,-0.001,-0.00378333333333333));
#540=CARTESIAN_POINT('',(0.00258333333333334,-0.001,-0.00351666666666666));
#541=CARTESIAN_POINT('',(0.00267928932188134,-0.001,-0.00342071067811865));
#542=CARTESIAN_POINT('',(0.00260857864376269,-0.001,-0.00335));
#543=CARTESIAN_POINT('',(0.00260857864376269,-0.001,-0.00325));
#544=CARTESIAN_POINT('',(0.002425,-0.001,-0.00325));
#545=CARTESIAN_POINT('',(0.002,-0.001,-0.00325));
#546=CARTESIAN_POINT('',(0.002,-0.001,-3.75E-5));
#547=CARTESIAN_POINT('',(-0.001425,0.001,-0.00189166666666666));
#548=CARTESIAN_POINT('',(-0.001,0.001,-0.00338333333333333));
#549=CARTESIAN_POINT('',(-0.00260857864376269,0.001,-0.00335));
#550=CARTESIAN_POINT('',(0.002,0.001,-3.75E-5));
#551=CARTESIAN_POINT('',(0.002,0.001,-0.00325));
#552=CARTESIAN_POINT('',(0.002425,0.001,-0.00325));
#553=CARTESIAN_POINT('',(0.00260857864376269,0.001,-0.00325));
#554=CARTESIAN_POINT('',(0.00260857864376269,0.001,-0.00335));
#555=CARTESIAN_POINT('',(0.00267928932188134,0.001,-0.00342071067811865));
#556=CARTESIAN_POINT('',(0.00258333333333334,0.001,-0.00351666666666666));
#557=CARTESIAN_POINT('',(0.00231666666666667,0.001,-0.00378333333333333));
#558=CARTESIAN_POINT('',(0.00165833333333334,0.001,-0.00378333333333333));
#559=CARTESIAN_POINT('',(0.0014,0.001,-0.00378333333333333));
#560=CARTESIAN_POINT('',(0.001,0.001,-0.00338333333333333));
#561=CARTESIAN_POINT('',(0.001,0.001,-0.00338333333333333));
#562=CARTESIAN_POINT('',(0.001,0.001,-0.00351666666666666));
#563=CARTESIAN_POINT('',(-0.001,-0.001,-0.00338333333333333));
#564=CARTESIAN_POINT('',(-0.00260857864376269,-0.001,-0.00335));
#565=CARTESIAN_POINT('',(0.002,-0.001,-3.75E-5));
#566=CARTESIAN_POINT('',(0.002,-0.001,-0.00325));
#567=CARTESIAN_POINT('',(0.002425,-0.001,-0.00325));
#568=CARTESIAN_POINT('',(0.00260857864376269,-0.001,-0.00325));
#569=CARTESIAN_POINT('',(0.00258333333333334,-0.001,-0.00351666666666666));
#570=CARTESIAN_POINT('',(0.00231666666666667,-0.001,-0.00378333333333333));
#571=CARTESIAN_POINT('',(0.00267928932188134,-0.001,-0.00342071067811865));
#572=CARTESIAN_POINT('',(0.00165833333333334,-0.001,-0.00378333333333333));
#573=CARTESIAN_POINT('',(0.0014,-0.001,-0.00378333333333333));
#574=CARTESIAN_POINT('',(0.001,-0.001,-0.00351666666666666));
#575=CARTESIAN_POINT('',(0.001,-0.001,-0.00338333333333333));
#576=CARTESIAN_POINT('',(0.001,-0.001,-0.00338333333333333));
#577=CARTESIAN_POINT('',(0.00260857864376269,-0.001,-0.00335));
#578=MECHANICAL_DESIGN_GEOMETRIC_PRESENTATION_REPRESENTATION('',(#351),
#579);
#579=(
GEOMETRIC_REPRESENTATION_CONTEXT(3)
GLOBAL_UNCERTAINTY_ASSIGNED_CONTEXT((#580))
GLOBAL_UNIT_ASSIGNED_CONTEXT((#583,#582,#581))
REPRESENTATION_CONTEXT('SnapFit','TOP_LEVEL_ASSEMBLY_PART')
);
#580=UNCERTAINTY_MEASURE_WITH_UNIT(LENGTH_MEASURE(1.E-8),#583,
'DISTANCE_ACCURACY_VALUE','Maximum Tolerance applied to model');
#581=(
NAMED_UNIT(*)
SI_UNIT($,.STERADIAN.)
SOLID_ANGLE_UNIT()
);
#582=(
NAMED_UNIT(*)
PLANE_ANGLE_UNIT()
SI_UNIT($,.RADIAN.)
);
#583=(
LENGTH_UNIT()
NAMED_UNIT(*)
SI_UNIT($,.METRE.)
);
#584=PRODUCT_DEFINITION_SHAPE('','',#585);
#585=PRODUCT_DEFINITION('','',#587,#586);
#586=PRODUCT_DEFINITION_CONTEXT('',#593,'design');
#587=PRODUCT_DEFINITION_FORMATION_WITH_SPECIFIED_SOURCE('','',#589,
 .NOT_KNOWN.);
#588=PRODUCT_RELATED_PRODUCT_CATEGORY('','',(#589));
#589=PRODUCT('SnapFit','SnapFit','SnapFit',(#591));
#590=PRODUCT_CATEGORY('','');
#591=PRODUCT_CONTEXT('',#593,'mechanical');
#592=APPLICATION_PROTOCOL_DEFINITION('international standard',
'ap242_managed_model_based_3d_engineering',2020,#593);
#593=APPLICATION_CONTEXT('managed model based 3d engineering');
ENDSEC;
END-ISO-10303-21;
