ISO-10303-21;
HEADER;
/* Generated by software containing ST-Developer
 * from STEP Tools, Inc. (www.steptools.com) 
 */
/* OPTION: using custom renumber hook */

FILE_DESCRIPTION(
/* description */ ('STEP AP242 Edition 2',
'CAx-IF Rec.Pracs.---Representation and Presentation of Product Manufa
cturing Information (PMI)---4.0---2014-10-13',
'CAx-IF Rec.Pracs.---3D Tessellated Geometry---0.4---2014-09-14','2;1',
'CAx-IF Rec.Pracs.---User Defined Attributes---1.5---2016-08-15'),
/* implementation_level */ '2;1');

FILE_NAME(
/* name */ 'MunchMoir - Top',
/* time_stamp */ '2026-09-19T09:01:34Z',
/* author */ (''),
/* organization */ (''),
/* preprocessor_version */ 'ST-DEVELOPER v20',
/* originating_system */ 'ONSHAPE BY PTC INC, 1.221',
/* authorisation */ '  ');

FILE_SCHEMA (('AP242_MANAGED_MODEL_BASED_3D_ENGINEERING_MIM_LF { 1 0 10303 442 3 1 4 }'));
ENDSEC;

DATA;
#10=SHAPE_REPRESENTATION_RELATIONSHIP('','',#1126,#11);
#11=ADVANCED_BREP_SHAPE_REPRESENTATION('',(#1124),#1907);
#12=CONICAL_SURFACE('',#1166,0.002175,1.0471975511966);
#13=CONICAL_SURFACE('',#1210,0.0033,0.785398163397448);
#14=CONICAL_SURFACE('',#1211,0.00235,0.785398163397448);
#15=CONICAL_SURFACE('',#1212,0.0033,0.785398163397448);
#16=B_SPLINE_SURFACE_WITH_KNOTS('',3,1,((#1664,#1665),(#1666,#1667),(#1668,
#1669),(#1670,#1671)),.SURF_OF_LINEAR_EXTRUSION.,.F.,.F.,.F.,(4,4),(2,2),
(0.,0.382390746831277),(0.,1.),.PIECEWISE_BEZIER_KNOTS.);
#17=B_SPLINE_SURFACE_WITH_KNOTS('',3,1,((#1673,#1674),(#1675,#1676),(#1677,
#1678),(#1679,#1680)),.SURF_OF_LINEAR_EXTRUSION.,.F.,.F.,.F.,(4,4),(2,2),
(0.382390746831277,1.),(0.,1.),.PIECEWISE_BEZIER_KNOTS.);
#18=B_SPLINE_SURFACE_WITH_KNOTS('',3,1,((#1682,#1683),(#1684,#1685),(#1686,
#1687),(#1688,#1689)),.SURF_OF_LINEAR_EXTRUSION.,.F.,.F.,.F.,(4,4),(2,2),
(0.,0.382390746831277),(0.,1.),.PIECEWISE_BEZIER_KNOTS.);
#19=B_SPLINE_SURFACE_WITH_KNOTS('',3,1,((#1691,#1692),(#1693,#1694),(#1695,
#1696),(#1697,#1698)),.SURF_OF_LINEAR_EXTRUSION.,.F.,.F.,.F.,(4,4),(2,2),
(0.382390746831277,1.),(0.,1.),.PIECEWISE_BEZIER_KNOTS.);
#20=B_SPLINE_SURFACE_WITH_KNOTS('',3,1,((#1699,#1700),(#1701,#1702),(#1703,
#1704),(#1705,#1706),(#1707,#1708),(#1709,#1710),(#1711,#1712),(#1713,#1714),
(#1715,#1716),(#1717,#1718),(#1719,#1720)),.SURF_OF_LINEAR_EXTRUSION.,.F.,
 .F.,.F.,(4,1,1,1,1,1,1,1,4),(2,2),(0.113623995527026,0.224420996086148,
0.335217996645269,0.446014997204391,0.556811997763513,0.667608998322635,
0.778405998881756,0.889202999440878,1.),(0.,1.),.UNSPECIFIED.);
#21=B_SPLINE_SURFACE_WITH_KNOTS('',3,1,((#1722,#1723),(#1724,#1725),(#1726,
#1727),(#1728,#1729),(#1730,#1731),(#1732,#1733),(#1734,#1735),(#1736,#1737),
(#1738,#1739),(#1740,#1741),(#1742,#1743)),.SURF_OF_LINEAR_EXTRUSION.,.F.,
 .F.,.F.,(4,1,1,1,1,1,1,1,4),(2,2),(0.113623995527031,0.224420996086152,
0.335217996645273,0.446014997204394,0.556811997763515,0.667608998322637,
0.778405998881758,0.889202999440879,1.),(0.,1.),.UNSPECIFIED.);
#22=CYLINDRICAL_SURFACE('',#1144,0.001575);
#23=CYLINDRICAL_SURFACE('',#1147,0.0214038095238096);
#24=CYLINDRICAL_SURFACE('',#1148,0.0214038095238096);
#25=CYLINDRICAL_SURFACE('',#1157,0.002475);
#26=CYLINDRICAL_SURFACE('',#1161,0.002175);
#27=CYLINDRICAL_SURFACE('',#1167,7.5E-5);
#28=CYLINDRICAL_SURFACE('',#1170,0.002425);
#29=CYLINDRICAL_SURFACE('',#1172,0.001525);
#30=B_SPLINE_CURVE_WITH_KNOTS('',3,(#1533,#1534,#1535,#1536),
 .UNSPECIFIED.,.F.,.F.,(4,4),(0.,0.382390746831277),
 .PIECEWISE_BEZIER_KNOTS.);
#31=B_SPLINE_CURVE_WITH_KNOTS('',3,(#1538,#1539,#1540,#1541),
 .UNSPECIFIED.,.F.,.F.,(4,4),(0.382390746831277,1.),
 .PIECEWISE_BEZIER_KNOTS.);
#32=B_SPLINE_CURVE_WITH_KNOTS('',3,(#1543,#1544,#1545,#1546),
 .UNSPECIFIED.,.F.,.F.,(4,4),(0.382390746831277,1.),
 .PIECEWISE_BEZIER_KNOTS.);
#33=B_SPLINE_CURVE_WITH_KNOTS('',3,(#1548,#1549,#1550,#1551),
 .UNSPECIFIED.,.F.,.F.,(4,4),(0.,0.382390746831277),
 .PIECEWISE_BEZIER_KNOTS.);
#34=B_SPLINE_CURVE_WITH_KNOTS('',3,(#1574,#1575,#1576,#1577),
 .UNSPECIFIED.,.F.,.F.,(4,4),(0.,0.382390746831277),
 .PIECEWISE_BEZIER_KNOTS.);
#35=B_SPLINE_CURVE_WITH_KNOTS('',3,(#1579,#1580,#1581,#1582),
 .UNSPECIFIED.,.F.,.F.,(4,4),(0.382390746831277,1.),
 .PIECEWISE_BEZIER_KNOTS.);
#36=B_SPLINE_CURVE_WITH_KNOTS('',3,(#1584,#1585,#1586,#1587),
 .UNSPECIFIED.,.F.,.F.,(4,4),(0.382390746831277,1.),
 .PIECEWISE_BEZIER_KNOTS.);
#37=B_SPLINE_CURVE_WITH_KNOTS('',3,(#1589,#1590,#1591,#1592),
 .UNSPECIFIED.,.F.,.F.,(4,4),(0.,0.382390746831277),
 .PIECEWISE_BEZIER_KNOTS.);
#38=ELLIPSE('',#1135,0.0425319250520355,0.0227355643390899);
#39=ELLIPSE('',#1138,0.0425319250520353,0.0227355643390897);
#40=ELLIPSE('',#1141,0.0425319250520355,0.0227355643390899);
#41=ELLIPSE('',#1142,0.0425319250520353,0.0227355643390897);
#42=LINE('',#1512,#152);
#43=LINE('',#1515,#153);
#44=LINE('',#1517,#154);
#45=LINE('',#1519,#155);
#46=LINE('',#1520,#156);
#47=LINE('',#1523,#157);
#48=LINE('',#1525,#158);
#49=LINE('',#1527,#159);
#50=LINE('',#1557,#160);
#51=LINE('',#1560,#161);
#52=LINE('',#1562,#162);
#53=LINE('',#1564,#163);
#54=LINE('',#1593,#164);
#55=LINE('',#1596,#165);
#56=LINE('',#1598,#166);
#57=LINE('',#1600,#167);
#58=LINE('',#1601,#168);
#59=LINE('',#1604,#169);
#60=LINE('',#1606,#170);
#61=LINE('',#1608,#171);
#62=LINE('',#1610,#172);
#63=LINE('',#1612,#173);
#64=LINE('',#1614,#174);
#65=LINE('',#1616,#175);
#66=LINE('',#1618,#176);
#67=LINE('',#1620,#177);
#68=LINE('',#1622,#178);
#69=LINE('',#1624,#179);
#70=LINE('',#1626,#180);
#71=LINE('',#1627,#181);
#72=LINE('',#1630,#182);
#73=LINE('',#1632,#183);
#74=LINE('',#1634,#184);
#75=LINE('',#1636,#185);
#76=LINE('',#1638,#186);
#77=LINE('',#1640,#187);
#78=LINE('',#1642,#188);
#79=LINE('',#1644,#189);
#80=LINE('',#1646,#190);
#81=LINE('',#1648,#191);
#82=LINE('',#1650,#192);
#83=LINE('',#1652,#193);
#84=LINE('',#1659,#194);
#85=LINE('',#1660,#195);
#86=LINE('',#1662,#196);
#87=LINE('',#1663,#197);
#88=LINE('',#1672,#198);
#89=LINE('',#1681,#199);
#90=LINE('',#1690,#200);
#91=LINE('',#1721,#201);
#92=LINE('',#1745,#202);
#93=LINE('',#1746,#203);
#94=LINE('',#1748,#204);
#95=LINE('',#1750,#205);
#96=LINE('',#1753,#206);
#97=LINE('',#1754,#207);
#98=LINE('',#1756,#208);
#99=LINE('',#1758,#209);
#100=LINE('',#1788,#210);
#101=LINE('',#1790,#211);
#102=LINE('',#1792,#212);
#103=LINE('',#1794,#213);
#104=LINE('',#1796,#214);
#105=LINE('',#1798,#215);
#106=LINE('',#1800,#216);
#107=LINE('',#1802,#217);
#108=LINE('',#1804,#218);
#109=LINE('',#1806,#219);
#110=LINE('',#1808,#220);
#111=LINE('',#1810,#221);
#112=LINE('',#1812,#222);
#113=LINE('',#1814,#223);
#114=LINE('',#1816,#224);
#115=LINE('',#1818,#225);
#116=LINE('',#1820,#226);
#117=LINE('',#1822,#227);
#118=LINE('',#1824,#228);
#119=LINE('',#1826,#229);
#120=LINE('',#1828,#230);
#121=LINE('',#1830,#231);
#122=LINE('',#1832,#232);
#123=LINE('',#1834,#233);
#124=LINE('',#1836,#234);
#125=LINE('',#1838,#235);
#126=LINE('',#1841,#236);
#127=LINE('',#1843,#237);
#128=LINE('',#1845,#238);
#129=LINE('',#1847,#239);
#130=LINE('',#1849,#240);
#131=LINE('',#1851,#241);
#132=LINE('',#1853,#242);
#133=LINE('',#1855,#243);
#134=LINE('',#1857,#244);
#135=LINE('',#1859,#245);
#136=LINE('',#1861,#246);
#137=LINE('',#1863,#247);
#138=LINE('',#1865,#248);
#139=LINE('',#1867,#249);
#140=LINE('',#1869,#250);
#141=LINE('',#1871,#251);
#142=LINE('',#1873,#252);
#143=LINE('',#1875,#253);
#144=LINE('',#1877,#254);
#145=LINE('',#1879,#255);
#146=LINE('',#1881,#256);
#147=LINE('',#1883,#257);
#148=LINE('',#1885,#258);
#149=LINE('',#1887,#259);
#150=LINE('',#1889,#260);
#151=LINE('',#1891,#261);
#152=VECTOR('',#1230,1.);
#153=VECTOR('',#1231,1.);
#154=VECTOR('',#1232,1.);
#155=VECTOR('',#1233,1.);
#156=VECTOR('',#1234,1.);
#157=VECTOR('',#1235,1.);
#158=VECTOR('',#1236,1.);
#159=VECTOR('',#1237,1.);
#160=VECTOR('',#1248,1.);
#161=VECTOR('',#1249,1.);
#162=VECTOR('',#1250,1.);
#163=VECTOR('',#1251,1.);
#164=VECTOR('',#1260,1.);
#165=VECTOR('',#1261,1.);
#166=VECTOR('',#1262,1.);
#167=VECTOR('',#1263,1.);
#168=VECTOR('',#1264,1.);
#169=VECTOR('',#1265,1.);
#170=VECTOR('',#1266,1.);
#171=VECTOR('',#1267,1.);
#172=VECTOR('',#1268,1.);
#173=VECTOR('',#1269,1.);
#174=VECTOR('',#1270,1.);
#175=VECTOR('',#1271,1.);
#176=VECTOR('',#1272,1.);
#177=VECTOR('',#1273,1.);
#178=VECTOR('',#1274,1.);
#179=VECTOR('',#1275,1.);
#180=VECTOR('',#1276,1.);
#181=VECTOR('',#1277,1.);
#182=VECTOR('',#1278,1.);
#183=VECTOR('',#1279,1.);
#184=VECTOR('',#1280,1.);
#185=VECTOR('',#1281,1.);
#186=VECTOR('',#1282,1.);
#187=VECTOR('',#1283,1.);
#188=VECTOR('',#1284,1.);
#189=VECTOR('',#1285,1.);
#190=VECTOR('',#1286,1.);
#191=VECTOR('',#1287,1.);
#192=VECTOR('',#1288,1.);
#193=VECTOR('',#1289,1.);
#194=VECTOR('',#1298,1.);
#195=VECTOR('',#1299,1.);
#196=VECTOR('',#1302,1.);
#197=VECTOR('',#1303,1.);
#198=VECTOR('',#1304,1.);
#199=VECTOR('',#1305,1.);
#200=VECTOR('',#1306,1.);
#201=VECTOR('',#1307,1.);
#202=VECTOR('',#1310,1.);
#203=VECTOR('',#1311,1.);
#204=VECTOR('',#1314,1.);
#205=VECTOR('',#1317,1.);
#206=VECTOR('',#1322,1.);
#207=VECTOR('',#1323,1.);
#208=VECTOR('',#1326,1.);
#209=VECTOR('',#1329,1.);
#210=VECTOR('',#1372,1.);
#211=VECTOR('',#1373,1.);
#212=VECTOR('',#1374,1.);
#213=VECTOR('',#1377,1.);
#214=VECTOR('',#1378,1.);
#215=VECTOR('',#1381,1.);
#216=VECTOR('',#1382,1.);
#217=VECTOR('',#1385,1.);
#218=VECTOR('',#1386,1.);
#219=VECTOR('',#1389,1.);
#220=VECTOR('',#1390,1.);
#221=VECTOR('',#1393,1.);
#222=VECTOR('',#1394,1.);
#223=VECTOR('',#1397,1.);
#224=VECTOR('',#1398,1.);
#225=VECTOR('',#1401,1.);
#226=VECTOR('',#1402,1.);
#227=VECTOR('',#1405,1.);
#228=VECTOR('',#1406,1.);
#229=VECTOR('',#1409,1.);
#230=VECTOR('',#1410,1.);
#231=VECTOR('',#1413,1.);
#232=VECTOR('',#1414,1.);
#233=VECTOR('',#1417,1.);
#234=VECTOR('',#1418,1.);
#235=VECTOR('',#1421,1.);
#236=VECTOR('',#1426,1.);
#237=VECTOR('',#1427,1.);
#238=VECTOR('',#1428,1.);
#239=VECTOR('',#1431,1.);
#240=VECTOR('',#1432,1.);
#241=VECTOR('',#1435,1.);
#242=VECTOR('',#1436,1.);
#243=VECTOR('',#1439,1.);
#244=VECTOR('',#1440,1.);
#245=VECTOR('',#1443,1.);
#246=VECTOR('',#1444,1.);
#247=VECTOR('',#1447,1.);
#248=VECTOR('',#1448,1.);
#249=VECTOR('',#1451,1.);
#250=VECTOR('',#1452,1.);
#251=VECTOR('',#1455,1.);
#252=VECTOR('',#1456,1.);
#253=VECTOR('',#1459,1.);
#254=VECTOR('',#1460,1.);
#255=VECTOR('',#1463,1.);
#256=VECTOR('',#1464,1.);
#257=VECTOR('',#1467,1.);
#258=VECTOR('',#1468,1.);
#259=VECTOR('',#1471,1.);
#260=VECTOR('',#1472,1.);
#261=VECTOR('',#1475,1.);
#262=ORIENTED_EDGE('',*,*,#552,.T.);
#263=ORIENTED_EDGE('',*,*,#553,.T.);
#264=ORIENTED_EDGE('',*,*,#554,.T.);
#265=ORIENTED_EDGE('',*,*,#555,.F.);
#266=ORIENTED_EDGE('',*,*,#556,.F.);
#267=ORIENTED_EDGE('',*,*,#557,.F.);
#268=ORIENTED_EDGE('',*,*,#558,.T.);
#269=ORIENTED_EDGE('',*,*,#559,.T.);
#270=ORIENTED_EDGE('',*,*,#560,.F.);
#271=ORIENTED_EDGE('',*,*,#561,.F.);
#272=ORIENTED_EDGE('',*,*,#562,.T.);
#273=ORIENTED_EDGE('',*,*,#563,.F.);
#274=ORIENTED_EDGE('',*,*,#564,.F.);
#275=ORIENTED_EDGE('',*,*,#565,.T.);
#276=ORIENTED_EDGE('',*,*,#566,.F.);
#277=ORIENTED_EDGE('',*,*,#567,.T.);
#278=ORIENTED_EDGE('',*,*,#568,.T.);
#279=ORIENTED_EDGE('',*,*,#569,.T.);
#280=ORIENTED_EDGE('',*,*,#570,.F.);
#281=ORIENTED_EDGE('',*,*,#571,.F.);
#282=ORIENTED_EDGE('',*,*,#572,.F.);
#283=ORIENTED_EDGE('',*,*,#573,.T.);
#284=ORIENTED_EDGE('',*,*,#574,.T.);
#285=ORIENTED_EDGE('',*,*,#575,.F.);
#286=ORIENTED_EDGE('',*,*,#576,.F.);
#287=ORIENTED_EDGE('',*,*,#577,.T.);
#288=ORIENTED_EDGE('',*,*,#578,.F.);
#289=ORIENTED_EDGE('',*,*,#579,.T.);
#290=ORIENTED_EDGE('',*,*,#580,.F.);
#291=ORIENTED_EDGE('',*,*,#581,.T.);
#292=ORIENTED_EDGE('',*,*,#582,.T.);
#293=ORIENTED_EDGE('',*,*,#583,.T.);
#294=ORIENTED_EDGE('',*,*,#584,.F.);
#295=ORIENTED_EDGE('',*,*,#585,.F.);
#296=ORIENTED_EDGE('',*,*,#586,.F.);
#297=ORIENTED_EDGE('',*,*,#587,.F.);
#298=ORIENTED_EDGE('',*,*,#588,.T.);
#299=ORIENTED_EDGE('',*,*,#589,.T.);
#300=ORIENTED_EDGE('',*,*,#590,.T.);
#301=ORIENTED_EDGE('',*,*,#591,.T.);
#302=ORIENTED_EDGE('',*,*,#592,.T.);
#303=ORIENTED_EDGE('',*,*,#593,.T.);
#304=ORIENTED_EDGE('',*,*,#594,.T.);
#305=ORIENTED_EDGE('',*,*,#595,.T.);
#306=ORIENTED_EDGE('',*,*,#596,.T.);
#307=ORIENTED_EDGE('',*,*,#597,.T.);
#308=ORIENTED_EDGE('',*,*,#598,.T.);
#309=ORIENTED_EDGE('',*,*,#599,.T.);
#310=ORIENTED_EDGE('',*,*,#600,.T.);
#311=ORIENTED_EDGE('',*,*,#601,.T.);
#312=ORIENTED_EDGE('',*,*,#602,.T.);
#313=ORIENTED_EDGE('',*,*,#603,.T.);
#314=ORIENTED_EDGE('',*,*,#604,.T.);
#315=ORIENTED_EDGE('',*,*,#605,.T.);
#316=ORIENTED_EDGE('',*,*,#606,.T.);
#317=ORIENTED_EDGE('',*,*,#607,.T.);
#318=ORIENTED_EDGE('',*,*,#608,.T.);
#319=ORIENTED_EDGE('',*,*,#609,.T.);
#320=ORIENTED_EDGE('',*,*,#610,.T.);
#321=ORIENTED_EDGE('',*,*,#611,.T.);
#322=ORIENTED_EDGE('',*,*,#612,.T.);
#323=ORIENTED_EDGE('',*,*,#613,.T.);
#324=ORIENTED_EDGE('',*,*,#614,.T.);
#325=ORIENTED_EDGE('',*,*,#615,.T.);
#326=ORIENTED_EDGE('',*,*,#616,.T.);
#327=ORIENTED_EDGE('',*,*,#617,.T.);
#328=ORIENTED_EDGE('',*,*,#618,.T.);
#329=ORIENTED_EDGE('',*,*,#567,.F.);
#330=ORIENTED_EDGE('',*,*,#619,.F.);
#331=ORIENTED_EDGE('',*,*,#578,.T.);
#332=ORIENTED_EDGE('',*,*,#581,.F.);
#333=ORIENTED_EDGE('',*,*,#620,.T.);
#334=ORIENTED_EDGE('',*,*,#572,.T.);
#335=ORIENTED_EDGE('',*,*,#621,.F.);
#336=ORIENTED_EDGE('',*,*,#571,.T.);
#337=ORIENTED_EDGE('',*,*,#622,.F.);
#338=ORIENTED_EDGE('',*,*,#582,.F.);
#339=ORIENTED_EDGE('',*,*,#621,.T.);
#340=ORIENTED_EDGE('',*,*,#570,.T.);
#341=ORIENTED_EDGE('',*,*,#623,.F.);
#342=ORIENTED_EDGE('',*,*,#583,.F.);
#343=ORIENTED_EDGE('',*,*,#622,.T.);
#344=ORIENTED_EDGE('',*,*,#568,.F.);
#345=ORIENTED_EDGE('',*,*,#618,.F.);
#346=ORIENTED_EDGE('',*,*,#585,.T.);
#347=ORIENTED_EDGE('',*,*,#624,.T.);
#348=ORIENTED_EDGE('',*,*,#569,.F.);
#349=ORIENTED_EDGE('',*,*,#624,.F.);
#350=ORIENTED_EDGE('',*,*,#584,.T.);
#351=ORIENTED_EDGE('',*,*,#623,.T.);
#352=ORIENTED_EDGE('',*,*,#620,.F.);
#353=ORIENTED_EDGE('',*,*,#580,.T.);
#354=ORIENTED_EDGE('',*,*,#625,.T.);
#355=ORIENTED_EDGE('',*,*,#573,.F.);
#356=ORIENTED_EDGE('',*,*,#579,.F.);
#357=ORIENTED_EDGE('',*,*,#619,.T.);
#358=ORIENTED_EDGE('',*,*,#566,.T.);
#359=ORIENTED_EDGE('',*,*,#625,.F.);
#360=ORIENTED_EDGE('',*,*,#626,.T.);
#361=ORIENTED_EDGE('',*,*,#563,.T.);
#362=ORIENTED_EDGE('',*,*,#627,.F.);
#363=ORIENTED_EDGE('',*,*,#574,.F.);
#364=ORIENTED_EDGE('',*,*,#575,.T.);
#365=ORIENTED_EDGE('',*,*,#627,.T.);
#366=ORIENTED_EDGE('',*,*,#562,.F.);
#367=ORIENTED_EDGE('',*,*,#628,.F.);
#368=ORIENTED_EDGE('',*,*,#629,.T.);
#369=ORIENTED_EDGE('',*,*,#564,.T.);
#370=ORIENTED_EDGE('',*,*,#626,.F.);
#371=ORIENTED_EDGE('',*,*,#577,.F.);
#372=ORIENTED_EDGE('',*,*,#576,.T.);
#373=ORIENTED_EDGE('',*,*,#628,.T.);
#374=ORIENTED_EDGE('',*,*,#565,.F.);
#375=ORIENTED_EDGE('',*,*,#629,.F.);
#376=ORIENTED_EDGE('',*,*,#587,.T.);
#377=ORIENTED_EDGE('',*,*,#630,.T.);
#378=ORIENTED_EDGE('',*,*,#558,.F.);
#379=ORIENTED_EDGE('',*,*,#631,.F.);
#380=ORIENTED_EDGE('',*,*,#586,.T.);
#381=ORIENTED_EDGE('',*,*,#632,.T.);
#382=ORIENTED_EDGE('',*,*,#559,.F.);
#383=ORIENTED_EDGE('',*,*,#630,.F.);
#384=ORIENTED_EDGE('',*,*,#631,.T.);
#385=ORIENTED_EDGE('',*,*,#561,.T.);
#386=ORIENTED_EDGE('',*,*,#633,.F.);
#387=ORIENTED_EDGE('',*,*,#588,.F.);
#388=ORIENTED_EDGE('',*,*,#633,.T.);
#389=ORIENTED_EDGE('',*,*,#560,.T.);
#390=ORIENTED_EDGE('',*,*,#632,.F.);
#391=ORIENTED_EDGE('',*,*,#589,.F.);
#392=ORIENTED_EDGE('',*,*,#634,.T.);
#393=ORIENTED_EDGE('',*,*,#557,.T.);
#394=ORIENTED_EDGE('',*,*,#635,.T.);
#395=ORIENTED_EDGE('',*,*,#634,.F.);
#396=ORIENTED_EDGE('',*,*,#636,.T.);
#397=ORIENTED_EDGE('',*,*,#637,.F.);
#398=ORIENTED_EDGE('',*,*,#636,.F.);
#399=ORIENTED_EDGE('',*,*,#617,.F.);
#400=ORIENTED_EDGE('',*,*,#637,.T.);
#401=ORIENTED_EDGE('',*,*,#616,.F.);
#402=ORIENTED_EDGE('',*,*,#635,.F.);
#403=ORIENTED_EDGE('',*,*,#638,.F.);
#404=ORIENTED_EDGE('',*,*,#556,.T.);
#405=ORIENTED_EDGE('',*,*,#638,.T.);
#406=ORIENTED_EDGE('',*,*,#639,.T.);
#407=ORIENTED_EDGE('',*,*,#555,.T.);
#408=ORIENTED_EDGE('',*,*,#640,.F.);
#409=ORIENTED_EDGE('',*,*,#641,.F.);
#410=ORIENTED_EDGE('',*,*,#639,.F.);
#411=ORIENTED_EDGE('',*,*,#640,.T.);
#412=ORIENTED_EDGE('',*,*,#591,.F.);
#413=ORIENTED_EDGE('',*,*,#642,.F.);
#414=ORIENTED_EDGE('',*,*,#643,.T.);
#415=ORIENTED_EDGE('',*,*,#644,.T.);
#416=ORIENTED_EDGE('',*,*,#590,.F.);
#417=ORIENTED_EDGE('',*,*,#645,.F.);
#418=ORIENTED_EDGE('',*,*,#646,.T.);
#419=ORIENTED_EDGE('',*,*,#642,.T.);
#420=ORIENTED_EDGE('',*,*,#602,.F.);
#421=ORIENTED_EDGE('',*,*,#647,.F.);
#422=ORIENTED_EDGE('',*,*,#648,.T.);
#423=ORIENTED_EDGE('',*,*,#645,.T.);
#424=ORIENTED_EDGE('',*,*,#601,.F.);
#425=ORIENTED_EDGE('',*,*,#649,.F.);
#426=ORIENTED_EDGE('',*,*,#650,.T.);
#427=ORIENTED_EDGE('',*,*,#647,.T.);
#428=ORIENTED_EDGE('',*,*,#600,.F.);
#429=ORIENTED_EDGE('',*,*,#651,.F.);
#430=ORIENTED_EDGE('',*,*,#652,.T.);
#431=ORIENTED_EDGE('',*,*,#649,.T.);
#432=ORIENTED_EDGE('',*,*,#599,.F.);
#433=ORIENTED_EDGE('',*,*,#653,.F.);
#434=ORIENTED_EDGE('',*,*,#654,.T.);
#435=ORIENTED_EDGE('',*,*,#651,.T.);
#436=ORIENTED_EDGE('',*,*,#598,.F.);
#437=ORIENTED_EDGE('',*,*,#655,.F.);
#438=ORIENTED_EDGE('',*,*,#656,.T.);
#439=ORIENTED_EDGE('',*,*,#653,.T.);
#440=ORIENTED_EDGE('',*,*,#597,.F.);
#441=ORIENTED_EDGE('',*,*,#657,.F.);
#442=ORIENTED_EDGE('',*,*,#658,.T.);
#443=ORIENTED_EDGE('',*,*,#655,.T.);
#444=ORIENTED_EDGE('',*,*,#596,.F.);
#445=ORIENTED_EDGE('',*,*,#659,.F.);
#446=ORIENTED_EDGE('',*,*,#660,.T.);
#447=ORIENTED_EDGE('',*,*,#657,.T.);
#448=ORIENTED_EDGE('',*,*,#595,.F.);
#449=ORIENTED_EDGE('',*,*,#661,.F.);
#450=ORIENTED_EDGE('',*,*,#662,.T.);
#451=ORIENTED_EDGE('',*,*,#659,.T.);
#452=ORIENTED_EDGE('',*,*,#594,.F.);
#453=ORIENTED_EDGE('',*,*,#663,.F.);
#454=ORIENTED_EDGE('',*,*,#664,.T.);
#455=ORIENTED_EDGE('',*,*,#661,.T.);
#456=ORIENTED_EDGE('',*,*,#593,.F.);
#457=ORIENTED_EDGE('',*,*,#665,.F.);
#458=ORIENTED_EDGE('',*,*,#666,.T.);
#459=ORIENTED_EDGE('',*,*,#663,.T.);
#460=ORIENTED_EDGE('',*,*,#592,.F.);
#461=ORIENTED_EDGE('',*,*,#644,.F.);
#462=ORIENTED_EDGE('',*,*,#667,.T.);
#463=ORIENTED_EDGE('',*,*,#665,.T.);
#464=ORIENTED_EDGE('',*,*,#643,.F.);
#465=ORIENTED_EDGE('',*,*,#646,.F.);
#466=ORIENTED_EDGE('',*,*,#648,.F.);
#467=ORIENTED_EDGE('',*,*,#650,.F.);
#468=ORIENTED_EDGE('',*,*,#652,.F.);
#469=ORIENTED_EDGE('',*,*,#654,.F.);
#470=ORIENTED_EDGE('',*,*,#656,.F.);
#471=ORIENTED_EDGE('',*,*,#658,.F.);
#472=ORIENTED_EDGE('',*,*,#660,.F.);
#473=ORIENTED_EDGE('',*,*,#662,.F.);
#474=ORIENTED_EDGE('',*,*,#664,.F.);
#475=ORIENTED_EDGE('',*,*,#666,.F.);
#476=ORIENTED_EDGE('',*,*,#667,.F.);
#477=ORIENTED_EDGE('',*,*,#604,.F.);
#478=ORIENTED_EDGE('',*,*,#668,.F.);
#479=ORIENTED_EDGE('',*,*,#669,.T.);
#480=ORIENTED_EDGE('',*,*,#670,.T.);
#481=ORIENTED_EDGE('',*,*,#603,.F.);
#482=ORIENTED_EDGE('',*,*,#671,.F.);
#483=ORIENTED_EDGE('',*,*,#672,.T.);
#484=ORIENTED_EDGE('',*,*,#668,.T.);
#485=ORIENTED_EDGE('',*,*,#615,.F.);
#486=ORIENTED_EDGE('',*,*,#673,.F.);
#487=ORIENTED_EDGE('',*,*,#674,.T.);
#488=ORIENTED_EDGE('',*,*,#671,.T.);
#489=ORIENTED_EDGE('',*,*,#614,.F.);
#490=ORIENTED_EDGE('',*,*,#675,.F.);
#491=ORIENTED_EDGE('',*,*,#676,.T.);
#492=ORIENTED_EDGE('',*,*,#673,.T.);
#493=ORIENTED_EDGE('',*,*,#613,.F.);
#494=ORIENTED_EDGE('',*,*,#677,.F.);
#495=ORIENTED_EDGE('',*,*,#678,.T.);
#496=ORIENTED_EDGE('',*,*,#675,.T.);
#497=ORIENTED_EDGE('',*,*,#612,.F.);
#498=ORIENTED_EDGE('',*,*,#679,.F.);
#499=ORIENTED_EDGE('',*,*,#680,.T.);
#500=ORIENTED_EDGE('',*,*,#677,.T.);
#501=ORIENTED_EDGE('',*,*,#611,.F.);
#502=ORIENTED_EDGE('',*,*,#681,.F.);
#503=ORIENTED_EDGE('',*,*,#682,.T.);
#504=ORIENTED_EDGE('',*,*,#679,.T.);
#505=ORIENTED_EDGE('',*,*,#610,.F.);
#506=ORIENTED_EDGE('',*,*,#683,.F.);
#507=ORIENTED_EDGE('',*,*,#684,.T.);
#508=ORIENTED_EDGE('',*,*,#681,.T.);
#509=ORIENTED_EDGE('',*,*,#609,.F.);
#510=ORIENTED_EDGE('',*,*,#685,.F.);
#511=ORIENTED_EDGE('',*,*,#686,.T.);
#512=ORIENTED_EDGE('',*,*,#683,.T.);
#513=ORIENTED_EDGE('',*,*,#608,.F.);
#514=ORIENTED_EDGE('',*,*,#687,.F.);
#515=ORIENTED_EDGE('',*,*,#688,.T.);
#516=ORIENTED_EDGE('',*,*,#685,.T.);
#517=ORIENTED_EDGE('',*,*,#607,.F.);
#518=ORIENTED_EDGE('',*,*,#689,.F.);
#519=ORIENTED_EDGE('',*,*,#690,.T.);
#520=ORIENTED_EDGE('',*,*,#687,.T.);
#521=ORIENTED_EDGE('',*,*,#606,.F.);
#522=ORIENTED_EDGE('',*,*,#691,.F.);
#523=ORIENTED_EDGE('',*,*,#692,.T.);
#524=ORIENTED_EDGE('',*,*,#689,.T.);
#525=ORIENTED_EDGE('',*,*,#605,.F.);
#526=ORIENTED_EDGE('',*,*,#670,.F.);
#527=ORIENTED_EDGE('',*,*,#693,.T.);
#528=ORIENTED_EDGE('',*,*,#691,.T.);
#529=ORIENTED_EDGE('',*,*,#669,.F.);
#530=ORIENTED_EDGE('',*,*,#672,.F.);
#531=ORIENTED_EDGE('',*,*,#674,.F.);
#532=ORIENTED_EDGE('',*,*,#676,.F.);
#533=ORIENTED_EDGE('',*,*,#678,.F.);
#534=ORIENTED_EDGE('',*,*,#680,.F.);
#535=ORIENTED_EDGE('',*,*,#682,.F.);
#536=ORIENTED_EDGE('',*,*,#684,.F.);
#537=ORIENTED_EDGE('',*,*,#686,.F.);
#538=ORIENTED_EDGE('',*,*,#688,.F.);
#539=ORIENTED_EDGE('',*,*,#690,.F.);
#540=ORIENTED_EDGE('',*,*,#692,.F.);
#541=ORIENTED_EDGE('',*,*,#693,.F.);
#542=ORIENTED_EDGE('',*,*,#694,.T.);
#543=ORIENTED_EDGE('',*,*,#695,.F.);
#544=ORIENTED_EDGE('',*,*,#696,.F.);
#545=ORIENTED_EDGE('',*,*,#695,.T.);
#546=ORIENTED_EDGE('',*,*,#552,.F.);
#547=ORIENTED_EDGE('',*,*,#553,.F.);
#548=ORIENTED_EDGE('',*,*,#694,.F.);
#549=ORIENTED_EDGE('',*,*,#696,.T.);
#550=ORIENTED_EDGE('',*,*,#554,.F.);
#551=ORIENTED_EDGE('',*,*,#641,.T.);
#552=EDGE_CURVE('',#697,#697,#800,.T.);
#553=EDGE_CURVE('',#698,#698,#801,.T.);
#554=EDGE_CURVE('',#699,#699,#802,.T.);
#555=EDGE_CURVE('',#700,#700,#803,.F.);
#556=EDGE_CURVE('',#701,#701,#804,.F.);
#557=EDGE_CURVE('',#702,#702,#805,.F.);
#558=EDGE_CURVE('',#703,#704,#42,.T.);
#559=EDGE_CURVE('',#704,#705,#43,.T.);
#560=EDGE_CURVE('',#706,#705,#44,.T.);
#561=EDGE_CURVE('',#703,#706,#45,.T.);
#562=EDGE_CURVE('',#707,#708,#46,.T.);
#563=EDGE_CURVE('',#709,#708,#47,.T.);
#564=EDGE_CURVE('',#710,#709,#48,.T.);
#565=EDGE_CURVE('',#710,#707,#49,.T.);
#566=EDGE_CURVE('',#711,#712,#38,.T.);
#567=EDGE_CURVE('',#711,#713,#806,.T.);
#568=EDGE_CURVE('',#713,#714,#30,.T.);
#569=EDGE_CURVE('',#714,#715,#31,.T.);
#570=EDGE_CURVE('',#716,#715,#32,.T.);
#571=EDGE_CURVE('',#717,#716,#33,.T.);
#572=EDGE_CURVE('',#718,#717,#807,.T.);
#573=EDGE_CURVE('',#718,#712,#39,.T.);
#574=EDGE_CURVE('',#719,#720,#50,.T.);
#575=EDGE_CURVE('',#721,#720,#51,.T.);
#576=EDGE_CURVE('',#722,#721,#52,.T.);
#577=EDGE_CURVE('',#722,#719,#53,.T.);
#578=EDGE_CURVE('',#723,#724,#808,.T.);
#579=EDGE_CURVE('',#723,#725,#40,.T.);
#580=EDGE_CURVE('',#726,#725,#41,.T.);
#581=EDGE_CURVE('',#726,#727,#809,.T.);
#582=EDGE_CURVE('',#727,#728,#34,.T.);
#583=EDGE_CURVE('',#728,#729,#35,.T.);
#584=EDGE_CURVE('',#730,#729,#36,.T.);
#585=EDGE_CURVE('',#724,#730,#37,.T.);
#586=EDGE_CURVE('',#731,#732,#54,.T.);
#587=EDGE_CURVE('',#733,#731,#55,.T.);
#588=EDGE_CURVE('',#733,#734,#56,.T.);
#589=EDGE_CURVE('',#734,#732,#57,.T.);
#590=EDGE_CURVE('',#735,#736,#58,.T.);
#591=EDGE_CURVE('',#736,#737,#59,.T.);
#592=EDGE_CURVE('',#737,#738,#60,.T.);
#593=EDGE_CURVE('',#738,#739,#61,.T.);
#594=EDGE_CURVE('',#739,#740,#62,.T.);
#595=EDGE_CURVE('',#740,#741,#63,.T.);
#596=EDGE_CURVE('',#741,#742,#64,.T.);
#597=EDGE_CURVE('',#742,#743,#65,.T.);
#598=EDGE_CURVE('',#743,#744,#66,.T.);
#599=EDGE_CURVE('',#744,#745,#67,.T.);
#600=EDGE_CURVE('',#745,#746,#68,.T.);
#601=EDGE_CURVE('',#746,#747,#69,.T.);
#602=EDGE_CURVE('',#747,#735,#70,.T.);
#603=EDGE_CURVE('',#748,#749,#71,.T.);
#604=EDGE_CURVE('',#749,#750,#72,.T.);
#605=EDGE_CURVE('',#750,#751,#73,.T.);
#606=EDGE_CURVE('',#751,#752,#74,.T.);
#607=EDGE_CURVE('',#752,#753,#75,.T.);
#608=EDGE_CURVE('',#753,#754,#76,.T.);
#609=EDGE_CURVE('',#754,#755,#77,.T.);
#610=EDGE_CURVE('',#755,#756,#78,.T.);
#611=EDGE_CURVE('',#756,#757,#79,.T.);
#612=EDGE_CURVE('',#757,#758,#80,.T.);
#613=EDGE_CURVE('',#758,#759,#81,.T.);
#614=EDGE_CURVE('',#759,#760,#82,.T.);
#615=EDGE_CURVE('',#760,#748,#83,.T.);
#616=EDGE_CURVE('',#761,#761,#810,.F.);
#617=EDGE_CURVE('',#762,#762,#811,.T.);
#618=EDGE_CURVE('',#724,#713,#84,.T.);
#619=EDGE_CURVE('',#723,#711,#85,.T.);
#620=EDGE_CURVE('',#726,#718,#86,.T.);
#621=EDGE_CURVE('',#727,#717,#87,.T.);
#622=EDGE_CURVE('',#728,#716,#88,.T.);
#623=EDGE_CURVE('',#729,#715,#89,.T.);
#624=EDGE_CURVE('',#730,#714,#90,.T.);
#625=EDGE_CURVE('',#725,#712,#91,.T.);
#626=EDGE_CURVE('',#719,#709,#92,.T.);
#627=EDGE_CURVE('',#720,#708,#93,.T.);
#628=EDGE_CURVE('',#721,#707,#94,.T.);
#629=EDGE_CURVE('',#722,#710,#95,.T.);
#630=EDGE_CURVE('',#731,#704,#96,.T.);
#631=EDGE_CURVE('',#733,#703,#97,.T.);
#632=EDGE_CURVE('',#732,#705,#98,.T.);
#633=EDGE_CURVE('',#734,#706,#99,.T.);
#634=EDGE_CURVE('',#763,#763,#812,.T.);
#635=EDGE_CURVE('',#764,#764,#813,.T.);
#636=EDGE_CURVE('',#765,#765,#814,.T.);
#637=EDGE_CURVE('',#766,#766,#815,.T.);
#638=EDGE_CURVE('',#767,#767,#816,.T.);
#639=EDGE_CURVE('',#768,#768,#817,.T.);
#640=EDGE_CURVE('',#769,#769,#818,.T.);
#641=EDGE_CURVE('',#770,#770,#819,.F.);
#642=EDGE_CURVE('',#771,#736,#100,.T.);
#643=EDGE_CURVE('',#771,#772,#101,.T.);
#644=EDGE_CURVE('',#772,#737,#102,.T.);
#645=EDGE_CURVE('',#773,#735,#103,.T.);
#646=EDGE_CURVE('',#773,#771,#104,.T.);
#647=EDGE_CURVE('',#774,#747,#105,.T.);
#648=EDGE_CURVE('',#774,#773,#106,.T.);
#649=EDGE_CURVE('',#775,#746,#107,.T.);
#650=EDGE_CURVE('',#775,#774,#108,.T.);
#651=EDGE_CURVE('',#776,#745,#109,.T.);
#652=EDGE_CURVE('',#776,#775,#110,.T.);
#653=EDGE_CURVE('',#777,#744,#111,.T.);
#654=EDGE_CURVE('',#777,#776,#112,.T.);
#655=EDGE_CURVE('',#778,#743,#113,.T.);
#656=EDGE_CURVE('',#778,#777,#114,.T.);
#657=EDGE_CURVE('',#779,#742,#115,.T.);
#658=EDGE_CURVE('',#779,#778,#116,.T.);
#659=EDGE_CURVE('',#780,#741,#117,.T.);
#660=EDGE_CURVE('',#780,#779,#118,.T.);
#661=EDGE_CURVE('',#781,#740,#119,.T.);
#662=EDGE_CURVE('',#781,#780,#120,.T.);
#663=EDGE_CURVE('',#782,#739,#121,.T.);
#664=EDGE_CURVE('',#782,#781,#122,.T.);
#665=EDGE_CURVE('',#783,#738,#123,.T.);
#666=EDGE_CURVE('',#783,#782,#124,.T.);
#667=EDGE_CURVE('',#772,#783,#125,.T.);
#668=EDGE_CURVE('',#784,#749,#126,.T.);
#669=EDGE_CURVE('',#784,#785,#127,.T.);
#670=EDGE_CURVE('',#785,#750,#128,.T.);
#671=EDGE_CURVE('',#786,#748,#129,.T.);
#672=EDGE_CURVE('',#786,#784,#130,.T.);
#673=EDGE_CURVE('',#787,#760,#131,.T.);
#674=EDGE_CURVE('',#787,#786,#132,.T.);
#675=EDGE_CURVE('',#788,#759,#133,.T.);
#676=EDGE_CURVE('',#788,#787,#134,.T.);
#677=EDGE_CURVE('',#789,#758,#135,.T.);
#678=EDGE_CURVE('',#789,#788,#136,.T.);
#679=EDGE_CURVE('',#790,#757,#137,.T.);
#680=EDGE_CURVE('',#790,#789,#138,.T.);
#681=EDGE_CURVE('',#791,#756,#139,.T.);
#682=EDGE_CURVE('',#791,#790,#140,.T.);
#683=EDGE_CURVE('',#792,#755,#141,.T.);
#684=EDGE_CURVE('',#792,#791,#142,.T.);
#685=EDGE_CURVE('',#793,#754,#143,.T.);
#686=EDGE_CURVE('',#793,#792,#144,.T.);
#687=EDGE_CURVE('',#794,#753,#145,.T.);
#688=EDGE_CURVE('',#794,#793,#146,.T.);
#689=EDGE_CURVE('',#795,#752,#147,.T.);
#690=EDGE_CURVE('',#795,#794,#148,.T.);
#691=EDGE_CURVE('',#796,#751,#149,.T.);
#692=EDGE_CURVE('',#796,#795,#150,.T.);
#693=EDGE_CURVE('',#785,#796,#151,.T.);
#694=EDGE_CURVE('',#797,#797,#820,.T.);
#695=EDGE_CURVE('',#798,#798,#821,.T.);
#696=EDGE_CURVE('',#799,#799,#822,.T.);
#697=VERTEX_POINT('',#1501);
#698=VERTEX_POINT('',#1503);
#699=VERTEX_POINT('',#1505);
#700=VERTEX_POINT('',#1507);
#701=VERTEX_POINT('',#1509);
#702=VERTEX_POINT('',#1511);
#703=VERTEX_POINT('',#1513);
#704=VERTEX_POINT('',#1514);
#705=VERTEX_POINT('',#1516);
#706=VERTEX_POINT('',#1518);
#707=VERTEX_POINT('',#1521);
#708=VERTEX_POINT('',#1522);
#709=VERTEX_POINT('',#1524);
#710=VERTEX_POINT('',#1526);
#711=VERTEX_POINT('',#1529);
#712=VERTEX_POINT('',#1530);
#713=VERTEX_POINT('',#1532);
#714=VERTEX_POINT('',#1537);
#715=VERTEX_POINT('',#1542);
#716=VERTEX_POINT('',#1547);
#717=VERTEX_POINT('',#1552);
#718=VERTEX_POINT('',#1554);
#719=VERTEX_POINT('',#1558);
#720=VERTEX_POINT('',#1559);
#721=VERTEX_POINT('',#1561);
#722=VERTEX_POINT('',#1563);
#723=VERTEX_POINT('',#1566);
#724=VERTEX_POINT('',#1567);
#725=VERTEX_POINT('',#1569);
#726=VERTEX_POINT('',#1571);
#727=VERTEX_POINT('',#1573);
#728=VERTEX_POINT('',#1578);
#729=VERTEX_POINT('',#1583);
#730=VERTEX_POINT('',#1588);
#731=VERTEX_POINT('',#1594);
#732=VERTEX_POINT('',#1595);
#733=VERTEX_POINT('',#1597);
#734=VERTEX_POINT('',#1599);
#735=VERTEX_POINT('',#1602);
#736=VERTEX_POINT('',#1603);
#737=VERTEX_POINT('',#1605);
#738=VERTEX_POINT('',#1607);
#739=VERTEX_POINT('',#1609);
#740=VERTEX_POINT('',#1611);
#741=VERTEX_POINT('',#1613);
#742=VERTEX_POINT('',#1615);
#743=VERTEX_POINT('',#1617);
#744=VERTEX_POINT('',#1619);
#745=VERTEX_POINT('',#1621);
#746=VERTEX_POINT('',#1623);
#747=VERTEX_POINT('',#1625);
#748=VERTEX_POINT('',#1628);
#749=VERTEX_POINT('',#1629);
#750=VERTEX_POINT('',#1631);
#751=VERTEX_POINT('',#1633);
#752=VERTEX_POINT('',#1635);
#753=VERTEX_POINT('',#1637);
#754=VERTEX_POINT('',#1639);
#755=VERTEX_POINT('',#1641);
#756=VERTEX_POINT('',#1643);
#757=VERTEX_POINT('',#1645);
#758=VERTEX_POINT('',#1647);
#759=VERTEX_POINT('',#1649);
#760=VERTEX_POINT('',#1651);
#761=VERTEX_POINT('',#1655);
#762=VERTEX_POINT('',#1657);
#763=VERTEX_POINT('',#1762);
#764=VERTEX_POINT('',#1765);
#765=VERTEX_POINT('',#1768);
#766=VERTEX_POINT('',#1770);
#767=VERTEX_POINT('',#1776);
#768=VERTEX_POINT('',#1780);
#769=VERTEX_POINT('',#1783);
#770=VERTEX_POINT('',#1785);
#771=VERTEX_POINT('',#1789);
#772=VERTEX_POINT('',#1791);
#773=VERTEX_POINT('',#1795);
#774=VERTEX_POINT('',#1799);
#775=VERTEX_POINT('',#1803);
#776=VERTEX_POINT('',#1807);
#777=VERTEX_POINT('',#1811);
#778=VERTEX_POINT('',#1815);
#779=VERTEX_POINT('',#1819);
#780=VERTEX_POINT('',#1823);
#781=VERTEX_POINT('',#1827);
#782=VERTEX_POINT('',#1831);
#783=VERTEX_POINT('',#1835);
#784=VERTEX_POINT('',#1842);
#785=VERTEX_POINT('',#1844);
#786=VERTEX_POINT('',#1848);
#787=VERTEX_POINT('',#1852);
#788=VERTEX_POINT('',#1856);
#789=VERTEX_POINT('',#1860);
#790=VERTEX_POINT('',#1864);
#791=VERTEX_POINT('',#1868);
#792=VERTEX_POINT('',#1872);
#793=VERTEX_POINT('',#1876);
#794=VERTEX_POINT('',#1880);
#795=VERTEX_POINT('',#1884);
#796=VERTEX_POINT('',#1888);
#797=VERTEX_POINT('',#1895);
#798=VERTEX_POINT('',#1898);
#799=VERTEX_POINT('',#1901);
#800=CIRCLE('',#1129,0.0033);
#801=CIRCLE('',#1130,0.0033);
#802=CIRCLE('',#1131,0.0033);
#803=CIRCLE('',#1132,0.002425);
#804=CIRCLE('',#1133,7.5E-5);
#805=CIRCLE('',#1134,0.002475);
#806=CIRCLE('',#1136,0.0214038095238096);
#807=CIRCLE('',#1137,0.0214038095238096);
#808=CIRCLE('',#1140,0.0214038095238096);
#809=CIRCLE('',#1143,0.0214038095238096);
#810=CIRCLE('',#1145,0.001575);
#811=CIRCLE('',#1146,0.001575);
#812=CIRCLE('',#1158,0.002475);
#813=CIRCLE('',#1160,0.002175);
#814=CIRCLE('',#1162,0.002175);
#815=CIRCLE('',#1163,0.002175);
#816=CIRCLE('',#1168,7.5E-5);
#817=CIRCLE('',#1171,0.002425);
#818=CIRCLE('',#1173,0.001525);
#819=CIRCLE('',#1174,0.001525);
#820=CIRCLE('',#1205,0.00235);
#821=CIRCLE('',#1207,0.00235);
#822=CIRCLE('',#1209,0.00235);
#823=EDGE_LOOP('',(#262));
#824=EDGE_LOOP('',(#263));
#825=EDGE_LOOP('',(#264));
#826=EDGE_LOOP('',(#265));
#827=EDGE_LOOP('',(#266));
#828=EDGE_LOOP('',(#267));
#829=EDGE_LOOP('',(#268,#269,#270,#271));
#830=EDGE_LOOP('',(#272,#273,#274,#275));
#831=EDGE_LOOP('',(#276,#277,#278,#279,#280,#281,#282,#283));
#832=EDGE_LOOP('',(#284,#285,#286,#287));
#833=EDGE_LOOP('',(#288,#289,#290,#291,#292,#293,#294,#295));
#834=EDGE_LOOP('',(#296,#297,#298,#299));
#835=EDGE_LOOP('',(#300,#301,#302,#303,#304,#305,#306,#307,#308,#309,#310,
#311,#312));
#836=EDGE_LOOP('',(#313,#314,#315,#316,#317,#318,#319,#320,#321,#322,#323,
#324,#325));
#837=EDGE_LOOP('',(#326));
#838=EDGE_LOOP('',(#327));
#839=EDGE_LOOP('',(#328,#329,#330,#331));
#840=EDGE_LOOP('',(#332,#333,#334,#335));
#841=EDGE_LOOP('',(#336,#337,#338,#339));
#842=EDGE_LOOP('',(#340,#341,#342,#343));
#843=EDGE_LOOP('',(#344,#345,#346,#347));
#844=EDGE_LOOP('',(#348,#349,#350,#351));
#845=EDGE_LOOP('',(#352,#353,#354,#355));
#846=EDGE_LOOP('',(#356,#357,#358,#359));
#847=EDGE_LOOP('',(#360,#361,#362,#363));
#848=EDGE_LOOP('',(#364,#365,#366,#367));
#849=EDGE_LOOP('',(#368,#369,#370,#371));
#850=EDGE_LOOP('',(#372,#373,#374,#375));
#851=EDGE_LOOP('',(#376,#377,#378,#379));
#852=EDGE_LOOP('',(#380,#381,#382,#383));
#853=EDGE_LOOP('',(#384,#385,#386,#387));
#854=EDGE_LOOP('',(#388,#389,#390,#391));
#855=EDGE_LOOP('',(#392));
#856=EDGE_LOOP('',(#393));
#857=EDGE_LOOP('',(#394));
#858=EDGE_LOOP('',(#395));
#859=EDGE_LOOP('',(#396));
#860=EDGE_LOOP('',(#397));
#861=EDGE_LOOP('',(#398));
#862=EDGE_LOOP('',(#399));
#863=EDGE_LOOP('',(#400));
#864=EDGE_LOOP('',(#401));
#865=EDGE_LOOP('',(#402));
#866=EDGE_LOOP('',(#403));
#867=EDGE_LOOP('',(#404));
#868=EDGE_LOOP('',(#405));
#869=EDGE_LOOP('',(#406));
#870=EDGE_LOOP('',(#407));
#871=EDGE_LOOP('',(#408));
#872=EDGE_LOOP('',(#409));
#873=EDGE_LOOP('',(#410));
#874=EDGE_LOOP('',(#411));
#875=EDGE_LOOP('',(#412,#413,#414,#415));
#876=EDGE_LOOP('',(#416,#417,#418,#419));
#877=EDGE_LOOP('',(#420,#421,#422,#423));
#878=EDGE_LOOP('',(#424,#425,#426,#427));
#879=EDGE_LOOP('',(#428,#429,#430,#431));
#880=EDGE_LOOP('',(#432,#433,#434,#435));
#881=EDGE_LOOP('',(#436,#437,#438,#439));
#882=EDGE_LOOP('',(#440,#441,#442,#443));
#883=EDGE_LOOP('',(#444,#445,#446,#447));
#884=EDGE_LOOP('',(#448,#449,#450,#451));
#885=EDGE_LOOP('',(#452,#453,#454,#455));
#886=EDGE_LOOP('',(#456,#457,#458,#459));
#887=EDGE_LOOP('',(#460,#461,#462,#463));
#888=EDGE_LOOP('',(#464,#465,#466,#467,#468,#469,#470,#471,#472,#473,#474,
#475,#476));
#889=EDGE_LOOP('',(#477,#478,#479,#480));
#890=EDGE_LOOP('',(#481,#482,#483,#484));
#891=EDGE_LOOP('',(#485,#486,#487,#488));
#892=EDGE_LOOP('',(#489,#490,#491,#492));
#893=EDGE_LOOP('',(#493,#494,#495,#496));
#894=EDGE_LOOP('',(#497,#498,#499,#500));
#895=EDGE_LOOP('',(#501,#502,#503,#504));
#896=EDGE_LOOP('',(#505,#506,#507,#508));
#897=EDGE_LOOP('',(#509,#510,#511,#512));
#898=EDGE_LOOP('',(#513,#514,#515,#516));
#899=EDGE_LOOP('',(#517,#518,#519,#520));
#900=EDGE_LOOP('',(#521,#522,#523,#524));
#901=EDGE_LOOP('',(#525,#526,#527,#528));
#902=EDGE_LOOP('',(#529,#530,#531,#532,#533,#534,#535,#536,#537,#538,#539,
#540,#541));
#903=EDGE_LOOP('',(#542));
#904=EDGE_LOOP('',(#543));
#905=EDGE_LOOP('',(#544));
#906=EDGE_LOOP('',(#545));
#907=EDGE_LOOP('',(#546));
#908=EDGE_LOOP('',(#547));
#909=EDGE_LOOP('',(#548));
#910=EDGE_LOOP('',(#549));
#911=EDGE_LOOP('',(#550));
#912=EDGE_LOOP('',(#551));
#913=FACE_BOUND('',#823,.T.);
#914=FACE_BOUND('',#824,.T.);
#915=FACE_BOUND('',#825,.T.);
#916=FACE_BOUND('',#826,.T.);
#917=FACE_BOUND('',#827,.T.);
#918=FACE_BOUND('',#828,.T.);
#919=FACE_BOUND('',#829,.T.);
#920=FACE_BOUND('',#830,.T.);
#921=FACE_BOUND('',#831,.T.);
#922=FACE_BOUND('',#832,.T.);
#923=FACE_BOUND('',#833,.T.);
#924=FACE_BOUND('',#834,.T.);
#925=FACE_BOUND('',#835,.T.);
#926=FACE_BOUND('',#836,.T.);
#927=FACE_BOUND('',#837,.T.);
#928=FACE_BOUND('',#838,.T.);
#929=FACE_BOUND('',#839,.T.);
#930=FACE_BOUND('',#840,.T.);
#931=FACE_BOUND('',#841,.T.);
#932=FACE_BOUND('',#842,.T.);
#933=FACE_BOUND('',#843,.T.);
#934=FACE_BOUND('',#844,.T.);
#935=FACE_BOUND('',#845,.T.);
#936=FACE_BOUND('',#846,.T.);
#937=FACE_BOUND('',#847,.T.);
#938=FACE_BOUND('',#848,.T.);
#939=FACE_BOUND('',#849,.T.);
#940=FACE_BOUND('',#850,.T.);
#941=FACE_BOUND('',#851,.T.);
#942=FACE_BOUND('',#852,.T.);
#943=FACE_BOUND('',#853,.T.);
#944=FACE_BOUND('',#854,.T.);
#945=FACE_BOUND('',#855,.T.);
#946=FACE_BOUND('',#856,.T.);
#947=FACE_BOUND('',#857,.T.);
#948=FACE_BOUND('',#858,.T.);
#949=FACE_BOUND('',#859,.T.);
#950=FACE_BOUND('',#860,.T.);
#951=FACE_BOUND('',#861,.T.);
#952=FACE_BOUND('',#862,.T.);
#953=FACE_BOUND('',#863,.T.);
#954=FACE_BOUND('',#864,.T.);
#955=FACE_BOUND('',#865,.T.);
#956=FACE_BOUND('',#866,.T.);
#957=FACE_BOUND('',#867,.T.);
#958=FACE_BOUND('',#868,.T.);
#959=FACE_BOUND('',#869,.T.);
#960=FACE_BOUND('',#870,.T.);
#961=FACE_BOUND('',#871,.T.);
#962=FACE_BOUND('',#872,.T.);
#963=FACE_BOUND('',#873,.T.);
#964=FACE_BOUND('',#874,.T.);
#965=FACE_BOUND('',#875,.T.);
#966=FACE_BOUND('',#876,.T.);
#967=FACE_BOUND('',#877,.T.);
#968=FACE_BOUND('',#878,.T.);
#969=FACE_BOUND('',#879,.T.);
#970=FACE_BOUND('',#880,.T.);
#971=FACE_BOUND('',#881,.T.);
#972=FACE_BOUND('',#882,.T.);
#973=FACE_BOUND('',#883,.T.);
#974=FACE_BOUND('',#884,.T.);
#975=FACE_BOUND('',#885,.T.);
#976=FACE_BOUND('',#886,.T.);
#977=FACE_BOUND('',#887,.T.);
#978=FACE_BOUND('',#888,.T.);
#979=FACE_BOUND('',#889,.T.);
#980=FACE_BOUND('',#890,.T.);
#981=FACE_BOUND('',#891,.T.);
#982=FACE_BOUND('',#892,.T.);
#983=FACE_BOUND('',#893,.T.);
#984=FACE_BOUND('',#894,.T.);
#985=FACE_BOUND('',#895,.T.);
#986=FACE_BOUND('',#896,.T.);
#987=FACE_BOUND('',#897,.T.);
#988=FACE_BOUND('',#898,.T.);
#989=FACE_BOUND('',#899,.T.);
#990=FACE_BOUND('',#900,.T.);
#991=FACE_BOUND('',#901,.T.);
#992=FACE_BOUND('',#902,.T.);
#993=FACE_BOUND('',#903,.T.);
#994=FACE_BOUND('',#904,.T.);
#995=FACE_BOUND('',#905,.T.);
#996=FACE_BOUND('',#906,.T.);
#997=FACE_BOUND('',#907,.T.);
#998=FACE_BOUND('',#908,.T.);
#999=FACE_BOUND('',#909,.T.);
#1000=FACE_BOUND('',#910,.T.);
#1001=FACE_BOUND('',#911,.T.);
#1002=FACE_BOUND('',#912,.T.);
#1003=PLANE('',#1128);
#1004=PLANE('',#1139);
#1005=PLANE('',#1149);
#1006=PLANE('',#1150);
#1007=PLANE('',#1151);
#1008=PLANE('',#1152);
#1009=PLANE('',#1153);
#1010=PLANE('',#1154);
#1011=PLANE('',#1155);
#1012=PLANE('',#1156);
#1013=PLANE('',#1159);
#1014=PLANE('',#1164);
#1015=PLANE('',#1165);
#1016=PLANE('',#1169);
#1017=PLANE('',#1175);
#1018=PLANE('',#1176);
#1019=PLANE('',#1177);
#1020=PLANE('',#1178);
#1021=PLANE('',#1179);
#1022=PLANE('',#1180);
#1023=PLANE('',#1181);
#1024=PLANE('',#1182);
#1025=PLANE('',#1183);
#1026=PLANE('',#1184);
#1027=PLANE('',#1185);
#1028=PLANE('',#1186);
#1029=PLANE('',#1187);
#1030=PLANE('',#1188);
#1031=PLANE('',#1189);
#1032=PLANE('',#1190);
#1033=PLANE('',#1191);
#1034=PLANE('',#1192);
#1035=PLANE('',#1193);
#1036=PLANE('',#1194);
#1037=PLANE('',#1195);
#1038=PLANE('',#1196);
#1039=PLANE('',#1197);
#1040=PLANE('',#1198);
#1041=PLANE('',#1199);
#1042=PLANE('',#1200);
#1043=PLANE('',#1201);
#1044=PLANE('',#1202);
#1045=PLANE('',#1203);
#1046=PLANE('',#1204);
#1047=PLANE('',#1206);
#1048=PLANE('',#1208);
#1049=PLANE('',#1213);
#1050=ADVANCED_FACE('',(#913,#914,#915,#916,#917,#918,#919,#920,#921),#1003,
 .F.);
#1051=ADVANCED_FACE('',(#922,#923,#924,#925,#926),#1004,.T.);
#1052=ADVANCED_FACE('',(#927,#928),#22,.F.);
#1053=ADVANCED_FACE('',(#929),#23,.T.);
#1054=ADVANCED_FACE('',(#930),#24,.T.);
#1055=ADVANCED_FACE('',(#931),#16,.F.);
#1056=ADVANCED_FACE('',(#932),#17,.F.);
#1057=ADVANCED_FACE('',(#933),#18,.T.);
#1058=ADVANCED_FACE('',(#934),#19,.T.);
#1059=ADVANCED_FACE('',(#935),#20,.T.);
#1060=ADVANCED_FACE('',(#936),#21,.F.);
#1061=ADVANCED_FACE('',(#937),#1005,.F.);
#1062=ADVANCED_FACE('',(#938),#1006,.T.);
#1063=ADVANCED_FACE('',(#939),#1007,.F.);
#1064=ADVANCED_FACE('',(#940),#1008,.T.);
#1065=ADVANCED_FACE('',(#941),#1009,.T.);
#1066=ADVANCED_FACE('',(#942),#1010,.T.);
#1067=ADVANCED_FACE('',(#943),#1011,.F.);
#1068=ADVANCED_FACE('',(#944),#1012,.F.);
#1069=ADVANCED_FACE('',(#945,#946),#25,.T.);
#1070=ADVANCED_FACE('',(#947,#948),#1013,.F.);
#1071=ADVANCED_FACE('',(#949,#950),#26,.F.);
#1072=ADVANCED_FACE('',(#951),#1014,.F.);
#1073=ADVANCED_FACE('',(#952,#953),#1015,.T.);
#1074=ADVANCED_FACE('',(#954,#955),#12,.F.);
#1075=ADVANCED_FACE('',(#956,#957),#27,.T.);
#1076=ADVANCED_FACE('',(#958),#1016,.T.);
#1077=ADVANCED_FACE('',(#959,#960),#28,.T.);
#1078=ADVANCED_FACE('',(#961,#962),#29,.F.);
#1079=ADVANCED_FACE('',(#963,#964),#1017,.F.);
#1080=ADVANCED_FACE('',(#965),#1018,.T.);
#1081=ADVANCED_FACE('',(#966),#1019,.T.);
#1082=ADVANCED_FACE('',(#967),#1020,.T.);
#1083=ADVANCED_FACE('',(#968),#1021,.T.);
#1084=ADVANCED_FACE('',(#969),#1022,.T.);
#1085=ADVANCED_FACE('',(#970),#1023,.T.);
#1086=ADVANCED_FACE('',(#971),#1024,.T.);
#1087=ADVANCED_FACE('',(#972),#1025,.T.);
#1088=ADVANCED_FACE('',(#973),#1026,.T.);
#1089=ADVANCED_FACE('',(#974),#1027,.T.);
#1090=ADVANCED_FACE('',(#975),#1028,.T.);
#1091=ADVANCED_FACE('',(#976),#1029,.T.);
#1092=ADVANCED_FACE('',(#977),#1030,.T.);
#1093=ADVANCED_FACE('',(#978),#1031,.T.);
#1094=ADVANCED_FACE('',(#979),#1032,.T.);
#1095=ADVANCED_FACE('',(#980),#1033,.T.);
#1096=ADVANCED_FACE('',(#981),#1034,.T.);
#1097=ADVANCED_FACE('',(#982),#1035,.T.);
#1098=ADVANCED_FACE('',(#983),#1036,.T.);
#1099=ADVANCED_FACE('',(#984),#1037,.T.);
#1100=ADVANCED_FACE('',(#985),#1038,.T.);
#1101=ADVANCED_FACE('',(#986),#1039,.T.);
#1102=ADVANCED_FACE('',(#987),#1040,.T.);
#1103=ADVANCED_FACE('',(#988),#1041,.T.);
#1104=ADVANCED_FACE('',(#989),#1042,.T.);
#1105=ADVANCED_FACE('',(#990),#1043,.T.);
#1106=ADVANCED_FACE('',(#991),#1044,.T.);
#1107=ADVANCED_FACE('',(#992),#1045,.T.);
#1108=ADVANCED_FACE('',(#993),#1046,.F.);
#1109=ADVANCED_FACE('',(#994),#1047,.F.);
#1110=ADVANCED_FACE('',(#995),#1048,.F.);
#1111=ADVANCED_FACE('',(#996,#997),#13,.F.);
#1112=ADVANCED_FACE('',(#998,#999),#14,.F.);
#1113=ADVANCED_FACE('',(#1000,#1001),#15,.F.);
#1114=ADVANCED_FACE('',(#1002),#1049,.F.);
#1115=CLOSED_SHELL('',(#1050,#1051,#1052,#1053,#1054,#1055,#1056,#1057,
#1058,#1059,#1060,#1061,#1062,#1063,#1064,#1065,#1066,#1067,#1068,#1069,
#1070,#1071,#1072,#1073,#1074,#1075,#1076,#1077,#1078,#1079,#1080,#1081,
#1082,#1083,#1084,#1085,#1086,#1087,#1088,#1089,#1090,#1091,#1092,#1093,
#1094,#1095,#1096,#1097,#1098,#1099,#1100,#1101,#1102,#1103,#1104,#1105,
#1106,#1107,#1108,#1109,#1110,#1111,#1112,#1113,#1114));
#1116=STYLED_ITEM('',(#1117),#1124);
#1117=PRESENTATION_STYLE_ASSIGNMENT((#1118));
#1118=SURFACE_STYLE_USAGE(.BOTH.,#1119);
#1119=SURFACE_SIDE_STYLE('',(#1120));
#1120=SURFACE_STYLE_FILL_AREA(#1121);
#1121=FILL_AREA_STYLE('',(#1122));
#1122=FILL_AREA_STYLE_COLOUR('',#1123);
#1123=COLOUR_RGB('',0.647058823529412,0.647058823529412,0.647058823529412);
#1124=MANIFOLD_SOLID_BREP('Top',#1115);
#1125=SHAPE_DEFINITION_REPRESENTATION(#1912,#1126);
#1126=SHAPE_REPRESENTATION('Top',(#1127),#1907);
#1127=AXIS2_PLACEMENT_3D('',#1498,#1214,#1215);
#1128=AXIS2_PLACEMENT_3D('',#1499,#1216,#1217);
#1129=AXIS2_PLACEMENT_3D('',#1500,#1218,#1219);
#1130=AXIS2_PLACEMENT_3D('',#1502,#1220,#1221);
#1131=AXIS2_PLACEMENT_3D('',#1504,#1222,#1223);
#1132=AXIS2_PLACEMENT_3D('',#1506,#1224,#1225);
#1133=AXIS2_PLACEMENT_3D('',#1508,#1226,#1227);
#1134=AXIS2_PLACEMENT_3D('',#1510,#1228,#1229);
#1135=AXIS2_PLACEMENT_3D('',#1528,#1238,#1239);
#1136=AXIS2_PLACEMENT_3D('',#1531,#1240,#1241);
#1137=AXIS2_PLACEMENT_3D('',#1553,#1242,#1243);
#1138=AXIS2_PLACEMENT_3D('',#1555,#1244,#1245);
#1139=AXIS2_PLACEMENT_3D('',#1556,#1246,#1247);
#1140=AXIS2_PLACEMENT_3D('',#1565,#1252,#1253);
#1141=AXIS2_PLACEMENT_3D('',#1568,#1254,#1255);
#1142=AXIS2_PLACEMENT_3D('',#1570,#1256,#1257);
#1143=AXIS2_PLACEMENT_3D('',#1572,#1258,#1259);
#1144=AXIS2_PLACEMENT_3D('',#1653,#1290,#1291);
#1145=AXIS2_PLACEMENT_3D('',#1654,#1292,#1293);
#1146=AXIS2_PLACEMENT_3D('',#1656,#1294,#1295);
#1147=AXIS2_PLACEMENT_3D('',#1658,#1296,#1297);
#1148=AXIS2_PLACEMENT_3D('',#1661,#1300,#1301);
#1149=AXIS2_PLACEMENT_3D('',#1744,#1308,#1309);
#1150=AXIS2_PLACEMENT_3D('',#1747,#1312,#1313);
#1151=AXIS2_PLACEMENT_3D('',#1749,#1315,#1316);
#1152=AXIS2_PLACEMENT_3D('',#1751,#1318,#1319);
#1153=AXIS2_PLACEMENT_3D('',#1752,#1320,#1321);
#1154=AXIS2_PLACEMENT_3D('',#1755,#1324,#1325);
#1155=AXIS2_PLACEMENT_3D('',#1757,#1327,#1328);
#1156=AXIS2_PLACEMENT_3D('',#1759,#1330,#1331);
#1157=AXIS2_PLACEMENT_3D('',#1760,#1332,#1333);
#1158=AXIS2_PLACEMENT_3D('',#1761,#1334,#1335);
#1159=AXIS2_PLACEMENT_3D('',#1763,#1336,#1337);
#1160=AXIS2_PLACEMENT_3D('',#1764,#1338,#1339);
#1161=AXIS2_PLACEMENT_3D('',#1766,#1340,#1341);
#1162=AXIS2_PLACEMENT_3D('',#1767,#1342,#1343);
#1163=AXIS2_PLACEMENT_3D('',#1769,#1344,#1345);
#1164=AXIS2_PLACEMENT_3D('',#1771,#1346,#1347);
#1165=AXIS2_PLACEMENT_3D('',#1772,#1348,#1349);
#1166=AXIS2_PLACEMENT_3D('',#1773,#1350,#1351);
#1167=AXIS2_PLACEMENT_3D('',#1774,#1352,#1353);
#1168=AXIS2_PLACEMENT_3D('',#1775,#1354,#1355);
#1169=AXIS2_PLACEMENT_3D('',#1777,#1356,#1357);
#1170=AXIS2_PLACEMENT_3D('',#1778,#1358,#1359);
#1171=AXIS2_PLACEMENT_3D('',#1779,#1360,#1361);
#1172=AXIS2_PLACEMENT_3D('',#1781,#1362,#1363);
#1173=AXIS2_PLACEMENT_3D('',#1782,#1364,#1365);
#1174=AXIS2_PLACEMENT_3D('',#1784,#1366,#1367);
#1175=AXIS2_PLACEMENT_3D('',#1786,#1368,#1369);
#1176=AXIS2_PLACEMENT_3D('',#1787,#1370,#1371);
#1177=AXIS2_PLACEMENT_3D('',#1793,#1375,#1376);
#1178=AXIS2_PLACEMENT_3D('',#1797,#1379,#1380);
#1179=AXIS2_PLACEMENT_3D('',#1801,#1383,#1384);
#1180=AXIS2_PLACEMENT_3D('',#1805,#1387,#1388);
#1181=AXIS2_PLACEMENT_3D('',#1809,#1391,#1392);
#1182=AXIS2_PLACEMENT_3D('',#1813,#1395,#1396);
#1183=AXIS2_PLACEMENT_3D('',#1817,#1399,#1400);
#1184=AXIS2_PLACEMENT_3D('',#1821,#1403,#1404);
#1185=AXIS2_PLACEMENT_3D('',#1825,#1407,#1408);
#1186=AXIS2_PLACEMENT_3D('',#1829,#1411,#1412);
#1187=AXIS2_PLACEMENT_3D('',#1833,#1415,#1416);
#1188=AXIS2_PLACEMENT_3D('',#1837,#1419,#1420);
#1189=AXIS2_PLACEMENT_3D('',#1839,#1422,#1423);
#1190=AXIS2_PLACEMENT_3D('',#1840,#1424,#1425);
#1191=AXIS2_PLACEMENT_3D('',#1846,#1429,#1430);
#1192=AXIS2_PLACEMENT_3D('',#1850,#1433,#1434);
#1193=AXIS2_PLACEMENT_3D('',#1854,#1437,#1438);
#1194=AXIS2_PLACEMENT_3D('',#1858,#1441,#1442);
#1195=AXIS2_PLACEMENT_3D('',#1862,#1445,#1446);
#1196=AXIS2_PLACEMENT_3D('',#1866,#1449,#1450);
#1197=AXIS2_PLACEMENT_3D('',#1870,#1453,#1454);
#1198=AXIS2_PLACEMENT_3D('',#1874,#1457,#1458);
#1199=AXIS2_PLACEMENT_3D('',#1878,#1461,#1462);
#1200=AXIS2_PLACEMENT_3D('',#1882,#1465,#1466);
#1201=AXIS2_PLACEMENT_3D('',#1886,#1469,#1470);
#1202=AXIS2_PLACEMENT_3D('',#1890,#1473,#1474);
#1203=AXIS2_PLACEMENT_3D('',#1892,#1476,#1477);
#1204=AXIS2_PLACEMENT_3D('',#1893,#1478,#1479);
#1205=AXIS2_PLACEMENT_3D('',#1894,#1480,#1481);
#1206=AXIS2_PLACEMENT_3D('',#1896,#1482,#1483);
#1207=AXIS2_PLACEMENT_3D('',#1897,#1484,#1485);
#1208=AXIS2_PLACEMENT_3D('',#1899,#1486,#1487);
#1209=AXIS2_PLACEMENT_3D('',#1900,#1488,#1489);
#1210=AXIS2_PLACEMENT_3D('',#1902,#1490,#1491);
#1211=AXIS2_PLACEMENT_3D('',#1903,#1492,#1493);
#1212=AXIS2_PLACEMENT_3D('',#1904,#1494,#1495);
#1213=AXIS2_PLACEMENT_3D('',#1905,#1496,#1497);
#1214=DIRECTION('',(0.,0.,1.));
#1215=DIRECTION('',(1.,0.,0.));
#1216=DIRECTION('',(0.,0.,1.));
#1217=DIRECTION('',(1.,0.,0.));
#1218=DIRECTION('',(0.,0.,1.));
#1219=DIRECTION('',(1.,0.,0.));
#1220=DIRECTION('',(0.,0.,1.));
#1221=DIRECTION('',(1.,0.,0.));
#1222=DIRECTION('',(0.,0.,1.));
#1223=DIRECTION('',(1.,0.,0.));
#1224=DIRECTION('',(0.,0.,1.));
#1225=DIRECTION('',(1.,0.,0.));
#1226=DIRECTION('',(0.,0.,1.));
#1227=DIRECTION('',(1.,0.,0.));
#1228=DIRECTION('',(0.,0.,1.));
#1229=DIRECTION('',(1.,0.,0.));
#1230=DIRECTION('',(1.54197642309049E-16,1.,0.));
#1231=DIRECTION('',(-1.,1.52839072773287E-16,0.));
#1232=DIRECTION('',(0.,1.,0.));
#1233=DIRECTION('',(-1.,1.14629304579965E-16,0.));
#1234=DIRECTION('',(1.,0.,0.));
#1235=DIRECTION('',(0.,-1.,0.));
#1236=DIRECTION('',(1.,0.,0.));
#1237=DIRECTION('',(0.,-1.,0.));
#1238=DIRECTION('',(0.,0.,1.));
#1239=DIRECTION('',(0.543908801234734,-0.839144335582023,0.));
#1240=DIRECTION('',(0.,0.,-1.));
#1241=DIRECTION('',(-1.,0.,0.));
#1242=DIRECTION('',(0.,0.,1.));
#1243=DIRECTION('',(1.,0.,0.));
#1244=DIRECTION('',(0.,0.,-1.));
#1245=DIRECTION('',(-0.543908801234736,-0.839144335582021,0.));
#1246=DIRECTION('',(0.,0.,1.));
#1247=DIRECTION('',(1.,0.,0.));
#1248=DIRECTION('',(0.,-1.,0.));
#1249=DIRECTION('',(1.,0.,0.));
#1250=DIRECTION('',(0.,-1.,0.));
#1251=DIRECTION('',(1.,0.,0.));
#1252=DIRECTION('',(0.,0.,-1.));
#1253=DIRECTION('',(-1.,0.,0.));
#1254=DIRECTION('',(-6.24383225532435E-17,-5.23116251975368E-17,1.));
#1255=DIRECTION('',(0.543908801234734,-0.839144335582023,0.));
#1256=DIRECTION('',(-6.24383225532434E-17,5.23116251975367E-17,-1.));
#1257=DIRECTION('',(-0.543908801234736,-0.839144335582021,0.));
#1258=DIRECTION('',(0.,0.,1.));
#1259=DIRECTION('',(1.,0.,0.));
#1260=DIRECTION('',(-1.,1.52839072773287E-16,0.));
#1261=DIRECTION('',(1.54197642309049E-16,1.,0.));
#1262=DIRECTION('',(-1.,1.14629304579965E-16,0.));
#1263=DIRECTION('',(0.,1.,0.));
#1264=DIRECTION('',(1.,0.,0.));
#1265=DIRECTION('',(-0.252202704958127,-0.967674426453342,0.));
#1266=DIRECTION('',(-1.,0.,0.));
#1267=DIRECTION('',(-0.23564705778483,0.971838702747196,0.));
#1268=DIRECTION('',(-0.243384503006165,-0.969929885969312,0.));
#1269=DIRECTION('',(-1.,0.,0.));
#1270=DIRECTION('',(-0.245732394464919,0.969337707050818,0.));
#1271=DIRECTION('',(1.,0.,0.));
#1272=DIRECTION('',(0.194039420647378,-0.98099373251557,0.));
#1273=DIRECTION('',(0.237571403924423,0.971370077795985,0.));
#1274=DIRECTION('',(1.,0.,0.));
#1275=DIRECTION('',(0.22857481988435,-0.973526348752224,0.));
#1276=DIRECTION('',(0.195770198447054,0.980649799571693,0.));
#1277=DIRECTION('',(1.,0.,0.));
#1278=DIRECTION('',(0.,-1.,0.));
#1279=DIRECTION('',(-1.,0.,0.));
#1280=DIRECTION('',(0.,1.,0.));
#1281=DIRECTION('',(-0.349216820939344,-0.937041947819316,0.));
#1282=DIRECTION('',(-1.,0.,0.));
#1283=DIRECTION('',(-0.350553394182181,0.936542747463965,0.));
#1284=DIRECTION('',(0.,-1.,0.));
#1285=DIRECTION('',(-1.,0.,0.));
#1286=DIRECTION('',(0.,1.,0.));
#1287=DIRECTION('',(1.,0.,0.));
#1288=DIRECTION('',(0.375393885419639,-0.926865379000396,0.));
#1289=DIRECTION('',(0.372316344685881,0.92810588807514,0.));
#1290=DIRECTION('',(0.,0.,-1.));
#1291=DIRECTION('',(-1.,0.,0.));
#1292=DIRECTION('',(0.,0.,1.));
#1293=DIRECTION('',(1.,0.,0.));
#1294=DIRECTION('',(0.,0.,1.));
#1295=DIRECTION('',(1.,0.,0.));
#1296=DIRECTION('',(0.,0.,-1.));
#1297=DIRECTION('',(1.,0.,0.));
#1298=DIRECTION('',(0.,0.,-1.));
#1299=DIRECTION('',(0.,0.,-1.));
#1300=DIRECTION('',(0.,0.,-1.));
#1301=DIRECTION('',(-1.,0.,0.));
#1302=DIRECTION('',(0.,0.,-1.));
#1303=DIRECTION('',(0.,0.,-1.));
#1304=DIRECTION('',(0.,0.,-1.));
#1305=DIRECTION('',(0.,0.,-1.));
#1306=DIRECTION('',(0.,0.,-1.));
#1307=DIRECTION('',(0.,0.,-1.));
#1308=DIRECTION('',(1.,0.,0.));
#1309=DIRECTION('',(0.,0.,-1.));
#1310=DIRECTION('',(0.,0.,-1.));
#1311=DIRECTION('',(0.,0.,-1.));
#1312=DIRECTION('',(0.,1.,0.));
#1313=DIRECTION('',(0.,0.,1.));
#1314=DIRECTION('',(0.,0.,-1.));
#1315=DIRECTION('',(0.,1.,0.));
#1316=DIRECTION('',(0.,0.,1.));
#1317=DIRECTION('',(0.,0.,-1.));
#1318=DIRECTION('',(1.,0.,0.));
#1319=DIRECTION('',(0.,0.,-1.));
#1320=DIRECTION('',(-1.,1.54197642309049E-16,0.));
#1321=DIRECTION('',(-1.54197642309049E-16,-1.,0.));
#1322=DIRECTION('',(0.,0.,-1.));
#1323=DIRECTION('',(0.,0.,-1.));
#1324=DIRECTION('',(-1.52839072773287E-16,-1.,0.));
#1325=DIRECTION('',(1.,-1.52839072773287E-16,0.));
#1326=DIRECTION('',(0.,0.,-1.));
#1327=DIRECTION('',(-1.14629304579965E-16,-1.,0.));
#1328=DIRECTION('',(1.,-1.14629304579965E-16,0.));
#1329=DIRECTION('',(0.,0.,-1.));
#1330=DIRECTION('',(-1.,0.,0.));
#1331=DIRECTION('',(0.,0.,1.));
#1332=DIRECTION('',(0.,0.,-1.));
#1333=DIRECTION('',(-1.,0.,0.));
#1334=DIRECTION('',(0.,0.,1.));
#1335=DIRECTION('',(1.,0.,0.));
#1336=DIRECTION('',(0.,0.,1.));
#1337=DIRECTION('',(1.,0.,0.));
#1338=DIRECTION('',(0.,0.,1.));
#1339=DIRECTION('',(1.,0.,0.));
#1340=DIRECTION('',(0.,0.,-1.));
#1341=DIRECTION('',(-1.,0.,0.));
#1342=DIRECTION('',(0.,0.,1.));
#1343=DIRECTION('',(1.,0.,0.));
#1344=DIRECTION('',(0.,0.,1.));
#1345=DIRECTION('',(1.,0.,0.));
#1346=DIRECTION('',(0.,0.,1.));
#1347=DIRECTION('',(1.,0.,0.));
#1348=DIRECTION('',(0.,0.,1.));
#1349=DIRECTION('',(1.,0.,0.));
#1350=DIRECTION('',(0.,0.,-1.));
#1351=DIRECTION('',(-1.,0.,0.));
#1352=DIRECTION('',(0.,0.,1.));
#1353=DIRECTION('',(1.,0.,0.));
#1354=DIRECTION('',(0.,0.,-1.));
#1355=DIRECTION('',(-1.,0.,0.));
#1356=DIRECTION('',(0.,0.,-1.));
#1357=DIRECTION('',(1.,0.,0.));
#1358=DIRECTION('',(0.,0.,-1.));
#1359=DIRECTION('',(-1.,0.,0.));
#1360=DIRECTION('',(0.,0.,1.));
#1361=DIRECTION('',(1.,0.,0.));
#1362=DIRECTION('',(0.,0.,-1.));
#1363=DIRECTION('',(-1.,0.,0.));
#1364=DIRECTION('',(0.,0.,1.));
#1365=DIRECTION('',(1.,0.,0.));
#1366=DIRECTION('',(0.,0.,1.));
#1367=DIRECTION('',(1.,0.,0.));
#1368=DIRECTION('',(0.,0.,1.));
#1369=DIRECTION('',(1.,0.,0.));
#1370=DIRECTION('',(-0.967674426453342,0.252202704958127,0.));
#1371=DIRECTION('',(-0.252202704958127,-0.967674426453342,0.));
#1372=DIRECTION('',(0.,0.,1.));
#1373=DIRECTION('',(-0.252202704958127,-0.967674426453342,0.));
#1374=DIRECTION('',(0.,0.,1.));
#1375=DIRECTION('',(0.,-1.,0.));
#1376=DIRECTION('',(0.,0.,-1.));
#1377=DIRECTION('',(0.,0.,1.));
#1378=DIRECTION('',(1.,0.,0.));
#1379=DIRECTION('',(0.980649799571693,-0.195770198447054,0.));
#1380=DIRECTION('',(0.195770198447054,0.980649799571693,0.));
#1381=DIRECTION('',(0.,0.,1.));
#1382=DIRECTION('',(0.195770198447054,0.980649799571693,0.));
#1383=DIRECTION('',(-0.973526348752224,-0.22857481988435,0.));
#1384=DIRECTION('',(0.22857481988435,-0.973526348752224,0.));
#1385=DIRECTION('',(0.,0.,1.));
#1386=DIRECTION('',(0.22857481988435,-0.973526348752224,0.));
#1387=DIRECTION('',(0.,-1.,0.));
#1388=DIRECTION('',(0.,0.,-1.));
#1389=DIRECTION('',(0.,0.,1.));
#1390=DIRECTION('',(1.,0.,0.));
#1391=DIRECTION('',(0.971370077795985,-0.237571403924423,0.));
#1392=DIRECTION('',(0.237571403924423,0.971370077795985,0.));
#1393=DIRECTION('',(0.,0.,1.));
#1394=DIRECTION('',(0.237571403924423,0.971370077795985,0.));
#1395=DIRECTION('',(-0.98099373251557,-0.194039420647378,0.));
#1396=DIRECTION('',(0.194039420647378,-0.98099373251557,0.));
#1397=DIRECTION('',(0.,0.,1.));
#1398=DIRECTION('',(0.194039420647378,-0.98099373251557,0.));
#1399=DIRECTION('',(0.,-1.,0.));
#1400=DIRECTION('',(0.,0.,-1.));
#1401=DIRECTION('',(0.,0.,1.));
#1402=DIRECTION('',(1.,0.,0.));
#1403=DIRECTION('',(0.969337707050818,0.245732394464919,0.));
#1404=DIRECTION('',(-0.245732394464919,0.969337707050818,0.));
#1405=DIRECTION('',(0.,0.,1.));
#1406=DIRECTION('',(-0.245732394464919,0.969337707050818,0.));
#1407=DIRECTION('',(0.,1.,0.));
#1408=DIRECTION('',(0.,0.,1.));
#1409=DIRECTION('',(0.,0.,1.));
#1410=DIRECTION('',(-1.,0.,0.));
#1411=DIRECTION('',(-0.969929885969312,0.243384503006165,0.));
#1412=DIRECTION('',(-0.243384503006165,-0.969929885969312,0.));
#1413=DIRECTION('',(0.,0.,1.));
#1414=DIRECTION('',(-0.243384503006165,-0.969929885969312,0.));
#1415=DIRECTION('',(0.971838702747196,0.23564705778483,0.));
#1416=DIRECTION('',(-0.23564705778483,0.971838702747196,0.));
#1417=DIRECTION('',(0.,0.,1.));
#1418=DIRECTION('',(-0.23564705778483,0.971838702747196,0.));
#1419=DIRECTION('',(0.,1.,0.));
#1420=DIRECTION('',(0.,0.,1.));
#1421=DIRECTION('',(-1.,0.,0.));
#1422=DIRECTION('',(0.,0.,1.));
#1423=DIRECTION('',(1.,0.,0.));
#1424=DIRECTION('',(-1.,0.,0.));
#1425=DIRECTION('',(0.,0.,1.));
#1426=DIRECTION('',(0.,0.,1.));
#1427=DIRECTION('',(0.,-1.,0.));
#1428=DIRECTION('',(0.,0.,1.));
#1429=DIRECTION('',(0.,-1.,0.));
#1430=DIRECTION('',(0.,0.,-1.));
#1431=DIRECTION('',(0.,0.,1.));
#1432=DIRECTION('',(1.,0.,0.));
#1433=DIRECTION('',(0.92810588807514,-0.372316344685881,0.));
#1434=DIRECTION('',(0.372316344685881,0.92810588807514,0.));
#1435=DIRECTION('',(0.,0.,1.));
#1436=DIRECTION('',(0.372316344685881,0.92810588807514,0.));
#1437=DIRECTION('',(-0.926865379000395,-0.375393885419639,0.));
#1438=DIRECTION('',(0.375393885419639,-0.926865379000395,0.));
#1439=DIRECTION('',(0.,0.,1.));
#1440=DIRECTION('',(0.375393885419639,-0.926865379000396,0.));
#1441=DIRECTION('',(0.,-1.,0.));
#1442=DIRECTION('',(0.,0.,-1.));
#1443=DIRECTION('',(0.,0.,1.));
#1444=DIRECTION('',(1.,0.,0.));
#1445=DIRECTION('',(1.,0.,0.));
#1446=DIRECTION('',(0.,0.,-1.));
#1447=DIRECTION('',(0.,0.,1.));
#1448=DIRECTION('',(0.,1.,0.));
#1449=DIRECTION('',(0.,1.,0.));
#1450=DIRECTION('',(0.,0.,1.));
#1451=DIRECTION('',(0.,0.,1.));
#1452=DIRECTION('',(-1.,0.,0.));
#1453=DIRECTION('',(-1.,0.,0.));
#1454=DIRECTION('',(0.,0.,1.));
#1455=DIRECTION('',(0.,0.,1.));
#1456=DIRECTION('',(0.,-1.,0.));
#1457=DIRECTION('',(0.936542747463965,0.350553394182181,0.));
#1458=DIRECTION('',(-0.350553394182181,0.936542747463965,0.));
#1459=DIRECTION('',(0.,0.,1.));
#1460=DIRECTION('',(-0.350553394182181,0.936542747463965,0.));
#1461=DIRECTION('',(0.,1.,0.));
#1462=DIRECTION('',(0.,0.,1.));
#1463=DIRECTION('',(0.,0.,1.));
#1464=DIRECTION('',(-1.,0.,0.));
#1465=DIRECTION('',(-0.937041947819316,0.349216820939344,0.));
#1466=DIRECTION('',(-0.349216820939344,-0.937041947819316,0.));
#1467=DIRECTION('',(0.,0.,1.));
#1468=DIRECTION('',(-0.349216820939344,-0.937041947819316,0.));
#1469=DIRECTION('',(1.,0.,0.));
#1470=DIRECTION('',(0.,0.,-1.));
#1471=DIRECTION('',(0.,0.,1.));
#1472=DIRECTION('',(0.,1.,0.));
#1473=DIRECTION('',(0.,1.,0.));
#1474=DIRECTION('',(0.,0.,1.));
#1475=DIRECTION('',(-1.,0.,0.));
#1476=DIRECTION('',(0.,0.,1.));
#1477=DIRECTION('',(1.,0.,0.));
#1478=DIRECTION('',(0.,0.,1.));
#1479=DIRECTION('',(1.,0.,0.));
#1480=DIRECTION('',(0.,0.,-1.));
#1481=DIRECTION('',(1.,0.,0.));
#1482=DIRECTION('',(0.,0.,1.));
#1483=DIRECTION('',(1.,0.,0.));
#1484=DIRECTION('',(0.,0.,1.));
#1485=DIRECTION('',(1.,0.,0.));
#1486=DIRECTION('',(0.,0.,1.));
#1487=DIRECTION('',(1.,0.,0.));
#1488=DIRECTION('',(0.,0.,1.));
#1489=DIRECTION('',(1.,0.,0.));
#1490=DIRECTION('',(0.,0.,-1.));
#1491=DIRECTION('',(-1.,0.,0.));
#1492=DIRECTION('',(0.,0.,-1.));
#1493=DIRECTION('',(-1.,0.,0.));
#1494=DIRECTION('',(0.,0.,-1.));
#1495=DIRECTION('',(-1.,0.,0.));
#1496=DIRECTION('',(0.,0.,1.));
#1497=DIRECTION('',(1.,0.,0.));
#1498=CARTESIAN_POINT('',(0.,0.,0.));
#1499=CARTESIAN_POINT('',(-0.0226,-6.93889390390723E-18,0.));
#1500=CARTESIAN_POINT('',(-1.25000000000073E-5,0.0391999999999903,0.));
#1501=CARTESIAN_POINT('',(0.00328749999999999,0.0391999999999903,0.));
#1502=CARTESIAN_POINT('',(-0.024175,-1.43895998899814E-19,0.));
#1503=CARTESIAN_POINT('',(-0.020875,-1.43895998899814E-19,0.));
#1504=CARTESIAN_POINT('',(0.024175,-1.43895998899814E-19,0.));
#1505=CARTESIAN_POINT('',(0.027475,-1.43895998899814E-19,0.));
#1506=CARTESIAN_POINT('',(0.0265676109154503,0.0338956544669644,0.));
#1507=CARTESIAN_POINT('',(0.0289926109154503,0.0338956544669644,0.));
#1508=CARTESIAN_POINT('',(2.03287907341032E-19,-0.019512,0.));
#1509=CARTESIAN_POINT('',(7.50000000000002E-5,-0.019512,0.));
#1510=CARTESIAN_POINT('',(-0.0257300104835137,0.030663832431214,0.));
#1511=CARTESIAN_POINT('',(-0.0232550104835136,0.030663832431214,0.));
#1512=CARTESIAN_POINT('',(0.011375,1.7347234759768E-18,0.));
#1513=CARTESIAN_POINT('',(0.011375,-0.005625,0.));
#1514=CARTESIAN_POINT('',(0.011375,0.005625,0.));
#1515=CARTESIAN_POINT('',(2.49999999999903E-5,0.005625,0.));
#1516=CARTESIAN_POINT('',(-0.011325,0.005625,0.));
#1517=CARTESIAN_POINT('',(-0.011325,-1.7347234759768E-18,0.));
#1518=CARTESIAN_POINT('',(-0.011325,-0.005625,0.));
#1519=CARTESIAN_POINT('',(2.4999999999992E-5,-0.005625,0.));
#1520=CARTESIAN_POINT('',(8.67361737988404E-19,0.0228999999999903,0.));
#1521=CARTESIAN_POINT('',(-0.00405,0.0228999999999903,0.));
#1522=CARTESIAN_POINT('',(0.00405,0.0228999999999903,0.));
#1523=CARTESIAN_POINT('',(0.00405,0.0273999999999903,0.));
#1524=CARTESIAN_POINT('',(0.00405,0.0318999999999904,0.));
#1525=CARTESIAN_POINT('',(8.67361737988404E-19,0.0318999999999904,0.));
#1526=CARTESIAN_POINT('',(-0.00405,0.0318999999999904,0.));
#1527=CARTESIAN_POINT('',(-0.00405,0.0273999999999903,0.));
#1528=CARTESIAN_POINT('',(0.0153793118462514,0.0161795308782055,0.));
#1529=CARTESIAN_POINT('',(0.0439687139690118,0.00715488351148741,0.));
#1530=CARTESIAN_POINT('',(-2.05998412772246E-17,0.0539499999999903,0.));
#1531=CARTESIAN_POINT('',(0.0237961904761905,-9.5964902691037E-15,0.));
#1532=CARTESIAN_POINT('',(0.0242,-0.0214,0.));
#1533=CARTESIAN_POINT('',(0.0242,-0.0214,0.));
#1534=CARTESIAN_POINT('',(0.0176202181540626,-0.0214,0.));
#1535=CARTESIAN_POINT('',(0.0130452133817352,-0.0218094235131341,0.));
#1536=CARTESIAN_POINT('',(0.00970837748060971,-0.022315151013487,0.));
#1537=CARTESIAN_POINT('',(0.00970837748060971,-0.022315151013487,0.));
#1538=CARTESIAN_POINT('',(0.00970837748060971,-0.022315151013487,0.));
#1539=CARTESIAN_POINT('',(0.00431896692107542,-0.023131964669121,0.));
#1540=CARTESIAN_POINT('',(0.0021594834605377,-0.0242,0.));
#1541=CARTESIAN_POINT('',(-5.89806697286125E-18,-0.0242,0.));
#1542=CARTESIAN_POINT('',(-5.83489353490292E-18,-0.0242,0.));
#1543=CARTESIAN_POINT('',(-0.00970837748060971,-0.022315151013487,0.));
#1544=CARTESIAN_POINT('',(-0.00431896692107542,-0.023131964669121,0.));
#1545=CARTESIAN_POINT('',(-0.0021594834605377,-0.0242,0.));
#1546=CARTESIAN_POINT('',(5.89806697286125E-18,-0.0242,0.));
#1547=CARTESIAN_POINT('',(-0.00970837748060971,-0.022315151013487,0.));
#1548=CARTESIAN_POINT('',(-0.0242,-0.0214,0.));
#1549=CARTESIAN_POINT('',(-0.0176202181540626,-0.0214,0.));
#1550=CARTESIAN_POINT('',(-0.0130452133817352,-0.0218094235131341,0.));
#1551=CARTESIAN_POINT('',(-0.00970837748060971,-0.022315151013487,0.));
#1552=CARTESIAN_POINT('',(-0.0242,-0.0214,0.));
#1553=CARTESIAN_POINT('',(-0.0237961904761905,-9.5964902691037E-15,0.));
#1554=CARTESIAN_POINT('',(-0.0439687139690119,0.0071548835114871,0.));
#1555=CARTESIAN_POINT('',(-0.0153793118462515,0.0161795308782057,0.));
#1556=CARTESIAN_POINT('',(-0.0226,-6.93889390390723E-18,0.0018));
#1557=CARTESIAN_POINT('',(0.00405,0.0273999999999903,0.0018));
#1558=CARTESIAN_POINT('',(0.00405,0.0318999999999904,0.0018));
#1559=CARTESIAN_POINT('',(0.00405,0.0228999999999903,0.0018));
#1560=CARTESIAN_POINT('',(8.67361737988404E-19,0.0228999999999903,0.0018));
#1561=CARTESIAN_POINT('',(-0.00405,0.0228999999999903,0.0018));
#1562=CARTESIAN_POINT('',(-0.00405,0.0273999999999903,0.0018));
#1563=CARTESIAN_POINT('',(-0.00405,0.0318999999999904,0.0018));
#1564=CARTESIAN_POINT('',(8.67361737988404E-19,0.0318999999999904,0.0018));
#1565=CARTESIAN_POINT('',(0.0237961904761905,-9.5964902691037E-15,0.0018));
#1566=CARTESIAN_POINT('',(0.0439687139690118,0.00715488351148742,0.0018));
#1567=CARTESIAN_POINT('',(0.0242,-0.0214,0.0018));
#1568=CARTESIAN_POINT('',(0.0153793118462514,0.0161795308782055,0.0018));
#1569=CARTESIAN_POINT('',(-2.05998412772246E-17,0.0539499999999903,0.0018));
#1570=CARTESIAN_POINT('',(-0.0153793118462515,0.0161795308782057,0.0018));
#1571=CARTESIAN_POINT('',(-0.0439687139690119,0.0071548835114871,0.0018));
#1572=CARTESIAN_POINT('',(-0.0237961904761905,-9.5964902691037E-15,0.0018));
#1573=CARTESIAN_POINT('',(-0.0242,-0.0214,0.0018));
#1574=CARTESIAN_POINT('',(-0.0242,-0.0214,0.0018));
#1575=CARTESIAN_POINT('',(-0.0176202181540626,-0.0214,0.0018));
#1576=CARTESIAN_POINT('',(-0.0130452133817352,-0.0218094235131341,0.0018));
#1577=CARTESIAN_POINT('',(-0.00970837748060971,-0.022315151013487,0.0018));
#1578=CARTESIAN_POINT('',(-0.00970837748060971,-0.022315151013487,0.0018));
#1579=CARTESIAN_POINT('',(-0.00970837748060971,-0.022315151013487,0.0018));
#1580=CARTESIAN_POINT('',(-0.00431896692107542,-0.023131964669121,0.0018));
#1581=CARTESIAN_POINT('',(-0.0021594834605377,-0.0242,0.0018));
#1582=CARTESIAN_POINT('',(5.89806697286125E-18,-0.0242,0.0018));
#1583=CARTESIAN_POINT('',(5.83489353490292E-18,-0.0242,0.0018));
#1584=CARTESIAN_POINT('',(0.00970837748060971,-0.022315151013487,0.0018));
#1585=CARTESIAN_POINT('',(0.00431896692107542,-0.023131964669121,0.0018));
#1586=CARTESIAN_POINT('',(0.0021594834605377,-0.0242,0.0018));
#1587=CARTESIAN_POINT('',(-5.89806697286125E-18,-0.0242,0.0018));
#1588=CARTESIAN_POINT('',(0.00970837748060971,-0.022315151013487,0.0018));
#1589=CARTESIAN_POINT('',(0.0242,-0.0214,0.0018));
#1590=CARTESIAN_POINT('',(0.0176202181540626,-0.0214,0.0018));
#1591=CARTESIAN_POINT('',(0.0130452133817352,-0.0218094235131341,0.0018));
#1592=CARTESIAN_POINT('',(0.00970837748060971,-0.022315151013487,0.0018));
#1593=CARTESIAN_POINT('',(2.49999999999903E-5,0.005625,0.0018));
#1594=CARTESIAN_POINT('',(0.011375,0.005625,0.0018));
#1595=CARTESIAN_POINT('',(-0.011325,0.005625,0.0018));
#1596=CARTESIAN_POINT('',(0.011375,1.7347234759768E-18,0.0018));
#1597=CARTESIAN_POINT('',(0.011375,-0.005625,0.0018));
#1598=CARTESIAN_POINT('',(2.4999999999992E-5,-0.005625,0.0018));
#1599=CARTESIAN_POINT('',(-0.011325,-0.005625,0.0018));
#1600=CARTESIAN_POINT('',(-0.011325,-1.7347234759768E-18,0.0018));
#1601=CARTESIAN_POINT('',(0.0195997854864137,0.0406611698346079,0.0018));
#1602=CARTESIAN_POINT('',(0.018833509444747,0.0406611698346079,0.0018));
#1603=CARTESIAN_POINT('',(0.0203660615280803,0.0406611698346079,0.0018));
#1604=CARTESIAN_POINT('',(0.0196036917364137,0.0377360396262746,0.0018));
#1605=CARTESIAN_POINT('',(0.018841321944747,0.0348109094179413,0.0018));
#1606=CARTESIAN_POINT('',(0.0179786917364137,0.0348109094179413,0.0018));
#1607=CARTESIAN_POINT('',(0.0171160615280803,0.0348109094179413,0.0018));
#1608=CARTESIAN_POINT('',(0.0166492646530803,0.0367360396262746,0.0018));
#1609=CARTESIAN_POINT('',(0.0161824677780803,0.0386611698346079,0.0018));
#1610=CARTESIAN_POINT('',(0.0156993948614137,0.0367360396262746,0.0018));
#1611=CARTESIAN_POINT('',(0.015216321944747,0.0348109094179413,0.0018));
#1612=CARTESIAN_POINT('',(0.0143536917364137,0.0348109094179413,0.0018));
#1613=CARTESIAN_POINT('',(0.0134910615280803,0.0348109094179413,0.0018));
#1614=CARTESIAN_POINT('',(0.012749525069747,0.0377360396262746,0.0018));
#1615=CARTESIAN_POINT('',(0.0120079886114137,0.0406611698346079,0.0018));
#1616=CARTESIAN_POINT('',(0.0127703584030803,0.0406611698346079,0.0018));
#1617=CARTESIAN_POINT('',(0.013532728194747,0.0406611698346079,0.0018));
#1618=CARTESIAN_POINT('',(0.0139539521530803,0.0385316125429412,0.0018));
#1619=CARTESIAN_POINT('',(0.0143751761114137,0.0364020552512745,0.0018));
#1620=CARTESIAN_POINT('',(0.014896009444747,0.0385316125429412,0.0018));
#1621=CARTESIAN_POINT('',(0.0154168427780804,0.0406611698346079,0.0018));
#1622=CARTESIAN_POINT('',(0.0162000459030803,0.0406611698346079,0.0018));
#1623=CARTESIAN_POINT('',(0.0169832490280803,0.0406611698346079,0.0018));
#1624=CARTESIAN_POINT('',(0.0174832490280803,0.0385316125429412,0.0018));
#1625=CARTESIAN_POINT('',(0.0179832490280804,0.0364020552512745,0.0018));
#1626=CARTESIAN_POINT('',(0.0184083792364137,0.0385316125429412,0.0018));
#1627=CARTESIAN_POINT('',(0.0310484571778202,0.0268306599326542,0.0018));
#1628=CARTESIAN_POINT('',(0.0302105665528203,0.0268306599326542,0.0018));
#1629=CARTESIAN_POINT('',(0.0318863478028202,0.0268306599326542,0.0018));
#1630=CARTESIAN_POINT('',(0.0318863478028202,0.0239055297243209,0.0018));
#1631=CARTESIAN_POINT('',(0.0318863478028203,0.0209803995159876,0.0018));
#1632=CARTESIAN_POINT('',(0.0311734571778202,0.0209803995159876,0.0018));
#1633=CARTESIAN_POINT('',(0.0304605665528203,0.0209803995159876,0.0018));
#1634=CARTESIAN_POINT('',(0.0304605665528203,0.0227343057659875,0.0018));
#1635=CARTESIAN_POINT('',(0.0304605665528203,0.0244882120159876,0.0018));
#1636=CARTESIAN_POINT('',(0.0298069207194869,0.0227343057659875,0.0018));
#1637=CARTESIAN_POINT('',(0.0291532748861536,0.0209803995159876,0.0018));
#1638=CARTESIAN_POINT('',(0.0285777540528203,0.0209803995159876,0.0018));
#1639=CARTESIAN_POINT('',(0.028002233219487,0.0209803995159876,0.0018));
#1640=CARTESIAN_POINT('',(0.0273440300944869,0.0227388630576542,0.0018));
#1641=CARTESIAN_POINT('',(0.026685826969487,0.0244973265993208,0.0018));
#1642=CARTESIAN_POINT('',(0.026685826969487,0.0227388630576542,0.0018));
#1643=CARTESIAN_POINT('',(0.026685826969487,0.0209803995159876,0.0018));
#1644=CARTESIAN_POINT('',(0.0259735873861536,0.0209803995159876,0.0018));
#1645=CARTESIAN_POINT('',(0.0252613478028203,0.0209803995159876,0.0018));
#1646=CARTESIAN_POINT('',(0.0252613478028203,0.0239055297243209,0.0018));
#1647=CARTESIAN_POINT('',(0.0252613478028203,0.0268306599326542,0.0018));
#1648=CARTESIAN_POINT('',(0.0261031446778202,0.0268306599326542,0.0018));
#1649=CARTESIAN_POINT('',(0.0269449415528203,0.0268306599326542,0.0018));
#1650=CARTESIAN_POINT('',(0.0277652540528203,0.0248052693076542,0.0018));
#1651=CARTESIAN_POINT('',(0.0285855665528203,0.0227798786826542,0.0018));
#1652=CARTESIAN_POINT('',(0.0293980665528203,0.0248052693076542,0.0018));
#1653=CARTESIAN_POINT('',(-0.0257300104835137,0.030663832431214,0.0008));
#1654=CARTESIAN_POINT('',(-0.0257300104835137,0.030663832431214,-0.000453589838486225));
#1655=CARTESIAN_POINT('',(-0.0241550104835137,0.030663832431214,-0.000453589838486225));
#1656=CARTESIAN_POINT('',(-0.0257300104835137,0.030663832431214,-0.0004));
#1657=CARTESIAN_POINT('',(-0.0241550104835137,0.030663832431214,-0.0004));
#1658=CARTESIAN_POINT('',(0.0237961904761905,-9.5964902691037E-15,0.0018));
#1659=CARTESIAN_POINT('',(0.0242,-0.0214,0.0018));
#1660=CARTESIAN_POINT('',(0.0439687139690118,0.00715488351148741,0.0018));
#1661=CARTESIAN_POINT('',(-0.0237961904761905,-9.5964902691037E-15,0.0018));
#1662=CARTESIAN_POINT('',(-0.0439687139690119,0.00715488351148709,0.0018));
#1663=CARTESIAN_POINT('',(-0.0242,-0.0214,0.0018));
#1664=CARTESIAN_POINT('',(-0.0242,-0.0214,0.0018));
#1665=CARTESIAN_POINT('',(-0.0242,-0.0214,0.));
#1666=CARTESIAN_POINT('',(-0.0176202181540627,-0.0214,0.0018));
#1667=CARTESIAN_POINT('',(-0.0176202181540627,-0.0214,2.16840434497101E-19));
#1668=CARTESIAN_POINT('',(-0.0130452133817352,-0.0218094235131341,0.0018));
#1669=CARTESIAN_POINT('',(-0.0130452133817352,-0.0218094235131341,2.16840434497101E-19));
#1670=CARTESIAN_POINT('',(-0.00970837748060971,-0.022315151013487,0.0018));
#1671=CARTESIAN_POINT('',(-0.00970837748060971,-0.022315151013487,0.));
#1672=CARTESIAN_POINT('',(-0.00970837748060971,-0.022315151013487,0.0018));
#1673=CARTESIAN_POINT('',(-0.00970837748060971,-0.022315151013487,0.0018));
#1674=CARTESIAN_POINT('',(-0.00970837748060971,-0.022315151013487,0.));
#1675=CARTESIAN_POINT('',(-0.00431896692107542,-0.023131964669121,0.0018));
#1676=CARTESIAN_POINT('',(-0.00431896692107542,-0.023131964669121,2.16840434497101E-19));
#1677=CARTESIAN_POINT('',(-0.0021594834605377,-0.0242,0.0018));
#1678=CARTESIAN_POINT('',(-0.0021594834605377,-0.0242,2.16840434497101E-19));
#1679=CARTESIAN_POINT('',(5.89806697286125E-18,-0.0242,0.0018));
#1680=CARTESIAN_POINT('',(5.89806697286125E-18,-0.0242,0.));
#1681=CARTESIAN_POINT('',(5.83489353490292E-18,-0.0242,0.0018));
#1682=CARTESIAN_POINT('',(0.0242,-0.0214,0.0018));
#1683=CARTESIAN_POINT('',(0.0242,-0.0214,0.));
#1684=CARTESIAN_POINT('',(0.0176202181540627,-0.0214,0.0018));
#1685=CARTESIAN_POINT('',(0.0176202181540627,-0.0214,2.16840434497101E-19));
#1686=CARTESIAN_POINT('',(0.0130452133817352,-0.0218094235131341,0.0018));
#1687=CARTESIAN_POINT('',(0.0130452133817352,-0.0218094235131341,2.16840434497101E-19));
#1688=CARTESIAN_POINT('',(0.00970837748060971,-0.022315151013487,0.0018));
#1689=CARTESIAN_POINT('',(0.00970837748060971,-0.022315151013487,0.));
#1690=CARTESIAN_POINT('',(0.00970837748060971,-0.022315151013487,0.0018));
#1691=CARTESIAN_POINT('',(0.00970837748060971,-0.022315151013487,0.0018));
#1692=CARTESIAN_POINT('',(0.00970837748060971,-0.022315151013487,0.));
#1693=CARTESIAN_POINT('',(0.00431896692107542,-0.023131964669121,0.0018));
#1694=CARTESIAN_POINT('',(0.00431896692107542,-0.023131964669121,2.16840434497101E-19));
#1695=CARTESIAN_POINT('',(0.0021594834605377,-0.0242,0.0018));
#1696=CARTESIAN_POINT('',(0.0021594834605377,-0.0242,2.16840434497101E-19));
#1697=CARTESIAN_POINT('',(-5.89806697286125E-18,-0.0242,0.0018));
#1698=CARTESIAN_POINT('',(-5.89806697286125E-18,-0.0242,0.));
#1699=CARTESIAN_POINT('',(-0.0439687139690119,0.00715488351148721,0.0018));
#1700=CARTESIAN_POINT('',(-0.0439687139690119,0.00715488351148721,-2.16840434497101E-19));
#1701=CARTESIAN_POINT('',(-0.0433481136216045,0.00967179114929863,0.0018));
#1702=CARTESIAN_POINT('',(-0.0433481136216045,0.00967179114929863,-2.16840434497101E-19));
#1703=CARTESIAN_POINT('',(-0.0416446163349269,0.0150599568359255,0.0018));
#1704=CARTESIAN_POINT('',(-0.0416446163349269,0.0150599568359255,-1.0842021724855E-18));
#1705=CARTESIAN_POINT('',(-0.037559965733629,0.0237773635756571,0.0018));
#1706=CARTESIAN_POINT('',(-0.037559965733629,0.0237773635756571,2.16840434497101E-19));
#1707=CARTESIAN_POINT('',(-0.0320349362197005,0.032454570816558,0.0018));
#1708=CARTESIAN_POINT('',(-0.0320349362197005,0.032454570816558,-8.67361737988404E-19));
#1709=CARTESIAN_POINT('',(-0.025441067559906,0.0402971971211507,0.0018));
#1710=CARTESIAN_POINT('',(-0.025441067559906,0.0402971971211507,6.50521303491303E-19));
#1711=CARTESIAN_POINT('',(-0.0183625497809914,0.0466127958674241,0.0018));
#1712=CARTESIAN_POINT('',(-0.0183625497809914,0.0466127958674241,0.));
#1713=CARTESIAN_POINT('',(-0.0114307302979044,0.051006612024577,0.0018));
#1714=CARTESIAN_POINT('',(-0.0114307302979044,0.051006612024577,-6.50521303491303E-19));
#1715=CARTESIAN_POINT('',(-0.00515371156934465,0.0534437233601081,0.0018));
#1716=CARTESIAN_POINT('',(-0.00515371156934465,0.0534437233601081,6.50521303491303E-19));
#1717=CARTESIAN_POINT('',(-0.00160219977397911,0.053928637116362,0.0018));
#1718=CARTESIAN_POINT('',(-0.00160219977397911,0.053928637116362,-4.33680868994202E-19));
#1719=CARTESIAN_POINT('',(-2.05998412772246E-17,0.0539499999999903,0.0018));
#1720=CARTESIAN_POINT('',(-2.05998412772246E-17,0.0539499999999903,-4.33680868994202E-19));
#1721=CARTESIAN_POINT('',(-2.05998412772246E-17,0.0539499999999903,0.0018));
#1722=CARTESIAN_POINT('',(0.0439687139690118,0.00715488351148752,0.0018));
#1723=CARTESIAN_POINT('',(0.0439687139690118,0.00715488351148752,-2.16840434497101E-19));
#1724=CARTESIAN_POINT('',(0.0433481136216044,0.00967179114929895,0.0018));
#1725=CARTESIAN_POINT('',(0.0433481136216044,0.00967179114929895,-2.16840434497101E-19));
#1726=CARTESIAN_POINT('',(0.0416446163349268,0.0150599568359259,0.0018));
#1727=CARTESIAN_POINT('',(0.0416446163349268,0.0150599568359259,8.67361737988404E-19));
#1728=CARTESIAN_POINT('',(0.0375599657336288,0.0237773635756574,0.0018));
#1729=CARTESIAN_POINT('',(0.0375599657336288,0.0237773635756574,6.50521303491303E-19));
#1730=CARTESIAN_POINT('',(0.0320349362197003,0.0324545708165581,0.0018));
#1731=CARTESIAN_POINT('',(0.0320349362197003,0.0324545708165581,2.16840434497101E-19));
#1732=CARTESIAN_POINT('',(0.0254410675599058,0.0402971971211509,0.0018));
#1733=CARTESIAN_POINT('',(0.0254410675599058,0.0402971971211509,0.));
#1734=CARTESIAN_POINT('',(0.0183625497809912,0.0466127958674242,0.0018));
#1735=CARTESIAN_POINT('',(0.0183625497809912,0.0466127958674242,-2.16840434497101E-19));
#1736=CARTESIAN_POINT('',(0.0114307302979044,0.051006612024577,0.0018));
#1737=CARTESIAN_POINT('',(0.0114307302979044,0.051006612024577,0.));
#1738=CARTESIAN_POINT('',(0.00515371156934449,0.0534437233601081,0.0018));
#1739=CARTESIAN_POINT('',(0.00515371156934449,0.0534437233601081,-4.33680868994202E-19));
#1740=CARTESIAN_POINT('',(0.00160219977397906,0.053928637116362,0.0018));
#1741=CARTESIAN_POINT('',(0.00160219977397906,0.053928637116362,-2.16840434497101E-19));
#1742=CARTESIAN_POINT('',(-2.05998412772246E-17,0.0539499999999903,0.0018));
#1743=CARTESIAN_POINT('',(-2.05998412772246E-17,0.0539499999999903,-2.16840434497101E-19));
#1744=CARTESIAN_POINT('',(0.00405,0.0273999999999903,0.001802));
#1745=CARTESIAN_POINT('',(0.00405,0.0318999999999904,0.001802));
#1746=CARTESIAN_POINT('',(0.00405,0.0228999999999903,0.001802));
#1747=CARTESIAN_POINT('',(8.67361737988404E-19,0.0228999999999903,0.001802));
#1748=CARTESIAN_POINT('',(-0.00405,0.0228999999999903,0.001802));
#1749=CARTESIAN_POINT('',(8.67361737988404E-19,0.0318999999999904,0.001802));
#1750=CARTESIAN_POINT('',(-0.00405,0.0318999999999904,0.001802));
#1751=CARTESIAN_POINT('',(-0.00405,0.0273999999999903,0.001802));
#1752=CARTESIAN_POINT('',(0.011375,1.7347234759768E-18,0.001802));
#1753=CARTESIAN_POINT('',(0.011375,0.005625,0.001802));
#1754=CARTESIAN_POINT('',(0.011375,-0.005625,0.001802));
#1755=CARTESIAN_POINT('',(2.49999999999903E-5,0.005625,0.001802));
#1756=CARTESIAN_POINT('',(-0.011325,0.005625,0.001802));
#1757=CARTESIAN_POINT('',(2.4999999999992E-5,-0.005625,0.001802));
#1758=CARTESIAN_POINT('',(-0.011325,-0.005625,0.001802));
#1759=CARTESIAN_POINT('',(-0.011325,-1.7347234759768E-18,0.001802));
#1760=CARTESIAN_POINT('',(-0.0257300104835137,0.030663832431214,0.0008));
#1761=CARTESIAN_POINT('',(-0.0257300104835137,0.030663832431214,-0.0008));
#1762=CARTESIAN_POINT('',(-0.0232550104835136,0.030663832431214,-0.0008));
#1763=CARTESIAN_POINT('',(-0.000277994121354423,0.0279672605891884,-0.0008));
#1764=CARTESIAN_POINT('',(-0.0257300104835137,0.030663832431214,-0.0008));
#1765=CARTESIAN_POINT('',(-0.0235550104835137,0.030663832431214,-0.0008));
#1766=CARTESIAN_POINT('',(-0.0257300104835137,0.030663832431214,0.0004));
#1767=CARTESIAN_POINT('',(-0.0257300104835137,0.030663832431214,0.0004));
#1768=CARTESIAN_POINT('',(-0.0235550104835137,0.030663832431214,0.0004));
#1769=CARTESIAN_POINT('',(-0.0257300104835137,0.030663832431214,-0.0004));
#1770=CARTESIAN_POINT('',(-0.0235550104835137,0.030663832431214,-0.0004));
#1771=CARTESIAN_POINT('',(-0.000277994121354423,0.0279672605891884,0.0004));
#1772=CARTESIAN_POINT('',(-0.000277994121354423,0.0279672605891884,-0.0004));
#1773=CARTESIAN_POINT('',(-0.0257300104835137,0.030663832431214,-0.0008));
#1774=CARTESIAN_POINT('',(2.03287907341032E-19,-0.019512,-3.75E-5));
#1775=CARTESIAN_POINT('',(2.03287907341032E-19,-0.019512,-3.75E-5));
#1776=CARTESIAN_POINT('',(-7.49999999999998E-5,-0.019512,-3.75E-5));
#1777=CARTESIAN_POINT('',(0.,0.0148749999999952,-3.75E-5));
#1778=CARTESIAN_POINT('',(0.0265676109154503,0.0338956544669644,0.000475));
#1779=CARTESIAN_POINT('',(0.0265676109154503,0.0338956544669644,-0.000475));
#1780=CARTESIAN_POINT('',(0.0289926109154503,0.0338956544669644,-0.000475));
#1781=CARTESIAN_POINT('',(0.0265676109154503,0.0338956544669644,0.000475));
#1782=CARTESIAN_POINT('',(0.0265676109154503,0.0338956544669644,-0.000475));
#1783=CARTESIAN_POINT('',(0.0280926109154503,0.0338956544669644,-0.000475));
#1784=CARTESIAN_POINT('',(0.0265676109154503,0.0338956544669644,0.0004));
#1785=CARTESIAN_POINT('',(0.0280926109154503,0.0338956544669644,0.0004));
#1786=CARTESIAN_POINT('',(0.0265676109154503,0.0338956544669644,-0.000475));
#1787=CARTESIAN_POINT('',(0.0196036917364137,0.0377360396262746,0.001075));
#1788=CARTESIAN_POINT('',(0.0203660615280803,0.0406611698346079,0.001075));
#1789=CARTESIAN_POINT('',(0.0203660615280803,0.0406611698346079,0.001075));
#1790=CARTESIAN_POINT('',(0.0196036917364137,0.0377360396262746,0.001075));
#1791=CARTESIAN_POINT('',(0.018841321944747,0.0348109094179413,0.001075));
#1792=CARTESIAN_POINT('',(0.018841321944747,0.0348109094179413,0.001075));
#1793=CARTESIAN_POINT('',(0.0195997854864137,0.0406611698346079,0.001075));
#1794=CARTESIAN_POINT('',(0.018833509444747,0.0406611698346079,0.001075));
#1795=CARTESIAN_POINT('',(0.018833509444747,0.0406611698346079,0.001075));
#1796=CARTESIAN_POINT('',(0.0195997854864137,0.0406611698346079,0.001075));
#1797=CARTESIAN_POINT('',(0.0184083792364137,0.0385316125429412,0.001075));
#1798=CARTESIAN_POINT('',(0.0179832490280804,0.0364020552512745,0.001075));
#1799=CARTESIAN_POINT('',(0.0179832490280804,0.0364020552512745,0.001075));
#1800=CARTESIAN_POINT('',(0.0184083792364137,0.0385316125429412,0.001075));
#1801=CARTESIAN_POINT('',(0.0174832490280803,0.0385316125429412,0.001075));
#1802=CARTESIAN_POINT('',(0.0169832490280803,0.0406611698346079,0.001075));
#1803=CARTESIAN_POINT('',(0.0169832490280803,0.0406611698346079,0.001075));
#1804=CARTESIAN_POINT('',(0.0174832490280803,0.0385316125429412,0.001075));
#1805=CARTESIAN_POINT('',(0.0162000459030803,0.0406611698346079,0.001075));
#1806=CARTESIAN_POINT('',(0.0154168427780804,0.0406611698346079,0.001075));
#1807=CARTESIAN_POINT('',(0.0154168427780804,0.0406611698346079,0.001075));
#1808=CARTESIAN_POINT('',(0.0162000459030803,0.0406611698346079,0.001075));
#1809=CARTESIAN_POINT('',(0.014896009444747,0.0385316125429412,0.001075));
#1810=CARTESIAN_POINT('',(0.0143751761114137,0.0364020552512745,0.001075));
#1811=CARTESIAN_POINT('',(0.0143751761114137,0.0364020552512745,0.001075));
#1812=CARTESIAN_POINT('',(0.014896009444747,0.0385316125429412,0.001075));
#1813=CARTESIAN_POINT('',(0.0139539521530803,0.0385316125429412,0.001075));
#1814=CARTESIAN_POINT('',(0.013532728194747,0.0406611698346079,0.001075));
#1815=CARTESIAN_POINT('',(0.013532728194747,0.0406611698346079,0.001075));
#1816=CARTESIAN_POINT('',(0.0139539521530803,0.0385316125429412,0.001075));
#1817=CARTESIAN_POINT('',(0.0127703584030803,0.0406611698346079,0.001075));
#1818=CARTESIAN_POINT('',(0.0120079886114137,0.0406611698346079,0.001075));
#1819=CARTESIAN_POINT('',(0.0120079886114137,0.0406611698346079,0.001075));
#1820=CARTESIAN_POINT('',(0.0127703584030803,0.0406611698346079,0.001075));
#1821=CARTESIAN_POINT('',(0.012749525069747,0.0377360396262746,0.001075));
#1822=CARTESIAN_POINT('',(0.0134910615280803,0.0348109094179413,0.001075));
#1823=CARTESIAN_POINT('',(0.0134910615280803,0.0348109094179413,0.001075));
#1824=CARTESIAN_POINT('',(0.012749525069747,0.0377360396262746,0.001075));
#1825=CARTESIAN_POINT('',(0.0143536917364137,0.0348109094179413,0.001075));
#1826=CARTESIAN_POINT('',(0.015216321944747,0.0348109094179413,0.001075));
#1827=CARTESIAN_POINT('',(0.015216321944747,0.0348109094179413,0.001075));
#1828=CARTESIAN_POINT('',(0.0143536917364137,0.0348109094179413,0.001075));
#1829=CARTESIAN_POINT('',(0.0156993948614137,0.0367360396262746,0.001075));
#1830=CARTESIAN_POINT('',(0.0161824677780803,0.0386611698346079,0.001075));
#1831=CARTESIAN_POINT('',(0.0161824677780803,0.0386611698346079,0.001075));
#1832=CARTESIAN_POINT('',(0.0156993948614137,0.0367360396262746,0.001075));
#1833=CARTESIAN_POINT('',(0.0166492646530803,0.0367360396262746,0.001075));
#1834=CARTESIAN_POINT('',(0.0171160615280803,0.0348109094179413,0.001075));
#1835=CARTESIAN_POINT('',(0.0171160615280803,0.0348109094179413,0.001075));
#1836=CARTESIAN_POINT('',(0.0166492646530803,0.0367360396262746,0.001075));
#1837=CARTESIAN_POINT('',(0.0179786917364137,0.0348109094179413,0.001075));
#1838=CARTESIAN_POINT('',(0.0179786917364137,0.0348109094179413,0.001075));
#1839=CARTESIAN_POINT('',(0.0171848196329978,0.0148749999999952,0.001075));
#1840=CARTESIAN_POINT('',(0.0318863478028202,0.0239055297243209,0.001075));
#1841=CARTESIAN_POINT('',(0.0318863478028202,0.0268306599326542,0.001075));
#1842=CARTESIAN_POINT('',(0.0318863478028202,0.0268306599326542,0.001075));
#1843=CARTESIAN_POINT('',(0.0318863478028202,0.0239055297243209,0.001075));
#1844=CARTESIAN_POINT('',(0.0318863478028203,0.0209803995159876,0.001075));
#1845=CARTESIAN_POINT('',(0.0318863478028203,0.0209803995159876,0.001075));
#1846=CARTESIAN_POINT('',(0.0310484571778202,0.0268306599326542,0.001075));
#1847=CARTESIAN_POINT('',(0.0302105665528203,0.0268306599326542,0.001075));
#1848=CARTESIAN_POINT('',(0.0302105665528203,0.0268306599326542,0.001075));
#1849=CARTESIAN_POINT('',(0.0310484571778202,0.0268306599326542,0.001075));
#1850=CARTESIAN_POINT('',(0.0293980665528203,0.0248052693076542,0.001075));
#1851=CARTESIAN_POINT('',(0.0285855665528203,0.0227798786826542,0.001075));
#1852=CARTESIAN_POINT('',(0.0285855665528203,0.0227798786826542,0.001075));
#1853=CARTESIAN_POINT('',(0.0293980665528203,0.0248052693076542,0.001075));
#1854=CARTESIAN_POINT('',(0.0277652540528203,0.0248052693076542,0.001075));
#1855=CARTESIAN_POINT('',(0.0269449415528203,0.0268306599326542,0.001075));
#1856=CARTESIAN_POINT('',(0.0269449415528203,0.0268306599326542,0.001075));
#1857=CARTESIAN_POINT('',(0.0277652540528203,0.0248052693076542,0.001075));
#1858=CARTESIAN_POINT('',(0.0261031446778202,0.0268306599326542,0.001075));
#1859=CARTESIAN_POINT('',(0.0252613478028203,0.0268306599326542,0.001075));
#1860=CARTESIAN_POINT('',(0.0252613478028203,0.0268306599326542,0.001075));
#1861=CARTESIAN_POINT('',(0.0261031446778202,0.0268306599326542,0.001075));
#1862=CARTESIAN_POINT('',(0.0252613478028203,0.0239055297243209,0.001075));
#1863=CARTESIAN_POINT('',(0.0252613478028203,0.0209803995159876,0.001075));
#1864=CARTESIAN_POINT('',(0.0252613478028203,0.0209803995159876,0.001075));
#1865=CARTESIAN_POINT('',(0.0252613478028203,0.0239055297243209,0.001075));
#1866=CARTESIAN_POINT('',(0.0259735873861536,0.0209803995159876,0.001075));
#1867=CARTESIAN_POINT('',(0.026685826969487,0.0209803995159876,0.001075));
#1868=CARTESIAN_POINT('',(0.026685826969487,0.0209803995159876,0.001075));
#1869=CARTESIAN_POINT('',(0.0259735873861536,0.0209803995159876,0.001075));
#1870=CARTESIAN_POINT('',(0.026685826969487,0.0227388630576542,0.001075));
#1871=CARTESIAN_POINT('',(0.026685826969487,0.0244973265993208,0.001075));
#1872=CARTESIAN_POINT('',(0.026685826969487,0.0244973265993208,0.001075));
#1873=CARTESIAN_POINT('',(0.026685826969487,0.0227388630576542,0.001075));
#1874=CARTESIAN_POINT('',(0.0273440300944869,0.0227388630576542,0.001075));
#1875=CARTESIAN_POINT('',(0.028002233219487,0.0209803995159876,0.001075));
#1876=CARTESIAN_POINT('',(0.028002233219487,0.0209803995159876,0.001075));
#1877=CARTESIAN_POINT('',(0.0273440300944869,0.0227388630576542,0.001075));
#1878=CARTESIAN_POINT('',(0.0285777540528203,0.0209803995159876,0.001075));
#1879=CARTESIAN_POINT('',(0.0291532748861536,0.0209803995159876,0.001075));
#1880=CARTESIAN_POINT('',(0.0291532748861536,0.0209803995159876,0.001075));
#1881=CARTESIAN_POINT('',(0.0285777540528203,0.0209803995159876,0.001075));
#1882=CARTESIAN_POINT('',(0.0298069207194869,0.0227343057659875,0.001075));
#1883=CARTESIAN_POINT('',(0.0304605665528203,0.0244882120159876,0.001075));
#1884=CARTESIAN_POINT('',(0.0304605665528203,0.0244882120159876,0.001075));
#1885=CARTESIAN_POINT('',(0.0298069207194869,0.0227343057659875,0.001075));
#1886=CARTESIAN_POINT('',(0.0304605665528203,0.0227343057659875,0.001075));
#1887=CARTESIAN_POINT('',(0.0304605665528203,0.0209803995159876,0.001075));
#1888=CARTESIAN_POINT('',(0.0304605665528203,0.0209803995159876,0.001075));
#1889=CARTESIAN_POINT('',(0.0304605665528203,0.0227343057659875,0.001075));
#1890=CARTESIAN_POINT('',(0.0311734571778202,0.0209803995159876,0.001075));
#1891=CARTESIAN_POINT('',(0.0311734571778202,0.0209803995159876,0.001075));
#1892=CARTESIAN_POINT('',(0.0171848196329978,0.0148749999999952,0.001075));
#1893=CARTESIAN_POINT('',(0.0107361495423109,0.0152419468192433,0.00095));
#1894=CARTESIAN_POINT('',(-0.024175,-1.43895998899814E-19,0.00095));
#1895=CARTESIAN_POINT('',(-0.021825,-1.43895998899814E-19,0.00095));
#1896=CARTESIAN_POINT('',(0.0107361495423109,0.0152419468192433,0.00095));
#1897=CARTESIAN_POINT('',(-1.25000000000073E-5,0.0391999999999903,0.00095));
#1898=CARTESIAN_POINT('',(0.00233749999999999,0.0391999999999903,0.00095));
#1899=CARTESIAN_POINT('',(0.0107361495423109,0.0152419468192433,0.00095));
#1900=CARTESIAN_POINT('',(0.024175,-1.43895998899814E-19,0.00095));
#1901=CARTESIAN_POINT('',(0.026525,-1.43895998899814E-19,0.00095));
#1902=CARTESIAN_POINT('',(-1.25000000000073E-5,0.0391999999999903,0.));
#1903=CARTESIAN_POINT('',(-0.024175,-1.43895998899814E-19,0.00095));
#1904=CARTESIAN_POINT('',(0.024175,-1.43895998899814E-19,0.));
#1905=CARTESIAN_POINT('',(-0.0226,-6.93889390390723E-18,0.0004));
#1906=MECHANICAL_DESIGN_GEOMETRIC_PRESENTATION_REPRESENTATION('',(#1116),
#1907);
#1907=(
GEOMETRIC_REPRESENTATION_CONTEXT(3)
GLOBAL_UNCERTAINTY_ASSIGNED_CONTEXT((#1908))
GLOBAL_UNIT_ASSIGNED_CONTEXT((#1911,#1910,#1909))
REPRESENTATION_CONTEXT('Top','TOP_LEVEL_ASSEMBLY_PART')
);
#1908=UNCERTAINTY_MEASURE_WITH_UNIT(LENGTH_MEASURE(2.E-5),#1911,
'DISTANCE_ACCURACY_VALUE','Maximum Tolerance applied to model');
#1909=(
NAMED_UNIT(*)
SI_UNIT($,.STERADIAN.)
SOLID_ANGLE_UNIT()
);
#1910=(
NAMED_UNIT(*)
PLANE_ANGLE_UNIT()
SI_UNIT($,.RADIAN.)
);
#1911=(
LENGTH_UNIT()
NAMED_UNIT(*)
SI_UNIT($,.METRE.)
);
#1912=PRODUCT_DEFINITION_SHAPE('','',#1913);
#1913=PRODUCT_DEFINITION('','',#1915,#1914);
#1914=PRODUCT_DEFINITION_CONTEXT('',#1921,'design');
#1915=PRODUCT_DEFINITION_FORMATION_WITH_SPECIFIED_SOURCE('','',#1917,
 .NOT_KNOWN.);
#1916=PRODUCT_RELATED_PRODUCT_CATEGORY('','',(#1917));
#1917=PRODUCT('Top','Top','Top',(#1919));
#1918=PRODUCT_CATEGORY('','');
#1919=PRODUCT_CONTEXT('',#1921,'mechanical');
#1920=APPLICATION_PROTOCOL_DEFINITION('international standard',
'ap242_managed_model_based_3d_engineering',2020,#1921);
#1921=APPLICATION_CONTEXT('managed model based 3d engineering');
ENDSEC;
END-ISO-10303-21;
