ISO-10303-21;
HEADER;
/* Generated by software containing ST-Developer
 * from STEP Tools, Inc. (www.steptools.com) 
 */
/* OPTION: using custom renumber hook */

FILE_DESCRIPTION(
/* description */ ('STEP AP242 Edition 2',
'CAx-IF Rec.Pracs.---Representation and Presentation of Product Manufa
cturing Information (PMI)---4.0---2014-10-13',
'CAx-IF Rec.Pracs.---3D Tessellated Geometry---0.4---2014-09-14','2;1',
'CAx-IF Rec.Pracs.---User Defined Attributes---1.5---2016-08-15'),
/* implementation_level */ '2;1');

FILE_NAME(
/* name */ 'MunchMoir - CaseLockUpper',
/* time_stamp */ '2026-09-19T09:01:34Z',
/* author */ (''),
/* organization */ (''),
/* preprocessor_version */ 'ST-DEVELOPER v20',
/* originating_system */ 'ONSHAPE BY PTC INC, 1.221',
/* authorisation */ '  ');

FILE_SCHEMA (('AP242_MANAGED_MODEL_BASED_3D_ENGINEERING_MIM_LF { 1 0 10303 442 3 1 4 }'));
ENDSEC;

DATA;
#10=SHAPE_REPRESENTATION_RELATIONSHIP('','',#323,#11);
#11=ADVANCED_BREP_SHAPE_REPRESENTATION('',(#321),#517);
#12=CYLINDRICAL_SURFACE('',#333,0.0072);
#13=CYLINDRICAL_SURFACE('',#341,0.002);
#14=CYLINDRICAL_SURFACE('',#346,0.002);
#15=LINE('',#434,#51);
#16=LINE('',#439,#52);
#17=LINE('',#442,#53);
#18=LINE('',#444,#54);
#19=LINE('',#446,#55);
#20=LINE('',#448,#56);
#21=LINE('',#456,#57);
#22=LINE('',#459,#58);
#23=LINE('',#461,#59);
#24=LINE('',#463,#60);
#25=LINE('',#465,#61);
#26=LINE('',#466,#62);
#27=LINE('',#468,#63);
#28=LINE('',#469,#64);
#29=LINE('',#471,#65);
#30=LINE('',#474,#66);
#31=LINE('',#475,#67);
#32=LINE('',#477,#68);
#33=LINE('',#479,#69);
#34=LINE('',#481,#70);
#35=LINE('',#482,#71);
#36=LINE('',#484,#72);
#37=LINE('',#486,#73);
#38=LINE('',#488,#74);
#39=LINE('',#490,#75);
#40=LINE('',#493,#76);
#41=LINE('',#494,#77);
#42=LINE('',#496,#78);
#43=LINE('',#498,#79);
#44=LINE('',#500,#80);
#45=LINE('',#501,#81);
#46=LINE('',#503,#82);
#47=LINE('',#504,#83);
#48=LINE('',#509,#84);
#49=LINE('',#511,#85);
#50=LINE('',#512,#86);
#51=VECTOR('',#353,1.);
#52=VECTOR('',#358,1.);
#53=VECTOR('',#359,1.);
#54=VECTOR('',#360,1.);
#55=VECTOR('',#361,1.);
#56=VECTOR('',#364,1.);
#57=VECTOR('',#371,1.);
#58=VECTOR('',#372,1.);
#59=VECTOR('',#373,1.);
#60=VECTOR('',#374,1.);
#61=VECTOR('',#377,1.);
#62=VECTOR('',#378,1.);
#63=VECTOR('',#381,1.);
#64=VECTOR('',#382,1.);
#65=VECTOR('',#385,1.);
#66=VECTOR('',#386,1.);
#67=VECTOR('',#387,1.);
#68=VECTOR('',#390,1.);
#69=VECTOR('',#391,1.);
#70=VECTOR('',#392,1.);
#71=VECTOR('',#393,1.);
#72=VECTOR('',#394,1.);
#73=VECTOR('',#395,1.);
#74=VECTOR('',#396,1.);
#75=VECTOR('',#399,1.);
#76=VECTOR('',#400,1.);
#77=VECTOR('',#401,1.);
#78=VECTOR('',#402,1.);
#79=VECTOR('',#403,1.);
#80=VECTOR('',#404,1.);
#81=VECTOR('',#405,1.);
#82=VECTOR('',#408,1.);
#83=VECTOR('',#409,1.);
#84=VECTOR('',#418,1.);
#85=VECTOR('',#421,1.);
#86=VECTOR('',#422,1.);
#87=ORIENTED_EDGE('',*,*,#171,.F.);
#88=ORIENTED_EDGE('',*,*,#172,.T.);
#89=ORIENTED_EDGE('',*,*,#173,.T.);
#90=ORIENTED_EDGE('',*,*,#174,.F.);
#91=ORIENTED_EDGE('',*,*,#175,.F.);
#92=ORIENTED_EDGE('',*,*,#176,.F.);
#93=ORIENTED_EDGE('',*,*,#177,.T.);
#94=ORIENTED_EDGE('',*,*,#178,.T.);
#95=ORIENTED_EDGE('',*,*,#179,.F.);
#96=ORIENTED_EDGE('',*,*,#180,.F.);
#97=ORIENTED_EDGE('',*,*,#181,.T.);
#98=ORIENTED_EDGE('',*,*,#182,.T.);
#99=ORIENTED_EDGE('',*,*,#183,.F.);
#100=ORIENTED_EDGE('',*,*,#184,.F.);
#101=ORIENTED_EDGE('',*,*,#185,.T.);
#102=ORIENTED_EDGE('',*,*,#186,.T.);
#103=ORIENTED_EDGE('',*,*,#174,.T.);
#104=ORIENTED_EDGE('',*,*,#187,.T.);
#105=ORIENTED_EDGE('',*,*,#181,.F.);
#106=ORIENTED_EDGE('',*,*,#188,.F.);
#107=ORIENTED_EDGE('',*,*,#179,.T.);
#108=ORIENTED_EDGE('',*,*,#189,.T.);
#109=ORIENTED_EDGE('',*,*,#172,.F.);
#110=ORIENTED_EDGE('',*,*,#190,.F.);
#111=ORIENTED_EDGE('',*,*,#191,.F.);
#112=ORIENTED_EDGE('',*,*,#192,.F.);
#113=ORIENTED_EDGE('',*,*,#185,.F.);
#114=ORIENTED_EDGE('',*,*,#193,.T.);
#115=ORIENTED_EDGE('',*,*,#175,.T.);
#116=ORIENTED_EDGE('',*,*,#194,.T.);
#117=ORIENTED_EDGE('',*,*,#195,.T.);
#118=ORIENTED_EDGE('',*,*,#196,.T.);
#119=ORIENTED_EDGE('',*,*,#193,.F.);
#120=ORIENTED_EDGE('',*,*,#184,.T.);
#121=ORIENTED_EDGE('',*,*,#197,.T.);
#122=ORIENTED_EDGE('',*,*,#198,.F.);
#123=ORIENTED_EDGE('',*,*,#199,.F.);
#124=ORIENTED_EDGE('',*,*,#200,.F.);
#125=ORIENTED_EDGE('',*,*,#201,.F.);
#126=ORIENTED_EDGE('',*,*,#202,.T.);
#127=ORIENTED_EDGE('',*,*,#177,.F.);
#128=ORIENTED_EDGE('',*,*,#203,.F.);
#129=ORIENTED_EDGE('',*,*,#204,.T.);
#130=ORIENTED_EDGE('',*,*,#205,.T.);
#131=ORIENTED_EDGE('',*,*,#206,.F.);
#132=ORIENTED_EDGE('',*,*,#186,.F.);
#133=ORIENTED_EDGE('',*,*,#192,.T.);
#134=ORIENTED_EDGE('',*,*,#207,.F.);
#135=ORIENTED_EDGE('',*,*,#195,.F.);
#136=ORIENTED_EDGE('',*,*,#208,.T.);
#137=ORIENTED_EDGE('',*,*,#201,.T.);
#138=ORIENTED_EDGE('',*,*,#209,.F.);
#139=ORIENTED_EDGE('',*,*,#207,.T.);
#140=ORIENTED_EDGE('',*,*,#191,.T.);
#141=ORIENTED_EDGE('',*,*,#196,.F.);
#142=ORIENTED_EDGE('',*,*,#209,.T.);
#143=ORIENTED_EDGE('',*,*,#194,.F.);
#144=ORIENTED_EDGE('',*,*,#178,.F.);
#145=ORIENTED_EDGE('',*,*,#202,.F.);
#146=ORIENTED_EDGE('',*,*,#208,.F.);
#147=ORIENTED_EDGE('',*,*,#173,.F.);
#148=ORIENTED_EDGE('',*,*,#189,.F.);
#149=ORIENTED_EDGE('',*,*,#182,.F.);
#150=ORIENTED_EDGE('',*,*,#187,.F.);
#151=ORIENTED_EDGE('',*,*,#210,.T.);
#152=ORIENTED_EDGE('',*,*,#197,.F.);
#153=ORIENTED_EDGE('',*,*,#183,.T.);
#154=ORIENTED_EDGE('',*,*,#206,.T.);
#155=ORIENTED_EDGE('',*,*,#199,.T.);
#156=ORIENTED_EDGE('',*,*,#211,.T.);
#157=ORIENTED_EDGE('',*,*,#204,.F.);
#158=ORIENTED_EDGE('',*,*,#212,.F.);
#159=ORIENTED_EDGE('',*,*,#205,.F.);
#160=ORIENTED_EDGE('',*,*,#211,.F.);
#161=ORIENTED_EDGE('',*,*,#198,.T.);
#162=ORIENTED_EDGE('',*,*,#210,.F.);
#163=ORIENTED_EDGE('',*,*,#200,.T.);
#164=ORIENTED_EDGE('',*,*,#212,.T.);
#165=ORIENTED_EDGE('',*,*,#203,.T.);
#166=ORIENTED_EDGE('',*,*,#176,.T.);
#167=ORIENTED_EDGE('',*,*,#171,.T.);
#168=ORIENTED_EDGE('',*,*,#188,.T.);
#169=ORIENTED_EDGE('',*,*,#180,.T.);
#170=ORIENTED_EDGE('',*,*,#190,.T.);
#171=EDGE_CURVE('',#213,#214,#241,.T.);
#172=EDGE_CURVE('',#213,#215,#15,.T.);
#173=EDGE_CURVE('',#215,#216,#242,.T.);
#174=EDGE_CURVE('',#214,#216,#243,.T.);
#175=EDGE_CURVE('',#217,#218,#16,.T.);
#176=EDGE_CURVE('',#219,#217,#17,.T.);
#177=EDGE_CURVE('',#219,#220,#18,.T.);
#178=EDGE_CURVE('',#220,#218,#19,.T.);
#179=EDGE_CURVE('',#221,#222,#20,.T.);
#180=EDGE_CURVE('',#223,#221,#244,.F.);
#181=EDGE_CURVE('',#223,#224,#245,.T.);
#182=EDGE_CURVE('',#224,#222,#246,.F.);
#183=EDGE_CURVE('',#225,#226,#21,.T.);
#184=EDGE_CURVE('',#227,#225,#22,.T.);
#185=EDGE_CURVE('',#227,#228,#23,.T.);
#186=EDGE_CURVE('',#228,#226,#24,.T.);
#187=EDGE_CURVE('',#216,#224,#25,.T.);
#188=EDGE_CURVE('',#214,#223,#26,.T.);
#189=EDGE_CURVE('',#222,#215,#27,.T.);
#190=EDGE_CURVE('',#221,#213,#28,.T.);
#191=EDGE_CURVE('',#229,#230,#29,.T.);
#192=EDGE_CURVE('',#228,#229,#30,.T.);
#193=EDGE_CURVE('',#227,#230,#31,.T.);
#194=EDGE_CURVE('',#218,#231,#32,.F.);
#195=EDGE_CURVE('',#231,#232,#33,.T.);
#196=EDGE_CURVE('',#232,#230,#34,.T.);
#197=EDGE_CURVE('',#225,#233,#35,.T.);
#198=EDGE_CURVE('',#234,#233,#36,.T.);
#199=EDGE_CURVE('',#235,#234,#37,.T.);
#200=EDGE_CURVE('',#217,#235,#38,.F.);
#201=EDGE_CURVE('',#236,#237,#39,.T.);
#202=EDGE_CURVE('',#236,#220,#40,.F.);
#203=EDGE_CURVE('',#238,#219,#41,.F.);
#204=EDGE_CURVE('',#238,#239,#42,.T.);
#205=EDGE_CURVE('',#239,#240,#43,.T.);
#206=EDGE_CURVE('',#226,#240,#44,.T.);
#207=EDGE_CURVE('',#237,#229,#45,.T.);
#208=EDGE_CURVE('',#231,#236,#46,.T.);
#209=EDGE_CURVE('',#232,#237,#47,.T.);
#210=EDGE_CURVE('',#240,#233,#48,.T.);
#211=EDGE_CURVE('',#234,#239,#49,.T.);
#212=EDGE_CURVE('',#235,#238,#50,.T.);
#213=VERTEX_POINT('',#432);
#214=VERTEX_POINT('',#433);
#215=VERTEX_POINT('',#435);
#216=VERTEX_POINT('',#437);
#217=VERTEX_POINT('',#440);
#218=VERTEX_POINT('',#441);
#219=VERTEX_POINT('',#443);
#220=VERTEX_POINT('',#445);
#221=VERTEX_POINT('',#449);
#222=VERTEX_POINT('',#450);
#223=VERTEX_POINT('',#452);
#224=VERTEX_POINT('',#454);
#225=VERTEX_POINT('',#457);
#226=VERTEX_POINT('',#458);
#227=VERTEX_POINT('',#460);
#228=VERTEX_POINT('',#462);
#229=VERTEX_POINT('',#472);
#230=VERTEX_POINT('',#473);
#231=VERTEX_POINT('',#478);
#232=VERTEX_POINT('',#480);
#233=VERTEX_POINT('',#483);
#234=VERTEX_POINT('',#485);
#235=VERTEX_POINT('',#487);
#236=VERTEX_POINT('',#491);
#237=VERTEX_POINT('',#492);
#238=VERTEX_POINT('',#495);
#239=VERTEX_POINT('',#497);
#240=VERTEX_POINT('',#499);
#241=CIRCLE('',#326,0.002);
#242=CIRCLE('',#327,0.002);
#243=CIRCLE('',#328,0.0072);
#244=CIRCLE('',#330,0.002);
#245=CIRCLE('',#331,0.0072);
#246=CIRCLE('',#332,0.002);
#247=EDGE_LOOP('',(#87,#88,#89,#90));
#248=EDGE_LOOP('',(#91,#92,#93,#94));
#249=EDGE_LOOP('',(#95,#96,#97,#98));
#250=EDGE_LOOP('',(#99,#100,#101,#102));
#251=EDGE_LOOP('',(#103,#104,#105,#106));
#252=EDGE_LOOP('',(#107,#108,#109,#110));
#253=EDGE_LOOP('',(#111,#112,#113,#114));
#254=EDGE_LOOP('',(#115,#116,#117,#118,#119,#120,#121,#122,#123,#124));
#255=EDGE_LOOP('',(#125,#126,#127,#128,#129,#130,#131,#132,#133,#134));
#256=EDGE_LOOP('',(#135,#136,#137,#138));
#257=EDGE_LOOP('',(#139,#140,#141,#142));
#258=EDGE_LOOP('',(#143,#144,#145,#146));
#259=EDGE_LOOP('',(#147,#148,#149,#150));
#260=EDGE_LOOP('',(#151,#152,#153,#154));
#261=EDGE_LOOP('',(#155,#156,#157,#158));
#262=EDGE_LOOP('',(#159,#160,#161,#162));
#263=EDGE_LOOP('',(#163,#164,#165,#166));
#264=EDGE_LOOP('',(#167,#168,#169,#170));
#265=FACE_BOUND('',#247,.T.);
#266=FACE_BOUND('',#248,.T.);
#267=FACE_BOUND('',#249,.T.);
#268=FACE_BOUND('',#250,.T.);
#269=FACE_BOUND('',#251,.T.);
#270=FACE_BOUND('',#252,.T.);
#271=FACE_BOUND('',#253,.T.);
#272=FACE_BOUND('',#254,.T.);
#273=FACE_BOUND('',#255,.T.);
#274=FACE_BOUND('',#256,.T.);
#275=FACE_BOUND('',#257,.T.);
#276=FACE_BOUND('',#258,.T.);
#277=FACE_BOUND('',#259,.T.);
#278=FACE_BOUND('',#260,.T.);
#279=FACE_BOUND('',#261,.T.);
#280=FACE_BOUND('',#262,.T.);
#281=FACE_BOUND('',#263,.T.);
#282=FACE_BOUND('',#264,.T.);
#283=PLANE('',#325);
#284=PLANE('',#329);
#285=PLANE('',#334);
#286=PLANE('',#335);
#287=PLANE('',#336);
#288=PLANE('',#337);
#289=PLANE('',#338);
#290=PLANE('',#339);
#291=PLANE('',#340);
#292=PLANE('',#342);
#293=PLANE('',#343);
#294=PLANE('',#344);
#295=PLANE('',#345);
#296=ADVANCED_FACE('',(#265,#266),#283,.T.);
#297=ADVANCED_FACE('',(#267,#268),#284,.F.);
#298=ADVANCED_FACE('',(#269),#12,.T.);
#299=ADVANCED_FACE('',(#270),#285,.F.);
#300=ADVANCED_FACE('',(#271),#286,.T.);
#301=ADVANCED_FACE('',(#272),#287,.F.);
#302=ADVANCED_FACE('',(#273),#288,.T.);
#303=ADVANCED_FACE('',(#274),#289,.T.);
#304=ADVANCED_FACE('',(#275),#290,.F.);
#305=ADVANCED_FACE('',(#276),#291,.F.);
#306=ADVANCED_FACE('',(#277),#13,.T.);
#307=ADVANCED_FACE('',(#278),#292,.T.);
#308=ADVANCED_FACE('',(#279),#293,.T.);
#309=ADVANCED_FACE('',(#280),#294,.F.);
#310=ADVANCED_FACE('',(#281),#295,.F.);
#311=ADVANCED_FACE('',(#282),#14,.T.);
#312=CLOSED_SHELL('',(#296,#297,#298,#299,#300,#301,#302,#303,#304,#305,
#306,#307,#308,#309,#310,#311));
#313=STYLED_ITEM('',(#314),#321);
#314=PRESENTATION_STYLE_ASSIGNMENT((#315));
#315=SURFACE_STYLE_USAGE(.BOTH.,#316);
#316=SURFACE_SIDE_STYLE('',(#317));
#317=SURFACE_STYLE_FILL_AREA(#318);
#318=FILL_AREA_STYLE('',(#319));
#319=FILL_AREA_STYLE_COLOUR('',#320);
#320=COLOUR_RGB('',0.647058823529412,0.647058823529412,0.647058823529412);
#321=MANIFOLD_SOLID_BREP('CaseLockUpper',#312);
#322=SHAPE_DEFINITION_REPRESENTATION(#522,#323);
#323=SHAPE_REPRESENTATION('CaseLockUpper',(#324),#517);
#324=AXIS2_PLACEMENT_3D('',#429,#347,#348);
#325=AXIS2_PLACEMENT_3D('',#430,#349,#350);
#326=AXIS2_PLACEMENT_3D('',#431,#351,#352);
#327=AXIS2_PLACEMENT_3D('',#436,#354,#355);
#328=AXIS2_PLACEMENT_3D('',#438,#356,#357);
#329=AXIS2_PLACEMENT_3D('',#447,#362,#363);
#330=AXIS2_PLACEMENT_3D('',#451,#365,#366);
#331=AXIS2_PLACEMENT_3D('',#453,#367,#368);
#332=AXIS2_PLACEMENT_3D('',#455,#369,#370);
#333=AXIS2_PLACEMENT_3D('',#464,#375,#376);
#334=AXIS2_PLACEMENT_3D('',#467,#379,#380);
#335=AXIS2_PLACEMENT_3D('',#470,#383,#384);
#336=AXIS2_PLACEMENT_3D('',#476,#388,#389);
#337=AXIS2_PLACEMENT_3D('',#489,#397,#398);
#338=AXIS2_PLACEMENT_3D('',#502,#406,#407);
#339=AXIS2_PLACEMENT_3D('',#505,#410,#411);
#340=AXIS2_PLACEMENT_3D('',#506,#412,#413);
#341=AXIS2_PLACEMENT_3D('',#507,#414,#415);
#342=AXIS2_PLACEMENT_3D('',#508,#416,#417);
#343=AXIS2_PLACEMENT_3D('',#510,#419,#420);
#344=AXIS2_PLACEMENT_3D('',#513,#423,#424);
#345=AXIS2_PLACEMENT_3D('',#514,#425,#426);
#346=AXIS2_PLACEMENT_3D('',#515,#427,#428);
#347=DIRECTION('',(0.,0.,1.));
#348=DIRECTION('',(1.,0.,0.));
#349=DIRECTION('',(0.,0.,1.));
#350=DIRECTION('',(1.,0.,0.));
#351=DIRECTION('',(0.,0.,-1.));
#352=DIRECTION('',(-1.,0.,0.));
#353=DIRECTION('',(-1.,0.,0.));
#354=DIRECTION('',(0.,0.,1.));
#355=DIRECTION('',(1.,0.,0.));
#356=DIRECTION('',(0.,0.,-1.));
#357=DIRECTION('',(1.,0.,0.));
#358=DIRECTION('',(-1.,0.,0.));
#359=DIRECTION('',(2.01712032090326E-16,1.,0.));
#360=DIRECTION('',(-1.,0.,0.));
#361=DIRECTION('',(-2.01712032090326E-16,1.,0.));
#362=DIRECTION('',(0.,0.,1.));
#363=DIRECTION('',(1.,0.,0.));
#364=DIRECTION('',(-1.,0.,0.));
#365=DIRECTION('',(0.,0.,-1.));
#366=DIRECTION('',(-1.,0.,0.));
#367=DIRECTION('',(0.,0.,-1.));
#368=DIRECTION('',(1.,0.,0.));
#369=DIRECTION('',(0.,0.,1.));
#370=DIRECTION('',(1.,0.,0.));
#371=DIRECTION('',(0.,-1.,0.));
#372=DIRECTION('',(1.,0.,0.));
#373=DIRECTION('',(0.,-1.,0.));
#374=DIRECTION('',(1.,0.,0.));
#375=DIRECTION('',(0.,0.,-1.));
#376=DIRECTION('',(-1.,0.,0.));
#377=DIRECTION('',(0.,0.,-1.));
#378=DIRECTION('',(0.,0.,-1.));
#379=DIRECTION('',(0.,-1.,0.));
#380=DIRECTION('',(0.,0.,-1.));
#381=DIRECTION('',(0.,0.,1.));
#382=DIRECTION('',(0.,0.,1.));
#383=DIRECTION('',(1.,0.,0.));
#384=DIRECTION('',(0.,0.,-1.));
#385=DIRECTION('',(0.,1.,0.));
#386=DIRECTION('',(0.,0.,1.));
#387=DIRECTION('',(0.,0.,1.));
#388=DIRECTION('',(0.,1.,0.));
#389=DIRECTION('',(0.,0.,1.));
#390=DIRECTION('',(-0.422618261740699,0.,0.90630778703665));
#391=DIRECTION('',(0.,0.,-1.));
#392=DIRECTION('',(-1.,0.,0.));
#393=DIRECTION('',(0.,0.,1.));
#394=DIRECTION('',(1.,0.,0.));
#395=DIRECTION('',(0.,0.,-1.));
#396=DIRECTION('',(0.422618261740699,0.,0.90630778703665));
#397=DIRECTION('',(0.,1.,0.));
#398=DIRECTION('',(0.,0.,1.));
#399=DIRECTION('',(0.,0.,-1.));
#400=DIRECTION('',(0.422618261740699,0.,-0.90630778703665));
#401=DIRECTION('',(-0.422618261740699,0.,-0.90630778703665));
#402=DIRECTION('',(0.,0.,-1.));
#403=DIRECTION('',(1.,0.,0.));
#404=DIRECTION('',(0.,0.,1.));
#405=DIRECTION('',(-1.,0.,0.));
#406=DIRECTION('',(1.,2.01712032090326E-16,0.));
#407=DIRECTION('',(-2.01712032090326E-16,1.,0.));
#408=DIRECTION('',(2.01712032090326E-16,-1.,0.));
#409=DIRECTION('',(2.01712032090326E-16,-1.,0.));
#410=DIRECTION('',(0.,0.,1.));
#411=DIRECTION('',(1.,0.,0.));
#412=DIRECTION('',(-0.90630778703665,-1.82813185422449E-16,-0.422618261740699));
#413=DIRECTION('',(2.01712032090326E-16,-1.,0.));
#414=DIRECTION('',(0.,0.,-1.));
#415=DIRECTION('',(-1.,0.,0.));
#416=DIRECTION('',(-1.,0.,0.));
#417=DIRECTION('',(0.,0.,-1.));
#418=DIRECTION('',(0.,1.,0.));
#419=DIRECTION('',(-1.,2.01712032090326E-16,0.));
#420=DIRECTION('',(2.01712032090326E-16,1.,0.));
#421=DIRECTION('',(-2.01712032090326E-16,-1.,0.));
#422=DIRECTION('',(-2.01712032090326E-16,-1.,0.));
#423=DIRECTION('',(0.,0.,1.));
#424=DIRECTION('',(-1.,0.,0.));
#425=DIRECTION('',(0.90630778703665,-1.82813185422449E-16,-0.422618261740699));
#426=DIRECTION('',(-2.01712032090326E-16,-1.,0.));
#427=DIRECTION('',(0.,0.,-1.));
#428=DIRECTION('',(1.,0.,0.));
#429=CARTESIAN_POINT('',(0.,0.,0.));
#430=CARTESIAN_POINT('',(-0.022675,0.000825,0.0037));
#431=CARTESIAN_POINT('',(0.0048,0.0207,0.0037));
#432=CARTESIAN_POINT('',(0.0048,0.0227,0.0037));
#433=CARTESIAN_POINT('',(0.00664615384615385,0.0199307692307692,0.0037));
#434=CARTESIAN_POINT('',(-0.0036,0.0227,0.0037));
#435=CARTESIAN_POINT('',(-0.0048,0.0227,0.0037));
#436=CARTESIAN_POINT('',(-0.0048,0.0207,0.0037));
#437=CARTESIAN_POINT('',(-0.00664615384615385,0.0199307692307692,0.0037));
#438=CARTESIAN_POINT('',(-1.21430643318376E-17,0.0227,0.0037));
#439=CARTESIAN_POINT('',(-0.001075,0.020775,0.0037));
#440=CARTESIAN_POINT('',(0.00309427300776387,0.020775,0.0037));
#441=CARTESIAN_POINT('',(-0.00309427300776387,0.020775,0.0037));
#442=CARTESIAN_POINT('',(0.00309427300776387,0.000825,0.0037));
#443=CARTESIAN_POINT('',(0.00309427300776387,0.018625,0.0037));
#444=CARTESIAN_POINT('',(-0.001075,0.018625,0.0037));
#445=CARTESIAN_POINT('',(-0.00309427300776387,0.018625,0.0037));
#446=CARTESIAN_POINT('',(-0.00309427300776387,0.000825,0.0037));
#447=CARTESIAN_POINT('',(-0.022675,0.000825,0.));
#448=CARTESIAN_POINT('',(-0.0036,0.0227,0.));
#449=CARTESIAN_POINT('',(0.0048,0.0227,0.));
#450=CARTESIAN_POINT('',(-0.0048,0.0227,0.));
#451=CARTESIAN_POINT('',(0.0048,0.0207,0.));
#452=CARTESIAN_POINT('',(0.00664615384615385,0.0199307692307692,0.));
#453=CARTESIAN_POINT('',(-1.21430643318376E-17,0.0227,0.));
#454=CARTESIAN_POINT('',(-0.00664615384615385,0.0199307692307692,0.));
#455=CARTESIAN_POINT('',(-0.0048,0.0207,0.));
#456=CARTESIAN_POINT('',(0.0031,0.0197,0.));
#457=CARTESIAN_POINT('',(0.0031,0.020775,0.));
#458=CARTESIAN_POINT('',(0.0031,0.018625,0.));
#459=CARTESIAN_POINT('',(-0.001075,0.020775,0.));
#460=CARTESIAN_POINT('',(-0.0031,0.020775,0.));
#461=CARTESIAN_POINT('',(-0.0031,0.0197,0.));
#462=CARTESIAN_POINT('',(-0.0031,0.018625,0.));
#463=CARTESIAN_POINT('',(-0.001075,0.018625,0.));
#464=CARTESIAN_POINT('',(-1.21430643318376E-17,0.0227,0.0037));
#465=CARTESIAN_POINT('',(-0.00664615384615385,0.0199307692307692,0.0037));
#466=CARTESIAN_POINT('',(0.00664615384615385,0.0199307692307692,0.0037));
#467=CARTESIAN_POINT('',(-0.0036,0.0227,0.0037));
#468=CARTESIAN_POINT('',(-0.0048,0.0227,0.0037));
#469=CARTESIAN_POINT('',(0.0048,0.0227,0.0037));
#470=CARTESIAN_POINT('',(-0.0031,0.0197,-1.99999999999983E-6));
#471=CARTESIAN_POINT('',(-0.0031,0.0197,0.000758333333333333));
#472=CARTESIAN_POINT('',(-0.0031,0.018625,0.000758333333333333));
#473=CARTESIAN_POINT('',(-0.0031,0.020775,0.000758333333333333));
#474=CARTESIAN_POINT('',(-0.0031,0.018625,-1.99999999999983E-6));
#475=CARTESIAN_POINT('',(-0.0031,0.020775,-1.99999999999983E-6));
#476=CARTESIAN_POINT('',(-0.001075,0.020775,-1.99999999999983E-6));
#477=CARTESIAN_POINT('',(-0.00131567007465125,0.020775,-0.000114226298898613));
#478=CARTESIAN_POINT('',(-0.00215,0.020775,0.001675));
#479=CARTESIAN_POINT('',(-0.00215,0.020775,0.003702));
#480=CARTESIAN_POINT('',(-0.00215,0.020775,0.000758333333333333));
#481=CARTESIAN_POINT('',(-0.002625,0.020775,0.000758333333333333));
#482=CARTESIAN_POINT('',(0.0031,0.020775,-1.99999999999983E-6));
#483=CARTESIAN_POINT('',(0.0031,0.020775,0.000758333333333333));
#484=CARTESIAN_POINT('',(0.002625,0.020775,0.000758333333333333));
#485=CARTESIAN_POINT('',(0.00215,0.020775,0.000758333333333333));
#486=CARTESIAN_POINT('',(0.00215,0.020775,0.003702));
#487=CARTESIAN_POINT('',(0.00215,0.020775,0.001675));
#488=CARTESIAN_POINT('',(0.00131567007465125,0.020775,-0.000114226298898613));
#489=CARTESIAN_POINT('',(-0.001075,0.018625,-1.99999999999983E-6));
#490=CARTESIAN_POINT('',(-0.00215,0.018625,0.003702));
#491=CARTESIAN_POINT('',(-0.00215,0.018625,0.001675));
#492=CARTESIAN_POINT('',(-0.00215,0.018625,0.000758333333333333));
#493=CARTESIAN_POINT('',(-0.00215,0.018625,0.001675));
#494=CARTESIAN_POINT('',(0.00215,0.018625,0.001675));
#495=CARTESIAN_POINT('',(0.00215,0.018625,0.001675));
#496=CARTESIAN_POINT('',(0.00215,0.018625,0.003702));
#497=CARTESIAN_POINT('',(0.00215,0.018625,0.000758333333333333));
#498=CARTESIAN_POINT('',(0.002625,0.018625,0.000758333333333333));
#499=CARTESIAN_POINT('',(0.0031,0.018625,0.000758333333333333));
#500=CARTESIAN_POINT('',(0.0031,0.018625,-1.99999999999983E-6));
#501=CARTESIAN_POINT('',(-0.002625,0.018625,0.000758333333333333));
#502=CARTESIAN_POINT('',(-0.00215,0.0197,0.003702));
#503=CARTESIAN_POINT('',(-0.00215,0.0197,0.001675));
#504=CARTESIAN_POINT('',(-0.00215,0.0197,0.000758333333333333));
#505=CARTESIAN_POINT('',(-0.022675,0.000825,0.000758333333333333));
#506=CARTESIAN_POINT('',(-0.00215,0.0197,0.001675));
#507=CARTESIAN_POINT('',(-0.0048,0.0207,0.0037));
#508=CARTESIAN_POINT('',(0.0031,0.0197,-1.99999999999983E-6));
#509=CARTESIAN_POINT('',(0.0031,0.0197,0.000758333333333333));
#510=CARTESIAN_POINT('',(0.00215,0.0197,0.003702));
#511=CARTESIAN_POINT('',(0.00215,0.0197,0.000758333333333333));
#512=CARTESIAN_POINT('',(0.00215,0.0197,0.001675));
#513=CARTESIAN_POINT('',(0.022675,0.000825,0.000758333333333333));
#514=CARTESIAN_POINT('',(0.00215,0.0197,0.001675));
#515=CARTESIAN_POINT('',(0.0048,0.0207,0.0037));
#516=MECHANICAL_DESIGN_GEOMETRIC_PRESENTATION_REPRESENTATION('',(#313),
#517);
#517=(
GEOMETRIC_REPRESENTATION_CONTEXT(3)
GLOBAL_UNCERTAINTY_ASSIGNED_CONTEXT((#518))
GLOBAL_UNIT_ASSIGNED_CONTEXT((#521,#520,#519))
REPRESENTATION_CONTEXT('CaseLockUpper','TOP_LEVEL_ASSEMBLY_PART')
);
#518=UNCERTAINTY_MEASURE_WITH_UNIT(LENGTH_MEASURE(1.E-8),#521,
'DISTANCE_ACCURACY_VALUE','Maximum Tolerance applied to model');
#519=(
NAMED_UNIT(*)
SI_UNIT($,.STERADIAN.)
SOLID_ANGLE_UNIT()
);
#520=(
NAMED_UNIT(*)
PLANE_ANGLE_UNIT()
SI_UNIT($,.RADIAN.)
);
#521=(
LENGTH_UNIT()
NAMED_UNIT(*)
SI_UNIT($,.METRE.)
);
#522=PRODUCT_DEFINITION_SHAPE('','',#523);
#523=PRODUCT_DEFINITION('','',#525,#524);
#524=PRODUCT_DEFINITION_CONTEXT('',#531,'design');
#525=PRODUCT_DEFINITION_FORMATION_WITH_SPECIFIED_SOURCE('','',#527,
 .NOT_KNOWN.);
#526=PRODUCT_RELATED_PRODUCT_CATEGORY('','',(#527));
#527=PRODUCT('CaseLockUpper','CaseLockUpper','CaseLockUpper',(#529));
#528=PRODUCT_CATEGORY('','');
#529=PRODUCT_CONTEXT('',#531,'mechanical');
#530=APPLICATION_PROTOCOL_DEFINITION('international standard',
'ap242_managed_model_based_3d_engineering',2020,#531);
#531=APPLICATION_CONTEXT('managed model based 3d engineering');
ENDSEC;
END-ISO-10303-21;
