ISO-10303-21;
HEADER;
/* Generated by software containing ST-Developer
 * from STEP Tools, Inc. (www.steptools.com) 
 */
/* OPTION: using custom renumber hook */

FILE_DESCRIPTION(
/* description */ ('STEP AP242 Edition 2',
'CAx-IF Rec.Pracs.---Representation and Presentation of Product Manufa
cturing Information (PMI)---4.0---2014-10-13',
'CAx-IF Rec.Pracs.---3D Tessellated Geometry---0.4---2014-09-14','2;1',
'CAx-IF Rec.Pracs.---User Defined Attributes---1.5---2016-08-15'),
/* implementation_level */ '2;1');

FILE_NAME(
/* name */ 'MunchMoir - Base',
/* time_stamp */ '2026-09-19T09:01:34Z',
/* author */ (''),
/* organization */ (''),
/* preprocessor_version */ 'ST-DEVELOPER v20',
/* originating_system */ 'ONSHAPE BY PTC INC, 1.221',
/* authorisation */ '  ');

FILE_SCHEMA (('AP242_MANAGED_MODEL_BASED_3D_ENGINEERING_MIM_LF { 1 0 10303 442 3 1 4 }'));
ENDSEC;

DATA;
#10=SHAPE_REPRESENTATION_RELATIONSHIP('','',#513,#11);
#11=ADVANCED_BREP_SHAPE_REPRESENTATION('',(#511),#977);
#12=SPHERICAL_SURFACE('',#549,0.001);
#13=SPHERICAL_SURFACE('',#563,0.001);
#14=SPHERICAL_SURFACE('',#577,0.001);
#15=CONICAL_SURFACE('',#536,0.0053,0.785398163397448);
#16=CONICAL_SURFACE('',#538,0.003775,0.785398163397448);
#17=CONICAL_SURFACE('',#546,0.00165,0.785398163397448);
#18=CONICAL_SURFACE('',#550,0.0053,0.785398163397448);
#19=CONICAL_SURFACE('',#552,0.003775,0.785398163397448);
#20=CONICAL_SURFACE('',#560,0.00165,0.785398163397448);
#21=CONICAL_SURFACE('',#564,0.0053,0.785398163397448);
#22=CONICAL_SURFACE('',#566,0.003775,0.785398163397448);
#23=CONICAL_SURFACE('',#574,0.00165,0.785398163397448);
#24=CONICAL_SURFACE('',#585,0.00153333333333333,0.872664625997166);
#25=CONICAL_SURFACE('',#586,0.0018,1.0471975511966);
#26=ELLIPSE('',#527,0.0425319250520355,0.0227355643390898);
#27=ELLIPSE('',#528,0.0425319250520355,0.0227355643390898);
#28=ELLIPSE('',#534,0.0425319250520355,0.0227355643390898);
#29=ELLIPSE('',#535,0.0425319250520355,0.0227355643390898);
#30=PLANE('',#524);
#31=PLANE('',#533);
#32=PLANE('',#540);
#33=PLANE('',#544);
#34=PLANE('',#554);
#35=PLANE('',#558);
#36=PLANE('',#568);
#37=PLANE('',#572);
#38=PLANE('',#581);
#39=PLANE('',#583);
#40=B_SPLINE_CURVE_WITH_KNOTS('',3,(#773,#774,#775,#776),.UNSPECIFIED.,
 .F.,.F.,(4,4),(0.,0.382390746831277),.PIECEWISE_BEZIER_KNOTS.);
#41=B_SPLINE_CURVE_WITH_KNOTS('',3,(#780,#781,#782,#783),.UNSPECIFIED.,
 .F.,.F.,(4,4),(0.,0.382390746831277),.PIECEWISE_BEZIER_KNOTS.);
#42=B_SPLINE_CURVE_WITH_KNOTS('',3,(#792,#793,#794,#795),.UNSPECIFIED.,
 .F.,.F.,(4,4),(0.382390746831277,1.),.PIECEWISE_BEZIER_KNOTS.);
#43=B_SPLINE_CURVE_WITH_KNOTS('',3,(#799,#800,#801,#802),.UNSPECIFIED.,
 .F.,.F.,(4,4),(0.382390746831277,1.),.PIECEWISE_BEZIER_KNOTS.);
#44=B_SPLINE_CURVE_WITH_KNOTS('',3,(#811,#812,#813,#814),.UNSPECIFIED.,
 .F.,.F.,(4,4),(0.382390746831277,1.),.PIECEWISE_BEZIER_KNOTS.);
#45=B_SPLINE_CURVE_WITH_KNOTS('',3,(#816,#817,#818,#819),.UNSPECIFIED.,
 .F.,.F.,(4,4),(0.,0.382390746831277),.PIECEWISE_BEZIER_KNOTS.);
#46=B_SPLINE_CURVE_WITH_KNOTS('',3,(#831,#832,#833,#834),.UNSPECIFIED.,
 .F.,.F.,(4,4),(0.,0.382390746831277),.PIECEWISE_BEZIER_KNOTS.);
#47=B_SPLINE_CURVE_WITH_KNOTS('',3,(#836,#837,#838,#839),.UNSPECIFIED.,
 .F.,.F.,(4,4),(0.382390746831277,1.),.PIECEWISE_BEZIER_KNOTS.);
#48=B_SPLINE_SURFACE_WITH_KNOTS('',3,1,((#765,#766),(#767,#768),(#769,#770),
(#771,#772)),.SURF_OF_LINEAR_EXTRUSION.,.F.,.F.,.F.,(4,4),(2,2),(0.,0.382390746831277),
(0.,1.),.PIECEWISE_BEZIER_KNOTS.);
#49=B_SPLINE_SURFACE_WITH_KNOTS('',3,1,((#784,#785),(#786,#787),(#788,#789),
(#790,#791)),.SURF_OF_LINEAR_EXTRUSION.,.F.,.F.,.F.,(4,4),(2,2),(0.382390746831277,
1.),(0.,1.),.PIECEWISE_BEZIER_KNOTS.);
#50=B_SPLINE_SURFACE_WITH_KNOTS('',3,1,((#861,#862),(#863,#864),(#865,#866),
(#867,#868)),.SURF_OF_LINEAR_EXTRUSION.,.F.,.F.,.F.,(4,4),(2,2),(0.,0.382390746831277),
(0.,1.),.PIECEWISE_BEZIER_KNOTS.);
#51=B_SPLINE_SURFACE_WITH_KNOTS('',3,1,((#870,#871),(#872,#873),(#874,#875),
(#876,#877)),.SURF_OF_LINEAR_EXTRUSION.,.F.,.F.,.F.,(4,4),(2,2),(0.382390746831277,
1.),(0.,1.),.PIECEWISE_BEZIER_KNOTS.);
#52=B_SPLINE_SURFACE_WITH_KNOTS('',3,1,((#898,#899),(#900,#901),(#902,#903),
(#904,#905),(#906,#907),(#908,#909),(#910,#911),(#912,#913),(#914,#915),
(#916,#917),(#918,#919)),.SURF_OF_LINEAR_EXTRUSION.,.F.,.F.,.F.,(4,1,1,
1,1,1,1,1,4),(2,2),(0.113623995527022,0.224420996086144,0.335217996645266,
0.446014997204389,0.556811997763511,0.667608998322633,0.778405998881756,
0.889202999440878,1.),(0.,1.),.UNSPECIFIED.);
#53=B_SPLINE_SURFACE_WITH_KNOTS('',3,1,((#921,#922),(#923,#924),(#925,#926),
(#927,#928),(#929,#930),(#931,#932),(#933,#934),(#935,#936),(#937,#938),
(#939,#940),(#941,#942)),.SURF_OF_LINEAR_EXTRUSION.,.F.,.F.,.F.,(4,1,1,
1,1,1,1,1,4),(2,2),(0.113623995527022,0.224420996086144,0.335217996645266,
0.446014997204389,0.556811997763511,0.667608998322633,0.778405998881755,
0.889202999440878,1.),(0.,1.),.UNSPECIFIED.);
#54=LINE('',#748,#62);
#55=LINE('',#753,#63);
#56=LINE('',#760,#64);
#57=LINE('',#764,#65);
#58=LINE('',#778,#66);
#59=LINE('',#797,#67);
#60=LINE('',#869,#68);
#61=LINE('',#920,#69);
#62=VECTOR('',#597,1.);
#63=VECTOR('',#600,1.);
#64=VECTOR('',#607,1.);
#65=VECTOR('',#610,1.);
#66=VECTOR('',#611,1.);
#67=VECTOR('',#612,1.);
#68=VECTOR('',#665,1.);
#69=VECTOR('',#694,1.);
#70=ORIENTED_EDGE('',*,*,#178,.T.);
#71=ORIENTED_EDGE('',*,*,#179,.F.);
#72=ORIENTED_EDGE('',*,*,#180,.T.);
#73=ORIENTED_EDGE('',*,*,#181,.F.);
#74=ORIENTED_EDGE('',*,*,#182,.F.);
#75=ORIENTED_EDGE('',*,*,#183,.T.);
#76=ORIENTED_EDGE('',*,*,#184,.F.);
#77=ORIENTED_EDGE('',*,*,#185,.T.);
#78=ORIENTED_EDGE('',*,*,#186,.T.);
#79=ORIENTED_EDGE('',*,*,#187,.F.);
#80=ORIENTED_EDGE('',*,*,#188,.T.);
#81=ORIENTED_EDGE('',*,*,#189,.F.);
#82=ORIENTED_EDGE('',*,*,#190,.F.);
#83=ORIENTED_EDGE('',*,*,#187,.T.);
#84=ORIENTED_EDGE('',*,*,#191,.T.);
#85=ORIENTED_EDGE('',*,*,#192,.F.);
#86=ORIENTED_EDGE('',*,*,#193,.F.);
#87=ORIENTED_EDGE('',*,*,#189,.T.);
#88=ORIENTED_EDGE('',*,*,#178,.F.);
#89=ORIENTED_EDGE('',*,*,#194,.F.);
#90=ORIENTED_EDGE('',*,*,#195,.F.);
#91=ORIENTED_EDGE('',*,*,#183,.F.);
#92=ORIENTED_EDGE('',*,*,#196,.T.);
#93=ORIENTED_EDGE('',*,*,#197,.F.);
#94=ORIENTED_EDGE('',*,*,#184,.T.);
#95=ORIENTED_EDGE('',*,*,#190,.T.);
#96=ORIENTED_EDGE('',*,*,#193,.T.);
#97=ORIENTED_EDGE('',*,*,#198,.F.);
#98=ORIENTED_EDGE('',*,*,#199,.F.);
#99=ORIENTED_EDGE('',*,*,#200,.F.);
#100=ORIENTED_EDGE('',*,*,#201,.F.);
#101=ORIENTED_EDGE('',*,*,#202,.T.);
#102=ORIENTED_EDGE('',*,*,#203,.T.);
#103=ORIENTED_EDGE('',*,*,#204,.F.);
#104=ORIENTED_EDGE('',*,*,#181,.T.);
#105=ORIENTED_EDGE('',*,*,#205,.T.);
#106=ORIENTED_EDGE('',*,*,#206,.T.);
#107=ORIENTED_EDGE('',*,*,#191,.F.);
#108=ORIENTED_EDGE('',*,*,#188,.F.);
#109=ORIENTED_EDGE('',*,*,#186,.F.);
#110=ORIENTED_EDGE('',*,*,#207,.T.);
#111=ORIENTED_EDGE('',*,*,#201,.T.);
#112=ORIENTED_EDGE('',*,*,#208,.T.);
#113=ORIENTED_EDGE('',*,*,#208,.F.);
#114=ORIENTED_EDGE('',*,*,#209,.F.);
#115=ORIENTED_EDGE('',*,*,#210,.F.);
#116=ORIENTED_EDGE('',*,*,#209,.T.);
#117=ORIENTED_EDGE('',*,*,#211,.T.);
#118=ORIENTED_EDGE('',*,*,#210,.T.);
#119=ORIENTED_EDGE('',*,*,#212,.T.);
#120=ORIENTED_EDGE('',*,*,#211,.F.);
#121=ORIENTED_EDGE('',*,*,#212,.F.);
#122=ORIENTED_EDGE('',*,*,#213,.T.);
#123=ORIENTED_EDGE('',*,*,#200,.T.);
#124=ORIENTED_EDGE('',*,*,#213,.F.);
#125=ORIENTED_EDGE('',*,*,#205,.F.);
#126=ORIENTED_EDGE('',*,*,#180,.F.);
#127=ORIENTED_EDGE('',*,*,#199,.T.);
#128=ORIENTED_EDGE('',*,*,#214,.T.);
#129=ORIENTED_EDGE('',*,*,#206,.F.);
#130=ORIENTED_EDGE('',*,*,#214,.F.);
#131=ORIENTED_EDGE('',*,*,#198,.T.);
#132=ORIENTED_EDGE('',*,*,#192,.T.);
#133=ORIENTED_EDGE('',*,*,#203,.F.);
#134=ORIENTED_EDGE('',*,*,#215,.F.);
#135=ORIENTED_EDGE('',*,*,#215,.T.);
#136=ORIENTED_EDGE('',*,*,#216,.T.);
#137=ORIENTED_EDGE('',*,*,#217,.T.);
#138=ORIENTED_EDGE('',*,*,#216,.F.);
#139=ORIENTED_EDGE('',*,*,#218,.F.);
#140=ORIENTED_EDGE('',*,*,#217,.F.);
#141=ORIENTED_EDGE('',*,*,#219,.F.);
#142=ORIENTED_EDGE('',*,*,#218,.T.);
#143=ORIENTED_EDGE('',*,*,#219,.T.);
#144=ORIENTED_EDGE('',*,*,#220,.F.);
#145=ORIENTED_EDGE('',*,*,#202,.F.);
#146=ORIENTED_EDGE('',*,*,#220,.T.);
#147=ORIENTED_EDGE('',*,*,#185,.F.);
#148=ORIENTED_EDGE('',*,*,#197,.T.);
#149=ORIENTED_EDGE('',*,*,#221,.T.);
#150=ORIENTED_EDGE('',*,*,#207,.F.);
#151=ORIENTED_EDGE('',*,*,#196,.F.);
#152=ORIENTED_EDGE('',*,*,#182,.T.);
#153=ORIENTED_EDGE('',*,*,#204,.T.);
#154=ORIENTED_EDGE('',*,*,#221,.F.);
#155=ORIENTED_EDGE('',*,*,#195,.T.);
#156=ORIENTED_EDGE('',*,*,#222,.T.);
#157=ORIENTED_EDGE('',*,*,#222,.F.);
#158=ORIENTED_EDGE('',*,*,#223,.T.);
#159=ORIENTED_EDGE('',*,*,#224,.F.);
#160=ORIENTED_EDGE('',*,*,#223,.F.);
#161=ORIENTED_EDGE('',*,*,#225,.T.);
#162=ORIENTED_EDGE('',*,*,#224,.T.);
#163=ORIENTED_EDGE('',*,*,#226,.T.);
#164=ORIENTED_EDGE('',*,*,#225,.F.);
#165=ORIENTED_EDGE('',*,*,#226,.F.);
#166=ORIENTED_EDGE('',*,*,#227,.T.);
#167=ORIENTED_EDGE('',*,*,#194,.T.);
#168=ORIENTED_EDGE('',*,*,#227,.F.);
#169=ORIENTED_EDGE('',*,*,#228,.T.);
#170=ORIENTED_EDGE('',*,*,#229,.T.);
#171=ORIENTED_EDGE('',*,*,#230,.T.);
#172=ORIENTED_EDGE('',*,*,#179,.T.);
#173=ORIENTED_EDGE('',*,*,#231,.T.);
#174=ORIENTED_EDGE('',*,*,#229,.F.);
#175=ORIENTED_EDGE('',*,*,#231,.F.);
#176=ORIENTED_EDGE('',*,*,#230,.F.);
#177=ORIENTED_EDGE('',*,*,#228,.F.);
#178=EDGE_CURVE('',#232,#232,#278,.T.);
#179=EDGE_CURVE('',#233,#233,#279,.T.);
#180=EDGE_CURVE('',#234,#235,#54,.T.);
#181=EDGE_CURVE('',#236,#235,#280,.T.);
#182=EDGE_CURVE('',#237,#236,#55,.T.);
#183=EDGE_CURVE('',#237,#234,#281,.T.);
#184=EDGE_CURVE('',#238,#239,#282,.T.);
#185=EDGE_CURVE('',#238,#240,#56,.T.);
#186=EDGE_CURVE('',#240,#241,#283,.T.);
#187=EDGE_CURVE('',#239,#241,#57,.T.);
#188=EDGE_CURVE('',#241,#242,#40,.T.);
#189=EDGE_CURVE('',#243,#242,#58,.T.);
#190=EDGE_CURVE('',#239,#243,#41,.T.);
#191=EDGE_CURVE('',#242,#244,#42,.T.);
#192=EDGE_CURVE('',#245,#244,#59,.T.);
#193=EDGE_CURVE('',#243,#245,#43,.T.);
#194=EDGE_CURVE('',#246,#246,#284,.T.);
#195=EDGE_CURVE('',#247,#247,#285,.T.);
#196=EDGE_CURVE('',#237,#248,#26,.T.);
#197=EDGE_CURVE('',#238,#248,#27,.T.);
#198=EDGE_CURVE('',#249,#245,#44,.T.);
#199=EDGE_CURVE('',#234,#249,#45,.T.);
#200=EDGE_CURVE('',#250,#250,#286,.T.);
#201=EDGE_CURVE('',#251,#251,#287,.T.);
#202=EDGE_CURVE('',#252,#252,#288,.T.);
#203=EDGE_CURVE('',#253,#253,#289,.T.);
#204=EDGE_CURVE('',#236,#254,#28,.T.);
#205=EDGE_CURVE('',#235,#255,#46,.T.);
#206=EDGE_CURVE('',#255,#244,#47,.T.);
#207=EDGE_CURVE('',#240,#254,#29,.T.);
#208=EDGE_CURVE('',#256,#256,#290,.T.);
#209=EDGE_CURVE('',#257,#257,#291,.T.);
#210=EDGE_CURVE('',#258,#258,#292,.T.);
#211=EDGE_CURVE('',#259,#259,#293,.F.);
#212=EDGE_CURVE('',#260,#260,#294,.T.);
#213=EDGE_CURVE('',#261,#261,#295,.T.);
#214=EDGE_CURVE('',#249,#255,#60,.T.);
#215=EDGE_CURVE('',#262,#262,#296,.T.);
#216=EDGE_CURVE('',#263,#263,#297,.T.);
#217=EDGE_CURVE('',#264,#264,#298,.T.);
#218=EDGE_CURVE('',#265,#265,#299,.F.);
#219=EDGE_CURVE('',#266,#266,#300,.T.);
#220=EDGE_CURVE('',#267,#267,#301,.T.);
#221=EDGE_CURVE('',#248,#254,#61,.T.);
#222=EDGE_CURVE('',#268,#268,#302,.T.);
#223=EDGE_CURVE('',#269,#269,#303,.F.);
#224=EDGE_CURVE('',#270,#270,#304,.T.);
#225=EDGE_CURVE('',#271,#271,#305,.F.);
#226=EDGE_CURVE('',#272,#272,#306,.T.);
#227=EDGE_CURVE('',#273,#273,#307,.T.);
#228=EDGE_CURVE('',#274,#274,#308,.T.);
#229=EDGE_CURVE('',#275,#275,#309,.F.);
#230=EDGE_CURVE('',#276,#276,#310,.F.);
#231=EDGE_CURVE('',#277,#277,#311,.T.);
#232=VERTEX_POINT('',#744);
#233=VERTEX_POINT('',#746);
#234=VERTEX_POINT('',#749);
#235=VERTEX_POINT('',#750);
#236=VERTEX_POINT('',#752);
#237=VERTEX_POINT('',#754);
#238=VERTEX_POINT('',#758);
#239=VERTEX_POINT('',#759);
#240=VERTEX_POINT('',#761);
#241=VERTEX_POINT('',#763);
#242=VERTEX_POINT('',#777);
#243=VERTEX_POINT('',#779);
#244=VERTEX_POINT('',#796);
#245=VERTEX_POINT('',#798);
#246=VERTEX_POINT('',#805);
#247=VERTEX_POINT('',#807);
#248=VERTEX_POINT('',#809);
#249=VERTEX_POINT('',#815);
#250=VERTEX_POINT('',#821);
#251=VERTEX_POINT('',#823);
#252=VERTEX_POINT('',#825);
#253=VERTEX_POINT('',#827);
#254=VERTEX_POINT('',#830);
#255=VERTEX_POINT('',#835);
#256=VERTEX_POINT('',#843);
#257=VERTEX_POINT('',#846);
#258=VERTEX_POINT('',#849);
#259=VERTEX_POINT('',#852);
#260=VERTEX_POINT('',#855);
#261=VERTEX_POINT('',#859);
#262=VERTEX_POINT('',#880);
#263=VERTEX_POINT('',#883);
#264=VERTEX_POINT('',#886);
#265=VERTEX_POINT('',#889);
#266=VERTEX_POINT('',#892);
#267=VERTEX_POINT('',#896);
#268=VERTEX_POINT('',#945);
#269=VERTEX_POINT('',#948);
#270=VERTEX_POINT('',#951);
#271=VERTEX_POINT('',#954);
#272=VERTEX_POINT('',#957);
#273=VERTEX_POINT('',#961);
#274=VERTEX_POINT('',#965);
#275=VERTEX_POINT('',#967);
#276=VERTEX_POINT('',#970);
#277=VERTEX_POINT('',#973);
#278=CIRCLE('',#516,0.0015);
#279=CIRCLE('',#517,0.0015);
#280=CIRCLE('',#519,0.0214038095238095);
#281=CIRCLE('',#520,0.0214038095238095);
#282=CIRCLE('',#522,0.0214038095238095);
#283=CIRCLE('',#523,0.0214038095238095);
#284=CIRCLE('',#525,0.001);
#285=CIRCLE('',#526,0.0053);
#286=CIRCLE('',#529,0.001);
#287=CIRCLE('',#530,0.0053);
#288=CIRCLE('',#531,0.001);
#289=CIRCLE('',#532,0.0053);
#290=CIRCLE('',#537,0.0045375);
#291=CIRCLE('',#539,0.003775);
#292=CIRCLE('',#541,0.00225);
#293=CIRCLE('',#543,0.00225);
#294=CIRCLE('',#545,0.00165);
#295=CIRCLE('',#548,0.001);
#296=CIRCLE('',#551,0.0045375);
#297=CIRCLE('',#553,0.003775);
#298=CIRCLE('',#555,0.00225);
#299=CIRCLE('',#557,0.00225);
#300=CIRCLE('',#559,0.00165);
#301=CIRCLE('',#562,0.001);
#302=CIRCLE('',#565,0.0045375);
#303=CIRCLE('',#567,0.003775);
#304=CIRCLE('',#569,0.00225);
#305=CIRCLE('',#571,0.00225);
#306=CIRCLE('',#573,0.00165);
#307=CIRCLE('',#576,0.001);
#308=CIRCLE('',#579,0.0018);
#309=CIRCLE('',#580,0.0018);
#310=CIRCLE('',#582,0.00156905989232415);
#311=CIRCLE('',#584,0.00153333333333333);
#312=EDGE_LOOP('',(#70));
#313=EDGE_LOOP('',(#71));
#314=EDGE_LOOP('',(#72,#73,#74,#75));
#315=EDGE_LOOP('',(#76,#77,#78,#79));
#316=EDGE_LOOP('',(#80,#81,#82,#83));
#317=EDGE_LOOP('',(#84,#85,#86,#87));
#318=EDGE_LOOP('',(#88));
#319=EDGE_LOOP('',(#89));
#320=EDGE_LOOP('',(#90));
#321=EDGE_LOOP('',(#91,#92,#93,#94,#95,#96,#97,#98));
#322=EDGE_LOOP('',(#99));
#323=EDGE_LOOP('',(#100));
#324=EDGE_LOOP('',(#101));
#325=EDGE_LOOP('',(#102));
#326=EDGE_LOOP('',(#103,#104,#105,#106,#107,#108,#109,#110));
#327=EDGE_LOOP('',(#111));
#328=EDGE_LOOP('',(#112));
#329=EDGE_LOOP('',(#113));
#330=EDGE_LOOP('',(#114));
#331=EDGE_LOOP('',(#115));
#332=EDGE_LOOP('',(#116));
#333=EDGE_LOOP('',(#117));
#334=EDGE_LOOP('',(#118));
#335=EDGE_LOOP('',(#119));
#336=EDGE_LOOP('',(#120));
#337=EDGE_LOOP('',(#121));
#338=EDGE_LOOP('',(#122));
#339=EDGE_LOOP('',(#123));
#340=EDGE_LOOP('',(#124));
#341=EDGE_LOOP('',(#125,#126,#127,#128));
#342=EDGE_LOOP('',(#129,#130,#131,#132));
#343=EDGE_LOOP('',(#133));
#344=EDGE_LOOP('',(#134));
#345=EDGE_LOOP('',(#135));
#346=EDGE_LOOP('',(#136));
#347=EDGE_LOOP('',(#137));
#348=EDGE_LOOP('',(#138));
#349=EDGE_LOOP('',(#139));
#350=EDGE_LOOP('',(#140));
#351=EDGE_LOOP('',(#141));
#352=EDGE_LOOP('',(#142));
#353=EDGE_LOOP('',(#143));
#354=EDGE_LOOP('',(#144));
#355=EDGE_LOOP('',(#145));
#356=EDGE_LOOP('',(#146));
#357=EDGE_LOOP('',(#147,#148,#149,#150));
#358=EDGE_LOOP('',(#151,#152,#153,#154));
#359=EDGE_LOOP('',(#155));
#360=EDGE_LOOP('',(#156));
#361=EDGE_LOOP('',(#157));
#362=EDGE_LOOP('',(#158));
#363=EDGE_LOOP('',(#159));
#364=EDGE_LOOP('',(#160));
#365=EDGE_LOOP('',(#161));
#366=EDGE_LOOP('',(#162));
#367=EDGE_LOOP('',(#163));
#368=EDGE_LOOP('',(#164));
#369=EDGE_LOOP('',(#165));
#370=EDGE_LOOP('',(#166));
#371=EDGE_LOOP('',(#167));
#372=EDGE_LOOP('',(#168));
#373=EDGE_LOOP('',(#169));
#374=EDGE_LOOP('',(#170));
#375=EDGE_LOOP('',(#171));
#376=EDGE_LOOP('',(#172));
#377=EDGE_LOOP('',(#173));
#378=EDGE_LOOP('',(#174));
#379=EDGE_LOOP('',(#175));
#380=EDGE_LOOP('',(#176));
#381=EDGE_LOOP('',(#177));
#382=FACE_BOUND('',#312,.T.);
#383=FACE_BOUND('',#313,.T.);
#384=FACE_BOUND('',#314,.T.);
#385=FACE_BOUND('',#315,.T.);
#386=FACE_BOUND('',#316,.T.);
#387=FACE_BOUND('',#317,.T.);
#388=FACE_BOUND('',#318,.T.);
#389=FACE_BOUND('',#319,.T.);
#390=FACE_BOUND('',#320,.T.);
#391=FACE_BOUND('',#321,.T.);
#392=FACE_BOUND('',#322,.T.);
#393=FACE_BOUND('',#323,.T.);
#394=FACE_BOUND('',#324,.T.);
#395=FACE_BOUND('',#325,.T.);
#396=FACE_BOUND('',#326,.T.);
#397=FACE_BOUND('',#327,.T.);
#398=FACE_BOUND('',#328,.T.);
#399=FACE_BOUND('',#329,.T.);
#400=FACE_BOUND('',#330,.T.);
#401=FACE_BOUND('',#331,.T.);
#402=FACE_BOUND('',#332,.T.);
#403=FACE_BOUND('',#333,.T.);
#404=FACE_BOUND('',#334,.T.);
#405=FACE_BOUND('',#335,.T.);
#406=FACE_BOUND('',#336,.T.);
#407=FACE_BOUND('',#337,.T.);
#408=FACE_BOUND('',#338,.T.);
#409=FACE_BOUND('',#339,.T.);
#410=FACE_BOUND('',#340,.T.);
#411=FACE_BOUND('',#341,.T.);
#412=FACE_BOUND('',#342,.T.);
#413=FACE_BOUND('',#343,.T.);
#414=FACE_BOUND('',#344,.T.);
#415=FACE_BOUND('',#345,.T.);
#416=FACE_BOUND('',#346,.T.);
#417=FACE_BOUND('',#347,.T.);
#418=FACE_BOUND('',#348,.T.);
#419=FACE_BOUND('',#349,.T.);
#420=FACE_BOUND('',#350,.T.);
#421=FACE_BOUND('',#351,.T.);
#422=FACE_BOUND('',#352,.T.);
#423=FACE_BOUND('',#353,.T.);
#424=FACE_BOUND('',#354,.T.);
#425=FACE_BOUND('',#355,.T.);
#426=FACE_BOUND('',#356,.T.);
#427=FACE_BOUND('',#357,.T.);
#428=FACE_BOUND('',#358,.T.);
#429=FACE_BOUND('',#359,.T.);
#430=FACE_BOUND('',#360,.T.);
#431=FACE_BOUND('',#361,.T.);
#432=FACE_BOUND('',#362,.T.);
#433=FACE_BOUND('',#363,.T.);
#434=FACE_BOUND('',#364,.T.);
#435=FACE_BOUND('',#365,.T.);
#436=FACE_BOUND('',#366,.T.);
#437=FACE_BOUND('',#367,.T.);
#438=FACE_BOUND('',#368,.T.);
#439=FACE_BOUND('',#369,.T.);
#440=FACE_BOUND('',#370,.T.);
#441=FACE_BOUND('',#371,.T.);
#442=FACE_BOUND('',#372,.T.);
#443=FACE_BOUND('',#373,.T.);
#444=FACE_BOUND('',#374,.T.);
#445=FACE_BOUND('',#375,.T.);
#446=FACE_BOUND('',#376,.T.);
#447=FACE_BOUND('',#377,.T.);
#448=FACE_BOUND('',#378,.T.);
#449=FACE_BOUND('',#379,.T.);
#450=FACE_BOUND('',#380,.T.);
#451=FACE_BOUND('',#381,.T.);
#452=CYLINDRICAL_SURFACE('',#515,0.0015);
#453=CYLINDRICAL_SURFACE('',#518,0.0214038095238095);
#454=CYLINDRICAL_SURFACE('',#521,0.0214038095238095);
#455=CYLINDRICAL_SURFACE('',#542,0.00225);
#456=CYLINDRICAL_SURFACE('',#547,0.001);
#457=CYLINDRICAL_SURFACE('',#556,0.00225);
#458=CYLINDRICAL_SURFACE('',#561,0.001);
#459=CYLINDRICAL_SURFACE('',#570,0.00225);
#460=CYLINDRICAL_SURFACE('',#575,0.001);
#461=CYLINDRICAL_SURFACE('',#578,0.0018);
#462=ADVANCED_FACE('',(#382,#383),#452,.T.);
#463=ADVANCED_FACE('',(#384),#453,.T.);
#464=ADVANCED_FACE('',(#385),#454,.T.);
#465=ADVANCED_FACE('',(#386),#48,.F.);
#466=ADVANCED_FACE('',(#387),#49,.F.);
#467=ADVANCED_FACE('',(#388,#389,#390,#391,#392,#393,#394,#395),#30,.T.);
#468=ADVANCED_FACE('',(#396),#31,.F.);
#469=ADVANCED_FACE('',(#397,#398),#15,.T.);
#470=ADVANCED_FACE('',(#399,#400),#16,.F.);
#471=ADVANCED_FACE('',(#401,#402),#32,.T.);
#472=ADVANCED_FACE('',(#403,#404),#455,.T.);
#473=ADVANCED_FACE('',(#405),#33,.T.);
#474=ADVANCED_FACE('',(#406,#407),#17,.T.);
#475=ADVANCED_FACE('',(#408,#409),#456,.T.);
#476=ADVANCED_FACE('',(#410),#12,.T.);
#477=ADVANCED_FACE('',(#411),#50,.T.);
#478=ADVANCED_FACE('',(#412),#51,.T.);
#479=ADVANCED_FACE('',(#413,#414),#18,.T.);
#480=ADVANCED_FACE('',(#415,#416),#19,.F.);
#481=ADVANCED_FACE('',(#417,#418),#34,.T.);
#482=ADVANCED_FACE('',(#419,#420),#457,.T.);
#483=ADVANCED_FACE('',(#421),#35,.T.);
#484=ADVANCED_FACE('',(#422,#423),#20,.T.);
#485=ADVANCED_FACE('',(#424,#425),#458,.T.);
#486=ADVANCED_FACE('',(#426),#13,.T.);
#487=ADVANCED_FACE('',(#427),#52,.T.);
#488=ADVANCED_FACE('',(#428),#53,.F.);
#489=ADVANCED_FACE('',(#429,#430),#21,.T.);
#490=ADVANCED_FACE('',(#431,#432),#22,.F.);
#491=ADVANCED_FACE('',(#433,#434),#36,.T.);
#492=ADVANCED_FACE('',(#435,#436),#459,.T.);
#493=ADVANCED_FACE('',(#437),#37,.T.);
#494=ADVANCED_FACE('',(#438,#439),#23,.T.);
#495=ADVANCED_FACE('',(#440,#441),#460,.T.);
#496=ADVANCED_FACE('',(#442),#14,.T.);
#497=ADVANCED_FACE('',(#443,#444),#461,.T.);
#498=ADVANCED_FACE('',(#445,#446),#38,.F.);
#499=ADVANCED_FACE('',(#447),#39,.T.);
#500=ADVANCED_FACE('',(#448,#449),#24,.T.);
#501=ADVANCED_FACE('',(#450,#451),#25,.T.);
#502=CLOSED_SHELL('',(#462,#463,#464,#465,#466,#467,#468,#469,#470,#471,
#472,#473,#474,#475,#476,#477,#478,#479,#480,#481,#482,#483,#484,#485,#486,
#487,#488,#489,#490,#491,#492,#493,#494,#495,#496,#497,#498,#499,#500,#501));
#503=STYLED_ITEM('',(#504),#511);
#504=PRESENTATION_STYLE_ASSIGNMENT((#505));
#505=SURFACE_STYLE_USAGE(.BOTH.,#506);
#506=SURFACE_SIDE_STYLE('',(#507));
#507=SURFACE_STYLE_FILL_AREA(#508);
#508=FILL_AREA_STYLE('',(#509));
#509=FILL_AREA_STYLE_COLOUR('',#510);
#510=COLOUR_RGB('',0.262745098039216,0.282352941176471,0.301960784313725);
#511=MANIFOLD_SOLID_BREP('Base',#502);
#512=SHAPE_DEFINITION_REPRESENTATION(#982,#513);
#513=SHAPE_REPRESENTATION('Base',(#514),#977);
#514=AXIS2_PLACEMENT_3D('',#741,#587,#588);
#515=AXIS2_PLACEMENT_3D('',#742,#589,#590);
#516=AXIS2_PLACEMENT_3D('',#743,#591,#592);
#517=AXIS2_PLACEMENT_3D('',#745,#593,#594);
#518=AXIS2_PLACEMENT_3D('',#747,#595,#596);
#519=AXIS2_PLACEMENT_3D('',#751,#598,#599);
#520=AXIS2_PLACEMENT_3D('',#755,#601,#602);
#521=AXIS2_PLACEMENT_3D('',#756,#603,#604);
#522=AXIS2_PLACEMENT_3D('',#757,#605,#606);
#523=AXIS2_PLACEMENT_3D('',#762,#608,#609);
#524=AXIS2_PLACEMENT_3D('',#803,#613,#614);
#525=AXIS2_PLACEMENT_3D('',#804,#615,#616);
#526=AXIS2_PLACEMENT_3D('',#806,#617,#618);
#527=AXIS2_PLACEMENT_3D('',#808,#619,#620);
#528=AXIS2_PLACEMENT_3D('',#810,#621,#622);
#529=AXIS2_PLACEMENT_3D('',#820,#623,#624);
#530=AXIS2_PLACEMENT_3D('',#822,#625,#626);
#531=AXIS2_PLACEMENT_3D('',#824,#627,#628);
#532=AXIS2_PLACEMENT_3D('',#826,#629,#630);
#533=AXIS2_PLACEMENT_3D('',#828,#631,#632);
#534=AXIS2_PLACEMENT_3D('',#829,#633,#634);
#535=AXIS2_PLACEMENT_3D('',#840,#635,#636);
#536=AXIS2_PLACEMENT_3D('',#841,#637,#638);
#537=AXIS2_PLACEMENT_3D('',#842,#639,#640);
#538=AXIS2_PLACEMENT_3D('',#844,#641,#642);
#539=AXIS2_PLACEMENT_3D('',#845,#643,#644);
#540=AXIS2_PLACEMENT_3D('',#847,#645,#646);
#541=AXIS2_PLACEMENT_3D('',#848,#647,#648);
#542=AXIS2_PLACEMENT_3D('',#850,#649,#650);
#543=AXIS2_PLACEMENT_3D('',#851,#651,#652);
#544=AXIS2_PLACEMENT_3D('',#853,#653,#654);
#545=AXIS2_PLACEMENT_3D('',#854,#655,#656);
#546=AXIS2_PLACEMENT_3D('',#856,#657,#658);
#547=AXIS2_PLACEMENT_3D('',#857,#659,#660);
#548=AXIS2_PLACEMENT_3D('',#858,#661,#662);
#549=AXIS2_PLACEMENT_3D('',#860,#663,#664);
#550=AXIS2_PLACEMENT_3D('',#878,#666,#667);
#551=AXIS2_PLACEMENT_3D('',#879,#668,#669);
#552=AXIS2_PLACEMENT_3D('',#881,#670,#671);
#553=AXIS2_PLACEMENT_3D('',#882,#672,#673);
#554=AXIS2_PLACEMENT_3D('',#884,#674,#675);
#555=AXIS2_PLACEMENT_3D('',#885,#676,#677);
#556=AXIS2_PLACEMENT_3D('',#887,#678,#679);
#557=AXIS2_PLACEMENT_3D('',#888,#680,#681);
#558=AXIS2_PLACEMENT_3D('',#890,#682,#683);
#559=AXIS2_PLACEMENT_3D('',#891,#684,#685);
#560=AXIS2_PLACEMENT_3D('',#893,#686,#687);
#561=AXIS2_PLACEMENT_3D('',#894,#688,#689);
#562=AXIS2_PLACEMENT_3D('',#895,#690,#691);
#563=AXIS2_PLACEMENT_3D('',#897,#692,#693);
#564=AXIS2_PLACEMENT_3D('',#943,#695,#696);
#565=AXIS2_PLACEMENT_3D('',#944,#697,#698);
#566=AXIS2_PLACEMENT_3D('',#946,#699,#700);
#567=AXIS2_PLACEMENT_3D('',#947,#701,#702);
#568=AXIS2_PLACEMENT_3D('',#949,#703,#704);
#569=AXIS2_PLACEMENT_3D('',#950,#705,#706);
#570=AXIS2_PLACEMENT_3D('',#952,#707,#708);
#571=AXIS2_PLACEMENT_3D('',#953,#709,#710);
#572=AXIS2_PLACEMENT_3D('',#955,#711,#712);
#573=AXIS2_PLACEMENT_3D('',#956,#713,#714);
#574=AXIS2_PLACEMENT_3D('',#958,#715,#716);
#575=AXIS2_PLACEMENT_3D('',#959,#717,#718);
#576=AXIS2_PLACEMENT_3D('',#960,#719,#720);
#577=AXIS2_PLACEMENT_3D('',#962,#721,#722);
#578=AXIS2_PLACEMENT_3D('',#963,#723,#724);
#579=AXIS2_PLACEMENT_3D('',#964,#725,#726);
#580=AXIS2_PLACEMENT_3D('',#966,#727,#728);
#581=AXIS2_PLACEMENT_3D('',#968,#729,#730);
#582=AXIS2_PLACEMENT_3D('',#969,#731,#732);
#583=AXIS2_PLACEMENT_3D('',#971,#733,#734);
#584=AXIS2_PLACEMENT_3D('',#972,#735,#736);
#585=AXIS2_PLACEMENT_3D('',#974,#737,#738);
#586=AXIS2_PLACEMENT_3D('',#975,#739,#740);
#587=DIRECTION('',(0.,0.,1.));
#588=DIRECTION('',(1.,0.,0.));
#589=DIRECTION('',(0.,0.,-1.));
#590=DIRECTION('',(-1.,0.,0.));
#591=DIRECTION('',(0.,0.,1.));
#592=DIRECTION('',(1.,0.,0.));
#593=DIRECTION('',(0.,0.,1.));
#594=DIRECTION('',(1.,0.,0.));
#595=DIRECTION('',(0.,0.,-1.));
#596=DIRECTION('',(1.,0.,0.));
#597=DIRECTION('',(0.,0.,-1.));
#598=DIRECTION('',(0.,0.,-1.));
#599=DIRECTION('',(-1.,0.,0.));
#600=DIRECTION('',(0.,0.,-1.));
#601=DIRECTION('',(0.,0.,-1.));
#602=DIRECTION('',(-1.,0.,0.));
#603=DIRECTION('',(0.,0.,-1.));
#604=DIRECTION('',(-1.,0.,0.));
#605=DIRECTION('',(0.,0.,1.));
#606=DIRECTION('',(1.,0.,0.));
#607=DIRECTION('',(0.,0.,-1.));
#608=DIRECTION('',(0.,0.,1.));
#609=DIRECTION('',(1.,0.,0.));
#610=DIRECTION('',(0.,0.,-1.));
#611=DIRECTION('',(0.,0.,-1.));
#612=DIRECTION('',(0.,0.,-1.));
#613=DIRECTION('',(0.,0.,1.));
#614=DIRECTION('',(1.,0.,0.));
#615=DIRECTION('',(0.,0.,1.));
#616=DIRECTION('',(1.,0.,0.));
#617=DIRECTION('',(0.,0.,1.));
#618=DIRECTION('',(1.,0.,0.));
#619=DIRECTION('',(-6.24383225532435E-17,-5.23116251975369E-17,1.));
#620=DIRECTION('',(0.543908801234734,-0.839144335582023,0.));
#621=DIRECTION('',(-6.24383225532435E-17,5.23116251975369E-17,-1.));
#622=DIRECTION('',(-0.543908801234734,-0.839144335582023,0.));
#623=DIRECTION('',(0.,0.,1.));
#624=DIRECTION('',(1.,0.,0.));
#625=DIRECTION('',(0.,0.,1.));
#626=DIRECTION('',(1.,0.,0.));
#627=DIRECTION('',(0.,0.,-1.));
#628=DIRECTION('',(-1.,0.,0.));
#629=DIRECTION('',(0.,0.,-1.));
#630=DIRECTION('',(-1.,0.,0.));
#631=DIRECTION('',(0.,0.,1.));
#632=DIRECTION('',(1.,0.,0.));
#633=DIRECTION('',(0.,0.,1.));
#634=DIRECTION('',(0.543908801234734,-0.839144335582023,0.));
#635=DIRECTION('',(0.,0.,-1.));
#636=DIRECTION('',(-0.543908801234734,-0.839144335582023,0.));
#637=DIRECTION('',(0.,0.,-1.));
#638=DIRECTION('',(1.,0.,0.));
#639=DIRECTION('',(0.,0.,-1.));
#640=DIRECTION('',(-1.,0.,0.));
#641=DIRECTION('',(0.,0.,1.));
#642=DIRECTION('',(1.,0.,0.));
#643=DIRECTION('',(0.,0.,1.));
#644=DIRECTION('',(1.,0.,0.));
#645=DIRECTION('',(0.,0.,1.));
#646=DIRECTION('',(1.,0.,0.));
#647=DIRECTION('',(0.,0.,1.));
#648=DIRECTION('',(1.,0.,0.));
#649=DIRECTION('',(0.,0.,-1.));
#650=DIRECTION('',(-1.,0.,0.));
#651=DIRECTION('',(0.,0.,1.));
#652=DIRECTION('',(1.,0.,0.));
#653=DIRECTION('',(0.,0.,1.));
#654=DIRECTION('',(1.,0.,0.));
#655=DIRECTION('',(0.,0.,1.));
#656=DIRECTION('',(1.,0.,0.));
#657=DIRECTION('',(0.,0.,-1.));
#658=DIRECTION('',(-1.,0.,0.));
#659=DIRECTION('',(0.,0.,-1.));
#660=DIRECTION('',(-1.,0.,0.));
#661=DIRECTION('',(0.,0.,-1.));
#662=DIRECTION('',(-1.,0.,0.));
#663=DIRECTION('',(0.,0.,1.));
#664=DIRECTION('',(1.,0.,0.));
#665=DIRECTION('',(0.,0.,-1.));
#666=DIRECTION('',(0.,0.,-1.));
#667=DIRECTION('',(-1.,0.,0.));
#668=DIRECTION('',(0.,0.,1.));
#669=DIRECTION('',(1.,0.,0.));
#670=DIRECTION('',(0.,0.,1.));
#671=DIRECTION('',(-1.,0.,0.));
#672=DIRECTION('',(0.,0.,-1.));
#673=DIRECTION('',(-1.,0.,0.));
#674=DIRECTION('',(0.,0.,1.));
#675=DIRECTION('',(-1.,0.,0.));
#676=DIRECTION('',(0.,0.,-1.));
#677=DIRECTION('',(-1.,0.,0.));
#678=DIRECTION('',(0.,0.,-1.));
#679=DIRECTION('',(1.,0.,0.));
#680=DIRECTION('',(0.,0.,-1.));
#681=DIRECTION('',(-1.,0.,0.));
#682=DIRECTION('',(0.,0.,1.));
#683=DIRECTION('',(-1.,0.,0.));
#684=DIRECTION('',(0.,0.,-1.));
#685=DIRECTION('',(-1.,0.,0.));
#686=DIRECTION('',(0.,0.,-1.));
#687=DIRECTION('',(1.,0.,0.));
#688=DIRECTION('',(0.,0.,-1.));
#689=DIRECTION('',(1.,0.,0.));
#690=DIRECTION('',(0.,0.,1.));
#691=DIRECTION('',(1.,0.,0.));
#692=DIRECTION('',(0.,0.,1.));
#693=DIRECTION('',(-1.,0.,0.));
#694=DIRECTION('',(0.,0.,-1.));
#695=DIRECTION('',(0.,0.,-1.));
#696=DIRECTION('',(1.,0.,0.));
#697=DIRECTION('',(0.,0.,-1.));
#698=DIRECTION('',(-1.,0.,0.));
#699=DIRECTION('',(0.,0.,1.));
#700=DIRECTION('',(1.,0.,0.));
#701=DIRECTION('',(0.,0.,1.));
#702=DIRECTION('',(1.,0.,0.));
#703=DIRECTION('',(0.,0.,1.));
#704=DIRECTION('',(1.,0.,0.));
#705=DIRECTION('',(0.,0.,1.));
#706=DIRECTION('',(1.,0.,0.));
#707=DIRECTION('',(0.,0.,-1.));
#708=DIRECTION('',(-1.,0.,0.));
#709=DIRECTION('',(0.,0.,1.));
#710=DIRECTION('',(1.,0.,0.));
#711=DIRECTION('',(0.,0.,1.));
#712=DIRECTION('',(1.,0.,0.));
#713=DIRECTION('',(0.,0.,1.));
#714=DIRECTION('',(1.,0.,0.));
#715=DIRECTION('',(0.,0.,-1.));
#716=DIRECTION('',(-1.,0.,0.));
#717=DIRECTION('',(0.,0.,-1.));
#718=DIRECTION('',(-1.,0.,0.));
#719=DIRECTION('',(0.,0.,-1.));
#720=DIRECTION('',(-1.,0.,0.));
#721=DIRECTION('',(0.,0.,1.));
#722=DIRECTION('',(1.,0.,0.));
#723=DIRECTION('',(0.,0.,1.));
#724=DIRECTION('',(1.,0.,0.));
#725=DIRECTION('',(0.,0.,1.));
#726=DIRECTION('',(1.,0.,0.));
#727=DIRECTION('',(0.,0.,1.));
#728=DIRECTION('',(1.,0.,0.));
#729=DIRECTION('',(0.,0.,1.));
#730=DIRECTION('',(1.,0.,0.));
#731=DIRECTION('',(0.,0.,1.));
#732=DIRECTION('',(1.,0.,0.));
#733=DIRECTION('',(0.,0.,1.));
#734=DIRECTION('',(1.,0.,0.));
#735=DIRECTION('',(0.,0.,1.));
#736=DIRECTION('',(1.,0.,0.));
#737=DIRECTION('',(0.,0.,-1.));
#738=DIRECTION('',(-1.,0.,0.));
#739=DIRECTION('',(0.,0.,1.));
#740=DIRECTION('',(1.,0.,0.));
#741=CARTESIAN_POINT('',(0.,0.,0.));
#742=CARTESIAN_POINT('',(-0.0257300104835137,0.030663832431214,0.006));
#743=CARTESIAN_POINT('',(-0.0257300104835137,0.030663832431214,0.0018));
#744=CARTESIAN_POINT('',(-0.0242300104835136,0.030663832431214,0.0018));
#745=CARTESIAN_POINT('',(-0.0257300104835137,0.030663832431214,0.0055));
#746=CARTESIAN_POINT('',(-0.0242300104835136,0.030663832431214,0.0055));
#747=CARTESIAN_POINT('',(0.0237961904761905,-9.67628754899863E-15,0.0018));
#748=CARTESIAN_POINT('',(0.0242,-0.0214,0.0018));
#749=CARTESIAN_POINT('',(0.0242,-0.0214,0.0018));
#750=CARTESIAN_POINT('',(0.0242,-0.0214,0.));
#751=CARTESIAN_POINT('',(0.0237961904761905,-9.67628754899863E-15,0.));
#752=CARTESIAN_POINT('',(0.0439687139690119,0.00715488351148681,0.));
#753=CARTESIAN_POINT('',(0.0439687139690119,0.00715488351148681,0.0018));
#754=CARTESIAN_POINT('',(0.0439687139690119,0.00715488351148682,0.0018));
#755=CARTESIAN_POINT('',(0.0237961904761905,-9.67628754899863E-15,0.0018));
#756=CARTESIAN_POINT('',(-0.0237961904761905,-9.67628754899863E-15,0.0018));
#757=CARTESIAN_POINT('',(-0.0237961904761905,-9.67628754899863E-15,0.0018));
#758=CARTESIAN_POINT('',(-0.0439687139690119,0.00715488351148682,0.0018));
#759=CARTESIAN_POINT('',(-0.0242,-0.0214,0.0018));
#760=CARTESIAN_POINT('',(-0.0439687139690119,0.00715488351148681,0.0018));
#761=CARTESIAN_POINT('',(-0.0439687139690119,0.00715488351148682,0.));
#762=CARTESIAN_POINT('',(-0.0237961904761905,-9.67628754899863E-15,0.));
#763=CARTESIAN_POINT('',(-0.0242,-0.0214,0.));
#764=CARTESIAN_POINT('',(-0.0242,-0.0214,0.0018));
#765=CARTESIAN_POINT('',(-0.0242,-0.0214,0.0018));
#766=CARTESIAN_POINT('',(-0.0242,-0.0214,0.));
#767=CARTESIAN_POINT('',(-0.0176202181540627,-0.0214,0.0018));
#768=CARTESIAN_POINT('',(-0.0176202181540627,-0.0214,2.16840434497101E-19));
#769=CARTESIAN_POINT('',(-0.0130452133817352,-0.0218094235131341,0.0018));
#770=CARTESIAN_POINT('',(-0.0130452133817352,-0.0218094235131341,2.16840434497101E-19));
#771=CARTESIAN_POINT('',(-0.00970837748060971,-0.022315151013487,0.0018));
#772=CARTESIAN_POINT('',(-0.00970837748060971,-0.022315151013487,0.));
#773=CARTESIAN_POINT('',(-0.0242,-0.0214,0.));
#774=CARTESIAN_POINT('',(-0.0176202181540626,-0.0214,0.));
#775=CARTESIAN_POINT('',(-0.0130452133817352,-0.0218094235131341,0.));
#776=CARTESIAN_POINT('',(-0.00970837748060971,-0.022315151013487,0.));
#777=CARTESIAN_POINT('',(-0.00970837748060971,-0.022315151013487,0.));
#778=CARTESIAN_POINT('',(-0.00970837748060971,-0.022315151013487,0.0018));
#779=CARTESIAN_POINT('',(-0.00970837748060971,-0.022315151013487,0.0018));
#780=CARTESIAN_POINT('',(-0.0242,-0.0214,0.0018));
#781=CARTESIAN_POINT('',(-0.0176202181540626,-0.0214,0.0018));
#782=CARTESIAN_POINT('',(-0.0130452133817352,-0.0218094235131341,0.0018));
#783=CARTESIAN_POINT('',(-0.00970837748060971,-0.022315151013487,0.0018));
#784=CARTESIAN_POINT('',(-0.00970837748060971,-0.022315151013487,0.0018));
#785=CARTESIAN_POINT('',(-0.00970837748060971,-0.022315151013487,0.));
#786=CARTESIAN_POINT('',(-0.00431896692107542,-0.023131964669121,0.0018));
#787=CARTESIAN_POINT('',(-0.00431896692107542,-0.023131964669121,2.16840434497101E-19));
#788=CARTESIAN_POINT('',(-0.0021594834605377,-0.0242,0.0018));
#789=CARTESIAN_POINT('',(-0.0021594834605377,-0.0242,2.16840434497101E-19));
#790=CARTESIAN_POINT('',(6.80462630686663E-18,-0.0242,0.0018));
#791=CARTESIAN_POINT('',(6.80462630686663E-18,-0.0242,0.));
#792=CARTESIAN_POINT('',(-0.00970837748060971,-0.022315151013487,0.));
#793=CARTESIAN_POINT('',(-0.00431896692107542,-0.023131964669121,0.));
#794=CARTESIAN_POINT('',(-0.0021594834605377,-0.0242,0.));
#795=CARTESIAN_POINT('',(6.80462630686663E-18,-0.0242,0.));
#796=CARTESIAN_POINT('',(-6.70441126209732E-18,-0.0242,0.));
#797=CARTESIAN_POINT('',(6.70441126209732E-18,-0.0242,0.0018));
#798=CARTESIAN_POINT('',(6.70441126209732E-18,-0.0242,0.0018));
#799=CARTESIAN_POINT('',(-0.00970837748060971,-0.022315151013487,0.0018));
#800=CARTESIAN_POINT('',(-0.00431896692107542,-0.023131964669121,0.0018));
#801=CARTESIAN_POINT('',(-0.0021594834605377,-0.0242,0.0018));
#802=CARTESIAN_POINT('',(6.80462630686663E-18,-0.0242,0.0018));
#803=CARTESIAN_POINT('',(-0.0226,-3.46944695195361E-18,0.0018));
#804=CARTESIAN_POINT('',(-4.98732999343332E-18,0.0269312499999903,0.0018));
#805=CARTESIAN_POINT('',(0.000999999999999995,0.0269312499999903,0.0018));
#806=CARTESIAN_POINT('',(-7.80625564189563E-18,0.0391999999999903,0.0018));
#807=CARTESIAN_POINT('',(0.00529999999999999,0.0391999999999903,0.0018));
#808=CARTESIAN_POINT('',(0.0153793118462514,0.0161795308782055,0.0018));
#809=CARTESIAN_POINT('',(0.,0.0539499999999903,0.0018));
#810=CARTESIAN_POINT('',(-0.0153793118462514,0.0161795308782055,0.0018));
#811=CARTESIAN_POINT('',(0.00970837748060971,-0.022315151013487,0.0018));
#812=CARTESIAN_POINT('',(0.00431896692107542,-0.023131964669121,0.0018));
#813=CARTESIAN_POINT('',(0.0021594834605377,-0.0242,0.0018));
#814=CARTESIAN_POINT('',(-6.80462630686663E-18,-0.0242,0.0018));
#815=CARTESIAN_POINT('',(0.00970837748060971,-0.022315151013487,0.0018));
#816=CARTESIAN_POINT('',(0.0242,-0.0214,0.0018));
#817=CARTESIAN_POINT('',(0.0176202181540626,-0.0214,0.0018));
#818=CARTESIAN_POINT('',(0.0130452133817352,-0.0218094235131341,0.0018));
#819=CARTESIAN_POINT('',(0.00970837748060971,-0.022315151013487,0.0018));
#820=CARTESIAN_POINT('',(-0.00665,6.12323399573677E-20,0.0018));
#821=CARTESIAN_POINT('',(-0.00565,6.12323399573677E-20,0.0018));
#822=CARTESIAN_POINT('',(-0.0242,4.22503145705837E-19,0.0018));
#823=CARTESIAN_POINT('',(-0.0189,4.22503145705837E-19,0.0018));
#824=CARTESIAN_POINT('',(0.00665,6.12323399573677E-20,0.0018));
#825=CARTESIAN_POINT('',(0.00565,6.12323399573677E-20,0.0018));
#826=CARTESIAN_POINT('',(0.0242,4.22503145705837E-19,0.0018));
#827=CARTESIAN_POINT('',(0.0189,4.22503145705837E-19,0.0018));
#828=CARTESIAN_POINT('',(-0.0226,-3.46944695195361E-18,0.));
#829=CARTESIAN_POINT('',(0.0153793118462514,0.0161795308782055,0.));
#830=CARTESIAN_POINT('',(0.,0.0539499999999903,0.));
#831=CARTESIAN_POINT('',(0.0242,-0.0214,0.));
#832=CARTESIAN_POINT('',(0.0176202181540626,-0.0214,0.));
#833=CARTESIAN_POINT('',(0.0130452133817352,-0.0218094235131341,0.));
#834=CARTESIAN_POINT('',(0.00970837748060971,-0.022315151013487,0.));
#835=CARTESIAN_POINT('',(0.00970837748060971,-0.022315151013487,0.));
#836=CARTESIAN_POINT('',(0.00970837748060971,-0.022315151013487,0.));
#837=CARTESIAN_POINT('',(0.00431896692107542,-0.023131964669121,0.));
#838=CARTESIAN_POINT('',(0.0021594834605377,-0.0242,0.));
#839=CARTESIAN_POINT('',(-6.80462630686663E-18,-0.0242,0.));
#840=CARTESIAN_POINT('',(-0.0153793118462514,0.0161795308782055,0.));
#841=CARTESIAN_POINT('',(-0.0242,4.22503145705837E-19,0.0018));
#842=CARTESIAN_POINT('',(-0.0242,3.29123827270852E-19,0.0025625));
#843=CARTESIAN_POINT('',(-0.0287375,3.29123827270852E-19,0.0025625));
#844=CARTESIAN_POINT('',(-0.0242,3.29123827270852E-19,0.0018));
#845=CARTESIAN_POINT('',(-0.0242,3.29123827270852E-19,0.0018));
#846=CARTESIAN_POINT('',(-0.020425,3.29123827270852E-19,0.0018));
#847=CARTESIAN_POINT('',(-0.0226,-3.46944695195361E-18,0.0018));
#848=CARTESIAN_POINT('',(-0.0242,2.35744508835865E-19,0.0018));
#849=CARTESIAN_POINT('',(-0.02195,2.35744508835865E-19,0.0018));
#850=CARTESIAN_POINT('',(-0.0242,2.35744508835865E-19,0.0066));
#851=CARTESIAN_POINT('',(-0.0242,2.35744508835865E-19,0.006));
#852=CARTESIAN_POINT('',(-0.02195,2.35744508835865E-19,0.006));
#853=CARTESIAN_POINT('',(-0.0226,-3.46944695195361E-18,0.0066));
#854=CARTESIAN_POINT('',(-0.0242,2.35744508835865E-19,0.0066));
#855=CARTESIAN_POINT('',(-0.02255,2.35744508835865E-19,0.0066));
#856=CARTESIAN_POINT('',(-0.0242,2.35744508835865E-19,0.0066));
#857=CARTESIAN_POINT('',(-0.00665,6.12323399573677E-20,0.003));
#858=CARTESIAN_POINT('',(-0.00665,6.12323399573677E-20,0.002));
#859=CARTESIAN_POINT('',(-0.00765,6.12323399573677E-20,0.002));
#860=CARTESIAN_POINT('',(-0.00665,6.12323399573677E-20,0.002));
#861=CARTESIAN_POINT('',(0.0242,-0.0214,0.0018));
#862=CARTESIAN_POINT('',(0.0242,-0.0214,0.));
#863=CARTESIAN_POINT('',(0.0176202181540627,-0.0214,0.0018));
#864=CARTESIAN_POINT('',(0.0176202181540627,-0.0214,2.16840434497101E-19));
#865=CARTESIAN_POINT('',(0.0130452133817352,-0.0218094235131341,0.0018));
#866=CARTESIAN_POINT('',(0.0130452133817352,-0.0218094235131341,2.16840434497101E-19));
#867=CARTESIAN_POINT('',(0.00970837748060971,-0.022315151013487,0.0018));
#868=CARTESIAN_POINT('',(0.00970837748060971,-0.022315151013487,0.));
#869=CARTESIAN_POINT('',(0.00970837748060971,-0.022315151013487,0.0018));
#870=CARTESIAN_POINT('',(0.00970837748060971,-0.022315151013487,0.0018));
#871=CARTESIAN_POINT('',(0.00970837748060971,-0.022315151013487,0.));
#872=CARTESIAN_POINT('',(0.00431896692107542,-0.023131964669121,0.0018));
#873=CARTESIAN_POINT('',(0.00431896692107542,-0.023131964669121,2.16840434497101E-19));
#874=CARTESIAN_POINT('',(0.0021594834605377,-0.0242,0.0018));
#875=CARTESIAN_POINT('',(0.0021594834605377,-0.0242,2.16840434497101E-19));
#876=CARTESIAN_POINT('',(-6.80462630686663E-18,-0.0242,0.0018));
#877=CARTESIAN_POINT('',(-6.80462630686663E-18,-0.0242,0.));
#878=CARTESIAN_POINT('',(0.0242,4.22503145705837E-19,0.0018));
#879=CARTESIAN_POINT('',(0.0242,3.29123827270852E-19,0.0025625));
#880=CARTESIAN_POINT('',(0.0287375,3.29123827270852E-19,0.0025625));
#881=CARTESIAN_POINT('',(0.0242,3.29123827270852E-19,0.0018));
#882=CARTESIAN_POINT('',(0.0242,3.29123827270852E-19,0.0018));
#883=CARTESIAN_POINT('',(0.020425,3.29123827270852E-19,0.0018));
#884=CARTESIAN_POINT('',(0.0226,-3.46944695195361E-18,0.0018));
#885=CARTESIAN_POINT('',(0.0242,2.35744508835865E-19,0.0018));
#886=CARTESIAN_POINT('',(0.02195,2.35744508835865E-19,0.0018));
#887=CARTESIAN_POINT('',(0.0242,2.35744508835865E-19,0.0066));
#888=CARTESIAN_POINT('',(0.0242,2.35744508835865E-19,0.006));
#889=CARTESIAN_POINT('',(0.02195,2.35744508835865E-19,0.006));
#890=CARTESIAN_POINT('',(0.0226,-3.46944695195361E-18,0.0066));
#891=CARTESIAN_POINT('',(0.0242,2.35744508835865E-19,0.0066));
#892=CARTESIAN_POINT('',(0.02255,2.35744508835865E-19,0.0066));
#893=CARTESIAN_POINT('',(0.0242,2.35744508835865E-19,0.0066));
#894=CARTESIAN_POINT('',(0.00665,6.12323399573677E-20,0.003));
#895=CARTESIAN_POINT('',(0.00665,6.12323399573677E-20,0.002));
#896=CARTESIAN_POINT('',(0.00765,6.12323399573677E-20,0.002));
#897=CARTESIAN_POINT('',(0.00665,6.12323399573677E-20,0.002));
#898=CARTESIAN_POINT('',(-0.0439687139690119,0.00715488351148693,0.0018));
#899=CARTESIAN_POINT('',(-0.0439687139690119,0.00715488351148693,-2.16840434497101E-19));
#900=CARTESIAN_POINT('',(-0.0433481136216045,0.00967179114929835,0.0018));
#901=CARTESIAN_POINT('',(-0.0433481136216045,0.00967179114929835,-2.16840434497101E-19));
#902=CARTESIAN_POINT('',(-0.0416446163349271,0.0150599568359253,0.0018));
#903=CARTESIAN_POINT('',(-0.0416446163349271,0.0150599568359253,-2.16840434497101E-19));
#904=CARTESIAN_POINT('',(-0.0375599657336291,0.0237773635756568,0.0018));
#905=CARTESIAN_POINT('',(-0.0375599657336291,0.0237773635756568,6.50521303491303E-19));
#906=CARTESIAN_POINT('',(-0.0320349362197006,0.0324545708165578,0.0018));
#907=CARTESIAN_POINT('',(-0.0320349362197006,0.0324545708165578,0.));
#908=CARTESIAN_POINT('',(-0.0254410675599061,0.0402971971211506,0.0018));
#909=CARTESIAN_POINT('',(-0.0254410675599061,0.0402971971211506,-2.16840434497101E-19));
#910=CARTESIAN_POINT('',(-0.0183625497809914,0.0466127958674241,0.0018));
#911=CARTESIAN_POINT('',(-0.0183625497809914,0.0466127958674241,2.16840434497101E-19));
#912=CARTESIAN_POINT('',(-0.0114307302979045,0.051006612024577,0.0018));
#913=CARTESIAN_POINT('',(-0.0114307302979045,0.051006612024577,2.16840434497101E-19));
#914=CARTESIAN_POINT('',(-0.00515371156934459,0.0534437233601081,0.0018));
#915=CARTESIAN_POINT('',(-0.00515371156934459,0.0534437233601081,4.33680868994202E-19));
#916=CARTESIAN_POINT('',(-0.00160219977397909,0.053928637116362,0.0018));
#917=CARTESIAN_POINT('',(-0.00160219977397909,0.053928637116362,-2.16840434497101E-19));
#918=CARTESIAN_POINT('',(0.,0.0539499999999903,0.0018));
#919=CARTESIAN_POINT('',(0.,0.0539499999999903,-2.16840434497101E-19));
#920=CARTESIAN_POINT('',(0.,0.0539499999999903,0.0018));
#921=CARTESIAN_POINT('',(0.0439687139690119,0.00715488351148692,0.0018));
#922=CARTESIAN_POINT('',(0.0439687139690119,0.00715488351148692,0.));
#923=CARTESIAN_POINT('',(0.0433481136216045,0.00967179114929834,0.0018));
#924=CARTESIAN_POINT('',(0.0433481136216045,0.00967179114929834,0.));
#925=CARTESIAN_POINT('',(0.0416446163349271,0.0150599568359253,0.0018));
#926=CARTESIAN_POINT('',(0.0416446163349271,0.0150599568359253,0.));
#927=CARTESIAN_POINT('',(0.0375599657336291,0.0237773635756568,0.0018));
#928=CARTESIAN_POINT('',(0.0375599657336291,0.0237773635756568,8.67361737988404E-19));
#929=CARTESIAN_POINT('',(0.0320349362197006,0.0324545708165577,0.0018));
#930=CARTESIAN_POINT('',(0.0320349362197006,0.0324545708165577,-4.33680868994202E-19));
#931=CARTESIAN_POINT('',(0.0254410675599061,0.0402971971211506,0.0018));
#932=CARTESIAN_POINT('',(0.0254410675599061,0.0402971971211506,1.30104260698261E-18));
#933=CARTESIAN_POINT('',(0.0183625497809914,0.0466127958674241,0.0018));
#934=CARTESIAN_POINT('',(0.0183625497809914,0.0466127958674241,-6.50521303491303E-19));
#935=CARTESIAN_POINT('',(0.0114307302979045,0.051006612024577,0.0018));
#936=CARTESIAN_POINT('',(0.0114307302979045,0.051006612024577,1.0842021724855E-18));
#937=CARTESIAN_POINT('',(0.00515371156934459,0.0534437233601081,0.0018));
#938=CARTESIAN_POINT('',(0.00515371156934459,0.0534437233601081,0.));
#939=CARTESIAN_POINT('',(0.00160219977397909,0.053928637116362,0.0018));
#940=CARTESIAN_POINT('',(0.00160219977397909,0.053928637116362,-2.16840434497101E-19));
#941=CARTESIAN_POINT('',(0.,0.0539499999999903,0.0018));
#942=CARTESIAN_POINT('',(0.,0.0539499999999903,-2.16840434497101E-19));
#943=CARTESIAN_POINT('',(-7.80625564189563E-18,0.0391999999999903,0.0018));
#944=CARTESIAN_POINT('',(-8.23993651088983E-18,0.0391999999999903,0.0025625));
#945=CARTESIAN_POINT('',(-0.00453750000000001,0.0391999999999903,0.0025625));
#946=CARTESIAN_POINT('',(-8.23993651088983E-18,0.0391999999999903,0.0018));
#947=CARTESIAN_POINT('',(-8.23993651088983E-18,0.0391999999999903,0.0018));
#948=CARTESIAN_POINT('',(0.00377499999999999,0.0391999999999903,0.0018));
#949=CARTESIAN_POINT('',(-0.0226,-3.46944695195361E-18,0.0018));
#950=CARTESIAN_POINT('',(-8.23993651088983E-18,0.0391999999999903,0.0018));
#951=CARTESIAN_POINT('',(0.00224999999999999,0.0391999999999903,0.0018));
#952=CARTESIAN_POINT('',(-8.23993651088983E-18,0.0391999999999903,0.0066));
#953=CARTESIAN_POINT('',(-8.23993651088983E-18,0.0391999999999903,0.006));
#954=CARTESIAN_POINT('',(0.00224999999999999,0.0391999999999903,0.006));
#955=CARTESIAN_POINT('',(0.,0.0273749999999951,0.0066));
#956=CARTESIAN_POINT('',(-8.23993651088983E-18,0.0391999999999903,0.0066));
#957=CARTESIAN_POINT('',(0.00164999999999999,0.0391999999999903,0.0066));
#958=CARTESIAN_POINT('',(-8.23993651088983E-18,0.0391999999999903,0.0066));
#959=CARTESIAN_POINT('',(-4.98732999343332E-18,0.0269312499999903,0.003));
#960=CARTESIAN_POINT('',(-4.98732999343332E-18,0.0269312499999903,0.002));
#961=CARTESIAN_POINT('',(-0.00100000000000001,0.0269312499999903,0.002));
#962=CARTESIAN_POINT('',(-4.98732999343332E-18,0.0269312499999903,0.002));
#963=CARTESIAN_POINT('',(-0.0257300104835137,0.030663832431214,0.0055));
#964=CARTESIAN_POINT('',(-0.0257300104835137,0.030663832431214,0.00563333333333333));
#965=CARTESIAN_POINT('',(-0.0239300104835137,0.030663832431214,0.00563333333333333));
#966=CARTESIAN_POINT('',(-0.0257300104835137,0.030663832431214,0.00577624009835273));
#967=CARTESIAN_POINT('',(-0.0239300104835137,0.030663832431214,0.00577624009835273));
#968=CARTESIAN_POINT('',(-0.00834983978971744,0.00618546767774705,0.0055));
#969=CARTESIAN_POINT('',(-0.0257300104835137,0.030663832431214,0.0055));
#970=CARTESIAN_POINT('',(-0.0241609505911895,0.030663832431214,0.0055));
#971=CARTESIAN_POINT('',(-0.00834983978971744,0.00618546767774705,0.006));
#972=CARTESIAN_POINT('',(-0.0257300104835137,0.030663832431214,0.006));
#973=CARTESIAN_POINT('',(-0.0241966771501803,0.030663832431214,0.006));
#974=CARTESIAN_POINT('',(-0.0257300104835137,0.030663832431214,0.006));
#975=CARTESIAN_POINT('',(-0.0257300104835137,0.030663832431214,0.00563333333333333));
#976=MECHANICAL_DESIGN_GEOMETRIC_PRESENTATION_REPRESENTATION('',(#503),
#977);
#977=(
GEOMETRIC_REPRESENTATION_CONTEXT(3)
GLOBAL_UNCERTAINTY_ASSIGNED_CONTEXT((#978))
GLOBAL_UNIT_ASSIGNED_CONTEXT((#981,#980,#979))
REPRESENTATION_CONTEXT('Base','TOP_LEVEL_ASSEMBLY_PART')
);
#978=UNCERTAINTY_MEASURE_WITH_UNIT(LENGTH_MEASURE(2.E-5),#981,
'DISTANCE_ACCURACY_VALUE','Maximum Tolerance applied to model');
#979=(
NAMED_UNIT(*)
SI_UNIT($,.STERADIAN.)
SOLID_ANGLE_UNIT()
);
#980=(
NAMED_UNIT(*)
PLANE_ANGLE_UNIT()
SI_UNIT($,.RADIAN.)
);
#981=(
LENGTH_UNIT()
NAMED_UNIT(*)
SI_UNIT($,.METRE.)
);
#982=PRODUCT_DEFINITION_SHAPE('','',#983);
#983=PRODUCT_DEFINITION('','',#985,#984);
#984=PRODUCT_DEFINITION_CONTEXT('',#991,'design');
#985=PRODUCT_DEFINITION_FORMATION_WITH_SPECIFIED_SOURCE('','',#987,
 .NOT_KNOWN.);
#986=PRODUCT_RELATED_PRODUCT_CATEGORY('','',(#987));
#987=PRODUCT('Base','Base','Base',(#989));
#988=PRODUCT_CATEGORY('','');
#989=PRODUCT_CONTEXT('',#991,'mechanical');
#990=APPLICATION_PROTOCOL_DEFINITION('international standard',
'ap242_managed_model_based_3d_engineering',2020,#991);
#991=APPLICATION_CONTEXT('managed model based 3d engineering');
ENDSEC;
END-ISO-10303-21;
