# OBJ generated by ONSHAPE BY PTC INC, 1.221 Units = meters
mtllib MunchMoir - CoseLockLower.mtl
g CoseLockLower
v -3.29501e-05 -0.0243498 0.0037 
v -3.29501e-05 -0.0243498 -1.30104e-18 
v -5.20417e-18 -0.02435 0 
v -0.000165907 -0.0243459 0 
v -0.000307485 -0.0243361 0.0037 
v -0.000307485 -0.0243361 0 
v -0.000461907 -0.0243194 0.0037 
v -0.000461907 -0.0243194 0 
v -0.000636055 -0.0242936 0.0037 
v -0.000636055 -0.0242936 0 
v -0.000841127 -0.0242552 0.0037 
v -0.000841127 -0.0242552 0 
v -0.00109245 -0.0241983 0.0037 
v -0.00109245 -0.0241983 0 
v -0.0014832 -0.0240945 0.0037 
v -0.0014832 -0.0240945 0 
v -0.00212007 -0.0239045 0.0037 
v -0.00212007 -0.0239045 0 
v -0.00382226 -0.0233949 0.0037 
v -0.00382226 -0.0233949 0 
v -0.00514433 -0.0230505 0.0037 
v -0.00514433 -0.0230505 -4.33681e-19 
v -0.00674737 -0.0227 0 
v -0.00674737 -0.0227 0.0037 
v -0.000165907 -0.0243459 0.0037 
v 5.20417e-18 -0.02435 0.0037 
v -0.00674737 -0.0222281 0.0037 
v -0.00674737 -0.0222281 0 
v 0.00514433 -0.0230505 0.0037 
v 0.00514433 -0.0230505 -4.33681e-19 
v 0.00674737 -0.0227 0 
v 0.00382226 -0.0233949 0 
v 0.00212007 -0.0239045 0.0037 
v 0.00212007 -0.0239045 0 
v 0.0014832 -0.0240945 0.0037 
v 0.0014832 -0.0240945 0 
v 0.00109245 -0.0241983 0.0037 
v 0.00109245 -0.0241983 0 
v 0.000841127 -0.0242552 0.0037 
v 0.000841127 -0.0242552 0 
v 0.000636055 -0.0242936 0.0037 
v 0.000636055 -0.0242936 0 
v 0.000461907 -0.0243194 0.0037 
v 0.000461907 -0.0243194 0 
v 0.000307485 -0.0243361 0.0037 
v 0.000307485 -0.0243361 0 
v 0.000165907 -0.0243459 0.0037 
v 0.000165907 -0.0243459 0 
v 3.29501e-05 -0.0243498 0.0037 
v 3.29501e-05 -0.0243498 -1.30104e-18 
v 0.00382226 -0.0233949 0.0037 
v 0.00674737 -0.0227 0.0037 
v 0.00674737 -0.0222281 0 
v 0.00674737 -0.0222281 0.0037 
v -0.00674561 -0.0221441 0.0037 
v -0.00674561 -0.0221441 0 
v -0.00674031 -0.0220602 0.0037 
v -0.00674031 -0.0220602 0 
v -0.00673149 -0.0219766 0.0037 
v -0.00673149 -0.0219766 0 
v -0.00671917 -0.0218934 0.0037 
v -0.00671917 -0.0218934 0 
v -0.00670337 -0.0218109 0.0037 
v -0.00670337 -0.0218109 0 
v -0.00668411 -0.021729 0.0037 
v -0.00668411 -0.021729 0 
v -0.00666143 -0.0216481 0.0037 
v -0.00666143 -0.0216481 0 
v -0.00663536 -0.0215682 0.0037 
v -0.00663536 -0.0215682 0 
v -0.00660597 -0.0214894 0.0037 
v -0.00660597 -0.0214894 0 
v -0.00657328 -0.021412 0.0037 
v -0.00657328 -0.021412 0 
v -0.00643958 -0.0211295 0.0037 
v -0.00643958 -0.0211295 0 
v -0.00629374 -0.020853 0.0037 
v -0.00629374 -0.020853 0 
v -0.00613604 -0.0205832 0.0037 
v -0.00613604 -0.0205832 0 
v -0.00596678 -0.0203204 0.0037 
v -0.00596678 -0.0203204 0 
v -0.00578627 -0.0200652 0.0037 
v -0.00578627 -0.0200652 0 
v -0.00559486 -0.0198182 0.0037 
v -0.00559486 -0.0198182 0 
v -0.0053929 -0.0195796 0.0037 
v -0.0053929 -0.0195796 0 
v -0.00518078 -0.0193501 0.0037 
v -0.00518078 -0.0193501 0 
v -0.0049589 -0.0191299 0.0037 
v -0.0049589 -0.0191299 0 
v -0.00472768 -0.0189196 0.0037 
v -0.00472768 -0.0189196 0 
v -0.00448754 -0.0187196 0.0037 
v -0.00448754 -0.0187196 0 
v -0.00423895 -0.0185301 0.0037 
v -0.00423895 -0.0185301 0 
v -0.00398237 -0.0183516 0.0037 
v -0.00398237 -0.0183516 0 
v -0.00371829 -0.0181844 0.0037 
v -0.00371829 -0.0181844 0 
v -0.00344719 -0.0180289 0.0037 
v -0.00344719 -0.0180289 0 
v -0.00316961 -0.0178852 0.0037 
v -0.00316961 -0.0178852 0 
v -0.00288604 -0.0177537 0.0037 
v -0.00288604 -0.0177537 0 
v -0.00259704 -0.0176347 0.0037 
v -0.00259704 -0.0176347 0 
v -0.00230315 -0.0175283 0.0037 
v -0.00230315 -0.0175283 0 
v -0.00200492 -0.0174348 0.0037 
v -0.00200492 -0.0174348 0 
v -0.0017029 -0.0173543 0.0037 
v -0.0017029 -0.0173543 0 
v -0.00139768 -0.017287 0.0037 
v -0.00139768 -0.017287 0 
v -0.00108983 -0.017233 0.0037 
v -0.00108983 -0.017233 0 
v -0.000779919 -0.0171924 0.0037 
v -0.000779919 -0.0171924 0 
v -0.00046854 -0.0171653 0.0037 
v -0.00046854 -0.0171653 0 
v -0.000156278 -0.0171517 0.0037 
v -0.000156278 -0.0171517 0 
v 0.000156278 -0.0171517 0.0037 
v 0.000156278 -0.0171517 0 
v 0.00046854 -0.0171653 0.0037 
v 0.00046854 -0.0171653 0 
v 0.000779919 -0.0171924 0.0037 
v 0.000779919 -0.0171924 0 
v 0.00108983 -0.017233 0.0037 
v 0.00108983 -0.017233 0 
v 0.00139768 -0.017287 0.0037 
v 0.00139768 -0.017287 0 
v 0.0017029 -0.0173543 0.0037 
v 0.0017029 -0.0173543 0 
v 0.00200492 -0.0174348 0.0037 
v 0.00200492 -0.0174348 0 
v 0.00230315 -0.0175283 0.0037 
v 0.00230315 -0.0175283 0 
v 0.00259704 -0.0176347 0.0037 
v 0.00259704 -0.0176347 0 
v 0.00288604 -0.0177537 0.0037 
v 0.00288604 -0.0177537 0 
v 0.00316961 -0.0178852 0.0037 
v 0.00316961 -0.0178852 0 
v 0.00344719 -0.0180289 0.0037 
v 0.00344719 -0.0180289 0 
v 0.00371829 -0.0181844 0.0037 
v 0.00371829 -0.0181844 0 
v 0.00398237 -0.0183516 0.0037 
v 0.00398237 -0.0183516 0 
v 0.00423895 -0.0185301 0.0037 
v 0.00423895 -0.0185301 0 
v 0.00448754 -0.0187196 0.0037 
v 0.00448754 -0.0187196 0 
v 0.00472768 -0.0189196 0.0037 
v 0.00472768 -0.0189196 0 
v 0.0049589 -0.0191299 0.0037 
v 0.0049589 -0.0191299 0 
v 0.00518078 -0.0193501 0.0037 
v 0.00518078 -0.0193501 0 
v 0.0053929 -0.0195796 0.0037 
v 0.0053929 -0.0195796 0 
v 0.00559486 -0.0198182 0.0037 
v 0.00559486 -0.0198182 0 
v 0.00578627 -0.0200652 0.0037 
v 0.00578627 -0.0200652 0 
v 0.00596678 -0.0203204 0.0037 
v 0.00596678 -0.0203204 0 
v 0.00613604 -0.0205832 0.0037 
v 0.00613604 -0.0205832 0 
v 0.00629374 -0.020853 0.0037 
v 0.00629374 -0.020853 0 
v 0.00643958 -0.0211295 0.0037 
v 0.00643958 -0.0211295 0 
v 0.00657328 -0.021412 0.0037 
v 0.00657328 -0.021412 0 
v 0.00660597 -0.0214894 0.0037 
v 0.00660597 -0.0214894 0 
v 0.00663536 -0.0215682 0.0037 
v 0.00663536 -0.0215682 0 
v 0.00666143 -0.0216481 0.0037 
v 0.00666143 -0.0216481 0 
v 0.00668411 -0.021729 0.0037 
v 0.00668411 -0.021729 0 
v 0.00670337 -0.0218109 0.0037 
v 0.00670337 -0.0218109 0 
v 0.00671917 -0.0218934 0.0037 
v 0.00671917 -0.0218934 0 
v 0.00673149 -0.0219766 0.0037 
v 0.00673149 -0.0219766 0 
v 0.00674031 -0.0220602 0.0037 
v 0.00674031 -0.0220602 0 
v 0.00674561 -0.0221441 0.0037 
v 0.00674561 -0.0221441 0 
v -0.0031 -0.0207 0.0037 
v 0.0031 -0.0207 0.0037 
v -0.0031 -0.018625 0.0037 
v 0.0031 -0.018625 0.0037 
v -0.0031 -0.0207 0.00294167 
v -0.0031 -0.018625 0.00294167 
v -0.00215 -0.018625 0.00294167 
v -0.00215 -0.0207 0.00294167 
v -0.00215 -0.0207 0.002025 
v -0.00215 -0.018625 0.002025 
v -0.00309427 -0.0207 2.1684e-18 
v -0.00309427 -0.018625 2.1684e-18 
v 0.00309427 -0.0207 -6.93889e-18 
v 0.00309427 -0.018625 2.1684e-18 
v 0.0031 -0.018625 0.00294167 
v 0.0031 -0.0207 0.00294167 
v 0.00215 -0.0207 0.00294167 
v 0.00215 -0.0207 0.002025 
v 0.00215 -0.018625 0.002025 
v 0.00215 -0.018625 0.00294167 
vn -0.00995501 -0.99995 0 
vn 0 -1 0 
vn -0.0489984 -0.998799 0 
vn -0.0879861 -0.996122 0 
vn -0.126695 -0.991942 0 
vn -0.164935 -0.986304 0 
vn -0.202317 -0.97932 0 
vn -0.237395 -0.971413 0 
vn -0.272208 -0.962238 0 
vn -0.293979 -0.955812 0 
vn -0.269822 -0.96291 0 
vn -0.234134 -0.972204 0 
vn -0.193982 -0.981005 0 
vn -0.0489984 -0.998799 0 
vn 0 -1 0 
vn -1 0 0 
vn 0.234134 -0.972204 0 
vn 0.193982 -0.981005 0 
vn 0.269822 -0.96291 0 
vn 0.293979 -0.955812 0 
vn 0.272208 -0.962238 0 
vn 0.237395 -0.971413 0 
vn 0.202317 -0.97932 0 
vn 0.164935 -0.986304 0 
vn 0.126695 -0.991942 0 
vn 0.0879861 -0.996122 0 
vn 0.0489984 -0.998799 0 
vn 0.00995501 -0.99995 0 
vn 0 -1 0 
vn 0.269822 -0.96291 0 
vn 0.193982 -0.981005 0 
vn 1 0 0 
vn -1 0 0 
vn -0.999117 0.0420202 0 
vn -0.996469 0.0839661 0 
vn -0.99206 0.125764 0 
vn -0.985899 0.167339 0 
vn -0.977997 0.208619 0 
vn -0.968367 0.24953 0 
vn -0.957026 0.290001 0 
vn -0.943995 0.329959 0 
vn -0.929297 0.369334 0 
vn -0.912956 0.408057 0 
vn -0.894386 0.447296 0 
vn -0.874131 0.485691 0 
vn -0.852228 0.523171 0 
vn -0.828719 0.559665 0 
vn -0.803649 0.595104 0 
vn -0.777064 0.629422 0 
vn -0.749014 0.662554 0 
vn -0.719553 0.694437 0 
vn -0.688737 0.725012 0 
vn -0.656622 0.75422 0 
vn -0.62327 0.782007 0 
vn -0.588743 0.80832 0 
vn -0.553107 0.83311 0 
vn -0.516429 0.85633 0 
vn -0.478777 0.877937 0 
vn -0.440223 0.897888 0 
vn -0.40084 0.916148 0 
vn -0.360701 0.932682 0 
vn -0.319882 0.947457 0 
vn -0.278461 0.960448 0 
vn -0.236515 0.971628 0 
vn -0.194123 0.980977 0 
vn -0.151365 0.988478 0 
vn -0.108322 0.994116 0 
vn -0.065075 0.99788 0 
vn -0.0217053 0.999764 0 
vn 0.0217053 0.999764 0 
vn 0.065075 0.99788 0 
vn 0.108322 0.994116 0 
vn 0.151365 0.988478 0 
vn 0.194123 0.980977 0 
vn 0.236515 0.971628 0 
vn 0.278461 0.960448 0 
vn 0.319882 0.947457 0 
vn 0.360701 0.932682 0 
vn 0.40084 0.916148 0 
vn 0.440223 0.897888 0 
vn 0.478777 0.877937 0 
vn 0.516429 0.85633 0 
vn 0.553107 0.83311 0 
vn 0.588743 0.80832 0 
vn 0.62327 0.782007 0 
vn 0.656622 0.75422 0 
vn 0.688737 0.725012 0 
vn 0.719553 0.694437 0 
vn 0.749014 0.662554 0 
vn 0.777064 0.629422 0 
vn 0.803649 0.595104 0 
vn 0.828719 0.559665 0 
vn 0.852228 0.523171 0 
vn 0.874131 0.485691 0 
vn 0.894386 0.447296 0 
vn 0.912956 0.408057 0 
vn 0.929297 0.369334 0 
vn 0.943995 0.329959 0 
vn 0.957026 0.290001 0 
vn 0.968367 0.24953 0 
vn 0.977997 0.208619 0 
vn 0.985899 0.167339 0 
vn 0.99206 0.125764 0 
vn 0.996469 0.0839661 0 
vn 0.999117 0.0420202 0 
vn 1 1.22465e-16 0 
vn 0 0 1 
vn 0.906308 -1.82813e-16 -0.422618 
vn 0 0 -1 
vn -1 0 0 
vn 0 1 0 
vn 0 -1 0 
vn -1 -2.01712e-16 0 
vn 0 0 1 
vn -0.906308 -1.82813e-16 -0.422618 
usemtl 0.231373_0.380392_0.705882_0.000000_0.000000
o mesh0
f 1//1 2//1 3//2 
f 4//3 2//1 1//1 
f 5//4 6//4 4//3 
f 7//5 8//5 6//4 
f 9//6 10//6 8//5 
f 11//7 12//7 10//6 
f 13//8 14//8 12//7 
f 15//9 16//9 14//8 
f 17//10 18//10 16//9 
f 19//11 20//11 18//10 
f 21//12 22//12 20//11 
f 23//13 22//12 21//12 
f 21//12 24//13 23//13 
f 20//11 19//11 21//12 
f 18//10 17//10 19//11 
f 16//9 15//9 17//10 
f 14//8 13//8 15//9 
f 12//7 11//7 13//8 
f 10//6 9//6 11//7 
f 8//5 7//5 9//6 
f 6//4 5//4 7//5 
f 4//3 25//14 5//4 
f 1//1 25//14 4//3 
f 3//2 26//15 1//1 
o mesh1
f 23//16 24//16 27//16 
f 27//16 28//16 23//16 
o mesh2
f 29//17 30//17 31//18 
f 32//19 30//17 29//17 
f 33//20 34//20 32//19 
f 35//21 36//21 34//20 
f 37//22 38//22 36//21 
f 39//23 40//23 38//22 
f 41//24 42//24 40//23 
f 43//25 44//25 42//24 
f 45//26 46//26 44//25 
f 47//27 48//27 46//26 
f 49//28 50//28 48//27 
f 3//29 50//28 49//28 
f 49//28 26//29 3//29 
f 48//27 47//27 49//28 
f 46//26 45//26 47//27 
f 44//25 43//25 45//26 
f 42//24 41//24 43//25 
f 40//23 39//23 41//24 
f 38//22 37//22 39//23 
f 36//21 35//21 37//22 
f 34//20 33//20 35//21 
f 32//19 51//30 33//20 
f 29//17 51//30 32//19 
f 31//18 52//31 29//17 
o mesh3
f 52//32 31//32 53//32 
f 53//32 54//32 52//32 
o mesh4
f 28//33 27//33 55//34 
f 56//34 55//34 57//35 
f 58//35 57//35 59//36 
f 60//36 59//36 61//37 
f 62//37 61//37 63//38 
f 64//38 63//38 65//39 
f 66//39 65//39 67//40 
f 68//40 67//40 69//41 
f 70//41 69//41 71//42 
f 72//42 71//42 73//43 
f 73//43 74//43 72//42 
f 71//42 72//42 70//41 
f 69//41 70//41 68//40 
f 67//40 68//40 66//39 
f 65//39 66//39 64//38 
f 63//38 64//38 62//37 
f 61//37 62//37 60//36 
f 59//36 60//36 58//35 
f 57//35 58//35 56//34 
f 55//34 56//34 28//33 
o mesh5
f 74//43 73//43 75//44 
f 76//44 75//44 77//45 
f 78//45 77//45 79//46 
f 80//46 79//46 81//47 
f 82//47 81//47 83//48 
f 84//48 83//48 85//49 
f 86//49 85//49 87//50 
f 88//50 87//50 89//51 
f 90//51 89//51 91//52 
f 92//52 91//52 93//53 
f 94//53 93//53 95//54 
f 96//54 95//54 97//55 
f 98//55 97//55 99//56 
f 100//56 99//56 101//57 
f 102//57 101//57 103//58 
f 104//58 103//58 105//59 
f 106//59 105//59 107//60 
f 108//60 107//60 109//61 
f 110//61 109//61 111//62 
f 112//62 111//62 113//63 
f 114//63 113//63 115//64 
f 116//64 115//64 117//65 
f 118//65 117//65 119//66 
f 120//66 119//66 121//67 
f 122//67 121//67 123//68 
f 124//68 123//68 125//69 
f 126//69 125//69 127//70 
f 128//70 127//70 129//71 
f 130//71 129//71 131//72 
f 132//72 131//72 133//73 
f 134//73 133//73 135//74 
f 136//74 135//74 137//75 
f 138//75 137//75 139//76 
f 140//76 139//76 141//77 
f 142//77 141//77 143//78 
f 144//78 143//78 145//79 
f 146//79 145//79 147//80 
f 148//80 147//80 149//81 
f 150//81 149//81 151//82 
f 152//82 151//82 153//83 
f 154//83 153//83 155//84 
f 156//84 155//84 157//85 
f 158//85 157//85 159//86 
f 160//86 159//86 161//87 
f 162//87 161//87 163//88 
f 164//88 163//88 165//89 
f 166//89 165//89 167//90 
f 168//90 167//90 169//91 
f 170//91 169//91 171//92 
f 172//92 171//92 173//93 
f 174//93 173//93 175//94 
f 176//94 175//94 177//95 
f 178//95 177//95 179//96 
f 179//96 180//96 178//95 
f 177//95 178//95 176//94 
f 175//94 176//94 174//93 
f 173//93 174//93 172//92 
f 171//92 172//92 170//91 
f 169//91 170//91 168//90 
f 167//90 168//90 166//89 
f 165//89 166//89 164//88 
f 163//88 164//88 162//87 
f 161//87 162//87 160//86 
f 159//86 160//86 158//85 
f 157//85 158//85 156//84 
f 155//84 156//84 154//83 
f 153//83 154//83 152//82 
f 151//82 152//82 150//81 
f 149//81 150//81 148//80 
f 147//80 148//80 146//79 
f 145//79 146//79 144//78 
f 143//78 144//78 142//77 
f 141//77 142//77 140//76 
f 139//76 140//76 138//75 
f 137//75 138//75 136//74 
f 135//74 136//74 134//73 
f 133//73 134//73 132//72 
f 131//72 132//72 130//71 
f 129//71 130//71 128//70 
f 127//70 128//70 126//69 
f 125//69 126//69 124//68 
f 123//68 124//68 122//67 
f 121//67 122//67 120//66 
f 119//66 120//66 118//65 
f 117//65 118//65 116//64 
f 115//64 116//64 114//63 
f 113//63 114//63 112//62 
f 111//62 112//62 110//61 
f 109//61 110//61 108//60 
f 107//60 108//60 106//59 
f 105//59 106//59 104//58 
f 103//58 104//58 102//57 
f 101//57 102//57 100//56 
f 99//56 100//56 98//55 
f 97//55 98//55 96//54 
f 95//54 96//54 94//53 
f 93//53 94//53 92//52 
f 91//52 92//52 90//51 
f 89//51 90//51 88//50 
f 87//50 88//50 86//49 
f 85//49 86//49 84//48 
f 83//48 84//48 82//47 
f 81//47 82//47 80//46 
f 79//46 80//46 78//45 
f 77//45 78//45 76//44 
f 75//44 76//44 74//43 
o mesh6
f 180//96 179//96 181//97 
f 182//97 181//97 183//98 
f 184//98 183//98 185//99 
f 186//99 185//99 187//100 
f 188//100 187//100 189//101 
f 190//101 189//101 191//102 
f 192//102 191//102 193//103 
f 194//103 193//103 195//104 
f 196//104 195//104 197//105 
f 198//105 197//105 54//106 
f 54//106 53//106 198//105 
f 197//105 198//105 196//104 
f 195//104 196//104 194//103 
f 193//103 194//103 192//102 
f 191//102 192//102 190//101 
f 189//101 190//101 188//100 
f 187//100 188//100 186//99 
f 185//99 186//99 184//98 
f 183//98 184//98 182//97 
f 181//97 182//97 180//96 
o mesh7
f 199//107 81//107 79//107 
f 199//107 83//107 81//107 
f 199//107 87//107 85//107 
f 200//107 49//107 47//107 
f 200//107 5//107 25//107 
f 85//107 83//107 199//107 
f 47//107 45//107 200//107 
f 200//107 7//107 5//107 
f 199//107 89//107 87//107 
f 45//107 43//107 200//107 
f 200//107 9//107 7//107 
f 79//107 77//107 199//107 
f 199//107 93//107 91//107 
f 199//107 97//107 95//107 
f 43//107 41//107 200//107 
f 200//107 11//107 9//107 
f 200//107 163//107 161//107 
f 91//107 89//107 199//107 
f 199//107 99//107 97//107 
f 99//107 199//107 201//107 
f 41//107 39//107 200//107 
f 200//107 13//107 11//107 
f 200//107 157//107 155//107 
f 200//107 165//107 163//107 
f 200//107 169//107 167//107 
f 200//107 173//107 171//107 
f 200//107 177//107 175//107 
f 77//107 75//107 199//107 
f 201//107 101//107 99//107 
f 39//107 37//107 200//107 
f 200//107 15//107 13//107 
f 199//107 17//107 15//107 
f 153//107 151//107 202//107 
f 200//107 159//107 157//107 
f 167//107 165//107 200//107 
f 175//107 173//107 200//107 
f 199//107 65//107 63//107 
f 95//107 93//107 199//107 
f 37//107 35//107 200//107 
f 15//107 200//107 199//107 
f 155//107 153//107 200//107 
f 171//107 169//107 200//107 
f 201//107 121//107 119//107 
f 201//107 125//107 123//107 
f 201//107 133//107 131//107 
f 202//107 137//107 135//107 
f 199//107 67//107 65//107 
f 199//107 71//107 69//107 
f 75//107 73//107 199//107 
f 200//107 26//107 49//107 
f 25//107 1//107 200//107 
f 161//107 159//107 200//107 
f 200//107 189//107 187//107 
f 200//107 54//107 197//107 
f 201//107 111//107 109//107 
f 201//107 115//107 113//107 
f 123//107 121//107 201//107 
f 201//107 129//107 127//107 
f 201//107 135//107 133//107 
f 202//107 139//107 137//107 
f 202//107 143//107 141//107 
f 63//107 61//107 199//107 
f 73//107 71//107 199//107 
f 1//107 26//107 200//107 
f 200//107 179//107 177//107 
f 187//107 185//107 200//107 
f 197//107 195//107 200//107 
f 201//107 105//107 103//107 
f 109//107 107//107 201//107 
f 201//107 117//107 115//107 
f 127//107 125//107 201//107 
f 135//107 201//107 202//107 
f 202//107 145//107 143//107 
f 202//107 151//107 149//107 
f 199//107 59//107 57//107 
f 69//107 67//107 199//107 
f 35//107 33//107 200//107 
f 200//107 181//107 179//107 
f 200//107 191//107 189//107 
f 195//107 193//107 200//107 
f 107//107 105//107 201//107 
f 119//107 117//107 201//107 
f 141//107 139//107 202//107 
f 149//107 147//107 202//107 
f 61//107 59//107 199//107 
f 199//107 19//107 17//107 
f 200//107 183//107 181//107 
f 193//107 191//107 200//107 
f 113//107 111//107 201//107 
f 147//107 145//107 202//107 
f 27//107 24//107 21//107 
f 57//107 55//107 199//107 
f 33//107 51//107 200//107 
f 185//107 183//107 200//107 
f 54//107 200//107 29//107 
f 131//107 129//107 201//107 
f 55//107 27//107 199//107 
f 199//107 21//107 19//107 
f 29//107 52//107 54//107 
f 21//107 199//107 27//107 
f 202//107 200//107 153//107 
f 51//107 29//107 200//107 
f 103//107 101//107 201//107 
o mesh8
f 201//106 199//106 203//106 
f 203//106 204//106 201//106 
o mesh9
f 205//107 204//107 203//107 
f 203//107 206//107 205//107 
o mesh10
f 205//106 206//106 207//106 
f 207//106 208//106 205//106 
o mesh11
f 208//108 207//108 209//108 
f 209//108 210//108 208//108 
o mesh12
f 209//109 2//109 4//109 
f 209//109 46//109 48//109 
f 209//109 78//109 80//109 
f 4//109 6//109 209//109 
f 209//109 44//109 46//109 
f 209//109 84//109 86//109 
f 80//109 82//109 209//109 
f 211//109 160//109 162//109 
f 6//109 8//109 209//109 
f 209//109 42//109 44//109 
f 82//109 84//109 209//109 
f 211//109 174//109 176//109 
f 211//109 170//109 172//109 
f 211//109 166//109 168//109 
f 162//109 164//109 211//109 
f 211//109 154//109 156//109 
f 8//109 10//109 209//109 
f 209//109 40//109 42//109 
f 209//109 94//109 96//109 
f 86//109 88//109 209//109 
f 209//109 74//109 76//109 
f 172//109 174//109 211//109 
f 164//109 166//109 211//109 
f 156//109 158//109 211//109 
f 154//109 211//109 212//109 
f 10//109 12//109 209//109 
f 209//109 38//109 40//109 
f 100//109 102//109 210//109 
f 96//109 98//109 209//109 
f 209//109 90//109 92//109 
f 76//109 78//109 209//109 
f 168//109 170//109 211//109 
f 212//109 152//109 154//109 
f 12//109 14//109 209//109 
f 209//109 36//109 38//109 
f 211//109 34//109 36//109 
f 98//109 100//109 209//109 
f 88//109 90//109 209//109 
f 211//109 186//109 188//109 
f 158//109 160//109 211//109 
f 14//109 16//109 209//109 
f 36//109 209//109 211//109 
f 92//109 94//109 209//109 
f 212//109 210//109 136//109 
f 210//109 130//109 132//109 
f 210//109 122//109 124//109 
f 210//109 118//109 120//109 
f 211//109 194//109 196//109 
f 211//109 184//109 186//109 
f 176//109 178//109 211//109 
f 209//109 3//109 2//109 
f 48//109 50//109 209//109 
f 209//109 72//109 74//109 
f 209//109 62//109 64//109 
f 212//109 140//109 142//109 
f 136//109 138//109 212//109 
f 132//109 134//109 210//109 
f 210//109 126//109 128//109 
f 120//109 122//109 210//109 
f 210//109 112//109 114//109 
f 210//109 108//109 110//109 
f 211//109 192//109 194//109 
f 188//109 190//109 211//109 
f 178//109 180//109 211//109 
f 50//109 3//109 209//109 
f 209//109 70//109 72//109 
f 64//109 66//109 209//109 
f 212//109 148//109 150//109 
f 142//109 144//109 212//109 
f 134//109 136//109 210//109 
f 124//109 126//109 210//109 
f 114//109 116//109 210//109 
f 210//109 106//109 108//109 
f 210//109 102//109 104//109 
f 190//109 192//109 211//109 
f 180//109 182//109 211//109 
f 16//109 18//109 209//109 
f 209//109 68//109 70//109 
f 209//109 60//109 62//109 
f 209//109 56//109 58//109 
f 212//109 146//109 148//109 
f 138//109 140//109 212//109 
f 116//109 118//109 210//109 
f 104//109 106//109 210//109 
f 182//109 184//109 211//109 
f 211//109 32//109 34//109 
f 66//109 68//109 209//109 
f 209//109 28//109 56//109 
f 144//109 146//109 212//109 
f 110//109 112//109 210//109 
f 53//109 31//109 30//109 
f 196//109 198//109 211//109 
f 18//109 20//109 209//109 
f 58//109 60//109 209//109 
f 28//109 209//109 22//109 
f 128//109 130//109 210//109 
f 198//109 53//109 211//109 
f 211//109 30//109 32//109 
f 22//109 23//109 28//109 
f 30//109 211//109 53//109 
f 210//109 209//109 100//109 
f 20//109 22//109 209//109 
f 150//109 152//109 212//109 
o mesh13
f 213//110 214//110 200//110 
f 200//110 202//110 213//110 
o mesh14
f 215//111 216//111 207//111 
f 216//111 209//111 207//111 
f 199//111 215//111 206//111 
f 207//111 206//111 215//111 
f 216//111 211//111 209//111 
f 200//111 214//111 215//111 
f 215//111 199//111 200//111 
f 206//111 203//111 199//111 
o mesh15
f 205//112 208//112 217//112 
f 217//112 218//112 205//112 
f 210//112 212//112 217//112 
f 201//112 204//112 205//112 
f 202//112 201//112 218//112 
f 205//112 218//112 201//112 
f 208//112 210//112 217//112 
f 218//112 213//112 202//112 
o mesh16
f 217//113 216//113 215//113 
f 215//113 218//113 217//113 
o mesh17
f 213//114 218//114 215//114 
f 215//114 214//114 213//114 
o mesh18
f 216//115 217//115 212//115 
f 212//115 211//115 216//115 
