# OBJ generated by ONSHAPE BY PTC INC, 1.221 Units = meters
mtllib MunchMoir - Springboard.mtl
g Springboard
v -0.0078 0.0087 0.00325 
v -0.0078 0.00765 0.00325 
v 0.0078 0.00765 0.00325 
v 0.0078 0.0087 0.00325 
v 0.0078 0.0087 0.0003 
v 0.0078 0.00765 0.0003 
v -0.0078 0.00765 0.0003 
v -0.0078 0.0087 0.0003 
vn 0 0 1 
vn 1 0 0 
vn 0 0 -1 
vn 0 1 0 
vn 2.224e-16 -1 0 
vn -1 0 0 
usemtl 0.231373_0.380392_0.705882_0.000000_0.000000
o mesh0
f 1//1 2//1 3//1 
f 3//1 4//1 1//1 
o mesh1
f 5//2 4//2 3//2 
f 3//2 6//2 5//2 
o mesh2
f 5//3 6//3 7//3 
f 7//3 8//3 5//3 
o mesh3
f 8//4 1//4 4//4 
f 4//4 5//4 8//4 
o mesh4
f 7//5 6//5 3//5 
f 3//5 2//5 7//5 
o mesh5
f 8//6 7//6 2//6 
f 2//6 1//6 8//6 
