# OBJ generated by ONSHAPE BY PTC INC, 1.221 Units = meters
mtllib MunchMoir - SnapFit (1).mtl
g SnapFit
v -0.000999048 -0.001 -0.00103138 
v -0.001 -0.001 -0.001075 
v -0.001 0.001 -0.001075 
v -0.000996195 -0.001 -0.000987844 
v -0.000999048 0.001 -0.00103138 
v -0.000991445 -0.001 -0.000944474 
v -0.000996195 0.001 -0.000987844 
v -0.000984808 -0.001 -0.000901352 
v -0.000991445 0.001 -0.000944474 
v -0.000976296 -0.001 -0.00085856 
v -0.000984808 0.001 -0.000901352 
v -0.000965926 -0.001 -0.000816181 
v -0.000976296 0.001 -0.00085856 
v -0.000953717 -0.001 -0.000774294 
v -0.000965926 0.001 -0.000816181 
v -0.000939693 -0.001 -0.00073298 
v -0.000953717 0.001 -0.000774294 
v -0.00092388 -0.001 -0.000692317 
v -0.000939693 0.001 -0.00073298 
v -0.000906308 -0.001 -0.000652382 
v -0.00092388 0.001 -0.000692317 
v -0.000887011 -0.001 -0.000613251 
v -0.000906308 0.001 -0.000652382 
v -0.000866025 -0.001 -0.000575 
v -0.000887011 0.001 -0.000613251 
v -0.000843391 -0.001 -0.0005377 
v -0.000866025 0.001 -0.000575 
v -0.000819152 -0.001 -0.000501424 
v -0.000843391 0.001 -0.0005377 
v -0.000793353 -0.001 -0.000466239 
v -0.000819152 0.001 -0.000501424 
v -0.000766044 -0.001 -0.000432212 
v -0.000793353 0.001 -0.000466239 
v -0.000737277 -0.001 -0.00039941 
v -0.000766044 0.001 -0.000432212 
v -0.000707107 -0.001 -0.000367893 
v -0.000737277 0.001 -0.00039941 
v -0.00067559 -0.001 -0.000337723 
v -0.000707107 0.001 -0.000367893 
v -0.000642788 -0.001 -0.000308956 
v -0.00067559 0.001 -0.000337723 
v -0.000608761 -0.001 -0.000281647 
v -0.000642788 0.001 -0.000308956 
v -0.000573576 -0.001 -0.000255848 
v -0.000608761 0.001 -0.000281647 
v -0.0005373 -0.001 -0.000231609 
v -0.000573576 0.001 -0.000255848 
v -0.0005 -0.001 -0.000208975 
v -0.0005373 0.001 -0.000231609 
v -0.000461749 -0.001 -0.000187989 
v -0.0005 0.001 -0.000208975 
v -0.000422618 -0.001 -0.000168692 
v -0.000461749 0.001 -0.000187989 
v -0.000382683 -0.001 -0.00015112 
v -0.000422618 0.001 -0.000168692 
v -0.00034202 -0.001 -0.000135307 
v -0.000382683 0.001 -0.00015112 
v -0.000300706 -0.001 -0.000121283 
v -0.00034202 0.001 -0.000135307 
v -0.000258819 -0.001 -0.000109074 
v -0.000300706 0.001 -0.000121283 
v -0.00021644 -0.001 -9.8704e-05 
v -0.000258819 0.001 -0.000109074 
v -0.000173648 -0.001 -9.01922e-05 
v -0.00021644 0.001 -9.8704e-05 
v -0.000130526 -0.001 -8.35551e-05 
v -0.000173648 0.001 -9.01922e-05 
v -8.71557e-05 -0.001 -7.88053e-05 
v -0.000130526 0.001 -8.35551e-05 
v -4.36194e-05 -0.001 -7.59518e-05 
v -8.71557e-05 0.001 -7.88053e-05 
v 1.40445e-20 -0.001 -7.5e-05 
v -4.36194e-05 0.001 -7.59518e-05 
v 4.36194e-05 -0.001 -7.59518e-05 
v 1.40445e-20 0.001 -7.5e-05 
v 8.71557e-05 -0.001 -7.88053e-05 
v 4.36194e-05 0.001 -7.59518e-05 
v 0.000130526 -0.001 -8.35551e-05 
v 8.71557e-05 0.001 -7.88053e-05 
v 0.000173648 -0.001 -9.01922e-05 
v 0.000130526 0.001 -8.35551e-05 
v 0.00021644 -0.001 -9.8704e-05 
v 0.000173648 0.001 -9.01922e-05 
v 0.000258819 -0.001 -0.000109074 
v 0.00021644 0.001 -9.8704e-05 
v 0.000300706 -0.001 -0.000121283 
v 0.000258819 0.001 -0.000109074 
v 0.00034202 -0.001 -0.000135307 
v 0.000300706 0.001 -0.000121283 
v 0.000382683 -0.001 -0.00015112 
v 0.00034202 0.001 -0.000135307 
v 0.000422618 -0.001 -0.000168692 
v 0.000382683 0.001 -0.00015112 
v 0.000461749 -0.001 -0.000187989 
v 0.000422618 0.001 -0.000168692 
v 0.0005 -0.001 -0.000208975 
v 0.000461749 0.001 -0.000187989 
v 0.0005373 -0.001 -0.000231609 
v 0.0005 0.001 -0.000208975 
v 0.000573576 -0.001 -0.000255848 
v 0.0005373 0.001 -0.000231609 
v 0.000608761 -0.001 -0.000281647 
v 0.000573576 0.001 -0.000255848 
v 0.000642788 -0.001 -0.000308956 
v 0.000608761 0.001 -0.000281647 
v 0.00067559 -0.001 -0.000337723 
v 0.000642788 0.001 -0.000308956 
v 0.000707107 -0.001 -0.000367893 
v 0.00067559 0.001 -0.000337723 
v 0.000737277 -0.001 -0.00039941 
v 0.000707107 0.001 -0.000367893 
v 0.000766044 -0.001 -0.000432212 
v 0.000737277 0.001 -0.00039941 
v 0.000793353 -0.001 -0.000466239 
v 0.000766044 0.001 -0.000432212 
v 0.000819152 -0.001 -0.000501424 
v 0.000793353 0.001 -0.000466239 
v 0.000843391 -0.001 -0.0005377 
v 0.000819152 0.001 -0.000501424 
v 0.000866025 -0.001 -0.000575 
v 0.000843391 0.001 -0.0005377 
v 0.000887011 -0.001 -0.000613251 
v 0.000866025 0.001 -0.000575 
v 0.000906308 -0.001 -0.000652382 
v 0.000887011 0.001 -0.000613251 
v 0.00092388 -0.001 -0.000692317 
v 0.000906308 0.001 -0.000652382 
v 0.000939693 -0.001 -0.00073298 
v 0.00092388 0.001 -0.000692317 
v 0.000953717 -0.001 -0.000774294 
v 0.000939693 0.001 -0.00073298 
v 0.000965926 -0.001 -0.000816181 
v 0.000953717 0.001 -0.000774294 
v 0.000976296 -0.001 -0.00085856 
v 0.000965926 0.001 -0.000816181 
v 0.000984808 -0.001 -0.000901352 
v 0.000976296 0.001 -0.00085856 
v 0.000991445 -0.001 -0.000944474 
v 0.000984808 0.001 -0.000901352 
v 0.000996195 -0.001 -0.000987844 
v 0.000991445 0.001 -0.000944474 
v 0.000999048 -0.001 -0.00103138 
v 0.000996195 0.001 -0.000987844 
v 0.001 -0.001 -0.001075 
v 0.000999048 0.001 -0.00103138 
v 0.001 0.001 -0.001075 
v -0.001 -0.001 -0.00338333 
v -0.001 0.001 -0.00338333 
v -0.0014 -0.001 -0.00378333 
v -0.0014 0.001 -0.00378333 
v -0.00231667 -0.001 -0.00378333 
v -0.00231667 0.001 -0.00378333 
v -0.00267929 -0.001 -0.00342071 
v -0.00267929 0.001 -0.00342071 
v -0.00268231 -0.001 -0.00341756 
v -0.00268231 0.001 -0.00341756 
v -0.00268518 -0.001 -0.00341428 
v -0.00268518 0.001 -0.00341428 
v -0.00268791 -0.001 -0.00341088 
v -0.00268791 0.001 -0.00341088 
v -0.00269049 -0.001 -0.00340736 
v -0.00269049 0.001 -0.00340736 
v -0.00269292 -0.001 -0.00340373 
v -0.00269292 0.001 -0.00340373 
v -0.00269518 -0.001 -0.0034 
v -0.00269518 0.001 -0.0034 
v -0.00269728 -0.001 -0.00339617 
v -0.00269728 0.001 -0.00339617 
v -0.00269921 -0.001 -0.00339226 
v -0.00269921 0.001 -0.00339226 
v -0.00270097 -0.001 -0.00338827 
v -0.00270097 0.001 -0.00338827 
v -0.00270255 -0.001 -0.0033842 
v -0.00270255 0.001 -0.0033842 
v -0.00270395 -0.001 -0.00338007 
v -0.00270395 0.001 -0.00338007 
v -0.00270517 -0.001 -0.00337588 
v -0.00270517 0.001 -0.00337588 
v -0.00270621 -0.001 -0.00337164 
v -0.00270621 0.001 -0.00337164 
v -0.00270706 -0.001 -0.00336736 
v -0.00270706 0.001 -0.00336736 
v -0.00270772 -0.001 -0.00336305 
v -0.00270772 0.001 -0.00336305 
v -0.0027082 -0.001 -0.00335872 
v -0.0027082 0.001 -0.00335872 
v -0.00270848 -0.001 -0.00335436 
v -0.00270848 0.001 -0.00335436 
v -0.00270858 -0.001 -0.00335 
v -0.00270858 0.001 -0.00335 
v -0.00270848 -0.001 -0.00334564 
v -0.00270848 0.001 -0.00334564 
v -0.0027082 -0.001 -0.00334128 
v -0.0027082 0.001 -0.00334128 
v -0.00270772 -0.001 -0.00333695 
v -0.00270772 0.001 -0.00333695 
v -0.00270706 -0.001 -0.00333264 
v -0.00270706 0.001 -0.00333264 
v -0.00270621 -0.001 -0.00332836 
v -0.00270621 0.001 -0.00332836 
v -0.00270517 -0.001 -0.00332412 
v -0.00270517 0.001 -0.00332412 
v -0.00270395 -0.001 -0.00331993 
v -0.00270395 0.001 -0.00331993 
v -0.00270255 -0.001 -0.0033158 
v -0.00270255 0.001 -0.0033158 
v -0.00270097 -0.001 -0.00331173 
v -0.00270097 0.001 -0.00331173 
v -0.00269921 -0.001 -0.00330774 
v -0.00269921 0.001 -0.00330774 
v -0.00269728 -0.001 -0.00330383 
v -0.00269728 0.001 -0.00330383 
v -0.00269518 -0.001 -0.0033 
v -0.00269518 0.001 -0.0033 
v -0.00269292 -0.001 -0.00329627 
v -0.00269292 0.001 -0.00329627 
v -0.00269049 -0.001 -0.00329264 
v -0.00269049 0.001 -0.00329264 
v -0.00268791 -0.001 -0.00328912 
v -0.00268791 0.001 -0.00328912 
v -0.00268518 -0.001 -0.00328572 
v -0.00268518 0.001 -0.00328572 
v -0.00268231 -0.001 -0.00328244 
v -0.00268231 0.001 -0.00328244 
v -0.00267929 -0.001 -0.00327929 
v -0.00267929 0.001 -0.00327929 
v -0.00267614 -0.001 -0.00327627 
v -0.00267614 0.001 -0.00327627 
v -0.00267286 -0.001 -0.0032734 
v -0.00267286 0.001 -0.0032734 
v -0.00266945 -0.001 -0.00327066 
v -0.00266945 0.001 -0.00327066 
v -0.00266594 -0.001 -0.00326808 
v -0.00266594 0.001 -0.00326808 
v -0.00266231 -0.001 -0.00326566 
v -0.00266231 0.001 -0.00326566 
v -0.00265858 -0.001 -0.0032634 
v -0.00265858 0.001 -0.0032634 
v -0.00265475 -0.001 -0.0032613 
v -0.00265475 0.001 -0.0032613 
v -0.00265084 -0.001 -0.00325937 
v -0.00265084 0.001 -0.00325937 
v -0.00264685 -0.001 -0.00325761 
v -0.00264685 0.001 -0.00325761 
v -0.00264278 -0.001 -0.00325603 
v -0.00264278 0.001 -0.00325603 
v -0.00263865 -0.001 -0.00325463 
v -0.00263865 0.001 -0.00325463 
v -0.00263446 -0.001 -0.00325341 
v -0.00263446 0.001 -0.00325341 
v -0.00263022 -0.001 -0.00325237 
v -0.00263022 0.001 -0.00325237 
v -0.00262594 -0.001 -0.00325152 
v -0.00262594 0.001 -0.00325152 
v -0.00262163 -0.001 -0.00325086 
v -0.00262163 0.001 -0.00325086 
v -0.00261729 -0.001 -0.00325038 
v -0.00261729 0.001 -0.00325038 
v -0.00261294 -0.001 -0.0032501 
v -0.00261294 0.001 -0.0032501 
v -0.00260858 -0.001 -0.00325 
v -0.00260858 0.001 -0.00325 
v -0.002 -0.001 -0.00325 
v -0.002 0.001 -0.00325 
v -0.002 -0.001 0 
v -0.002 0.001 0 
v 0.002 -0.001 0 
v 0.002 0.001 0 
v 0.002 -0.001 -0.00325 
v 0.002 0.001 -0.00325 
v 0.00260858 -0.001 -0.00325 
v 0.00260858 0.001 -0.00325 
v 0.001 0.001 -0.00338333 
v 0.001 -0.001 -0.00338333 
v 0.0014 0.001 -0.00378333 
v 0.0014 -0.001 -0.00378333 
v 0.00270621 -0.001 -0.00332836 
v 0.00263022 -0.001 -0.00325237 
v 0.00262594 -0.001 -0.00325152 
v 0.00263865 -0.001 -0.00325463 
v 0.00263446 -0.001 -0.00325341 
v 0.00262163 -0.001 -0.00325086 
v 0.00261729 -0.001 -0.00325038 
v 0.00268231 -0.001 -0.00328244 
v 0.00266945 -0.001 -0.00327066 
v 0.00266594 -0.001 -0.00326808 
v 0.00266231 -0.001 -0.00326566 
v 0.00269292 -0.001 -0.00329627 
v 0.00269049 -0.001 -0.00329264 
v 0.00270517 -0.001 -0.00332412 
v 0.00270395 -0.001 -0.00331993 
v 0.00264685 -0.001 -0.00325761 
v 0.00264278 -0.001 -0.00325603 
v 0.00267286 -0.001 -0.0032734 
v 0.00267929 -0.001 -0.00327929 
v 0.00268791 -0.001 -0.00328912 
v 0.00269921 -0.001 -0.00330774 
v 0.00269728 -0.001 -0.00330383 
v 0.00270255 -0.001 -0.0033158 
v 0.00270097 -0.001 -0.00331173 
v 0.00261294 -0.001 -0.0032501 
v 0.00265084 -0.001 -0.00325937 
v 0.00265858 -0.001 -0.0032634 
v 0.00265475 -0.001 -0.0032613 
v 0.00267614 -0.001 -0.00327627 
v 0.00268518 -0.001 -0.00328572 
v 0.00269518 -0.001 -0.0033 
v 0.00270255 -0.001 -0.0033842 
v 0.00270395 -0.001 -0.00338007 
v 0.00268791 -0.001 -0.00341088 
v 0.00269049 -0.001 -0.00340736 
v 0.00270517 -0.001 -0.00337588 
v 0.00268518 -0.001 -0.00341428 
v 0.00270772 -0.001 -0.00333695 
v 0.00270706 -0.001 -0.00333264 
v 0.00270848 -0.001 -0.00334564 
v 0.0027082 -0.001 -0.00334128 
v 0.00270097 -0.001 -0.00338827 
v 0.00269728 -0.001 -0.00339617 
v 0.00269921 -0.001 -0.00339226 
v 0.00269292 -0.001 -0.00340373 
v 0.00270772 -0.001 -0.00336305 
v 0.0027082 -0.001 -0.00335872 
v 0.00270621 -0.001 -0.00337164 
v 0.00270706 -0.001 -0.00336736 
v 0.00269518 -0.001 -0.0034 
v 0.00270848 -0.001 -0.00335436 
v 0.00270858 -0.001 -0.00335 
v 0.00267929 -0.001 -0.00342071 
v 0.00268231 -0.001 -0.00341756 
v 0.00231667 -0.001 -0.00378333 
v 0.00266231 0.001 -0.00326566 
v 0.00270255 0.001 -0.0033158 
v 0.00270395 0.001 -0.00331993 
v 0.00268791 0.001 -0.00328912 
v 0.00269049 0.001 -0.00329264 
v 0.00268231 0.001 -0.00328244 
v 0.00266594 0.001 -0.00326808 
v 0.00270621 0.001 -0.00332836 
v 0.00263022 0.001 -0.00325237 
v 0.00263446 0.001 -0.00325341 
v 0.00262163 0.001 -0.00325086 
v 0.00262594 0.001 -0.00325152 
v 0.00261294 0.001 -0.0032501 
v 0.00261729 0.001 -0.00325038 
v 0.00270517 0.001 -0.00332412 
v 0.00269921 0.001 -0.00330774 
v 0.00270097 0.001 -0.00331173 
v 0.00269518 0.001 -0.0033 
v 0.00269728 0.001 -0.00330383 
v 0.00268518 0.001 -0.00328572 
v 0.00267286 0.001 -0.0032734 
v 0.00267614 0.001 -0.00327627 
v 0.00267929 0.001 -0.00327929 
v 0.00266945 0.001 -0.00327066 
v 0.00263865 0.001 -0.00325463 
v 0.00264278 0.001 -0.00325603 
v 0.00269292 0.001 -0.00340373 
v 0.00269049 0.001 -0.00340736 
v 0.00270517 0.001 -0.00337588 
v 0.00270395 0.001 -0.00338007 
v 0.00269292 0.001 -0.00329627 
v 0.00265084 0.001 -0.00325937 
v 0.00265475 0.001 -0.0032613 
v 0.00264685 0.001 -0.00325761 
v 0.00268791 0.001 -0.00341088 
v 0.00270621 0.001 -0.00337164 
v 0.00265858 0.001 -0.0032634 
v 0.00269518 0.001 -0.0034 
v 0.00270097 0.001 -0.00338827 
v 0.00269921 0.001 -0.00339226 
v 0.00270255 0.001 -0.0033842 
v 0.00270772 0.001 -0.00333695 
v 0.0027082 0.001 -0.00334128 
v 0.00270706 0.001 -0.00333264 
v 0.00269728 0.001 -0.00339617 
v 0.00270772 0.001 -0.00336305 
v 0.00270706 0.001 -0.00336736 
v 0.00270848 0.001 -0.00335436 
v 0.0027082 0.001 -0.00335872 
v 0.00270848 0.001 -0.00334564 
v 0.00270858 0.001 -0.00335 
v 0.00268518 0.001 -0.00341428 
v 0.00268231 0.001 -0.00341756 
v 0.00231667 0.001 -0.00378333 
v 0.00267929 0.001 -0.00342071 
vn 0.999048 0 -0.0436194 
vn 1 0 -1.83697e-16 
vn 0.996195 0 -0.0871557 
vn 0.999048 0 -0.0436194 
vn 0.991445 0 -0.130526 
vn 0.996195 0 -0.0871557 
vn 0.984808 0 -0.173648 
vn 0.991445 0 -0.130526 
vn 0.976296 0 -0.21644 
vn 0.984808 0 -0.173648 
vn 0.965926 0 -0.258819 
vn 0.976296 0 -0.21644 
vn 0.953717 0 -0.300706 
vn 0.965926 0 -0.258819 
vn 0.939693 0 -0.34202 
vn 0.953717 0 -0.300706 
vn 0.92388 0 -0.382683 
vn 0.939693 0 -0.34202 
vn 0.906308 0 -0.422618 
vn 0.92388 0 -0.382683 
vn 0.887011 0 -0.461749 
vn 0.906308 0 -0.422618 
vn 0.866025 0 -0.5 
vn 0.887011 0 -0.461749 
vn 0.843391 0 -0.5373 
vn 0.866025 0 -0.5 
vn 0.819152 0 -0.573576 
vn 0.843391 0 -0.5373 
vn 0.793353 0 -0.608761 
vn 0.819152 0 -0.573576 
vn 0.766044 0 -0.642788 
vn 0.793353 0 -0.608761 
vn 0.737277 0 -0.67559 
vn 0.766044 0 -0.642788 
vn 0.707107 0 -0.707107 
vn 0.737277 0 -0.67559 
vn 0.67559 0 -0.737277 
vn 0.707107 0 -0.707107 
vn 0.642788 0 -0.766044 
vn 0.67559 0 -0.737277 
vn 0.608761 0 -0.793353 
vn 0.642788 0 -0.766044 
vn 0.573576 0 -0.819152 
vn 0.608761 0 -0.793353 
vn 0.5373 0 -0.843391 
vn 0.573576 0 -0.819152 
vn 0.5 0 -0.866025 
vn 0.5373 0 -0.843391 
vn 0.461749 0 -0.887011 
vn 0.5 0 -0.866025 
vn 0.422618 0 -0.906308 
vn 0.461749 0 -0.887011 
vn 0.382683 0 -0.92388 
vn 0.422618 0 -0.906308 
vn 0.34202 0 -0.939693 
vn 0.382683 0 -0.92388 
vn 0.300706 0 -0.953717 
vn 0.34202 0 -0.939693 
vn 0.258819 0 -0.965926 
vn 0.300706 0 -0.953717 
vn 0.21644 0 -0.976296 
vn 0.258819 0 -0.965926 
vn 0.173648 0 -0.984808 
vn 0.21644 0 -0.976296 
vn 0.130526 0 -0.991445 
vn 0.173648 0 -0.984808 
vn 0.0871557 0 -0.996195 
vn 0.130526 0 -0.991445 
vn 0.0436194 0 -0.999048 
vn 0.0871557 0 -0.996195 
vn -1.22465e-16 0 -1 
vn 0.0436194 0 -0.999048 
vn -0.0436194 0 -0.999048 
vn -1.22465e-16 0 -1 
vn -0.0871557 0 -0.996195 
vn -0.0436194 0 -0.999048 
vn -0.130526 0 -0.991445 
vn -0.0871557 0 -0.996195 
vn -0.173648 0 -0.984808 
vn -0.130526 0 -0.991445 
vn -0.21644 0 -0.976296 
vn -0.173648 0 -0.984808 
vn -0.258819 0 -0.965926 
vn -0.21644 0 -0.976296 
vn -0.300706 0 -0.953717 
vn -0.258819 0 -0.965926 
vn -0.34202 0 -0.939693 
vn -0.300706 0 -0.953717 
vn -0.382683 0 -0.92388 
vn -0.34202 0 -0.939693 
vn -0.422618 0 -0.906308 
vn -0.382683 0 -0.92388 
vn -0.461749 0 -0.887011 
vn -0.422618 0 -0.906308 
vn -0.5 0 -0.866025 
vn -0.461749 0 -0.887011 
vn -0.5373 0 -0.843391 
vn -0.5 0 -0.866025 
vn -0.573576 0 -0.819152 
vn -0.5373 0 -0.843391 
vn -0.608761 0 -0.793353 
vn -0.573576 0 -0.819152 
vn -0.642788 0 -0.766044 
vn -0.608761 0 -0.793353 
vn -0.67559 0 -0.737277 
vn -0.642788 0 -0.766044 
vn -0.707107 0 -0.707107 
vn -0.67559 0 -0.737277 
vn -0.737277 0 -0.67559 
vn -0.707107 0 -0.707107 
vn -0.766044 0 -0.642788 
vn -0.737277 0 -0.67559 
vn -0.793353 0 -0.608761 
vn -0.766044 0 -0.642788 
vn -0.819152 0 -0.573576 
vn -0.793353 0 -0.608761 
vn -0.843391 0 -0.5373 
vn -0.819152 0 -0.573576 
vn -0.866025 0 -0.5 
vn -0.843391 0 -0.5373 
vn -0.887011 0 -0.461749 
vn -0.866025 0 -0.5 
vn -0.906308 0 -0.422618 
vn -0.887011 0 -0.461749 
vn -0.92388 0 -0.382683 
vn -0.906308 0 -0.422618 
vn -0.939693 0 -0.34202 
vn -0.92388 0 -0.382683 
vn -0.953717 0 -0.300706 
vn -0.939693 0 -0.34202 
vn -0.965926 0 -0.258819 
vn -0.953717 0 -0.300706 
vn -0.976296 0 -0.21644 
vn -0.965926 0 -0.258819 
vn -0.984808 0 -0.173648 
vn -0.976296 0 -0.21644 
vn -0.991445 0 -0.130526 
vn -0.984808 0 -0.173648 
vn -0.996195 0 -0.0871557 
vn -0.991445 0 -0.130526 
vn -0.999048 0 -0.0436194 
vn -0.996195 0 -0.0871557 
vn -1 0 6.12323e-17 
vn -0.999048 0 -0.0436194 
vn 1 0 0 
vn 0.707107 0 -0.707107 
vn 0 0 -1 
vn -0.707107 0 -0.707107 
vn -0.737277 0 -0.67559 
vn -0.766044 0 -0.642788 
vn -0.793353 0 -0.608761 
vn -0.819152 0 -0.573576 
vn -0.843391 0 -0.5373 
vn -0.866025 0 -0.5 
vn -0.887011 0 -0.461749 
vn -0.906308 0 -0.422618 
vn -0.92388 0 -0.382683 
vn -0.939693 0 -0.34202 
vn -0.953717 0 -0.300706 
vn -0.965926 0 -0.258819 
vn -0.976296 0 -0.21644 
vn -0.984808 0 -0.173648 
vn -0.991445 0 -0.130526 
vn -0.996195 0 -0.0871557 
vn -0.999048 0 -0.0436194 
vn -1 0 -1.83697e-16 
vn -0.999048 0 0.0436194 
vn -0.996195 0 0.0871557 
vn -0.991445 0 0.130526 
vn -0.984808 0 0.173648 
vn -0.976296 0 0.21644 
vn -0.965926 0 0.258819 
vn -0.953717 0 0.300706 
vn -0.939693 0 0.34202 
vn -0.92388 0 0.382683 
vn -0.906308 0 0.422618 
vn -0.887011 0 0.461749 
vn -0.866025 0 0.5 
vn -0.843391 0 0.5373 
vn -0.819152 0 0.573576 
vn -0.793353 0 0.608761 
vn -0.766044 0 0.642788 
vn -0.737277 0 0.67559 
vn -0.707107 0 0.707107 
vn -0.67559 0 0.737277 
vn -0.642788 0 0.766044 
vn -0.608761 0 0.793353 
vn -0.573576 0 0.819152 
vn -0.5373 0 0.843391 
vn -0.5 0 0.866025 
vn -0.461749 0 0.887011 
vn -0.422618 0 0.906308 
vn -0.382683 0 0.92388 
vn -0.34202 0 0.939693 
vn -0.300706 0 0.953717 
vn -0.258819 0 0.965926 
vn -0.21644 0 0.976296 
vn -0.173648 0 0.984808 
vn -0.130526 0 0.991445 
vn -0.0871557 0 0.996195 
vn -0.0436194 0 0.999048 
vn -2.44929e-16 0 1 
vn -1 0 0 
vn 1 0 0 
vn 0 0 1 
vn -1 0 0 
vn -0.707107 0 -0.707107 
vn 0 -1 0 
vn 0 1 0 
vn 0.707107 0 -0.707107 
vn 0 0 -1 
vn 0 0 1 
vn 0.0436194 0 0.999048 
vn 0.0871557 0 0.996195 
vn 0.130526 0 0.991445 
vn 0.173648 0 0.984808 
vn 0.21644 0 0.976296 
vn 0.258819 0 0.965926 
vn 0.300706 0 0.953717 
vn 0.34202 0 0.939693 
vn 0.382683 0 0.92388 
vn 0.422618 0 0.906308 
vn 0.461749 0 0.887011 
vn 0.5 0 0.866025 
vn 0.5373 0 0.843391 
vn 0.573576 0 0.819152 
vn 0.608761 0 0.793353 
vn 0.642788 0 0.766044 
vn 0.67559 0 0.737277 
vn 0.707107 0 0.707107 
vn 0.737277 0 0.67559 
vn 0.766044 0 0.642788 
vn 0.793353 0 0.608761 
vn 0.819152 0 0.573576 
vn 0.843391 0 0.5373 
vn 0.866025 0 0.5 
vn 0.887011 0 0.461749 
vn 0.906308 0 0.422618 
vn 0.92388 0 0.382683 
vn 0.939693 0 0.34202 
vn 0.953717 0 0.300706 
vn 0.965926 0 0.258819 
vn 0.976296 0 0.21644 
vn 0.984808 0 0.173648 
vn 0.991445 0 0.130526 
vn 0.996195 0 0.0871557 
vn 0.999048 0 0.0436194 
vn 1 0 6.12323e-17 
vn 0.999048 0 -0.0436194 
vn 0.996195 0 -0.0871557 
vn 0.991445 0 -0.130526 
vn 0.984808 0 -0.173648 
vn 0.976296 0 -0.21644 
vn 0.965926 0 -0.258819 
vn 0.953717 0 -0.300706 
vn 0.939693 0 -0.34202 
vn 0.92388 0 -0.382683 
vn 0.906308 0 -0.422618 
vn 0.887011 0 -0.461749 
vn 0.866025 0 -0.5 
vn 0.843391 0 -0.5373 
vn 0.819152 0 -0.573576 
vn 0.793353 0 -0.608761 
vn 0.766044 0 -0.642788 
vn 0.737277 0 -0.67559 
vn 0.707107 0 -0.707107 
usemtl 0.615686_0.811765_0.929412_0.000000_0.000000
o mesh0
f 1//1 2//2 3//2 
f 4//3 1//1 5//4 
f 6//5 4//3 7//6 
f 8//7 6//5 9//8 
f 10//9 8//7 11//10 
f 12//11 10//9 13//12 
f 14//13 12//11 15//14 
f 16//15 14//13 17//16 
f 18//17 16//15 19//18 
f 20//19 18//17 21//20 
f 22//21 20//19 23//22 
f 24//23 22//21 25//24 
f 26//25 24//23 27//26 
f 28//27 26//25 29//28 
f 30//29 28//27 31//30 
f 32//31 30//29 33//32 
f 34//33 32//31 35//34 
f 36//35 34//33 37//36 
f 38//37 36//35 39//38 
f 40//39 38//37 41//40 
f 42//41 40//39 43//42 
f 44//43 42//41 45//44 
f 46//45 44//43 47//46 
f 48//47 46//45 49//48 
f 50//49 48//47 51//50 
f 52//51 50//49 53//52 
f 54//53 52//51 55//54 
f 56//55 54//53 57//56 
f 58//57 56//55 59//58 
f 60//59 58//57 61//60 
f 62//61 60//59 63//62 
f 64//63 62//61 65//64 
f 66//65 64//63 67//66 
f 68//67 66//65 69//68 
f 70//69 68//67 71//70 
f 72//71 70//69 73//72 
f 74//73 72//71 75//74 
f 76//75 74//73 77//76 
f 78//77 76//75 79//78 
f 80//79 78//77 81//80 
f 82//81 80//79 83//82 
f 84//83 82//81 85//84 
f 86//85 84//83 87//86 
f 88//87 86//85 89//88 
f 90//89 88//87 91//90 
f 92//91 90//89 93//92 
f 94//93 92//91 95//94 
f 96//95 94//93 97//96 
f 98//97 96//95 99//98 
f 100//99 98//97 101//100 
f 102//101 100//99 103//102 
f 104//103 102//101 105//104 
f 106//105 104//103 107//106 
f 108//107 106//105 109//108 
f 110//109 108//107 111//110 
f 112//111 110//109 113//112 
f 114//113 112//111 115//114 
f 116//115 114//113 117//116 
f 118//117 116//115 119//118 
f 120//119 118//117 121//120 
f 122//121 120//119 123//122 
f 124//123 122//121 125//124 
f 126//125 124//123 127//126 
f 128//127 126//125 129//128 
f 130//129 128//127 131//130 
f 132//131 130//129 133//132 
f 134//133 132//131 135//134 
f 136//135 134//133 137//136 
f 138//137 136//135 139//138 
f 140//139 138//137 141//140 
f 142//141 140//139 143//142 
f 144//143 142//141 145//144 
f 145//144 146//143 144//143 
f 143//142 145//144 142//141 
f 141//140 143//142 140//139 
f 139//138 141//140 138//137 
f 137//136 139//138 136//135 
f 135//134 137//136 134//133 
f 133//132 135//134 132//131 
f 131//130 133//132 130//129 
f 129//128 131//130 128//127 
f 127//126 129//128 126//125 
f 125//124 127//126 124//123 
f 123//122 125//124 122//121 
f 121//120 123//122 120//119 
f 119//118 121//120 118//117 
f 117//116 119//118 116//115 
f 115//114 117//116 114//113 
f 113//112 115//114 112//111 
f 111//110 113//112 110//109 
f 109//108 111//110 108//107 
f 107//106 109//108 106//105 
f 105//104 107//106 104//103 
f 103//102 105//104 102//101 
f 101//100 103//102 100//99 
f 99//98 101//100 98//97 
f 97//96 99//98 96//95 
f 95//94 97//96 94//93 
f 93//92 95//94 92//91 
f 91//90 93//92 90//89 
f 89//88 91//90 88//87 
f 87//86 89//88 86//85 
f 85//84 87//86 84//83 
f 83//82 85//84 82//81 
f 81//80 83//82 80//79 
f 79//78 81//80 78//77 
f 77//76 79//78 76//75 
f 75//74 77//76 74//73 
f 73//72 75//74 72//71 
f 71//70 73//72 70//69 
f 69//68 71//70 68//67 
f 67//66 69//68 66//65 
f 65//64 67//66 64//63 
f 63//62 65//64 62//61 
f 61//60 63//62 60//59 
f 59//58 61//60 58//57 
f 57//56 59//58 56//55 
f 55//54 57//56 54//53 
f 53//52 55//54 52//51 
f 51//50 53//52 50//49 
f 49//48 51//50 48//47 
f 47//46 49//48 46//45 
f 45//44 47//46 44//43 
f 43//42 45//44 42//41 
f 41//40 43//42 40//39 
f 39//38 41//40 38//37 
f 37//36 39//38 36//35 
f 35//34 37//36 34//33 
f 33//32 35//34 32//31 
f 31//30 33//32 30//29 
f 29//28 31//30 28//27 
f 27//26 29//28 26//25 
f 25//24 27//26 24//23 
f 23//22 25//24 22//21 
f 21//20 23//22 20//19 
f 19//18 21//20 18//17 
f 17//16 19//18 16//15 
f 15//14 17//16 14//13 
f 13//12 15//14 12//11 
f 11//10 13//12 10//9 
f 9//8 11//10 8//7 
f 7//6 9//8 6//5 
f 5//4 7//6 4//3 
f 3//2 5//4 1//1 
o mesh1
f 147//145 148//145 3//145 
f 3//145 2//145 147//145 
o mesh2
f 148//146 147//146 149//146 
f 149//146 150//146 148//146 
o mesh3
f 151//147 152//147 150//147 
f 150//147 149//147 151//147 
o mesh4
f 152//148 151//148 153//148 
f 153//148 154//148 152//148 
o mesh5
f 154//148 153//148 155//149 
f 156//149 155//149 157//150 
f 158//150 157//150 159//151 
f 160//151 159//151 161//152 
f 162//152 161//152 163//153 
f 164//153 163//153 165//154 
f 166//154 165//154 167//155 
f 168//155 167//155 169//156 
f 170//156 169//156 171//157 
f 172//157 171//157 173//158 
f 174//158 173//158 175//159 
f 176//159 175//159 177//160 
f 178//160 177//160 179//161 
f 180//161 179//161 181//162 
f 182//162 181//162 183//163 
f 184//163 183//163 185//164 
f 186//164 185//164 187//165 
f 188//165 187//165 189//166 
f 190//166 189//166 191//167 
f 192//167 191//167 193//168 
f 194//168 193//168 195//169 
f 196//169 195//169 197//170 
f 198//170 197//170 199//171 
f 200//171 199//171 201//172 
f 202//172 201//172 203//173 
f 204//173 203//173 205//174 
f 206//174 205//174 207//175 
f 208//175 207//175 209//176 
f 210//176 209//176 211//177 
f 212//177 211//177 213//178 
f 214//178 213//178 215//179 
f 216//179 215//179 217//180 
f 218//180 217//180 219//181 
f 220//181 219//181 221//182 
f 222//182 221//182 223//183 
f 224//183 223//183 225//184 
f 226//184 225//184 227//185 
f 228//185 227//185 229//186 
f 230//186 229//186 231//187 
f 232//187 231//187 233//188 
f 234//188 233//188 235//189 
f 236//189 235//189 237//190 
f 238//190 237//190 239//191 
f 240//191 239//191 241//192 
f 242//192 241//192 243//193 
f 244//193 243//193 245//194 
f 246//194 245//194 247//195 
f 248//195 247//195 249//196 
f 250//196 249//196 251//197 
f 252//197 251//197 253//198 
f 254//198 253//198 255//199 
f 256//199 255//199 257//200 
f 258//200 257//200 259//201 
f 260//201 259//201 261//202 
f 261//202 262//202 260//201 
f 259//201 260//201 258//200 
f 257//200 258//200 256//199 
f 255//199 256//199 254//198 
f 253//198 254//198 252//197 
f 251//197 252//197 250//196 
f 249//196 250//196 248//195 
f 247//195 248//195 246//194 
f 245//194 246//194 244//193 
f 243//193 244//193 242//192 
f 241//192 242//192 240//191 
f 239//191 240//191 238//190 
f 237//190 238//190 236//189 
f 235//189 236//189 234//188 
f 233//188 234//188 232//187 
f 231//187 232//187 230//186 
f 229//186 230//186 228//185 
f 227//185 228//185 226//184 
f 225//184 226//184 224//183 
f 223//183 224//183 222//182 
f 221//182 222//182 220//181 
f 219//181 220//181 218//180 
f 217//180 218//180 216//179 
f 215//179 216//179 214//178 
f 213//178 214//178 212//177 
f 211//177 212//177 210//176 
f 209//176 210//176 208//175 
f 207//175 208//175 206//174 
f 205//174 206//174 204//173 
f 203//173 204//173 202//172 
f 201//172 202//172 200//171 
f 199//171 200//171 198//170 
f 197//170 198//170 196//169 
f 195//169 196//169 194//168 
f 193//168 194//168 192//167 
f 191//167 192//167 190//166 
f 189//166 190//166 188//165 
f 187//165 188//165 186//164 
f 185//164 186//164 184//163 
f 183//163 184//163 182//162 
f 181//162 182//162 180//161 
f 179//161 180//161 178//160 
f 177//160 178//160 176//159 
f 175//159 176//159 174//158 
f 173//158 174//158 172//157 
f 171//157 172//157 170//156 
f 169//156 170//156 168//155 
f 167//155 168//155 166//154 
f 165//154 166//154 164//153 
f 163//153 164//153 162//152 
f 161//152 162//152 160//151 
f 159//151 160//151 158//150 
f 157//150 158//150 156//149 
f 155//149 156//149 154//148 
o mesh6
f 263//202 264//202 262//202 
f 262//202 261//202 263//202 
o mesh7
f 265//203 266//203 264//203 
f 264//203 263//203 265//203 
o mesh8
f 267//202 268//202 266//202 
f 266//202 265//202 267//202 
o mesh9
f 269//204 270//204 268//204 
f 268//204 267//204 269//204 
o mesh10
f 271//205 272//205 270//205 
f 270//205 269//205 271//205 
o mesh11
f 273//206 274//206 144//206 
f 144//206 146//206 273//206 
o mesh12
f 275//207 276//207 274//207 
f 274//207 273//207 275//207 
o mesh13
f 267//208 78//208 80//208 
f 267//208 74//208 76//208 
f 265//208 58//208 60//208 
f 263//208 149//208 147//208 
f 267//208 84//208 86//208 
f 76//208 78//208 267//208 
f 60//208 62//208 265//208 
f 147//208 2//208 263//208 
f 267//208 108//208 110//208 
f 86//208 88//208 267//208 
f 80//208 82//208 267//208 
f 265//208 70//208 72//208 
f 265//208 66//208 68//208 
f 62//208 64//208 265//208 
f 265//208 52//208 54//208 
f 265//208 44//208 46//208 
f 265//208 36//208 38//208 
f 265//208 6//208 8//208 
f 2//208 265//208 263//208 
f 277//208 278//208 279//208 
f 277//208 280//208 281//208 
f 173//208 205//208 203//208 
f 153//208 251//208 249//208 
f 110//208 112//208 267//208 
f 267//208 102//208 104//208 
f 267//208 98//208 100//208 
f 267//208 90//208 92//208 
f 82//208 84//208 267//208 
f 72//208 267//208 265//208 
f 64//208 66//208 265//208 
f 54//208 56//208 265//208 
f 46//208 48//208 265//208 
f 38//208 40//208 265//208 
f 265//208 18//208 20//208 
f 265//208 10//208 12//208 
f 265//208 4//208 6//208 
f 2//208 1//208 265//208 
f 277//208 282//208 283//208 
f 281//208 278//208 277//208 
f 284//208 285//208 286//208 
f 287//208 288//208 289//208 
f 287//208 290//208 291//208 
f 215//208 171//208 169//208 
f 195//208 179//208 177//208 
f 183//208 195//208 193//208 
f 203//208 201//208 173//208 
f 153//208 245//208 243//208 
f 249//208 247//208 153//208 
f 112//208 114//208 267//208 
f 104//208 106//208 267//208 
f 267//208 96//208 98//208 
f 92//208 94//208 267//208 
f 72//208 74//208 267//208 
f 56//208 58//208 265//208 
f 48//208 50//208 265//208 
f 40//208 42//208 265//208 
f 265//208 30//208 32//208 
f 265//208 22//208 24//208 
f 265//208 16//208 18//208 
f 12//208 14//208 265//208 
f 1//208 4//208 265//208 
f 279//208 282//208 277//208 
f 277//208 292//208 293//208 
f 284//208 294//208 285//208 
f 294//208 284//208 295//208 
f 289//208 296//208 287//208 
f 287//208 297//208 298//208 
f 287//208 299//208 300//208 
f 287//208 277//208 290//208 
f 215//208 165//208 163//208 
f 215//208 173//208 171//208 
f 177//208 175//208 195//208 
f 195//208 183//208 181//208 
f 183//208 189//208 187//208 
f 193//208 191//208 183//208 
f 173//208 199//208 197//208 
f 173//208 207//208 205//208 
f 173//208 211//208 209//208 
f 173//208 215//208 213//208 
f 247//208 245//208 153//208 
f 153//208 255//208 253//208 
f 106//208 108//208 267//208 
f 94//208 96//208 267//208 
f 68//208 70//208 265//208 
f 42//208 44//208 265//208 
f 32//208 34//208 265//208 
f 265//208 26//208 28//208 
f 20//208 22//208 265//208 
f 8//208 10//208 265//208 
f 283//208 301//208 277//208 
f 277//208 302//208 292//208 
f 277//208 303//208 304//208 
f 295//208 305//208 294//208 
f 296//208 306//208 287//208 
f 298//208 307//208 287//208 
f 291//208 299//208 287//208 
f 271//208 308//208 309//208 
f 271//208 310//208 311//208 
f 163//208 161//208 215//208 
f 169//208 167//208 215//208 
f 181//208 179//208 195//208 
f 191//208 189//208 183//208 
f 201//208 199//208 173//208 
f 213//208 211//208 173//208 
f 153//208 233//208 231//208 
f 153//208 237//208 235//208 
f 153//208 241//208 239//208 
f 253//208 251//208 153//208 
f 100//208 102//208 267//208 
f 50//208 52//208 265//208 
f 28//208 30//208 265//208 
f 14//208 16//208 265//208 
f 293//208 280//208 277//208 
f 277//208 287//208 303//208 
f 306//208 284//208 287//208 
f 300//208 297//208 287//208 
f 309//208 312//208 271//208 
f 271//208 313//208 310//208 
f 215//208 159//208 157//208 
f 167//208 165//208 215//208 
f 187//208 185//208 183//208 
f 209//208 207//208 173//208 
f 153//208 219//208 217//208 
f 153//208 225//208 223//208 
f 153//208 229//208 227//208 
f 235//208 233//208 153//208 
f 243//208 241//208 153//208 
f 153//208 259//208 257//208 
f 267//208 132//208 134//208 
f 267//208 116//208 118//208 
f 88//208 90//208 267//208 
f 24//208 26//208 265//208 
f 304//208 302//208 277//208 
f 307//208 288//208 287//208 
f 271//208 314//208 315//208 
f 271//208 316//208 317//208 
f 271//208 318//208 308//208 
f 271//208 319//208 320//208 
f 311//208 321//208 271//208 
f 161//208 159//208 215//208 
f 197//208 195//208 173//208 
f 153//208 221//208 219//208 
f 227//208 225//208 153//208 
f 239//208 237//208 153//208 
f 153//208 261//208 259//208 
f 269//208 144//208 274//208 
f 267//208 130//208 132//208 
f 267//208 124//208 126//208 
f 118//208 120//208 267//208 
f 34//208 36//208 265//208 
f 286//208 287//208 284//208 
f 317//208 314//208 271//208 
f 271//208 322//208 323//208 
f 271//208 324//208 325//208 
f 320//208 318//208 271//208 
f 321//208 326//208 271//208 
f 175//208 173//208 195//208 
f 223//208 221//208 153//208 
f 257//208 255//208 153//208 
f 269//208 267//208 144//208 
f 267//208 136//208 138//208 
f 267//208 128//208 130//208 
f 267//208 122//208 124//208 
f 114//208 116//208 267//208 
f 315//208 277//208 271//208 
f 271//208 327//208 328//208 
f 325//208 322//208 271//208 
f 326//208 319//208 271//208 
f 157//208 155//208 215//208 
f 231//208 229//208 153//208 
f 151//208 263//208 261//208 
f 267//208 142//208 144//208 
f 134//208 136//208 267//208 
f 120//208 122//208 267//208 
f 328//208 316//208 271//208 
f 312//208 324//208 271//208 
f 217//208 215//208 153//208 
f 151//208 149//208 263//208 
f 267//208 140//208 142//208 
f 126//208 128//208 267//208 
f 323//208 327//208 271//208 
f 271//208 329//208 330//208 
f 331//208 329//208 271//208 
f 261//208 153//208 151//208 
f 138//208 140//208 267//208 
f 330//208 313//208 271//208 
f 271//208 269//208 331//208 
f 274//208 276//208 269//208 
f 269//208 276//208 331//208 
f 301//208 271//208 277//208 
f 155//208 153//208 215//208 
o mesh14
f 264//209 3//209 148//209 
f 266//209 65//209 63//209 
f 266//209 69//209 67//209 
f 264//209 266//209 3//209 
f 266//209 59//209 57//209 
f 67//209 65//209 266//209 
f 266//209 73//209 71//209 
f 268//209 83//209 81//209 
f 266//209 5//209 3//209 
f 266//209 13//209 11//209 
f 266//209 61//209 59//209 
f 71//209 69//209 266//209 
f 268//209 77//209 75//209 
f 268//209 85//209 83//209 
f 332//209 333//209 334//209 
f 332//209 335//209 336//209 
f 337//209 332//209 338//209 
f 339//209 340//209 341//209 
f 339//209 342//209 343//209 
f 339//209 344//209 345//209 
f 266//209 7//209 5//209 
f 11//209 9//209 266//209 
f 266//209 17//209 15//209 
f 266//209 25//209 23//209 
f 266//209 43//209 41//209 
f 266//209 51//209 49//209 
f 63//209 61//209 266//209 
f 75//209 266//209 268//209 
f 81//209 79//209 268//209 
f 154//209 248//209 250//209 
f 334//209 346//209 332//209 
f 332//209 347//209 348//209 
f 332//209 349//209 350//209 
f 332//209 351//209 335//209 
f 352//209 353//209 354//209 
f 338//209 355//209 337//209 
f 339//209 356//209 357//209 
f 343//209 340//209 339//209 
f 339//209 272//209 344//209 
f 9//209 7//209 266//209 
f 266//209 19//209 17//209 
f 23//209 21//209 266//209 
f 266//209 29//209 27//209 
f 266//209 37//209 35//209 
f 266//209 45//209 43//209 
f 266//209 53//209 51//209 
f 75//209 73//209 266//209 
f 268//209 87//209 85//209 
f 268//209 91//209 89//209 
f 268//209 115//209 113//209 
f 154//209 246//209 248//209 
f 154//209 242//209 244//209 
f 272//209 358//209 359//209 
f 272//209 360//209 361//209 
f 348//209 333//209 332//209 
f 332//209 362//209 349//209 
f 332//209 337//209 351//209 
f 355//209 352//209 337//209 
f 339//209 363//209 364//209 
f 357//209 365//209 339//209 
f 345//209 342//209 339//209 
f 15//209 13//209 266//209 
f 27//209 25//209 266//209 
f 266//209 33//209 31//209 
f 266//209 39//209 37//209 
f 266//209 47//209 45//209 
f 266//209 55//209 53//209 
f 79//209 77//209 268//209 
f 268//209 93//209 91//209 
f 268//209 97//209 95//209 
f 268//209 105//209 103//209 
f 268//209 109//209 107//209 
f 268//209 117//209 115//209 
f 154//209 252//209 254//209 
f 244//209 246//209 154//209 
f 359//209 366//209 272//209 
f 272//209 367//209 360//209 
f 350//209 347//209 332//209 
f 354//209 337//209 352//209 
f 364//209 368//209 339//209 
f 341//209 356//209 339//209 
f 21//209 19//209 266//209 
f 35//209 33//209 266//209 
f 49//209 47//209 266//209 
f 89//209 87//209 268//209 
f 268//209 99//209 97//209 
f 103//209 101//209 268//209 
f 268//209 111//209 109//209 
f 268//209 119//209 117//209 
f 250//209 252//209 154//209 
f 154//209 238//209 240//209 
f 154//209 234//209 236//209 
f 154//209 230//209 232//209 
f 206//209 200//209 202//209 
f 272//209 369//209 358//209 
f 272//209 370//209 371//209 
f 361//209 372//209 272//209 
f 272//209 373//209 374//209 
f 272//209 339//209 375//209 
f 336//209 362//209 332//209 
f 365//209 363//209 339//209 
f 31//209 29//209 266//209 
f 57//209 55//209 266//209 
f 101//209 99//209 268//209 
f 113//209 111//209 268//209 
f 240//209 242//209 154//209 
f 232//209 234//209 154//209 
f 196//209 212//209 214//209 
f 196//209 208//209 210//209 
f 202//209 204//209 206//209 
f 208//209 196//209 198//209 
f 216//209 192//209 194//209 
f 216//209 184//209 186//209 
f 216//209 168//209 170//209 
f 272//209 376//209 369//209 
f 372//209 370//209 272//209 
f 272//209 377//209 378//209 
f 272//209 379//209 380//209 
f 375//209 373//209 272//209 
f 368//209 332//209 339//209 
f 41//209 39//209 266//209 
f 107//209 105//209 268//209 
f 268//209 123//209 121//209 
f 268//209 137//209 135//209 
f 154//209 256//209 258//209 
f 236//209 238//209 154//209 
f 210//209 212//209 196//209 
f 198//209 200//209 208//209 
f 216//209 190//209 192//209 
f 186//209 188//209 216//209 
f 216//209 176//209 178//209 
f 170//209 172//209 216//209 
f 216//209 162//209 164//209 
f 371//209 376//209 272//209 
f 380//209 377//209 272//209 
f 272//209 381//209 382//209 
f 346//209 339//209 332//209 
f 95//209 93//209 268//209 
f 268//209 125//209 123//209 
f 268//209 131//209 129//209 
f 268//209 139//209 137//209 
f 270//209 275//209 273//209 
f 254//209 256//209 154//209 
f 154//209 226//209 228//209 
f 154//209 222//209 224//209 
f 206//209 208//209 200//209 
f 188//209 190//209 216//209 
f 216//209 180//209 182//209 
f 216//209 174//209 176//209 
f 216//209 166//209 168//209 
f 216//209 160//209 162//209 
f 216//209 156//209 158//209 
f 378//209 367//209 272//209 
f 374//209 381//209 272//209 
f 121//209 119//209 268//209 
f 129//209 127//209 268//209 
f 135//209 133//209 268//209 
f 268//209 143//209 141//209 
f 273//209 146//209 270//209 
f 258//209 260//209 154//209 
f 224//209 226//209 154//209 
f 154//209 216//209 218//209 
f 194//209 196//209 216//209 
f 178//209 180//209 216//209 
f 164//209 166//209 216//209 
f 216//209 154//209 156//209 
f 272//209 383//209 384//209 
f 382//209 379//209 272//209 
f 385//209 270//209 272//209 
f 127//209 125//209 268//209 
f 141//209 139//209 268//209 
f 146//209 268//209 270//209 
f 228//209 230//209 154//209 
f 218//209 220//209 154//209 
f 182//209 184//209 216//209 
f 158//209 160//209 216//209 
f 366//209 383//209 272//209 
f 385//209 275//209 270//209 
f 133//209 131//209 268//209 
f 146//209 145//209 268//209 
f 220//209 222//209 154//209 
f 172//209 174//209 216//209 
f 264//209 152//209 154//209 
f 272//209 386//209 385//209 
f 145//209 143//209 268//209 
f 214//209 216//209 196//209 
f 154//209 262//209 264//209 
f 148//209 150//209 264//209 
f 264//209 150//209 152//209 
f 260//209 262//209 154//209 
f 384//209 386//209 272//209 
o mesh15
f 386//210 329//210 331//210 
f 331//210 385//210 386//210 
o mesh16
f 276//211 275//211 385//211 
f 385//211 331//211 276//211 
o mesh17
f 272//212 271//212 301//213 
f 344//213 301//213 283//214 
f 345//214 283//214 282//215 
f 342//215 282//215 279//216 
f 343//216 279//216 278//217 
f 340//217 278//217 281//218 
f 341//218 281//218 280//219 
f 356//219 280//219 293//220 
f 357//220 293//220 292//221 
f 365//221 292//221 302//222 
f 363//222 302//222 304//223 
f 364//223 304//223 303//224 
f 368//224 303//224 287//225 
f 332//225 287//225 286//226 
f 338//226 286//226 285//227 
f 355//227 285//227 294//228 
f 352//228 294//228 305//229 
f 353//229 305//229 295//230 
f 354//230 295//230 284//231 
f 337//231 284//231 306//232 
f 351//232 306//232 296//233 
f 335//233 296//233 289//234 
f 336//234 289//234 288//235 
f 362//235 288//235 307//236 
f 349//236 307//236 298//237 
f 350//237 298//237 297//238 
f 347//238 297//238 300//239 
f 348//239 300//239 299//240 
f 333//240 299//240 291//241 
f 334//241 291//241 290//242 
f 346//242 290//242 277//243 
f 339//243 277//243 315//244 
f 375//244 315//244 314//245 
f 373//245 314//245 317//246 
f 374//246 317//246 316//247 
f 381//247 316//247 328//248 
f 382//248 328//248 327//249 
f 379//249 327//249 323//250 
f 380//250 323//250 322//251 
f 377//251 322//251 325//252 
f 378//252 325//252 324//253 
f 367//253 324//253 312//254 
f 360//254 312//254 309//255 
f 361//255 309//255 308//256 
f 372//256 308//256 318//257 
f 370//257 318//257 320//258 
f 371//258 320//258 319//259 
f 376//259 319//259 326//260 
f 369//260 326//260 321//261 
f 358//261 321//261 311//262 
f 359//262 311//262 310//263 
f 366//263 310//263 313//264 
f 383//264 313//264 330//265 
f 384//265 330//265 329//266 
f 329//266 386//266 384//265 
f 330//265 384//265 383//264 
f 313//264 383//264 366//263 
f 310//263 366//263 359//262 
f 311//262 359//262 358//261 
f 321//261 358//261 369//260 
f 326//260 369//260 376//259 
f 319//259 376//259 371//258 
f 320//258 371//258 370//257 
f 318//257 370//257 372//256 
f 308//256 372//256 361//255 
f 309//255 361//255 360//254 
f 312//254 360//254 367//253 
f 324//253 367//253 378//252 
f 325//252 378//252 377//251 
f 322//251 377//251 380//250 
f 323//250 380//250 379//249 
f 327//249 379//249 382//248 
f 328//248 382//248 381//247 
f 316//247 381//247 374//246 
f 317//246 374//246 373//245 
f 314//245 373//245 375//244 
f 315//244 375//244 339//243 
f 277//243 339//243 346//242 
f 290//242 346//242 334//241 
f 291//241 334//241 333//240 
f 299//240 333//240 348//239 
f 300//239 348//239 347//238 
f 297//238 347//238 350//237 
f 298//237 350//237 349//236 
f 307//236 349//236 362//235 
f 288//235 362//235 336//234 
f 289//234 336//234 335//233 
f 296//233 335//233 351//232 
f 306//232 351//232 337//231 
f 284//231 337//231 354//230 
f 295//230 354//230 353//229 
f 305//229 353//229 352//228 
f 294//228 352//228 355//227 
f 285//227 355//227 338//226 
f 286//226 338//226 332//225 
f 287//225 332//225 368//224 
f 303//224 368//224 364//223 
f 304//223 364//223 363//222 
f 302//222 363//222 365//221 
f 292//221 365//221 357//220 
f 293//220 357//220 356//219 
f 280//219 356//219 341//218 
f 281//218 341//218 340//217 
f 278//217 340//217 343//216 
f 279//216 343//216 342//215 
f 282//215 342//215 345//214 
f 283//214 345//214 344//213 
f 301//213 344//213 272//212 
