# OBJ generated by ONSHAPE BY PTC INC, 1.221 Units = meters
mtllib MunchMoir - CaseLockUpper.mtl
g CaseLockUpper
v 0.00664615 0.0199308 0 
v 0.00664615 0.0199308 0.0037 
v 0.00651927 0.019644 0.0037 
v 0.00651927 0.019644 0 
v 0.00638003 0.019363 0.0037 
v 0.00638003 0.019363 0 
v 0.00622868 0.0190884 0.0037 
v 0.00622868 0.0190884 0 
v 0.00606551 0.0188206 0.0037 
v 0.00606551 0.0188206 0 
v 0.00589085 0.0185602 0.0037 
v 0.00589085 0.0185602 0 
v 0.005705 0.0183076 0.0037 
v 0.005705 0.0183076 0 
v 0.00550834 0.0180634 0.0037 
v 0.00550834 0.0180634 0 
v 0.00530123 0.0178279 0.0037 
v 0.00530123 0.0178279 0 
v 0.00508406 0.0176017 0.0037 
v 0.00508406 0.0176017 0 
v 0.00485725 0.0173852 0.0037 
v 0.00485725 0.0173852 0 
v 0.00462123 0.0171787 0.0037 
v 0.00462123 0.0171787 0 
v 0.00437644 0.0169828 0.0037 
v 0.00437644 0.0169828 0 
v 0.00412335 0.0167976 0.0037 
v 0.00412335 0.0167976 0 
v 0.00386244 0.0166237 0.0037 
v 0.00386244 0.0166237 0 
v 0.0035942 0.0164613 0.0037 
v 0.0035942 0.0164613 0 
v 0.00331915 0.0163107 0.0037 
v 0.00331915 0.0163107 0 
v 0.00303779 0.0161722 0.0037 
v 0.00303779 0.0161722 0 
v 0.00275068 0.0160461 0.0037 
v 0.00275068 0.0160461 0 
v 0.00245835 0.0159327 0.0037 
v 0.00245835 0.0159327 0 
v 0.00216136 0.0158321 0.0037 
v 0.00216136 0.0158321 0 
v 0.00186026 0.0157445 0.0037 
v 0.00186026 0.0157445 0 
v 0.00155564 0.0156701 0.0037 
v 0.00155564 0.0156701 0 
v 0.00124807 0.015609 0.0037 
v 0.00124807 0.015609 0 
v 0.000938129 0.0155614 0.0037 
v 0.000938129 0.0155614 0 
v 0.00062641 0.0155273 0.0037 
v 0.00062641 0.0155273 0 
v 0.000313502 0.0155068 0.0037 
v 0.000313502 0.0155068 0 
v 1.96932e-18 0.0155 0.0037 
v 1.96932e-18 0.0155 0 
v -0.000313502 0.0155068 0.0037 
v -0.000313502 0.0155068 0 
v -0.00062641 0.0155273 0.0037 
v -0.00062641 0.0155273 0 
v -0.000938129 0.0155614 0.0037 
v -0.000938129 0.0155614 0 
v -0.00124807 0.015609 0.0037 
v -0.00124807 0.015609 0 
v -0.00155564 0.0156701 0.0037 
v -0.00155564 0.0156701 0 
v -0.00186026 0.0157445 0.0037 
v -0.00186026 0.0157445 0 
v -0.00216136 0.0158321 0.0037 
v -0.00216136 0.0158321 0 
v -0.00245835 0.0159327 0.0037 
v -0.00245835 0.0159327 0 
v -0.00275068 0.0160461 0.0037 
v -0.00275068 0.0160461 0 
v -0.00303779 0.0161722 0.0037 
v -0.00303779 0.0161722 0 
v -0.00331915 0.0163107 0.0037 
v -0.00331915 0.0163107 0 
v -0.0035942 0.0164613 0.0037 
v -0.0035942 0.0164613 0 
v -0.00386244 0.0166237 0.0037 
v -0.00386244 0.0166237 0 
v -0.00412335 0.0167976 0.0037 
v -0.00412335 0.0167976 0 
v -0.00437644 0.0169828 0.0037 
v -0.00437644 0.0169828 0 
v -0.00462123 0.0171787 0.0037 
v -0.00462123 0.0171787 0 
v -0.00485725 0.0173852 0.0037 
v -0.00485725 0.0173852 0 
v -0.00508406 0.0176017 0.0037 
v -0.00508406 0.0176017 0 
v -0.00530123 0.0178279 0.0037 
v -0.00530123 0.0178279 0 
v -0.00550834 0.0180634 0.0037 
v -0.00550834 0.0180634 0 
v -0.005705 0.0183076 0.0037 
v -0.005705 0.0183076 0 
v -0.00589085 0.0185602 0.0037 
v -0.00589085 0.0185602 0 
v -0.00606551 0.0188206 0.0037 
v -0.00606551 0.0188206 0 
v -0.00622868 0.0190884 0.0037 
v -0.00622868 0.0190884 0 
v -0.00638003 0.019363 0.0037 
v -0.00638003 0.019363 0 
v -0.00651927 0.019644 0.0037 
v -0.00651927 0.019644 0 
v -0.00664615 0.0199308 0.0037 
v -0.00664615 0.0199308 0 
v -0.00667733 0.0200103 0.0037 
v -0.00667733 0.0200103 0 
v -0.00670508 0.0200912 0.0037 
v -0.00670508 0.0200912 0 
v -0.00672934 0.0201731 0.0037 
v -0.00672934 0.0201731 0 
v -0.00675009 0.020256 0.0037 
v -0.00675009 0.020256 0 
v -0.00676728 0.0203397 0.0037 
v -0.00676728 0.0203397 0 
v -0.00678087 0.0204241 0.0037 
v -0.00678087 0.0204241 0 
v -0.00679085 0.0205089 0.0037 
v -0.00679085 0.0205089 0 
v -0.0067972 0.0205941 0.0037 
v -0.0067972 0.0205941 0 
v -0.0067999 0.0206796 0.0037 
v -0.0067999 0.0206796 0 
v -0.00679894 0.020765 0.0037 
v -0.00679894 0.020765 0 
v -0.00679434 0.0208503 0.0037 
v -0.00679434 0.0208503 0 
v -0.0067861 0.0209354 0.0037 
v -0.0067861 0.0209354 0 
v -0.00677423 0.02102 0.0037 
v -0.00677423 0.02102 0 
v -0.00675876 0.0211041 0.0037 
v -0.00675876 0.0211041 0 
v -0.00673971 0.0211874 0.0037 
v -0.00673971 0.0211874 0 
v -0.00671712 0.0212698 0.0037 
v -0.00671712 0.0212698 0 
v -0.00669103 0.0213512 0.0037 
v -0.00669103 0.0213512 0 
v -0.00666149 0.0214313 0.0037 
v -0.00666149 0.0214313 0 
v -0.00662855 0.0215102 0.0037 
v -0.00662855 0.0215102 0 
v -0.00659227 0.0215876 0.0037 
v -0.00659227 0.0215876 0 
v -0.00655272 0.0216633 0.0037 
v -0.00655272 0.0216633 0 
v -0.00650997 0.0217373 0.0037 
v -0.00650997 0.0217373 0 
v -0.0064641 0.0218094 0.0037 
v -0.0064641 0.0218094 0 
v -0.00641519 0.0218795 0.0037 
v -0.00641519 0.0218795 0 
v -0.00636333 0.0219474 0.0037 
v -0.00636333 0.0219474 0 
v -0.00630862 0.022013 0.0037 
v -0.00630862 0.022013 0 
v -0.00625115 0.0220763 0.0037 
v -0.00625115 0.0220763 0 
v -0.00619104 0.022137 0.0037 
v -0.00619104 0.022137 0 
v -0.00612838 0.0221951 0.0037 
v -0.00612838 0.0221951 0 
v -0.0060633 0.0222505 0.0037 
v -0.0060633 0.0222505 0 
v -0.00599592 0.0223031 0.0037 
v -0.00599592 0.0223031 0 
v -0.00592635 0.0223527 0.0037 
v -0.00592635 0.0223527 0 
v -0.00585472 0.0223993 0.0037 
v -0.00585472 0.0223993 0 
v -0.00578117 0.0224428 0.0037 
v -0.00578117 0.0224428 0 
v -0.00570583 0.0224831 0.0037 
v -0.00570583 0.0224831 0 
v -0.00562883 0.0225202 0.0037 
v -0.00562883 0.0225202 0 
v -0.00555032 0.0225539 0.0037 
v -0.00555032 0.0225539 0 
v -0.00547044 0.0225843 0.0037 
v -0.00547044 0.0225843 0 
v -0.00538934 0.0226112 0.0037 
v -0.00538934 0.0226112 0 
v -0.00530716 0.0226346 0.0037 
v -0.00530716 0.0226346 0 
v -0.00522406 0.0226545 0.0037 
v -0.00522406 0.0226545 0 
v -0.00514018 0.0226709 0.0037 
v -0.00514018 0.0226709 0 
v -0.00505568 0.0226836 0.0037 
v -0.00505568 0.0226836 0 
v -0.00497071 0.0226927 0.0037 
v -0.00497071 0.0226927 0 
v -0.00488543 0.0226982 0.0037 
v -0.00488543 0.0226982 0 
v -0.0048 0.0227 0.0037 
v -0.0048 0.0227 0 
v 0.0048 0.0227 0.0037 
v 0.0048 0.0227 0 
v 0.00488543 0.0226982 0.0037 
v 0.00488543 0.0226982 0 
v 0.00497071 0.0226927 0.0037 
v 0.00497071 0.0226927 0 
v 0.00505568 0.0226836 0.0037 
v 0.00505568 0.0226836 0 
v 0.00514018 0.0226709 0.0037 
v 0.00514018 0.0226709 0 
v 0.00522406 0.0226545 0.0037 
v 0.00522406 0.0226545 0 
v 0.00530716 0.0226346 0.0037 
v 0.00530716 0.0226346 0 
v 0.00538934 0.0226112 0.0037 
v 0.00538934 0.0226112 0 
v 0.00547044 0.0225843 0.0037 
v 0.00547044 0.0225843 0 
v 0.00555032 0.0225539 0.0037 
v 0.00555032 0.0225539 0 
v 0.00562883 0.0225202 0.0037 
v 0.00562883 0.0225202 0 
v 0.00570583 0.0224831 0.0037 
v 0.00570583 0.0224831 0 
v 0.00578117 0.0224428 0.0037 
v 0.00578117 0.0224428 0 
v 0.00585472 0.0223993 0.0037 
v 0.00585472 0.0223993 0 
v 0.00592635 0.0223527 0.0037 
v 0.00592635 0.0223527 0 
v 0.00599592 0.0223031 0.0037 
v 0.00599592 0.0223031 0 
v 0.0060633 0.0222505 0.0037 
v 0.0060633 0.0222505 0 
v 0.00612838 0.0221951 0.0037 
v 0.00612838 0.0221951 0 
v 0.00619104 0.022137 0.0037 
v 0.00619104 0.022137 0 
v 0.00625115 0.0220763 0.0037 
v 0.00625115 0.0220763 0 
v 0.00630862 0.022013 0.0037 
v 0.00630862 0.022013 0 
v 0.00636333 0.0219474 0.0037 
v 0.00636333 0.0219474 0 
v 0.00641519 0.0218795 0.0037 
v 0.00641519 0.0218795 0 
v 0.0064641 0.0218094 0.0037 
v 0.0064641 0.0218094 0 
v 0.00650997 0.0217373 0.0037 
v 0.00650997 0.0217373 0 
v 0.00655272 0.0216633 0.0037 
v 0.00655272 0.0216633 0 
v 0.00659227 0.0215876 0.0037 
v 0.00659227 0.0215876 0 
v 0.00662855 0.0215102 0.0037 
v 0.00662855 0.0215102 0 
v 0.00666149 0.0214313 0.0037 
v 0.00666149 0.0214313 0 
v 0.00669103 0.0213512 0.0037 
v 0.00669103 0.0213512 0 
v 0.00671712 0.0212698 0.0037 
v 0.00671712 0.0212698 0 
v 0.00673971 0.0211874 0.0037 
v 0.00673971 0.0211874 0 
v 0.00675876 0.0211041 0.0037 
v 0.00675876 0.0211041 0 
v 0.00677423 0.02102 0.0037 
v 0.00677423 0.02102 0 
v 0.0067861 0.0209354 0.0037 
v 0.0067861 0.0209354 0 
v 0.00679434 0.0208503 0.0037 
v 0.00679434 0.0208503 0 
v 0.00679894 0.020765 0.0037 
v 0.00679894 0.020765 0 
v 0.0067999 0.0206796 0.0037 
v 0.0067999 0.0206796 0 
v 0.0067972 0.0205941 0.0037 
v 0.0067972 0.0205941 0 
v 0.00679085 0.0205089 0.0037 
v 0.00679085 0.0205089 0 
v 0.00678087 0.0204241 0.0037 
v 0.00678087 0.0204241 0 
v 0.00676728 0.0203397 0.0037 
v 0.00676728 0.0203397 0 
v 0.00675009 0.020256 0.0037 
v 0.00675009 0.020256 0 
v 0.00672934 0.0201731 0.0037 
v 0.00672934 0.0201731 0 
v 0.00670508 0.0200912 0.0037 
v 0.00670508 0.0200912 0 
v 0.00667733 0.0200103 0.0037 
v 0.00667733 0.0200103 0 
v 0.00309427 0.018625 0.0037 
v -0.00309427 0.020775 0.0037 
v -0.00309427 0.018625 0.0037 
v 0.00309427 0.020775 0.0037 
v -0.00215 0.018625 0.001675 
v -0.00215 0.020775 0.001675 
v -0.00215 0.018625 0.000758333 
v -0.00215 0.020775 0.000758333 
v -0.0031 0.018625 0.000758333 
v -0.0031 0.020775 0.000758333 
v -0.0031 0.020775 0 
v -0.0031 0.018625 0 
v 0.0031 0.018625 0 
v 0.0031 0.020775 0 
v 0.0031 0.018625 0.000758333 
v 0.0031 0.020775 0.000758333 
v 0.00215 0.018625 0.001675 
v 0.00215 0.018625 0.000758333 
v 0.00215 0.020775 0.000758333 
v 0.00215 0.020775 0.001675 
vn 0.923077 -0.384615 0 
vn 0.905455 -0.424443 0 
vn 0.886115 -0.463466 0 
vn 0.865094 -0.50161 0 
vn 0.842433 -0.538802 0 
vn 0.818173 -0.574972 0 
vn 0.792362 -0.610052 0 
vn 0.765047 -0.643974 0 
vn 0.736282 -0.676675 0 
vn 0.70612 -0.708092 0 
vn 0.674618 -0.738167 0 
vn 0.641837 -0.766841 0 
vn 0.607839 -0.79406 0 
vn 0.572688 -0.819774 0 
vn 0.53645 -0.843932 0 
vn 0.499195 -0.86649 0 
vn 0.460992 -0.887404 0 
vn 0.421916 -0.906635 0 
vn 0.382039 -0.924146 0 
vn 0.341438 -0.939904 0 
vn 0.300188 -0.95388 0 
vn 0.25837 -0.966046 0 
vn 0.216061 -0.97638 0 
vn 0.173343 -0.984862 0 
vn 0.130296 -0.991475 0 
vn 0.0870014 -0.996208 0 
vn 0.043542 -0.999052 0 
vn 1.96005e-15 -1 0 
vn -0.043542 -0.999052 0 
vn -0.0870014 -0.996208 0 
vn -0.130296 -0.991475 0 
vn -0.173343 -0.984862 0 
vn -0.216061 -0.97638 0 
vn -0.25837 -0.966046 0 
vn -0.300188 -0.95388 0 
vn -0.341438 -0.939904 0 
vn -0.382039 -0.924146 0 
vn -0.421916 -0.906635 0 
vn -0.460992 -0.887404 0 
vn -0.499195 -0.86649 0 
vn -0.53645 -0.843932 0 
vn -0.572688 -0.819774 0 
vn -0.607839 -0.79406 0 
vn -0.641837 -0.766841 0 
vn -0.674618 -0.738167 0 
vn -0.70612 -0.708092 0 
vn -0.736282 -0.676675 0 
vn -0.765047 -0.643974 0 
vn -0.792362 -0.610052 0 
vn -0.818173 -0.574972 0 
vn -0.842433 -0.538802 0 
vn -0.865094 -0.50161 0 
vn -0.886115 -0.463466 0 
vn -0.905455 -0.424443 0 
vn -0.923077 -0.384615 0 
vn -0.938664 -0.344833 0 
vn -0.952538 -0.304421 0 
vn -0.964672 -0.263454 0 
vn -0.975045 -0.222005 0 
vn -0.983639 -0.180151 0 
vn -0.990437 -0.137969 0 
vn -0.995426 -0.0955341 0 
vn -0.998598 -0.0529251 0 
vn -0.999948 -0.0102195 0 
vn -0.999472 0.0325048 0 
vn -0.997171 0.0751697 0 
vn -0.99305 0.117697 0 
vn -0.987115 0.16001 0 
vn -0.979379 0.202031 0 
vn -0.969855 0.243683 0 
vn -0.95856 0.28489 0 
vn -0.945516 0.325577 0 
vn -0.930745 0.365669 0 
vn -0.914275 0.405094 0 
vn -0.896136 0.44378 0 
vn -0.876361 0.481655 0 
vn -0.854986 0.518651 0 
vn -0.83205 0.5547 0 
vn -0.807596 0.589737 0 
vn -0.781667 0.623697 0 
vn -0.75431 0.656518 0 
vn -0.725577 0.688141 0 
vn -0.69552 0.718507 0 
vn -0.664192 0.747562 0 
vn -0.631652 0.775252 0 
vn -0.597959 0.801527 0 
vn -0.563174 0.826338 0 
vn -0.527361 0.849641 0 
vn -0.490586 0.871393 0 
vn -0.452915 0.891554 0 
vn -0.414417 0.910087 0 
vn -0.375162 0.926959 0 
vn -0.335222 0.942139 0 
vn -0.294671 0.955599 0 
vn -0.253581 0.967314 0 
vn -0.212029 0.977263 0 
vn -0.17009 0.985429 0 
vn -0.12784 0.991795 0 
vn -0.0853563 0.99635 0 
vn -0.0427172 0.999087 0 
vn -3.06162e-16 1 0 
vn 0.0427172 0.999087 0 
vn 0.0853563 0.99635 0 
vn 0.12784 0.991795 0 
vn 0.17009 0.985429 0 
vn 0.212029 0.977263 0 
vn 0.253581 0.967314 0 
vn 0.294671 0.955599 0 
vn 0.335222 0.942139 0 
vn 0.375162 0.926959 0 
vn 0.414417 0.910087 0 
vn 0.452915 0.891554 0 
vn 0.490586 0.871393 0 
vn 0.527361 0.849641 0 
vn 0.563174 0.826338 0 
vn 0.597959 0.801527 0 
vn 0.631652 0.775252 0 
vn 0.664192 0.747562 0 
vn 0.69552 0.718507 0 
vn 0.725577 0.688141 0 
vn 0.75431 0.656518 0 
vn 0.781667 0.623697 0 
vn 0.807596 0.589737 0 
vn 0.83205 0.5547 0 
vn 0.854986 0.518651 0 
vn 0.876361 0.481655 0 
vn 0.896136 0.44378 0 
vn 0.914275 0.405094 0 
vn 0.930745 0.365669 0 
vn 0.945516 0.325577 0 
vn 0.95856 0.28489 0 
vn 0.969855 0.243683 0 
vn 0.979379 0.202031 0 
vn 0.987115 0.16001 0 
vn 0.99305 0.117697 0 
vn 0.997171 0.0751697 0 
vn 0.999472 0.0325048 0 
vn 0.999948 -0.0102195 0 
vn 0.998598 -0.0529251 0 
vn 0.995426 -0.0955341 0 
vn 0.990437 -0.137969 0 
vn 0.983639 -0.180151 0 
vn 0.975045 -0.222005 0 
vn 0.964672 -0.263454 0 
vn 0.952538 -0.304421 0 
vn 0.938664 -0.344833 0 
vn 0.923077 -0.384615 0 
vn 0 0 1 
vn 0.906308 1.82813e-16 0.422618 
vn 1 2.01712e-16 0 
vn 0 0 -1 
vn -1 0 0 
vn 0 1 0 
vn 0 -1 0 
vn -1 2.01712e-16 0 
vn 0 0 -1 
vn -0.906308 1.82813e-16 0.422618 
usemtl 0.647059_0.647059_0.647059_0.000000_0.000000
o mesh0
f 1//1 2//1 3//2 
f 4//2 3//2 5//3 
f 6//3 5//3 7//4 
f 8//4 7//4 9//5 
f 10//5 9//5 11//6 
f 12//6 11//6 13//7 
f 14//7 13//7 15//8 
f 16//8 15//8 17//9 
f 18//9 17//9 19//10 
f 20//10 19//10 21//11 
f 22//11 21//11 23//12 
f 24//12 23//12 25//13 
f 26//13 25//13 27//14 
f 28//14 27//14 29//15 
f 30//15 29//15 31//16 
f 32//16 31//16 33//17 
f 34//17 33//17 35//18 
f 36//18 35//18 37//19 
f 38//19 37//19 39//20 
f 40//20 39//20 41//21 
f 42//21 41//21 43//22 
f 44//22 43//22 45//23 
f 46//23 45//23 47//24 
f 48//24 47//24 49//25 
f 50//25 49//25 51//26 
f 52//26 51//26 53//27 
f 54//27 53//27 55//28 
f 56//28 55//28 57//29 
f 58//29 57//29 59//30 
f 60//30 59//30 61//31 
f 62//31 61//31 63//32 
f 64//32 63//32 65//33 
f 66//33 65//33 67//34 
f 68//34 67//34 69//35 
f 70//35 69//35 71//36 
f 72//36 71//36 73//37 
f 74//37 73//37 75//38 
f 76//38 75//38 77//39 
f 78//39 77//39 79//40 
f 80//40 79//40 81//41 
f 82//41 81//41 83//42 
f 84//42 83//42 85//43 
f 86//43 85//43 87//44 
f 88//44 87//44 89//45 
f 90//45 89//45 91//46 
f 92//46 91//46 93//47 
f 94//47 93//47 95//48 
f 96//48 95//48 97//49 
f 98//49 97//49 99//50 
f 100//50 99//50 101//51 
f 102//51 101//51 103//52 
f 104//52 103//52 105//53 
f 106//53 105//53 107//54 
f 108//54 107//54 109//55 
f 109//55 110//55 108//54 
f 107//54 108//54 106//53 
f 105//53 106//53 104//52 
f 103//52 104//52 102//51 
f 101//51 102//51 100//50 
f 99//50 100//50 98//49 
f 97//49 98//49 96//48 
f 95//48 96//48 94//47 
f 93//47 94//47 92//46 
f 91//46 92//46 90//45 
f 89//45 90//45 88//44 
f 87//44 88//44 86//43 
f 85//43 86//43 84//42 
f 83//42 84//42 82//41 
f 81//41 82//41 80//40 
f 79//40 80//40 78//39 
f 77//39 78//39 76//38 
f 75//38 76//38 74//37 
f 73//37 74//37 72//36 
f 71//36 72//36 70//35 
f 69//35 70//35 68//34 
f 67//34 68//34 66//33 
f 65//33 66//33 64//32 
f 63//32 64//32 62//31 
f 61//31 62//31 60//30 
f 59//30 60//30 58//29 
f 57//29 58//29 56//28 
f 55//28 56//28 54//27 
f 53//27 54//27 52//26 
f 51//26 52//26 50//25 
f 49//25 50//25 48//24 
f 47//24 48//24 46//23 
f 45//23 46//23 44//22 
f 43//22 44//22 42//21 
f 41//21 42//21 40//20 
f 39//20 40//20 38//19 
f 37//19 38//19 36//18 
f 35//18 36//18 34//17 
f 33//17 34//17 32//16 
f 31//16 32//16 30//15 
f 29//15 30//15 28//14 
f 27//14 28//14 26//13 
f 25//13 26//13 24//12 
f 23//12 24//12 22//11 
f 21//11 22//11 20//10 
f 19//10 20//10 18//9 
f 17//9 18//9 16//8 
f 15//8 16//8 14//7 
f 13//7 14//7 12//6 
f 11//6 12//6 10//5 
f 9//5 10//5 8//4 
f 7//4 8//4 6//3 
f 5//3 6//3 4//2 
f 3//2 4//2 1//1 
o mesh1
f 110//55 109//55 111//56 
f 112//56 111//56 113//57 
f 114//57 113//57 115//58 
f 116//58 115//58 117//59 
f 118//59 117//59 119//60 
f 120//60 119//60 121//61 
f 122//61 121//61 123//62 
f 124//62 123//62 125//63 
f 126//63 125//63 127//64 
f 128//64 127//64 129//65 
f 130//65 129//65 131//66 
f 132//66 131//66 133//67 
f 134//67 133//67 135//68 
f 136//68 135//68 137//69 
f 138//69 137//69 139//70 
f 140//70 139//70 141//71 
f 142//71 141//71 143//72 
f 144//72 143//72 145//73 
f 146//73 145//73 147//74 
f 148//74 147//74 149//75 
f 150//75 149//75 151//76 
f 152//76 151//76 153//77 
f 154//77 153//77 155//78 
f 156//78 155//78 157//79 
f 158//79 157//79 159//80 
f 160//80 159//80 161//81 
f 162//81 161//81 163//82 
f 164//82 163//82 165//83 
f 166//83 165//83 167//84 
f 168//84 167//84 169//85 
f 170//85 169//85 171//86 
f 172//86 171//86 173//87 
f 174//87 173//87 175//88 
f 176//88 175//88 177//89 
f 178//89 177//89 179//90 
f 180//90 179//90 181//91 
f 182//91 181//91 183//92 
f 184//92 183//92 185//93 
f 186//93 185//93 187//94 
f 188//94 187//94 189//95 
f 190//95 189//95 191//96 
f 192//96 191//96 193//97 
f 194//97 193//97 195//98 
f 196//98 195//98 197//99 
f 198//99 197//99 199//100 
f 200//100 199//100 201//101 
f 201//101 202//101 200//100 
f 199//100 200//100 198//99 
f 197//99 198//99 196//98 
f 195//98 196//98 194//97 
f 193//97 194//97 192//96 
f 191//96 192//96 190//95 
f 189//95 190//95 188//94 
f 187//94 188//94 186//93 
f 185//93 186//93 184//92 
f 183//92 184//92 182//91 
f 181//91 182//91 180//90 
f 179//90 180//90 178//89 
f 177//89 178//89 176//88 
f 175//88 176//88 174//87 
f 173//87 174//87 172//86 
f 171//86 172//86 170//85 
f 169//85 170//85 168//84 
f 167//84 168//84 166//83 
f 165//83 166//83 164//82 
f 163//82 164//82 162//81 
f 161//81 162//81 160//80 
f 159//80 160//80 158//79 
f 157//79 158//79 156//78 
f 155//78 156//78 154//77 
f 153//77 154//77 152//76 
f 151//76 152//76 150//75 
f 149//75 150//75 148//74 
f 147//74 148//74 146//73 
f 145//73 146//73 144//72 
f 143//72 144//72 142//71 
f 141//71 142//71 140//70 
f 139//70 140//70 138//69 
f 137//69 138//69 136//68 
f 135//68 136//68 134//67 
f 133//67 134//67 132//66 
f 131//66 132//66 130//65 
f 129//65 130//65 128//64 
f 127//64 128//64 126//63 
f 125//63 126//63 124//62 
f 123//62 124//62 122//61 
f 121//61 122//61 120//60 
f 119//60 120//60 118//59 
f 117//59 118//59 116//58 
f 115//58 116//58 114//57 
f 113//57 114//57 112//56 
f 111//56 112//56 110//55 
o mesh2
f 203//101 204//101 202//101 
f 202//101 201//101 203//101 
o mesh3
f 204//101 203//101 205//102 
f 206//102 205//102 207//103 
f 208//103 207//103 209//104 
f 210//104 209//104 211//105 
f 212//105 211//105 213//106 
f 214//106 213//106 215//107 
f 216//107 215//107 217//108 
f 218//108 217//108 219//109 
f 220//109 219//109 221//110 
f 222//110 221//110 223//111 
f 224//111 223//111 225//112 
f 226//112 225//112 227//113 
f 228//113 227//113 229//114 
f 230//114 229//114 231//115 
f 232//115 231//115 233//116 
f 234//116 233//116 235//117 
f 236//117 235//117 237//118 
f 238//118 237//118 239//119 
f 240//119 239//119 241//120 
f 242//120 241//120 243//121 
f 244//121 243//121 245//122 
f 246//122 245//122 247//123 
f 248//123 247//123 249//124 
f 250//124 249//124 251//125 
f 252//125 251//125 253//126 
f 254//126 253//126 255//127 
f 256//127 255//127 257//128 
f 258//128 257//128 259//129 
f 260//129 259//129 261//130 
f 262//130 261//130 263//131 
f 264//131 263//131 265//132 
f 266//132 265//132 267//133 
f 268//133 267//133 269//134 
f 270//134 269//134 271//135 
f 272//135 271//135 273//136 
f 274//136 273//136 275//137 
f 276//137 275//137 277//138 
f 278//138 277//138 279//139 
f 280//139 279//139 281//140 
f 282//140 281//140 283//141 
f 284//141 283//141 285//142 
f 286//142 285//142 287//143 
f 288//143 287//143 289//144 
f 290//144 289//144 291//145 
f 292//145 291//145 293//146 
f 294//146 293//146 2//147 
f 2//147 1//147 294//146 
f 293//146 294//146 292//145 
f 291//145 292//145 290//144 
f 289//144 290//144 288//143 
f 287//143 288//143 286//142 
f 285//142 286//142 284//141 
f 283//141 284//141 282//140 
f 281//140 282//140 280//139 
f 279//139 280//139 278//138 
f 277//138 278//138 276//137 
f 275//137 276//137 274//136 
f 273//136 274//136 272//135 
f 271//135 272//135 270//134 
f 269//134 270//134 268//133 
f 267//133 268//133 266//132 
f 265//132 266//132 264//131 
f 263//131 264//131 262//130 
f 261//130 262//130 260//129 
f 259//129 260//129 258//128 
f 257//128 258//128 256//127 
f 255//127 256//127 254//126 
f 253//126 254//126 252//125 
f 251//125 252//125 250//124 
f 249//124 250//124 248//123 
f 247//123 248//123 246//122 
f 245//122 246//122 244//121 
f 243//121 244//121 242//120 
f 241//120 242//120 240//119 
f 239//119 240//119 238//118 
f 237//118 238//118 236//117 
f 235//117 236//117 234//116 
f 233//116 234//116 232//115 
f 231//115 232//115 230//114 
f 229//114 230//114 228//113 
f 227//113 228//113 226//112 
f 225//112 226//112 224//111 
f 223//111 224//111 222//110 
f 221//110 222//110 220//109 
f 219//109 220//109 218//108 
f 217//108 218//108 216//107 
f 215//107 216//107 214//106 
f 213//106 214//106 212//105 
f 211//105 212//105 210//104 
f 209//104 210//104 208//103 
f 207//103 208//103 206//102 
f 205//102 206//102 204//101 
o mesh4
f 295//148 15//148 13//148 
f 295//148 19//148 17//148 
f 17//148 15//148 295//148 
f 296//148 197//148 195//148 
f 295//148 21//148 19//148 
f 195//148 193//148 296//148 
f 295//148 11//148 9//148 
f 295//148 23//148 21//148 
f 296//148 137//148 135//148 
f 296//148 155//148 153//148 
f 296//148 163//148 161//148 
f 296//148 185//148 183//148 
f 193//148 191//148 296//148 
f 295//148 7//148 5//148 
f 13//148 11//148 295//148 
f 91//148 89//148 297//148 
f 296//148 95//148 93//148 
f 296//148 121//148 119//148 
f 296//148 129//148 127//148 
f 296//148 133//148 131//148 
f 296//148 139//148 137//148 
f 296//148 145//148 143//148 
f 296//148 149//148 147//148 
f 296//148 157//148 155//148 
f 161//148 159//148 296//148 
f 296//148 167//148 165//148 
f 296//148 179//148 177//148 
f 296//148 187//148 185//148 
f 191//148 189//148 296//148 
f 209//148 207//148 298//148 
f 295//148 279//148 277//148 
f 295//148 283//148 281//148 
f 9//148 7//148 295//148 
f 93//148 91//148 296//148 
f 296//148 99//148 97//148 
f 296//148 103//148 101//148 
f 296//148 123//148 121//148 
f 127//148 125//148 296//148 
f 135//148 133//148 296//148 
f 143//148 141//148 296//148 
f 296//148 151//148 149//148 
f 159//148 157//148 296//148 
f 296//148 169//148 167//148 
f 296//148 181//148 179//148 
f 189//148 187//148 296//148 
f 295//148 31//148 29//148 
f 295//148 211//148 209//148 
f 295//148 273//148 271//148 
f 281//148 279//148 295//148 
f 295//148 287//148 285//148 
f 5//148 3//148 295//148 
f 297//148 296//148 91//148 
f 101//148 99//148 296//148 
f 296//148 107//148 105//148 
f 296//148 115//148 113//148 
f 125//148 123//148 296//148 
f 141//148 139//148 296//148 
f 153//148 151//148 296//148 
f 296//148 171//148 169//148 
f 296//148 175//148 173//148 
f 183//148 181//148 296//148 
f 295//148 33//148 31//148 
f 295//148 37//148 35//148 
f 297//148 57//148 55//148 
f 297//148 61//148 59//148 
f 297//148 65//148 63//148 
f 297//148 69//148 67//148 
f 297//148 73//148 71//148 
f 297//148 79//148 77//148 
f 297//148 83//148 81//148 
f 297//148 87//148 85//148 
f 295//148 213//148 211//148 
f 295//148 255//148 253//148 
f 295//148 261//148 259//148 
f 295//148 265//148 263//148 
f 295//148 275//148 273//148 
f 285//148 283//148 295//148 
f 3//148 2//148 295//148 
f 97//148 95//148 296//148 
f 296//148 109//148 107//148 
f 296//148 117//148 115//148 
f 131//148 129//148 296//148 
f 165//148 163//148 296//148 
f 177//148 175//148 296//148 
f 35//148 33//148 295//148 
f 295//148 41//148 39//148 
f 295//148 53//148 51//148 
f 55//148 295//148 297//148 
f 63//148 61//148 297//148 
f 71//148 69//148 297//148 
f 77//148 75//148 297//148 
f 85//148 83//148 297//148 
f 295//148 215//148 213//148 
f 295//148 219//148 217//148 
f 295//148 245//148 243//148 
f 295//148 257//148 255//148 
f 263//148 261//148 295//148 
f 295//148 269//148 267//148 
f 277//148 275//148 295//148 
f 2//148 293//148 295//148 
f 203//148 201//148 296//148 
f 298//148 207//148 205//148 
f 105//148 103//148 296//148 
f 119//148 117//148 296//148 
f 173//148 171//148 296//148 
f 295//148 27//148 25//148 
f 39//148 37//148 295//148 
f 295//148 49//148 47//148 
f 55//148 53//148 295//148 
f 67//148 65//148 297//148 
f 81//148 79//148 297//148 
f 217//148 215//148 295//148 
f 295//148 223//148 221//148 
f 295//148 227//148 225//148 
f 295//148 239//148 237//148 
f 243//148 241//148 295//148 
f 295//148 251//148 249//148 
f 259//148 257//148 295//148 
f 271//148 269//148 295//148 
f 293//148 291//148 295//148 
f 296//148 201//148 199//148 
f 205//148 203//148 298//148 
f 296//148 111//148 109//148 
f 147//148 145//148 296//148 
f 29//148 27//148 295//148 
f 295//148 45//148 43//148 
f 51//148 49//148 295//148 
f 75//148 73//148 297//148 
f 221//148 219//148 295//148 
f 295//148 229//148 227//148 
f 295//148 233//148 231//148 
f 241//148 239//148 295//148 
f 249//148 247//148 295//148 
f 267//148 265//148 295//148 
f 291//148 289//148 295//148 
f 296//148 298//148 203//148 
f 113//148 111//148 296//148 
f 43//148 41//148 295//148 
f 59//148 57//148 297//148 
f 225//148 223//148 295//148 
f 295//148 235//148 233//148 
f 247//148 245//148 295//148 
f 289//148 287//148 295//148 
f 89//148 87//148 297//148 
f 47//148 45//148 295//148 
f 231//148 229//148 295//148 
f 253//148 251//148 295//148 
f 25//148 23//148 295//148 
f 237//148 235//148 295//148 
f 298//148 295//148 209//148 
f 199//148 197//148 296//148 
o mesh5
f 299//149 300//149 296//149 
f 296//149 297//149 299//149 
o mesh6
f 301//150 302//150 300//150 
f 300//150 299//150 301//150 
o mesh7
f 302//151 301//151 303//151 
f 303//151 304//151 302//151 
o mesh8
f 305//150 304//150 303//150 
f 303//150 306//150 305//150 
o mesh9
f 307//151 16//151 18//151 
f 18//151 20//151 307//151 
f 307//151 12//151 14//151 
f 14//151 16//151 307//151 
f 20//151 22//151 307//151 
f 307//151 8//151 10//151 
f 10//151 12//151 307//151 
f 307//151 4//151 6//151 
f 305//151 92//151 94//151 
f 92//151 305//151 306//151 
f 6//151 8//151 307//151 
f 307//151 280//151 282//151 
f 307//151 276//151 278//151 
f 305//151 100//151 102//151 
f 305//151 96//151 98//151 
f 306//151 90//151 92//151 
f 307//151 1//151 4//151 
f 307//151 284//151 286//151 
f 278//151 280//151 307//151 
f 307//151 270//151 272//151 
f 212//151 307//151 308//151 
f 305//151 106//151 108//151 
f 98//151 100//151 305//151 
f 306//151 88//151 90//151 
f 307//151 294//151 1//151 
f 282//151 284//151 307//151 
f 272//151 274//151 307//151 
f 307//151 262//151 264//151 
f 307//151 258//151 260//151 
f 307//151 252//151 254//151 
f 308//151 210//151 212//151 
f 307//151 28//151 30//151 
f 305//151 192//151 194//151 
f 305//151 104//151 106//151 
f 94//151 96//151 305//151 
f 307//151 292//151 294//151 
f 274//151 276//151 307//151 
f 307//151 266//151 268//151 
f 260//151 262//151 307//151 
f 254//151 256//151 307//151 
f 307//151 242//151 244//151 
f 307//151 216//151 218//151 
f 212//151 214//151 307//151 
f 306//151 84//151 86//151 
f 306//151 80//151 82//151 
f 306//151 76//151 78//151 
f 306//151 70//151 72//151 
f 306//151 66//151 68//151 
f 306//151 62//151 64//151 
f 306//151 58//151 60//151 
f 306//151 307//151 56//151 
f 307//151 34//151 36//151 
f 30//151 32//151 307//151 
f 305//151 190//151 192//151 
f 305//151 182//151 184//151 
f 305//151 160//151 162//151 
f 305//151 152//151 154//151 
f 305//151 136//151 138//151 
f 102//151 104//151 305//151 
f 307//151 290//151 292//151 
f 268//151 270//151 307//151 
f 256//151 258//151 307//151 
f 307//151 248//151 250//151 
f 307//151 240//151 242//151 
f 307//151 236//151 238//151 
f 307//151 224//151 226//151 
f 307//151 220//151 222//151 
f 214//151 216//151 307//151 
f 82//151 84//151 306//151 
f 306//151 74//151 76//151 
f 68//151 70//151 306//151 
f 60//151 62//151 306//151 
f 307//151 54//151 56//151 
f 307//151 50//151 52//151 
f 307//151 38//151 40//151 
f 32//151 34//151 307//151 
f 305//151 188//151 190//151 
f 184//151 186//151 305//151 
f 305//151 176//151 178//151 
f 305//151 164//151 166//151 
f 305//151 158//151 160//151 
f 154//151 156//151 305//151 
f 305//151 146//151 148//151 
f 305//151 142//151 144//151 
f 305//151 134//151 136//151 
f 305//151 130//151 132//151 
f 305//151 126//151 128//151 
f 305//151 118//151 120//151 
f 108//151 110//151 305//151 
f 307//151 288//151 290//151 
f 264//151 266//151 307//151 
f 307//151 246//151 248//151 
f 238//151 240//151 307//151 
f 307//151 230//151 232//151 
f 226//151 228//151 307//151 
f 218//151 220//151 307//151 
f 78//151 80//151 306//151 
f 64//151 66//151 306//151 
f 52//151 54//151 307//151 
f 307//151 46//151 48//151 
f 36//151 38//151 307//151 
f 307//151 24//151 26//151 
f 186//151 188//151 305//151 
f 178//151 180//151 305//151 
f 166//151 168//151 305//151 
f 156//151 158//151 305//151 
f 148//151 150//151 305//151 
f 305//151 140//151 142//151 
f 132//151 134//151 305//151 
f 305//151 124//151 126//151 
f 120//151 122//151 305//151 
f 110//151 112//151 305//151 
f 286//151 288//151 307//151 
f 244//151 246//151 307//151 
f 232//151 234//151 307//151 
f 222//151 224//151 307//151 
f 72//151 74//151 306//151 
f 48//151 50//151 307//151 
f 307//151 42//151 44//151 
f 26//151 28//151 307//151 
f 180//151 182//151 305//151 
f 305//151 172//151 174//151 
f 168//151 170//151 305//151 
f 150//151 152//151 305//151 
f 138//151 140//151 305//151 
f 122//151 124//151 305//151 
f 112//151 114//151 305//151 
f 308//151 204//151 206//151 
f 250//151 252//151 307//151 
f 228//151 230//151 307//151 
f 56//151 58//151 306//151 
f 40//151 42//151 307//151 
f 174//151 176//151 305//151 
f 162//151 164//151 305//151 
f 128//151 130//151 305//151 
f 114//151 116//151 305//151 
f 206//151 208//151 308//151 
f 202//151 204//151 308//151 
f 305//151 198//151 200//151 
f 234//151 236//151 307//151 
f 44//151 46//151 307//151 
f 170//151 172//151 305//151 
f 116//151 118//151 305//151 
f 308//151 305//151 202//151 
f 305//151 196//151 198//151 
f 86//151 88//151 306//151 
f 144//151 146//151 305//151 
f 200//151 202//151 305//151 
f 194//151 196//151 305//151 
f 22//151 24//151 307//151 
f 208//151 210//151 308//151 
o mesh10
f 307//152 309//152 310//152 
f 310//152 308//152 307//152 
o mesh11
f 301//153 299//153 311//153 
f 299//153 295//153 311//153 
f 311//153 312//153 301//153 
f 306//153 303//153 301//153 
f 307//153 306//153 312//153 
f 301//153 312//153 306//153 
f 299//153 297//153 295//153 
f 312//153 309//153 307//153 
o mesh12
f 313//154 314//154 300//154 
f 314//154 296//154 300//154 
f 300//154 302//154 313//154 
f 308//154 310//154 313//154 
f 305//154 308//154 302//154 
f 313//154 302//154 308//154 
f 314//154 298//154 296//154 
f 302//154 304//154 305//154 
o mesh13
f 311//155 314//155 313//155 
f 313//155 312//155 311//155 
o mesh14
f 310//156 309//156 312//156 
f 312//156 313//156 310//156 
o mesh15
f 295//157 298//157 314//157 
f 314//157 311//157 295//157 
